<?xml version="1.0" encoding="UTF-8" standalone="no"?>
<svg
   xmlns:dc="http://purl.org/dc/elements/1.1/"
   xmlns:cc="http://creativecommons.org/ns#"
   xmlns:rdf="http://www.w3.org/1999/02/22-rdf-syntax-ns#"
   xmlns:svg="http://www.w3.org/2000/svg"
   xmlns="http://www.w3.org/2000/svg"
   xmlns:sodipodi="http://sodipodi.sourceforge.net/DTD/sodipodi-0.dtd"
   xmlns:inkscape="http://www.inkscape.org/namespaces/inkscape"
   fill-opacity="1"
   color-rendering="auto"
   color-interpolation="auto"
   stroke="black"
   text-rendering="auto"
   stroke-linecap="square"
   width="4.270833333333333in"
   stroke-miterlimit="10"
   stroke-opacity="1"
   shape-rendering="auto"
   fill="black"
   stroke-dasharray="none"
   font-weight="normal"
   stroke-width="1"
   viewBox="0 0 410 232"
   height="2.4166666666666665in"
   font-family="'Arial'"
   font-style="normal"
   stroke-linejoin="miter"
   font-size="12"
   stroke-dashoffset="0"
   image-rendering="auto"
   id="svg2"
   version="1.1"
   inkscape:version="0.91 r13725"
   sodipodi:docname="Cas d'utilisation.svg"
   inkscape:export-filename="F:\GitHub_Clef\TP_Documents\PiloteAutomatiqueHydraulique\ModeleSysml\Cas d'utilisation.png"
   inkscape:export-xdpi="300"
   inkscape:export-ydpi="300">
  <metadata
     id="metadata138">
    <rdf:RDF>
      <cc:Work
         rdf:about="">
        <dc:format>image/svg+xml</dc:format>
        <dc:type
           rdf:resource="http://purl.org/dc/dcmitype/StillImage" />
      </cc:Work>
    </rdf:RDF>
  </metadata>
  <sodipodi:namedview
     pagecolor="#ffffff"
     bordercolor="#666666"
     borderopacity="1"
     objecttolerance="10"
     gridtolerance="10"
     guidetolerance="10"
     inkscape:pageopacity="0"
     inkscape:pageshadow="2"
     inkscape:window-width="1920"
     inkscape:window-height="1018"
     id="namedview136"
     showgrid="false"
     inkscape:zoom="2.6196293"
     inkscape:cx="91.033941"
     inkscape:cy="63.747997"
     inkscape:window-x="-8"
     inkscape:window-y="12"
     inkscape:window-maximized="1"
     inkscape:current-layer="g5" />
  <!--Generated by the Batik Graphics2D SVG Generator
 This is MagicDraw diagram.-->
  <defs
     id="genericDefs" />
  <g
     id="g5">
    <defs
       id="defs1">
      <linearGradient
         x1="147"
         gradientUnits="userSpaceOnUse"
         x2="375"
         y1="35"
         y2="197"
         id="linearGradient1"
         spreadMethod="pad">
        <stop
           stop-opacity="1"
           stop-color="rgb(212,221,255)"
           offset="0%"
           id="stop9" />
        <stop
           stop-opacity="1"
           stop-color="white"
           offset="100%"
           id="stop11" />
      </linearGradient>
      <linearGradient
         x1="175"
         gradientUnits="userSpaceOnUse"
         x2="357"
         y1="133"
         y2="193"
         id="linearGradient2"
         spreadMethod="pad">
        <stop
           stop-opacity="1"
           stop-color="rgb(255,255,204)"
           offset="0%"
           id="stop14" />
        <stop
           stop-opacity="1"
           stop-color="white"
           offset="100%"
           id="stop16" />
      </linearGradient>
      <linearGradient
         x1="196"
         gradientUnits="userSpaceOnUse"
         x2="336"
         y1="70"
         y2="112"
         id="linearGradient3"
         spreadMethod="pad">
        <stop
           stop-opacity="1"
           stop-color="rgb(255,255,204)"
           offset="0%"
           id="stop19" />
        <stop
           stop-opacity="1"
           stop-color="white"
           offset="100%"
           id="stop21" />
      </linearGradient>
      <linearGradient
         x1="52"
         gradientUnits="userSpaceOnUse"
         x2="79"
         y1="98"
         y2="125"
         id="linearGradient4"
         spreadMethod="pad">
        <stop
           stop-opacity="1"
           stop-color="rgb(255,255,204)"
           offset="0%"
           id="stop24" />
        <stop
           stop-opacity="1"
           stop-color="white"
           offset="100%"
           id="stop26" />
      </linearGradient>
      <clipPath
         clipPathUnits="userSpaceOnUse"
         id="clipPath1">
        <path
           d="M0 -5 L410 -5 L410 232 L0 232 L0 -5 Z"
           id="path29" />
      </clipPath>
      <clipPath
         clipPathUnits="userSpaceOnUse"
         id="clipPath2">
        <path
           d="M22.2732 195.7999 L136.7943 -177.007 L339.4482 -114.7545 L224.9272 258.0523 L22.2732 195.7999 Z"
           id="path32" />
      </clipPath>
    </defs>
    <g
       fill="white"
       stroke="white"
       id="g34">
      <rect
         x="5"
         width="390"
         height="212"
         y="5"
         clip-path="url(#clipPath1)"
         stroke="none"
         id="rect36" />
    </g>
    <g
       fill="rgb(66,66,66)"
       text-rendering="geometricPrecision"
       stroke-linejoin="round"
       stroke-linecap="butt"
       stroke="rgb(66,66,66)"
       id="g48">
      <rect
         fill="none"
         x="5"
         width="390"
         height="212"
         y="5"
         clip-path="url(#clipPath1)"
         id="rect50" />
      <path
         fill="black"
         d="M110.4688 15.7322 L111.5156 15.9978 Q111.1875 17.2791 110.3359 17.9587 Q109.4844 18.6384 108.25 18.6384 Q106.9688 18.6384 106.1719 18.115 Q105.375 17.5916 104.9609 16.6072 Q104.5469 15.6228 104.5469 14.4978 Q104.5469 13.2791 105.0156 12.3572 Q105.4844 11.4353 106.3516 10.9587 Q107.2188 10.4822 108.2656 10.4822 Q109.4531 10.4822 110.2578 11.0837 Q111.0625 11.6853 111.375 12.7791 L110.3438 13.0291 Q110.0781 12.1697 109.5547 11.7791 Q109.0312 11.3884 108.25 11.3884 Q107.3281 11.3884 106.7188 11.8181 Q106.1094 12.2478 105.8672 12.9822 Q105.625 13.7166 105.625 14.4978 Q105.625 15.4978 105.9141 16.2478 Q106.2031 16.9978 106.8203 17.3728 Q107.4375 17.7478 108.1562 17.7478 Q109.0312 17.7478 109.6406 17.24 Q110.25 16.7322 110.4688 15.7322 ZM115.4531 17.7947 Q114.9062 18.2478 114.4141 18.4353 Q113.9219 18.6228 113.3438 18.6228 Q112.4062 18.6228 111.8984 18.1619 Q111.3906 17.7009 111.3906 16.9978 Q111.3906 16.5759 111.5859 16.2322 Q111.7812 15.8884 112.0859 15.6775 Q112.3906 15.4666 112.7812 15.3572 Q113.0625 15.2791 113.6406 15.2166 Q114.8125 15.0759 115.3594 14.8728 Q115.375 14.6853 115.375 14.6228 Q115.375 14.0291 115.0938 13.7947 Q114.7344 13.4666 114 13.4666 Q113.3125 13.4666 112.9922 13.7009 Q112.6719 13.9353 112.5156 14.5447 L111.5625 14.4197 Q111.6875 13.8103 111.9844 13.4353 Q112.2812 13.0603 112.8438 12.865 Q113.4062 12.6697 114.1406 12.6697 Q114.875 12.6697 115.3281 12.8416 Q115.7812 13.0134 115.9922 13.2712 Q116.2031 13.5291 116.2969 13.9197 Q116.3438 14.1697 116.3438 14.8259 L116.3438 16.1072 Q116.3438 17.4509 116.4062 17.8103 Q116.4688 18.1697 116.6562 18.4978 L115.6406 18.4978 Q115.4844 18.2009 115.4531 17.7947 ZM115.3594 15.6384 Q114.8438 15.8572 113.7812 15.9978 Q113.1875 16.0916 112.9453 16.1931 Q112.7031 16.2947 112.5625 16.5056 Q112.4219 16.7166 112.4219 16.9666 Q112.4219 17.3572 112.7188 17.615 Q113.0156 17.8728 113.5781 17.8728 Q114.1406 17.8728 114.5703 17.6228 Q115 17.3728 115.2188 16.9509 Q115.3594 16.6228 115.3594 15.9822 L115.3594 15.6384 ZM117.3438 16.7947 L118.2969 16.6384 Q118.375 17.2166 118.7422 17.5212 Q119.1094 17.8259 119.7656 17.8259 Q120.4375 17.8259 120.7578 17.5603 Q121.0781 17.2947 121.0781 16.9197 Q121.0781 16.5916 120.7969 16.4041 Q120.5938 16.2791 119.8125 16.0759 Q118.75 15.8103 118.3359 15.615 Q117.9219 15.4197 117.7109 15.0759 Q117.5 14.7322 117.5 14.3103 Q117.5 13.9197 117.6719 13.5994 Q117.8438 13.2791 118.1562 13.0603 Q118.375 12.8884 118.7656 12.7791 Q119.1562 12.6697 119.5938 12.6697 Q120.2656 12.6697 120.7734 12.8572 Q121.2812 13.0447 121.5234 13.3806 Q121.7656 13.7166 121.8594 14.2634 L120.9219 14.3884 Q120.8438 13.9509 120.5391 13.7087 Q120.2344 13.4666 119.6719 13.4666 Q119 13.4666 118.7188 13.6853 Q118.4375 13.9041 118.4375 14.2009 Q118.4375 14.3884 118.5469 14.5291 Q118.6719 14.6853 118.9219 14.7947 Q119.0625 14.8416 119.7812 15.0447 Q120.7969 15.3103 121.2031 15.4822 Q121.6094 15.6541 121.8438 15.99 Q122.0781 16.3259 122.0781 16.8259 Q122.0781 17.3103 121.7969 17.7322 Q121.5156 18.1541 120.9844 18.3884 Q120.4531 18.6228 119.7812 18.6228 Q118.6719 18.6228 118.0859 18.1619 Q117.5 17.7009 117.3438 16.7947 ZM130.4219 18.4978 L130.4219 17.7791 Q129.8906 18.6228 128.8281 18.6228 Q128.1562 18.6228 127.5781 18.2478 Q127 17.8728 126.6875 17.2009 Q126.375 16.5291 126.375 15.6541 Q126.375 14.7947 126.6641 14.0994 Q126.9531 13.4041 127.5156 13.0369 Q128.0781 12.6697 128.7812 12.6697 Q129.2969 12.6697 129.7031 12.8884 Q130.1094 13.1072 130.3594 13.4509 L130.3594 10.6228 L131.3281 10.6228 L131.3281 18.4978 L130.4219 18.4978 ZM127.375 15.6541 Q127.375 16.7478 127.8359 17.2869 Q128.2969 17.8259 128.9219 17.8259 Q129.5625 17.8259 130 17.3103 Q130.4375 16.7947 130.4375 15.7322 Q130.4375 14.5603 129.9922 14.0134 Q129.5469 13.4666 128.875 13.4666 Q128.2344 13.4666 127.8047 13.99 Q127.375 14.5134 127.375 15.6541 ZM132.7344 13.4041 L132.4844 11.9353 L132.4844 10.6228 L133.5781 10.6228 L133.5781 11.9353 L133.3281 13.4041 L132.7344 13.4041 ZM138.4688 18.4978 L138.4688 17.6541 Q137.7969 18.6228 136.6562 18.6228 Q136.1562 18.6228 135.7109 18.4275 Q135.2656 18.2322 135.0547 17.9431 Q134.8438 17.6541 134.7656 17.2322 Q134.7031 16.9509 134.7031 16.3259 L134.7031 12.7947 L135.6719 12.7947 L135.6719 15.9509 Q135.6719 16.7166 135.7344 16.9822 Q135.8281 17.3572 136.1172 17.5759 Q136.4062 17.7947 136.8438 17.7947 Q137.2812 17.7947 137.6641 17.5681 Q138.0469 17.3416 138.2031 16.9587 Q138.3594 16.5759 138.3594 15.8572 L138.3594 12.7947 L139.3281 12.7947 L139.3281 18.4978 L138.4688 18.4978 ZM142.8438 17.6384 L142.9688 18.4822 Q142.5625 18.5759 142.25 18.5759 Q141.7188 18.5759 141.4297 18.4041 Q141.1406 18.2322 141.0234 17.9666 Q140.9062 17.7009 140.9062 16.8259 L140.9062 13.5447 L140.1875 13.5447 L140.1875 12.7947 L140.9062 12.7947 L140.9062 11.3884 L141.8594 10.7947 L141.8594 12.7947 L142.8438 12.7947 L142.8438 13.5447 L141.8594 13.5447 L141.8594 16.8884 Q141.8594 17.2947 141.9141 17.4119 Q141.9688 17.5291 142.0859 17.5994 Q142.2031 17.6697 142.4062 17.6697 Q142.5781 17.6697 142.8438 17.6384 ZM143.7344 11.7322 L143.7344 10.6228 L144.7031 10.6228 L144.7031 11.7322 L143.7344 11.7322 ZM143.7344 18.4978 L143.7344 12.7947 L144.7031 12.7947 L144.7031 18.4978 L143.7344 18.4978 ZM145.7031 18.4978 L145.7031 10.6228 L146.6719 10.6228 L146.6719 18.4978 L145.7031 18.4978 ZM147.7344 11.7322 L147.7344 10.6228 L148.7031 10.6228 L148.7031 11.7322 L147.7344 11.7322 ZM147.7344 18.4978 L147.7344 12.7947 L148.7031 12.7947 L148.7031 18.4978 L147.7344 18.4978 ZM149.3438 16.7947 L150.2969 16.6384 Q150.375 17.2166 150.7422 17.5212 Q151.1094 17.8259 151.7656 17.8259 Q152.4375 17.8259 152.7578 17.5603 Q153.0781 17.2947 153.0781 16.9197 Q153.0781 16.5916 152.7969 16.4041 Q152.5938 16.2791 151.8125 16.0759 Q150.75 15.8103 150.3359 15.615 Q149.9219 15.4197 149.7109 15.0759 Q149.5 14.7322 149.5 14.3103 Q149.5 13.9197 149.6719 13.5994 Q149.8438 13.2791 150.1562 13.0603 Q150.375 12.8884 150.7656 12.7791 Q151.1562 12.6697 151.5938 12.6697 Q152.2656 12.6697 152.7734 12.8572 Q153.2812 13.0447 153.5234 13.3806 Q153.7656 13.7166 153.8594 14.2634 L152.9219 14.3884 Q152.8438 13.9509 152.5391 13.7087 Q152.2344 13.4666 151.6719 13.4666 Q151 13.4666 150.7188 13.6853 Q150.4375 13.9041 150.4375 14.2009 Q150.4375 14.3884 150.5469 14.5291 Q150.6719 14.6853 150.9219 14.7947 Q151.0625 14.8416 151.7812 15.0447 Q152.7969 15.3103 153.2031 15.4822 Q153.6094 15.6541 153.8438 15.99 Q154.0781 16.3259 154.0781 16.8259 Q154.0781 17.3103 153.7969 17.7322 Q153.5156 18.1541 152.9844 18.3884 Q152.4531 18.6228 151.7812 18.6228 Q150.6719 18.6228 150.0859 18.1619 Q149.5 17.7009 149.3438 16.7947 ZM159.4531 17.7947 Q158.9062 18.2478 158.4141 18.4353 Q157.9219 18.6228 157.3438 18.6228 Q156.4062 18.6228 155.8984 18.1619 Q155.3906 17.7009 155.3906 16.9978 Q155.3906 16.5759 155.5859 16.2322 Q155.7812 15.8884 156.0859 15.6775 Q156.3906 15.4666 156.7812 15.3572 Q157.0625 15.2791 157.6406 15.2166 Q158.8125 15.0759 159.3594 14.8728 Q159.375 14.6853 159.375 14.6228 Q159.375 14.0291 159.0938 13.7947 Q158.7344 13.4666 158 13.4666 Q157.3125 13.4666 156.9922 13.7009 Q156.6719 13.9353 156.5156 14.5447 L155.5625 14.4197 Q155.6875 13.8103 155.9844 13.4353 Q156.2812 13.0603 156.8438 12.865 Q157.4062 12.6697 158.1406 12.6697 Q158.875 12.6697 159.3281 12.8416 Q159.7812 13.0134 159.9922 13.2712 Q160.2031 13.5291 160.2969 13.9197 Q160.3438 14.1697 160.3438 14.8259 L160.3438 16.1072 Q160.3438 17.4509 160.4062 17.8103 Q160.4688 18.1697 160.6562 18.4978 L159.6406 18.4978 Q159.4844 18.2009 159.4531 17.7947 ZM159.3594 15.6384 Q158.8438 15.8572 157.7812 15.9978 Q157.1875 16.0916 156.9453 16.1931 Q156.7031 16.2947 156.5625 16.5056 Q156.4219 16.7166 156.4219 16.9666 Q156.4219 17.3572 156.7188 17.615 Q157.0156 17.8728 157.5781 17.8728 Q158.1406 17.8728 158.5703 17.6228 Q159 17.3728 159.2188 16.9509 Q159.3594 16.6228 159.3594 15.9822 L159.3594 15.6384 ZM163.8438 17.6384 L163.9688 18.4822 Q163.5625 18.5759 163.25 18.5759 Q162.7188 18.5759 162.4297 18.4041 Q162.1406 18.2322 162.0234 17.9666 Q161.9062 17.7009 161.9062 16.8259 L161.9062 13.5447 L161.1875 13.5447 L161.1875 12.7947 L161.9062 12.7947 L161.9062 11.3884 L162.8594 10.7947 L162.8594 12.7947 L163.8438 12.7947 L163.8438 13.5447 L162.8594 13.5447 L162.8594 16.8884 Q162.8594 17.2947 162.9141 17.4119 Q162.9688 17.5291 163.0859 17.5994 Q163.2031 17.6697 163.4062 17.6697 Q163.5781 17.6697 163.8438 17.6384 ZM164.7344 11.7322 L164.7344 10.6228 L165.7031 10.6228 L165.7031 11.7322 L164.7344 11.7322 ZM164.7344 18.4978 L164.7344 12.7947 L165.7031 12.7947 L165.7031 18.4978 L164.7344 18.4978 ZM166.3594 15.6384 Q166.3594 14.0603 167.25 13.2947 Q167.9844 12.6697 169.0469 12.6697 Q170.2188 12.6697 170.9609 13.4353 Q171.7031 14.2009 171.7031 15.5603 Q171.7031 16.6697 171.375 17.3025 Q171.0469 17.9353 170.4141 18.2791 Q169.7812 18.6228 169.0469 18.6228 Q167.8438 18.6228 167.1016 17.8572 Q166.3594 17.0916 166.3594 15.6384 ZM167.3594 15.6384 Q167.3594 16.7478 167.8359 17.2869 Q168.3125 17.8259 169.0469 17.8259 Q169.7656 17.8259 170.2422 17.2791 Q170.7188 16.7322 170.7188 15.6072 Q170.7188 14.5603 170.2344 14.0134 Q169.75 13.4666 169.0469 13.4666 Q168.3125 13.4666 167.8359 14.0056 Q167.3594 14.5447 167.3594 15.6384 ZM172.7188 18.4978 L172.7188 12.7947 L173.5938 12.7947 L173.5938 13.6072 Q174.2188 12.6697 175.4062 12.6697 Q175.9219 12.6697 176.3594 12.8494 Q176.7969 13.0291 177.0078 13.3337 Q177.2188 13.6384 177.3125 14.0447 Q177.3594 14.3259 177.3594 14.9978 L177.3594 18.4978 L176.3906 18.4978 L176.3906 15.0291 Q176.3906 14.4353 176.2812 14.1462 Q176.1719 13.8572 175.8828 13.6775 Q175.5938 13.4978 175.2031 13.4978 Q174.5938 13.4978 174.1406 13.8884 Q173.6875 14.2791 173.6875 15.3884 L173.6875 18.4978 L172.7188 18.4978 Z"
         clip-path="url(#clipPath1)"
         stroke="none"
         id="path52" />
      <path
         fill="black"
         d="M29.75 20.6853 L29.75 10.6228 L31.875 10.6228 L31.875 11.4197 L30.7188 11.4197 L30.7188 19.8884 L31.875 19.8884 L31.875 20.6853 L29.75 20.6853 ZM32.8125 18.4978 L32.8125 10.6228 L34.3906 10.6228 L36.25 16.2009 Q36.5 16.9822 36.625 17.3572 Q36.7656 16.9353 37.0469 16.1072 L38.9219 10.6228 L40.3281 10.6228 L40.3281 18.4978 L39.3281 18.4978 L39.3281 11.9041 L37.0312 18.4978 L36.0938 18.4978 L33.8281 11.7947 L33.8281 18.4978 L32.8125 18.4978 ZM40.3594 15.6384 Q40.3594 14.0603 41.25 13.2947 Q41.9844 12.6697 43.0469 12.6697 Q44.2188 12.6697 44.9609 13.4353 Q45.7031 14.2009 45.7031 15.5603 Q45.7031 16.6697 45.375 17.3025 Q45.0469 17.9353 44.4141 18.2791 Q43.7812 18.6228 43.0469 18.6228 Q41.8438 18.6228 41.1016 17.8572 Q40.3594 17.0916 40.3594 15.6384 ZM41.3594 15.6384 Q41.3594 16.7478 41.8359 17.2869 Q42.3125 17.8259 43.0469 17.8259 Q43.7656 17.8259 44.2422 17.2791 Q44.7188 16.7322 44.7188 15.6072 Q44.7188 14.5603 44.2344 14.0134 Q43.75 13.4666 43.0469 13.4666 Q42.3125 13.4666 41.8359 14.0056 Q41.3594 14.5447 41.3594 15.6384 ZM50.4219 18.4978 L50.4219 17.7791 Q49.8906 18.6228 48.8281 18.6228 Q48.1562 18.6228 47.5781 18.2478 Q47 17.8728 46.6875 17.2009 Q46.375 16.5291 46.375 15.6541 Q46.375 14.7947 46.6641 14.0994 Q46.9531 13.4041 47.5156 13.0369 Q48.0781 12.6697 48.7812 12.6697 Q49.2969 12.6697 49.7031 12.8884 Q50.1094 13.1072 50.3594 13.4509 L50.3594 10.6228 L51.3281 10.6228 L51.3281 18.4978 L50.4219 18.4978 ZM47.375 15.6541 Q47.375 16.7478 47.8359 17.2869 Q48.2969 17.8259 48.9219 17.8259 Q49.5625 17.8259 50 17.3103 Q50.4375 16.7947 50.4375 15.7322 Q50.4375 14.5603 49.9922 14.0134 Q49.5469 13.4666 48.875 13.4666 Q48.2344 13.4666 47.8047 13.99 Q47.375 14.5134 47.375 15.6541 ZM56.625 16.6541 L57.625 16.7791 Q57.3906 17.6541 56.75 18.1384 Q56.1094 18.6228 55.125 18.6228 Q53.875 18.6228 53.1406 17.8572 Q52.4062 17.0916 52.4062 15.7009 Q52.4062 14.2478 53.1484 13.4587 Q53.8906 12.6697 55.0625 12.6697 Q56.2188 12.6697 56.9375 13.4431 Q57.6562 14.2166 57.6562 15.6384 Q57.6562 15.7166 57.6562 15.8884 L53.4062 15.8884 Q53.4531 16.8259 53.9297 17.3259 Q54.4062 17.8259 55.125 17.8259 Q55.6562 17.8259 56.0312 17.5525 Q56.4062 17.2791 56.625 16.6541 ZM53.4531 15.0916 L56.6406 15.0916 Q56.5781 14.3728 56.2812 14.0134 Q55.8125 13.4666 55.0781 13.4666 Q54.4062 13.4666 53.9531 13.9119 Q53.5 14.3572 53.4531 15.0916 ZM54.7812 11.4978 L54 11.4978 L52.7656 9.9822 L54.0469 9.9822 L54.7812 11.4978 ZM58.7031 18.4978 L58.7031 10.6228 L59.6719 10.6228 L59.6719 18.4978 L58.7031 18.4978 ZM64.625 16.6541 L65.625 16.7791 Q65.3906 17.6541 64.75 18.1384 Q64.1094 18.6228 63.125 18.6228 Q61.875 18.6228 61.1406 17.8572 Q60.4062 17.0916 60.4062 15.7009 Q60.4062 14.2478 61.1484 13.4587 Q61.8906 12.6697 63.0625 12.6697 Q64.2188 12.6697 64.9375 13.4431 Q65.6562 14.2166 65.6562 15.6384 Q65.6562 15.7166 65.6562 15.8884 L61.4062 15.8884 Q61.4531 16.8259 61.9297 17.3259 Q62.4062 17.8259 63.125 17.8259 Q63.6562 17.8259 64.0312 17.5525 Q64.4062 17.2791 64.625 16.6541 ZM61.4531 15.0916 L64.6406 15.0916 Q64.5781 14.3728 64.2812 14.0134 Q63.8125 13.4666 63.0781 13.4666 Q62.4062 13.4666 61.9531 13.9119 Q61.5 14.3572 61.4531 15.0916 ZM68.3438 20.6853 L66.2031 20.6853 L66.2031 19.8884 L67.375 19.8884 L67.375 11.4197 L66.2031 11.4197 L66.2031 10.6228 L68.3438 10.6228 L68.3438 20.6853 Z"
         clip-path="url(#clipPath1)"
         stroke="none"
         id="path54" />
      <path
         fill="black"
         d="M73.8438 18.4978 L73.8438 10.6228 L76.5625 10.6228 Q77.4844 10.6228 77.9688 10.7322 Q78.6406 10.8884 79.125 11.2947 Q79.7344 11.8259 80.0469 12.6462 Q80.3594 13.4666 80.3594 14.5134 Q80.3594 15.4197 80.1484 16.1072 Q79.9375 16.7947 79.6094 17.2478 Q79.2812 17.7009 78.8906 17.9666 Q78.5 18.2322 77.9531 18.365 Q77.4062 18.4978 76.6875 18.4978 L73.8438 18.4978 ZM74.8906 17.5759 L76.5781 17.5759 Q77.3438 17.5759 77.7891 17.4275 Q78.2344 17.2791 78.5 17.0134 Q78.875 16.6384 79.0781 16.0134 Q79.2812 15.3884 79.2812 14.4978 Q79.2812 13.2634 78.875 12.5994 Q78.4688 11.9353 77.8906 11.7166 Q77.4688 11.5603 76.5469 11.5603 L74.8906 11.5603 L74.8906 17.5759 ZM84.4531 17.7947 Q83.9062 18.2478 83.4141 18.4353 Q82.9219 18.6228 82.3438 18.6228 Q81.4062 18.6228 80.8984 18.1619 Q80.3906 17.7009 80.3906 16.9978 Q80.3906 16.5759 80.5859 16.2322 Q80.7812 15.8884 81.0859 15.6775 Q81.3906 15.4666 81.7812 15.3572 Q82.0625 15.2791 82.6406 15.2166 Q83.8125 15.0759 84.3594 14.8728 Q84.375 14.6853 84.375 14.6228 Q84.375 14.0291 84.0938 13.7947 Q83.7344 13.4666 83 13.4666 Q82.3125 13.4666 81.9922 13.7009 Q81.6719 13.9353 81.5156 14.5447 L80.5625 14.4197 Q80.6875 13.8103 80.9844 13.4353 Q81.2812 13.0603 81.8438 12.865 Q82.4062 12.6697 83.1406 12.6697 Q83.875 12.6697 84.3281 12.8416 Q84.7812 13.0134 84.9922 13.2712 Q85.2031 13.5291 85.2969 13.9197 Q85.3438 14.1697 85.3438 14.8259 L85.3438 16.1072 Q85.3438 17.4509 85.4062 17.8103 Q85.4688 18.1697 85.6562 18.4978 L84.6406 18.4978 Q84.4844 18.2009 84.4531 17.7947 ZM84.3594 15.6384 Q83.8438 15.8572 82.7812 15.9978 Q82.1875 16.0916 81.9453 16.1931 Q81.7031 16.2947 81.5625 16.5056 Q81.4219 16.7166 81.4219 16.9666 Q81.4219 17.3572 81.7188 17.615 Q82.0156 17.8728 82.5781 17.8728 Q83.1406 17.8728 83.5703 17.6228 Q84 17.3728 84.2188 16.9509 Q84.3594 16.6228 84.3594 15.9822 L84.3594 15.6384 ZM88.8438 17.6384 L88.9688 18.4822 Q88.5625 18.5759 88.25 18.5759 Q87.7188 18.5759 87.4297 18.4041 Q87.1406 18.2322 87.0234 17.9666 Q86.9062 17.7009 86.9062 16.8259 L86.9062 13.5447 L86.1875 13.5447 L86.1875 12.7947 L86.9062 12.7947 L86.9062 11.3884 L87.8594 10.7947 L87.8594 12.7947 L88.8438 12.7947 L88.8438 13.5447 L87.8594 13.5447 L87.8594 16.8884 Q87.8594 17.2947 87.9141 17.4119 Q87.9688 17.5291 88.0859 17.5994 Q88.2031 17.6697 88.4062 17.6697 Q88.5781 17.6697 88.8438 17.6384 ZM93.4531 17.7947 Q92.9062 18.2478 92.4141 18.4353 Q91.9219 18.6228 91.3438 18.6228 Q90.4062 18.6228 89.8984 18.1619 Q89.3906 17.7009 89.3906 16.9978 Q89.3906 16.5759 89.5859 16.2322 Q89.7812 15.8884 90.0859 15.6775 Q90.3906 15.4666 90.7812 15.3572 Q91.0625 15.2791 91.6406 15.2166 Q92.8125 15.0759 93.3594 14.8728 Q93.375 14.6853 93.375 14.6228 Q93.375 14.0291 93.0938 13.7947 Q92.7344 13.4666 92 13.4666 Q91.3125 13.4666 90.9922 13.7009 Q90.6719 13.9353 90.5156 14.5447 L89.5625 14.4197 Q89.6875 13.8103 89.9844 13.4353 Q90.2812 13.0603 90.8438 12.865 Q91.4062 12.6697 92.1406 12.6697 Q92.875 12.6697 93.3281 12.8416 Q93.7812 13.0134 93.9922 13.2712 Q94.2031 13.5291 94.2969 13.9197 Q94.3438 14.1697 94.3438 14.8259 L94.3438 16.1072 Q94.3438 17.4509 94.4062 17.8103 Q94.4688 18.1697 94.6562 18.4978 L93.6406 18.4978 Q93.4844 18.2009 93.4531 17.7947 ZM93.3594 15.6384 Q92.8438 15.8572 91.7812 15.9978 Q91.1875 16.0916 90.9453 16.1931 Q90.7031 16.2947 90.5625 16.5056 Q90.4219 16.7166 90.4219 16.9666 Q90.4219 17.3572 90.7188 17.615 Q91.0156 17.8728 91.5781 17.8728 Q92.1406 17.8728 92.5703 17.6228 Q93 17.3728 93.2188 16.9509 Q93.3594 16.6228 93.3594 15.9822 L93.3594 15.6384 Z"
         clip-path="url(#clipPath1)"
         stroke="none"
         id="path56" />
      <path
         fill="black"
         d="M16.5469 18.4978 L16.5469 17.6384 Q16.2344 18.1072 15.7266 18.365 Q15.2188 18.6228 14.6562 18.6228 Q14.0781 18.6228 13.625 18.3728 Q13.1719 18.1228 12.9609 17.6619 Q12.75 17.2009 12.75 16.4041 L12.75 12.7947 L14.2656 12.7947 L14.2656 15.4197 Q14.2656 16.6228 14.3516 16.8884 Q14.4375 17.1541 14.6562 17.3181 Q14.875 17.4822 15.2188 17.4822 Q15.5938 17.4822 15.9062 17.2712 Q16.2188 17.0603 16.3281 16.74 Q16.4375 16.4197 16.4375 15.2009 L16.4375 12.7947 L17.9531 12.7947 L17.9531 18.4978 L16.5469 18.4978 ZM24.7656 14.4822 L23.2812 14.7478 Q23.2031 14.3103 22.9375 14.0837 Q22.6719 13.8572 22.25 13.8572 Q21.6875 13.8572 21.3516 14.24 Q21.0156 14.6228 21.0156 15.5447 Q21.0156 16.5603 21.3516 16.9822 Q21.6875 17.4041 22.2656 17.4041 Q22.7031 17.4041 22.9766 17.1541 Q23.25 16.9041 23.3594 16.3103 L24.8438 16.5603 Q24.6094 17.5916 23.9531 18.1072 Q23.2969 18.6228 22.2031 18.6228 Q20.9375 18.6228 20.1953 17.8337 Q19.4531 17.0447 19.4531 15.6541 Q19.4531 14.2322 20.2031 13.4509 Q20.9531 12.6697 22.2188 12.6697 Q23.2656 12.6697 23.8828 13.115 Q24.5 13.5603 24.7656 14.4822 Z"
         clip-path="url(#clipPath1)"
         stroke="none"
         id="path58" />
      <path
         fill="black"
         d="M97.75 20.6853 L97.75 10.6228 L99.875 10.6228 L99.875 11.4197 L98.7188 11.4197 L98.7188 19.8884 L99.875 19.8884 L99.875 20.6853 L97.75 20.6853 Z"
         clip-path="url(#clipPath1)"
         stroke="none"
         id="path60" />
      <path
         fill="black"
         d="M184.3438 20.6853 L182.2031 20.6853 L182.2031 19.8884 L183.375 19.8884 L183.375 11.4197 L182.2031 11.4197 L182.2031 10.6228 L184.3438 10.6228 L184.3438 20.6853 Z"
         clip-path="url(#clipPath1)"
         stroke="none"
         id="path62" />
      <line
         y2="23"
         fill="none"
         x1="5"
         clip-path="url(#clipPath1)"
         x2="180"
         y1="23"
         id="line64" />
      <line
         y2="17"
         fill="none"
         x1="189"
         clip-path="url(#clipPath1)"
         x2="189"
         y1="5"
         id="line66" />
      <line
         y2="17"
         fill="none"
         x1="180"
         clip-path="url(#clipPath1)"
         x2="189"
         y1="23"
         id="line68" />
      <rect
         x="150"
         y="38"
         clip-path="url(#clipPath1)"
         fill="rgb(178,178,178)"
         width="228"
         height="162"
         stroke="none"
         id="rect70" />
      <rect
         x="147"
         y="35"
         clip-path="url(#clipPath1)"
         fill="url(#linearGradient1)"
         width="228"
         height="162"
         stroke="none"
         id="rect72" />
      <rect
         x="147"
         y="35"
         clip-path="url(#clipPath1)"
         fill="none"
         width="228"
         height="162"
         stroke="rgb(107,117,153)"
         id="rect74" />
      <path
         fill="black"
         d="M163.0156 51.3608 L163.0156 41.3452 L166.2656 41.3452 Q168.1094 41.3452 168.6719 41.4858 Q169.5312 41.7202 170.1172 42.4702 Q170.7031 43.2202 170.7031 44.4233 Q170.7031 45.3452 170.3672 45.9702 Q170.0312 46.5952 169.5156 46.9546 Q169 47.314 168.4531 47.439 Q167.7344 47.5796 166.3594 47.5796 L165.0469 47.5796 L165.0469 51.3608 L163.0156 51.3608 ZM165.0469 43.0327 L165.0469 45.8765 L166.1562 45.8765 Q167.3438 45.8765 167.75 45.7202 Q168.1562 45.564 168.3828 45.228 Q168.6094 44.8921 168.6094 44.4546 Q168.6094 43.9077 168.2891 43.5483 Q167.9688 43.189 167.4688 43.0952 Q167.1094 43.0327 166.0156 43.0327 L165.0469 43.0327 ZM172 43.1108 L172 41.3452 L173.9219 41.3452 L173.9219 43.1108 L172 43.1108 ZM172 51.3608 L172 44.0952 L173.9219 44.0952 L173.9219 51.3608 L172 51.3608 ZM176 51.3608 L176 41.3452 L177.9219 41.3452 L177.9219 51.3608 L176 51.3608 ZM179.5625 47.6265 Q179.5625 46.6733 180.0312 45.7749 Q180.5 44.8765 181.3672 44.4077 Q182.2344 43.939 183.2969 43.939 Q184.9531 43.939 186 45.0093 Q187.0469 46.0796 187.0469 47.7046 Q187.0469 49.3608 185.9844 50.4468 Q184.9219 51.5327 183.3125 51.5327 Q182.3125 51.5327 181.4062 51.0796 Q180.5 50.6265 180.0312 49.7515 Q179.5625 48.8765 179.5625 47.6265 ZM181.5312 47.7358 Q181.5312 48.814 182.0469 49.3843 Q182.5625 49.9546 183.3125 49.9546 Q184.0625 49.9546 184.5703 49.3843 Q185.0781 48.814 185.0781 47.7202 Q185.0781 46.6577 184.5703 46.0796 Q184.0625 45.5015 183.3125 45.5015 Q182.5625 45.5015 182.0469 46.0796 Q181.5312 46.6577 181.5312 47.7358 ZM192.3281 44.0952 L192.3281 45.6265 L191.0156 45.6265 L191.0156 48.564 Q191.0156 49.439 191.0547 49.5874 Q191.0938 49.7358 191.2266 49.8374 Q191.3594 49.939 191.5625 49.939 Q191.8281 49.939 192.3281 49.7515 L192.4844 51.2358 Q191.8281 51.5327 190.9688 51.5327 Q190.4531 51.5327 190.0391 51.353 Q189.625 51.1733 189.4297 50.8999 Q189.2344 50.6265 189.1562 50.1577 Q189.0938 49.814 189.0938 48.7983 L189.0938 45.6265 L188.2188 45.6265 L188.2188 44.0952 L189.0938 44.0952 L189.0938 42.6577 L191.0156 41.5327 L191.0156 44.0952 L192.3281 44.0952 ZM198.2031 49.0483 L200.125 49.3765 Q199.75 50.4233 198.9531 50.978 Q198.1562 51.5327 196.9688 51.5327 Q195.0781 51.5327 194.1562 50.2827 Q193.4375 49.2983 193.4375 47.7827 Q193.4375 45.9858 194.3828 44.9624 Q195.3281 43.939 196.7812 43.939 Q198.3906 43.939 199.3281 45.0093 Q200.2656 46.0796 200.2188 48.2827 L195.4062 48.2827 Q195.4375 49.1421 195.8828 49.6187 Q196.3281 50.0952 196.9844 50.0952 Q197.4375 50.0952 197.7422 49.8452 Q198.0469 49.5952 198.2031 49.0483 ZM198.3125 47.1108 Q198.2969 46.2671 197.8906 45.8374 Q197.4844 45.4077 196.8906 45.4077 Q196.2656 45.4077 195.8438 45.8608 Q195.4375 46.3296 195.4531 47.1108 L198.3125 47.1108 ZM208.9219 41.3452 L208.9219 45.0171 Q209.8438 43.939 211.1406 43.939 Q211.7969 43.939 212.3359 44.1812 Q212.875 44.4233 213.1406 44.8062 Q213.4062 45.189 213.5078 45.6577 Q213.6094 46.1265 213.6094 47.0952 L213.6094 51.3608 L211.6875 51.3608 L211.6875 47.5327 Q211.6875 46.3765 211.5781 46.0718 Q211.4688 45.7671 211.1953 45.5874 Q210.9219 45.4077 210.5 45.4077 Q210.0156 45.4077 209.6406 45.6421 Q209.2656 45.8765 209.0938 46.3452 Q208.9219 46.814 208.9219 47.7202 L208.9219 51.3608 L207 51.3608 L207 41.3452 L208.9219 41.3452 ZM215.0938 44.0952 L217.1406 44.0952 L218.875 49.2515 L220.5781 44.0952 L222.5625 44.0952 L220 51.0796 L219.5469 52.3452 Q219.2812 52.9858 219.0547 53.3218 Q218.8281 53.6577 218.5312 53.8687 Q218.2344 54.0796 217.7969 54.1968 Q217.3594 54.314 216.8125 54.314 Q216.2656 54.314 215.7344 54.189 L215.5625 52.689 Q216.0156 52.7827 216.375 52.7827 Q217.0469 52.7827 217.3672 52.3843 Q217.6875 51.9858 217.8594 51.3765 L215.0938 44.0952 ZM229.6562 51.3608 L227.875 51.3608 L227.875 50.2983 Q227.4375 50.9233 226.8281 51.228 Q226.2188 51.5327 225.6094 51.5327 Q224.3594 51.5327 223.4688 50.5171 Q222.5781 49.5015 222.5781 47.7046 Q222.5781 45.8608 223.4453 44.8999 Q224.3125 43.939 225.6406 43.939 Q226.8594 43.939 227.75 44.9546 L227.75 41.3452 L229.6562 41.3452 L229.6562 51.3608 ZM224.5312 47.5796 Q224.5312 48.7358 224.8594 49.2515 Q225.3281 50.0015 226.1562 50.0015 Q226.8125 50.0015 227.2812 49.439 Q227.75 48.8765 227.75 47.7515 Q227.75 46.5015 227.2969 45.9546 Q226.8438 45.4077 226.1406 45.4077 Q225.4531 45.4077 224.9922 45.9468 Q224.5312 46.4858 224.5312 47.5796 ZM233.8438 51.3608 L231.9219 51.3608 L231.9219 44.0952 L233.7031 44.0952 L233.7031 45.1265 Q234.1719 44.4077 234.5312 44.1733 Q234.8906 43.939 235.3594 43.939 Q236.0156 43.939 236.625 44.2983 L236.0312 45.9702 Q235.5469 45.6577 235.125 45.6577 Q234.7188 45.6577 234.4453 45.8843 Q234.1719 46.1108 234.0078 46.689 Q233.8438 47.2671 233.8438 49.1108 L233.8438 51.3608 ZM239.4375 46.314 L237.7031 46.0015 Q237.9844 44.9546 238.7031 44.4468 Q239.4219 43.939 240.8438 43.939 Q242.125 43.939 242.7578 44.2437 Q243.3906 44.5483 243.6406 45.0171 Q243.8906 45.4858 243.8906 46.7358 L243.875 48.9702 Q243.875 49.939 243.9688 50.3921 Q244.0625 50.8452 244.3125 51.3608 L242.4219 51.3608 Q242.3438 51.1733 242.2344 50.7983 Q242.1875 50.6265 242.1562 50.564 Q241.6719 51.0483 241.1094 51.2905 Q240.5469 51.5327 239.9062 51.5327 Q238.7969 51.5327 238.1484 50.9233 Q237.5 50.314 237.5 49.3765 Q237.5 48.7671 237.7969 48.2827 Q238.0938 47.7983 238.6172 47.5405 Q239.1406 47.2827 240.1406 47.0952 Q241.4844 46.8452 242.0156 46.6265 L242.0156 46.439 Q242.0156 45.8765 241.7422 45.6421 Q241.4688 45.4077 240.7031 45.4077 Q240.1875 45.4077 239.9062 45.6108 Q239.625 45.814 239.4375 46.314 ZM242.0156 47.8765 Q241.6406 48.0015 240.8438 48.1733 Q240.0469 48.3452 239.7969 48.5015 Q239.4219 48.7671 239.4219 49.1733 Q239.4219 49.5796 239.7188 49.8765 Q240.0156 50.1733 240.4844 50.1733 Q241 50.1733 241.4844 49.8296 Q241.8281 49.564 241.9375 49.189 Q242.0156 48.9546 242.0156 48.2515 L242.0156 47.8765 ZM250.7812 51.3608 L250.7812 50.2671 Q250.3906 50.8608 249.7422 51.1968 Q249.0938 51.5327 248.375 51.5327 Q247.6406 51.5327 247.0625 51.2046 Q246.4844 50.8765 246.2266 50.2983 Q245.9688 49.7202 245.9688 48.689 L245.9688 44.0952 L247.8906 44.0952 L247.8906 47.439 Q247.8906 48.9702 247.9922 49.314 Q248.0938 49.6577 248.375 49.8608 Q248.6562 50.064 249.0938 50.064 Q249.5781 50.064 249.9688 49.7905 Q250.3594 49.5171 250.5 49.1187 Q250.6406 48.7202 250.6406 47.1577 L250.6406 44.0952 L252.5625 44.0952 L252.5625 51.3608 L250.7812 51.3608 ZM255 51.3608 L255 41.3452 L256.9219 41.3452 L256.9219 51.3608 L255 51.3608 ZM259 43.1108 L259 41.3452 L260.9219 41.3452 L260.9219 43.1108 L259 43.1108 ZM259 51.3608 L259 44.0952 L260.9219 44.0952 L260.9219 51.3608 L259 51.3608 ZM267.75 54.1265 L267.75 50.4702 Q267.375 50.9546 266.8125 51.2437 Q266.25 51.5327 265.6094 51.5327 Q264.3594 51.5327 263.5625 50.5952 Q262.625 49.5015 262.625 47.6421 Q262.625 45.8921 263.5078 44.9155 Q264.3906 43.939 265.7031 43.939 Q266.4375 43.939 266.9609 44.2437 Q267.4844 44.5483 267.9062 45.1733 L267.9062 44.0952 L269.6719 44.0952 L269.6719 54.1265 L267.75 54.1265 ZM267.8125 47.6421 Q267.8125 46.5327 267.3594 45.9858 Q266.9062 45.439 266.2188 45.439 Q265.5156 45.439 265.0469 45.9937 Q264.5781 46.5483 264.5781 47.7515 Q264.5781 48.9546 265.0312 49.478 Q265.4844 50.0015 266.1562 50.0015 Q266.8125 50.0015 267.3125 49.4077 Q267.8125 48.814 267.8125 47.6421 ZM276.7812 51.3608 L276.7812 50.2671 Q276.3906 50.8608 275.7422 51.1968 Q275.0938 51.5327 274.375 51.5327 Q273.6406 51.5327 273.0625 51.2046 Q272.4844 50.8765 272.2266 50.2983 Q271.9688 49.7202 271.9688 48.689 L271.9688 44.0952 L273.8906 44.0952 L273.8906 47.439 Q273.8906 48.9702 273.9922 49.314 Q274.0938 49.6577 274.375 49.8608 Q274.6562 50.064 275.0938 50.064 Q275.5781 50.064 275.9688 49.7905 Q276.3594 49.5171 276.5 49.1187 Q276.6406 48.7202 276.6406 47.1577 L276.6406 44.0952 L278.5625 44.0952 L278.5625 51.3608 L276.7812 51.3608 ZM285.2031 49.0483 L287.125 49.3765 Q286.75 50.4233 285.9531 50.978 Q285.1562 51.5327 283.9688 51.5327 Q282.0781 51.5327 281.1562 50.2827 Q280.4375 49.2983 280.4375 47.7827 Q280.4375 45.9858 281.3828 44.9624 Q282.3281 43.939 283.7812 43.939 Q285.3906 43.939 286.3281 45.0093 Q287.2656 46.0796 287.2188 48.2827 L282.4062 48.2827 Q282.4375 49.1421 282.8828 49.6187 Q283.3281 50.0952 283.9844 50.0952 Q284.4375 50.0952 284.7422 49.8452 Q285.0469 49.5952 285.2031 49.0483 ZM285.3125 47.1108 Q285.2969 46.2671 284.8906 45.8374 Q284.4844 45.4077 283.8906 45.4077 Q283.2656 45.4077 282.8438 45.8608 Q282.4375 46.3296 282.4531 47.1108 L285.3125 47.1108 ZM300.6562 51.3608 L298.875 51.3608 L298.875 50.2983 Q298.4375 50.9233 297.8281 51.228 Q297.2188 51.5327 296.6094 51.5327 Q295.3594 51.5327 294.4688 50.5171 Q293.5781 49.5015 293.5781 47.7046 Q293.5781 45.8608 294.4453 44.8999 Q295.3125 43.939 296.6406 43.939 Q297.8594 43.939 298.75 44.9546 L298.75 41.3452 L300.6562 41.3452 L300.6562 51.3608 ZM295.5312 47.5796 Q295.5312 48.7358 295.8594 49.2515 Q296.3281 50.0015 297.1562 50.0015 Q297.8125 50.0015 298.2812 49.439 Q298.75 48.8765 298.75 47.7515 Q298.75 46.5015 298.2969 45.9546 Q297.8438 45.4077 297.1406 45.4077 Q296.4531 45.4077 295.9922 45.9468 Q295.5312 46.4858 295.5312 47.5796 ZM307.2031 49.0483 L309.125 49.3765 Q308.75 50.4233 307.9531 50.978 Q307.1562 51.5327 305.9688 51.5327 Q304.0781 51.5327 303.1562 50.2827 Q302.4375 49.2983 302.4375 47.7827 Q302.4375 45.9858 303.3828 44.9624 Q304.3281 43.939 305.7812 43.939 Q307.3906 43.939 308.3281 45.0093 Q309.2656 46.0796 309.2188 48.2827 L304.4062 48.2827 Q304.4375 49.1421 304.8828 49.6187 Q305.3281 50.0952 305.9844 50.0952 Q306.4375 50.0952 306.7422 49.8452 Q307.0469 49.5952 307.2031 49.0483 ZM307.3125 47.1108 Q307.2969 46.2671 306.8906 45.8374 Q306.4844 45.4077 305.8906 45.4077 Q305.2656 45.4077 304.8438 45.8608 Q304.4375 46.3296 304.4531 47.1108 L307.3125 47.1108 ZM315.9219 51.3608 L315.9219 41.3452 L317.8438 41.3452 L317.8438 44.9546 Q318.7344 43.939 319.9531 43.939 Q321.2812 43.939 322.1484 44.8999 Q323.0156 45.8608 323.0156 47.6577 Q323.0156 49.5171 322.125 50.5249 Q321.2344 51.5327 319.9844 51.5327 Q319.3594 51.5327 318.75 51.2202 Q318.1406 50.9077 317.7031 50.2983 L317.7031 51.3608 L315.9219 51.3608 ZM317.8281 47.5796 Q317.8281 48.7046 318.1875 49.2358 Q318.6875 50.0015 319.5156 50.0015 Q320.1406 50.0015 320.5938 49.4624 Q321.0469 48.9233 321.0469 47.7515 Q321.0469 46.5015 320.5938 45.9546 Q320.1406 45.4077 319.4375 45.4077 Q318.75 45.4077 318.2891 45.9468 Q317.8281 46.4858 317.8281 47.5796 ZM326.4375 46.314 L324.7031 46.0015 Q324.9844 44.9546 325.7031 44.4468 Q326.4219 43.939 327.8438 43.939 Q329.125 43.939 329.7578 44.2437 Q330.3906 44.5483 330.6406 45.0171 Q330.8906 45.4858 330.8906 46.7358 L330.875 48.9702 Q330.875 49.939 330.9688 50.3921 Q331.0625 50.8452 331.3125 51.3608 L329.4219 51.3608 Q329.3438 51.1733 329.2344 50.7983 Q329.1875 50.6265 329.1562 50.564 Q328.6719 51.0483 328.1094 51.2905 Q327.5469 51.5327 326.9062 51.5327 Q325.7969 51.5327 325.1484 50.9233 Q324.5 50.314 324.5 49.3765 Q324.5 48.7671 324.7969 48.2827 Q325.0938 47.7983 325.6172 47.5405 Q326.1406 47.2827 327.1406 47.0952 Q328.4844 46.8452 329.0156 46.6265 L329.0156 46.439 Q329.0156 45.8765 328.7422 45.6421 Q328.4688 45.4077 327.7031 45.4077 Q327.1875 45.4077 326.9062 45.6108 Q326.625 45.814 326.4375 46.314 ZM329.0156 47.8765 Q328.6406 48.0015 327.8438 48.1733 Q327.0469 48.3452 326.7969 48.5015 Q326.4219 48.7671 326.4219 49.1733 Q326.4219 49.5796 326.7188 49.8765 Q327.0156 50.1733 327.4844 50.1733 Q328 50.1733 328.4844 49.8296 Q328.8281 49.564 328.9375 49.189 Q329.0156 48.9546 329.0156 48.2515 L329.0156 47.8765 ZM336.3281 44.0952 L336.3281 45.6265 L335.0156 45.6265 L335.0156 48.564 Q335.0156 49.439 335.0547 49.5874 Q335.0938 49.7358 335.2266 49.8374 Q335.3594 49.939 335.5625 49.939 Q335.8281 49.939 336.3281 49.7515 L336.4844 51.2358 Q335.8281 51.5327 334.9688 51.5327 Q334.4531 51.5327 334.0391 51.353 Q333.625 51.1733 333.4297 50.8999 Q333.2344 50.6265 333.1562 50.1577 Q333.0938 49.814 333.0938 48.7983 L333.0938 45.6265 L332.2188 45.6265 L332.2188 44.0952 L333.0938 44.0952 L333.0938 42.6577 L335.0156 41.5327 L335.0156 44.0952 L336.3281 44.0952 ZM342.2031 49.0483 L344.125 49.3765 Q343.75 50.4233 342.9531 50.978 Q342.1562 51.5327 340.9688 51.5327 Q339.0781 51.5327 338.1562 50.2827 Q337.4375 49.2983 337.4375 47.7827 Q337.4375 45.9858 338.3828 44.9624 Q339.3281 43.939 340.7812 43.939 Q342.3906 43.939 343.3281 45.0093 Q344.2656 46.0796 344.2188 48.2827 L339.4062 48.2827 Q339.4375 49.1421 339.8828 49.6187 Q340.3281 50.0952 340.9844 50.0952 Q341.4375 50.0952 341.7422 49.8452 Q342.0469 49.5952 342.2031 49.0483 ZM342.3125 47.1108 Q342.2969 46.2671 341.8906 45.8374 Q341.4844 45.4077 340.8906 45.4077 Q340.2656 45.4077 339.8438 45.8608 Q339.4375 46.3296 339.4531 47.1108 L342.3125 47.1108 ZM348.4375 46.314 L346.7031 46.0015 Q346.9844 44.9546 347.7031 44.4468 Q348.4219 43.939 349.8438 43.939 Q351.125 43.939 351.7578 44.2437 Q352.3906 44.5483 352.6406 45.0171 Q352.8906 45.4858 352.8906 46.7358 L352.875 48.9702 Q352.875 49.939 352.9688 50.3921 Q353.0625 50.8452 353.3125 51.3608 L351.4219 51.3608 Q351.3438 51.1733 351.2344 50.7983 Q351.1875 50.6265 351.1562 50.564 Q350.6719 51.0483 350.1094 51.2905 Q349.5469 51.5327 348.9062 51.5327 Q347.7969 51.5327 347.1484 50.9233 Q346.5 50.314 346.5 49.3765 Q346.5 48.7671 346.7969 48.2827 Q347.0938 47.7983 347.6172 47.5405 Q348.1406 47.2827 349.1406 47.0952 Q350.4844 46.8452 351.0156 46.6265 L351.0156 46.439 Q351.0156 45.8765 350.7422 45.6421 Q350.4688 45.4077 349.7031 45.4077 Q349.1875 45.4077 348.9062 45.6108 Q348.625 45.814 348.4375 46.314 ZM351.0156 47.8765 Q350.6406 48.0015 349.8438 48.1733 Q349.0469 48.3452 348.7969 48.5015 Q348.4219 48.7671 348.4219 49.1733 Q348.4219 49.5796 348.7188 49.8765 Q349.0156 50.1733 349.4844 50.1733 Q350 50.1733 350.4844 49.8296 Q350.8281 49.564 350.9375 49.189 Q351.0156 48.9546 351.0156 48.2515 L351.0156 47.8765 ZM359.7812 51.3608 L359.7812 50.2671 Q359.3906 50.8608 358.7422 51.1968 Q358.0938 51.5327 357.375 51.5327 Q356.6406 51.5327 356.0625 51.2046 Q355.4844 50.8765 355.2266 50.2983 Q354.9688 49.7202 354.9688 48.689 L354.9688 44.0952 L356.8906 44.0952 L356.8906 47.439 Q356.8906 48.9702 356.9922 49.314 Q357.0938 49.6577 357.375 49.8608 Q357.6562 50.064 358.0938 50.064 Q358.5781 50.064 358.9688 49.7905 Q359.3594 49.5171 359.5 49.1187 Q359.6406 48.7202 359.6406 47.1577 L359.6406 44.0952 L361.5625 44.0952 L361.5625 51.3608 L359.7812 51.3608 Z"
         clip-path="url(#clipPath1)"
         stroke="none"
         id="path76" />
      <ellipse
         clip-path="url(#clipPath1)"
         fill="rgb(178,178,178)"
         rx="91"
         cx="269"
         ry="30"
         cy="166"
         stroke="none"
         id="ellipse78" />
      <ellipse
         clip-path="url(#clipPath1)"
         fill="url(#linearGradient2)"
         rx="91"
         cx="266"
         ry="30"
         cy="163"
         stroke="none"
         id="ellipse80" />
      <ellipse
         clip-path="url(#clipPath1)"
         fill="none"
         rx="91"
         cx="266"
         ry="30"
         cy="163"
         stroke="rgb(102,102,71)"
         id="ellipse82" />
      <path
         fill="black"
         d="M238.7812 154.4978 L238.7812 146.6228 L241.1562 146.6228 L242.5938 151.9978 L244 146.6228 L246.3906 146.6228 L246.3906 154.4978 L244.9062 154.4978 L244.9062 148.2947 L243.3438 154.4978 L241.8125 154.4978 L240.25 148.2947 L240.25 154.4978 L238.7812 154.4978 ZM249.9219 150.5291 L248.5469 150.2791 Q248.7812 149.4666 249.3438 149.0681 Q249.9062 148.6697 251.0156 148.6697 Q252.0312 148.6697 252.5234 148.9041 Q253.0156 149.1384 253.2188 149.5056 Q253.4219 149.8728 253.4219 150.8572 L253.4062 152.6228 Q253.4062 153.3728 253.4766 153.7322 Q253.5469 154.0916 253.75 154.4978 L252.25 154.4978 Q252.1875 154.3416 252.1094 154.0447 Q252.0781 153.9197 252.0625 153.8728 Q251.6719 154.2478 251.2266 154.4353 Q250.7812 154.6228 250.2812 154.6228 Q249.4062 154.6228 248.8984 154.1462 Q248.3906 153.6697 248.3906 152.9353 Q248.3906 152.4509 248.625 152.0759 Q248.8594 151.7009 249.2734 151.4978 Q249.6875 151.2947 250.4688 151.1384 Q251.5312 150.9509 251.9375 150.7791 L251.9375 150.6228 Q251.9375 150.1853 251.7188 150.0056 Q251.5 149.8259 250.9062 149.8259 Q250.5156 149.8259 250.2891 149.9822 Q250.0625 150.1384 249.9219 150.5291 ZM251.9375 151.7634 Q251.6406 151.8572 251.0156 151.99 Q250.3906 152.1228 250.2031 152.2478 Q249.9062 152.4666 249.9062 152.7791 Q249.9062 153.1072 250.1406 153.3337 Q250.375 153.5603 250.7344 153.5603 Q251.1406 153.5603 251.5156 153.2947 Q251.7969 153.0916 251.875 152.7947 Q251.9375 152.6072 251.9375 152.0603 L251.9375 151.7634 ZM254.7969 148.0134 L254.7969 146.6228 L256.2969 146.6228 L256.2969 148.0134 L254.7969 148.0134 ZM254.7969 154.4978 L254.7969 148.7947 L256.2969 148.7947 L256.2969 154.4978 L254.7969 154.4978 ZM262.9844 154.4978 L261.4688 154.4978 L261.4688 151.5916 Q261.4688 150.6697 261.375 150.3962 Q261.2812 150.1228 261.0625 149.9744 Q260.8438 149.8259 260.5312 149.8259 Q260.1406 149.8259 259.8281 150.0369 Q259.5156 150.2478 259.3984 150.5994 Q259.2812 150.9509 259.2812 151.9197 L259.2812 154.4978 L257.7812 154.4978 L257.7812 148.7947 L259.1875 148.7947 L259.1875 149.6384 Q259.9219 148.6697 261.0625 148.6697 Q261.5625 148.6697 261.9766 148.8494 Q262.3906 149.0291 262.6016 149.3025 Q262.8125 149.5759 262.8984 149.9353 Q262.9844 150.2947 262.9844 150.9509 L262.9844 154.4978 ZM267.4062 148.7947 L267.4062 149.9978 L266.375 149.9978 L266.375 152.2947 Q266.375 152.9978 266.4062 153.115 Q266.4375 153.2322 266.5391 153.3025 Q266.6406 153.3728 266.7969 153.3728 Q267 153.3728 267.4062 153.2322 L267.5312 154.4041 Q267 154.6228 266.3438 154.6228 Q265.9219 154.6228 265.5938 154.49 Q265.2656 154.3572 265.1172 154.1384 Q264.9688 153.9197 264.9062 153.5447 Q264.8594 153.2791 264.8594 152.4822 L264.8594 149.9978 L264.1719 149.9978 L264.1719 148.7947 L264.8594 148.7947 L264.8594 147.6541 L266.375 146.7791 L266.375 148.7947 L267.4062 148.7947 ZM272.0938 152.6853 L273.5938 152.9353 Q273.3125 153.7634 272.6875 154.1931 Q272.0625 154.6228 271.1094 154.6228 Q269.625 154.6228 268.9062 153.6541 Q268.3438 152.8728 268.3438 151.6853 Q268.3438 150.2634 269.0859 149.4666 Q269.8281 148.6697 270.9688 148.6697 Q272.2344 148.6697 272.9688 149.5056 Q273.7031 150.3416 273.6719 152.0759 L269.8906 152.0759 Q269.9062 152.7478 270.2578 153.1228 Q270.6094 153.4978 271.125 153.4978 Q271.4844 153.4978 271.7266 153.3025 Q271.9688 153.1072 272.0938 152.6853 ZM272.1719 151.1541 Q272.1562 150.4978 271.8359 150.1619 Q271.5156 149.8259 271.0625 149.8259 Q270.5625 149.8259 270.2344 150.1853 Q269.9219 150.5447 269.9219 151.1541 L272.1719 151.1541 ZM280.9844 154.4978 L279.4688 154.4978 L279.4688 151.5916 Q279.4688 150.6697 279.375 150.3962 Q279.2812 150.1228 279.0625 149.9744 Q278.8438 149.8259 278.5312 149.8259 Q278.1406 149.8259 277.8281 150.0369 Q277.5156 150.2478 277.3984 150.5994 Q277.2812 150.9509 277.2812 151.9197 L277.2812 154.4978 L275.7812 154.4978 L275.7812 148.7947 L277.1875 148.7947 L277.1875 149.6384 Q277.9219 148.6697 279.0625 148.6697 Q279.5625 148.6697 279.9766 148.8494 Q280.3906 149.0291 280.6016 149.3025 Q280.8125 149.5759 280.8984 149.9353 Q280.9844 150.2947 280.9844 150.9509 L280.9844 154.4978 ZM282.7969 148.0134 L282.7969 146.6228 L284.2969 146.6228 L284.2969 148.0134 L282.7969 148.0134 ZM282.7969 154.4978 L282.7969 148.7947 L284.2969 148.7947 L284.2969 154.4978 L282.7969 154.4978 ZM287.2344 154.4978 L285.7188 154.4978 L285.7188 148.7947 L287.125 148.7947 L287.125 149.6072 Q287.4844 149.0291 287.7734 148.8494 Q288.0625 148.6697 288.4219 148.6697 Q288.9375 148.6697 289.4219 148.9509 L288.9531 150.2634 Q288.5781 150.0134 288.25 150.0134 Q287.9219 150.0134 287.7031 150.1931 Q287.4844 150.3728 287.3594 150.8259 Q287.2344 151.2791 287.2344 152.7322 L287.2344 154.4978 Z"
         clip-path="url(#clipPath1)"
         stroke="none"
         id="path84" />
      <path
         fill="black"
         d="M210.9219 162.5291 L209.5469 162.2791 Q209.7812 161.4666 210.3438 161.0681 Q210.9062 160.6697 212.0156 160.6697 Q213.0312 160.6697 213.5234 160.9041 Q214.0156 161.1384 214.2188 161.5056 Q214.4219 161.8728 214.4219 162.8572 L214.4062 164.6228 Q214.4062 165.3728 214.4766 165.7322 Q214.5469 166.0916 214.75 166.4978 L213.25 166.4978 Q213.1875 166.3416 213.1094 166.0447 Q213.0781 165.9197 213.0625 165.8728 Q212.6719 166.2478 212.2266 166.4353 Q211.7812 166.6228 211.2812 166.6228 Q210.4062 166.6228 209.8984 166.1462 Q209.3906 165.6697 209.3906 164.9353 Q209.3906 164.4509 209.625 164.0759 Q209.8594 163.7009 210.2734 163.4978 Q210.6875 163.2947 211.4688 163.1384 Q212.5312 162.9509 212.9375 162.7791 L212.9375 162.6228 Q212.9375 162.1853 212.7188 162.0056 Q212.5 161.8259 211.9062 161.8259 Q211.5156 161.8259 211.2891 161.9822 Q211.0625 162.1384 210.9219 162.5291 ZM212.9375 163.7634 Q212.6406 163.8572 212.0156 163.99 Q211.3906 164.1228 211.2031 164.2478 Q210.9062 164.4666 210.9062 164.7791 Q210.9062 165.1072 211.1406 165.3337 Q211.375 165.5603 211.7344 165.5603 Q212.1406 165.5603 212.5156 165.2947 Q212.7969 165.0916 212.875 164.7947 Q212.9375 164.6072 212.9375 164.0603 L212.9375 163.7634 ZM219.5469 166.4978 L219.5469 165.6384 Q219.2344 166.1072 218.7266 166.365 Q218.2188 166.6228 217.6562 166.6228 Q217.0781 166.6228 216.625 166.3728 Q216.1719 166.1228 215.9609 165.6619 Q215.75 165.2009 215.75 164.4041 L215.75 160.7947 L217.2656 160.7947 L217.2656 163.4197 Q217.2656 164.6228 217.3516 164.8884 Q217.4375 165.1541 217.6562 165.3181 Q217.875 165.4822 218.2188 165.4822 Q218.5938 165.4822 218.9062 165.2712 Q219.2188 165.0603 219.3281 164.74 Q219.4375 164.4197 219.4375 163.2009 L219.4375 160.7947 L220.9531 160.7947 L220.9531 166.4978 L219.5469 166.4978 ZM225.4062 160.7947 L225.4062 161.9978 L224.375 161.9978 L224.375 164.2947 Q224.375 164.9978 224.4062 165.115 Q224.4375 165.2322 224.5391 165.3025 Q224.6406 165.3728 224.7969 165.3728 Q225 165.3728 225.4062 165.2322 L225.5312 166.4041 Q225 166.6228 224.3438 166.6228 Q223.9219 166.6228 223.5938 166.49 Q223.2656 166.3572 223.1172 166.1384 Q222.9688 165.9197 222.9062 165.5447 Q222.8594 165.2791 222.8594 164.4822 L222.8594 161.9978 L222.1719 161.9978 L222.1719 160.7947 L222.8594 160.7947 L222.8594 159.6541 L224.375 158.7791 L224.375 160.7947 L225.4062 160.7947 ZM226.4375 163.5603 Q226.4375 162.8103 226.8125 162.1072 Q227.1875 161.4041 227.8672 161.0369 Q228.5469 160.6697 229.375 160.6697 Q230.6719 160.6697 231.5 161.5056 Q232.3281 162.3416 232.3281 163.6228 Q232.3281 164.9197 231.4922 165.7712 Q230.6562 166.6228 229.3906 166.6228 Q228.6094 166.6228 227.8984 166.2712 Q227.1875 165.9197 226.8125 165.2322 Q226.4375 164.5447 226.4375 163.5603 ZM227.9844 163.6384 Q227.9844 164.4978 228.3906 164.9509 Q228.7969 165.4041 229.3906 165.4041 Q229.9688 165.4041 230.375 164.9509 Q230.7812 164.4978 230.7812 163.6384 Q230.7812 162.7947 230.375 162.3416 Q229.9688 161.8884 229.3906 161.8884 Q228.7969 161.8884 228.3906 162.3416 Q227.9844 162.7947 227.9844 163.6384 ZM233.6719 160.7947 L235.0625 160.7947 L235.0625 161.5759 Q235.8125 160.6697 236.8438 160.6697 Q237.3906 160.6697 237.7969 160.8962 Q238.2031 161.1228 238.4531 161.5759 Q238.8281 161.1228 239.2656 160.8962 Q239.7031 160.6697 240.2031 160.6697 Q240.8281 160.6697 241.2656 160.9197 Q241.7031 161.1697 241.9062 161.6697 Q242.0625 162.0291 242.0625 162.8572 L242.0625 166.4978 L240.5625 166.4978 L240.5625 163.2322 Q240.5625 162.3884 240.4062 162.1384 Q240.1875 161.8259 239.75 161.8259 Q239.4375 161.8259 239.1562 162.0134 Q238.875 162.2009 238.7578 162.5759 Q238.6406 162.9509 238.6406 163.7634 L238.6406 166.4978 L237.125 166.4978 L237.125 163.3728 Q237.125 162.5447 237.0469 162.3025 Q236.9688 162.0603 236.7969 161.9431 Q236.625 161.8259 236.3281 161.8259 Q235.9844 161.8259 235.7031 162.0134 Q235.4219 162.2009 235.3047 162.5525 Q235.1875 162.9041 235.1875 163.7322 L235.1875 166.4978 L233.6719 166.4978 L233.6719 160.7947 ZM245.9219 162.5291 L244.5469 162.2791 Q244.7812 161.4666 245.3438 161.0681 Q245.9062 160.6697 247.0156 160.6697 Q248.0312 160.6697 248.5234 160.9041 Q249.0156 161.1384 249.2188 161.5056 Q249.4219 161.8728 249.4219 162.8572 L249.4062 164.6228 Q249.4062 165.3728 249.4766 165.7322 Q249.5469 166.0916 249.75 166.4978 L248.25 166.4978 Q248.1875 166.3416 248.1094 166.0447 Q248.0781 165.9197 248.0625 165.8728 Q247.6719 166.2478 247.2266 166.4353 Q246.7812 166.6228 246.2812 166.6228 Q245.4062 166.6228 244.8984 166.1462 Q244.3906 165.6697 244.3906 164.9353 Q244.3906 164.4509 244.625 164.0759 Q244.8594 163.7009 245.2734 163.4978 Q245.6875 163.2947 246.4688 163.1384 Q247.5312 162.9509 247.9375 162.7791 L247.9375 162.6228 Q247.9375 162.1853 247.7188 162.0056 Q247.5 161.8259 246.9062 161.8259 Q246.5156 161.8259 246.2891 161.9822 Q246.0625 162.1384 245.9219 162.5291 ZM247.9375 163.7634 Q247.6406 163.8572 247.0156 163.99 Q246.3906 164.1228 246.2031 164.2478 Q245.9062 164.4666 245.9062 164.7791 Q245.9062 165.1072 246.1406 165.3337 Q246.375 165.5603 246.7344 165.5603 Q247.1406 165.5603 247.5156 165.2947 Q247.7969 165.0916 247.875 164.7947 Q247.9375 164.6072 247.9375 164.0603 L247.9375 163.7634 ZM253.4062 160.7947 L253.4062 161.9978 L252.375 161.9978 L252.375 164.2947 Q252.375 164.9978 252.4062 165.115 Q252.4375 165.2322 252.5391 165.3025 Q252.6406 165.3728 252.7969 165.3728 Q253 165.3728 253.4062 165.2322 L253.5312 166.4041 Q253 166.6228 252.3438 166.6228 Q251.9219 166.6228 251.5938 166.49 Q251.2656 166.3572 251.1172 166.1384 Q250.9688 165.9197 250.9062 165.5447 Q250.8594 165.2791 250.8594 164.4822 L250.8594 161.9978 L250.1719 161.9978 L250.1719 160.7947 L250.8594 160.7947 L250.8594 159.6541 L252.375 158.7791 L252.375 160.7947 L253.4062 160.7947 ZM254.7969 160.0134 L254.7969 158.6228 L256.2969 158.6228 L256.2969 160.0134 L254.7969 160.0134 ZM254.7969 166.4978 L254.7969 160.7947 L256.2969 160.7947 L256.2969 166.4978 L254.7969 166.4978 ZM261.5156 168.6697 L261.5156 165.7947 Q261.2188 166.1853 260.7812 166.4041 Q260.3438 166.6228 259.8281 166.6228 Q258.8594 166.6228 258.2344 165.8884 Q257.4844 165.0447 257.4844 163.5759 Q257.4844 162.2009 258.1797 161.4353 Q258.875 160.6697 259.9062 160.6697 Q260.4844 160.6697 260.8984 160.9119 Q261.3125 161.1541 261.6406 161.6384 L261.6406 160.7947 L263.0312 160.7947 L263.0312 168.6697 L261.5156 168.6697 ZM261.5625 163.5759 Q261.5625 162.7009 261.2031 162.2712 Q260.8438 161.8416 260.3125 161.8416 Q259.7656 161.8416 259.3984 162.2791 Q259.0312 162.7166 259.0312 163.6541 Q259.0312 164.6072 259.3828 165.0212 Q259.7344 165.4353 260.2656 165.4353 Q260.7812 165.4353 261.1719 164.9666 Q261.5625 164.4978 261.5625 163.5759 ZM268.5469 166.4978 L268.5469 165.6384 Q268.2344 166.1072 267.7266 166.365 Q267.2188 166.6228 266.6562 166.6228 Q266.0781 166.6228 265.625 166.3728 Q265.1719 166.1228 264.9609 165.6619 Q264.75 165.2009 264.75 164.4041 L264.75 160.7947 L266.2656 160.7947 L266.2656 163.4197 Q266.2656 164.6228 266.3516 164.8884 Q266.4375 165.1541 266.6562 165.3181 Q266.875 165.4822 267.2188 165.4822 Q267.5938 165.4822 267.9062 165.2712 Q268.2188 165.0603 268.3281 164.74 Q268.4375 164.4197 268.4375 163.2009 L268.4375 160.7947 L269.9531 160.7947 L269.9531 166.4978 L268.5469 166.4978 ZM275.0938 164.6853 L276.5938 164.9353 Q276.3125 165.7634 275.6875 166.1931 Q275.0625 166.6228 274.1094 166.6228 Q272.625 166.6228 271.9062 165.6541 Q271.3438 164.8728 271.3438 163.6853 Q271.3438 162.2634 272.0859 161.4666 Q272.8281 160.6697 273.9688 160.6697 Q275.2344 160.6697 275.9688 161.5056 Q276.7031 162.3416 276.6719 164.0759 L272.8906 164.0759 Q272.9062 164.7478 273.2578 165.1228 Q273.6094 165.4978 274.125 165.4978 Q274.4844 165.4978 274.7266 165.3025 Q274.9688 165.1072 275.0938 164.6853 ZM275.1719 163.1541 Q275.1562 162.4978 274.8359 162.1619 Q274.5156 161.8259 274.0625 161.8259 Q273.5625 161.8259 273.2344 162.1853 Q272.9219 162.5447 272.9219 163.1541 L275.1719 163.1541 ZM278.6719 160.7947 L280.0625 160.7947 L280.0625 161.5759 Q280.8125 160.6697 281.8438 160.6697 Q282.3906 160.6697 282.7969 160.8962 Q283.2031 161.1228 283.4531 161.5759 Q283.8281 161.1228 284.2656 160.8962 Q284.7031 160.6697 285.2031 160.6697 Q285.8281 160.6697 286.2656 160.9197 Q286.7031 161.1697 286.9062 161.6697 Q287.0625 162.0291 287.0625 162.8572 L287.0625 166.4978 L285.5625 166.4978 L285.5625 163.2322 Q285.5625 162.3884 285.4062 162.1384 Q285.1875 161.8259 284.75 161.8259 Q284.4375 161.8259 284.1562 162.0134 Q283.875 162.2009 283.7578 162.5759 Q283.6406 162.9509 283.6406 163.7634 L283.6406 166.4978 L282.125 166.4978 L282.125 163.3728 Q282.125 162.5447 282.0469 162.3025 Q281.9688 162.0603 281.7969 161.9431 Q281.625 161.8259 281.3281 161.8259 Q280.9844 161.8259 280.7031 162.0134 Q280.4219 162.2009 280.3047 162.5525 Q280.1875 162.9041 280.1875 163.7322 L280.1875 166.4978 L278.6719 166.4978 L278.6719 160.7947 ZM293.0938 164.6853 L294.5938 164.9353 Q294.3125 165.7634 293.6875 166.1931 Q293.0625 166.6228 292.1094 166.6228 Q290.625 166.6228 289.9062 165.6541 Q289.3438 164.8728 289.3438 163.6853 Q289.3438 162.2634 290.0859 161.4666 Q290.8281 160.6697 291.9688 160.6697 Q293.2344 160.6697 293.9688 161.5056 Q294.7031 162.3416 294.6719 164.0759 L290.8906 164.0759 Q290.9062 164.7478 291.2578 165.1228 Q291.6094 165.4978 292.125 165.4978 Q292.4844 165.4978 292.7266 165.3025 Q292.9688 165.1072 293.0938 164.6853 ZM293.1719 163.1541 Q293.1562 162.4978 292.8359 162.1619 Q292.5156 161.8259 292.0625 161.8259 Q291.5625 161.8259 291.2344 162.1853 Q290.9219 162.5447 290.9219 163.1541 L293.1719 163.1541 ZM301.9844 166.4978 L300.4688 166.4978 L300.4688 163.5916 Q300.4688 162.6697 300.375 162.3962 Q300.2812 162.1228 300.0625 161.9744 Q299.8438 161.8259 299.5312 161.8259 Q299.1406 161.8259 298.8281 162.0369 Q298.5156 162.2478 298.3984 162.5994 Q298.2812 162.9509 298.2812 163.9197 L298.2812 166.4978 L296.7812 166.4978 L296.7812 160.7947 L298.1875 160.7947 L298.1875 161.6384 Q298.9219 160.6697 300.0625 160.6697 Q300.5625 160.6697 300.9766 160.8494 Q301.3906 161.0291 301.6016 161.3025 Q301.8125 161.5759 301.8984 161.9353 Q301.9844 162.2947 301.9844 162.9509 L301.9844 166.4978 ZM306.4062 160.7947 L306.4062 161.9978 L305.375 161.9978 L305.375 164.2947 Q305.375 164.9978 305.4062 165.115 Q305.4375 165.2322 305.5391 165.3025 Q305.6406 165.3728 305.7969 165.3728 Q306 165.3728 306.4062 165.2322 L306.5312 166.4041 Q306 166.6228 305.3438 166.6228 Q304.9219 166.6228 304.5938 166.49 Q304.2656 166.3572 304.1172 166.1384 Q303.9688 165.9197 303.9062 165.5447 Q303.8594 165.2791 303.8594 164.4822 L303.8594 161.9978 L303.1719 161.9978 L303.1719 160.7947 L303.8594 160.7947 L303.8594 159.6541 L305.375 158.7791 L305.375 160.7947 L306.4062 160.7947 ZM310.7969 166.4978 L310.7969 158.6228 L312.2969 158.6228 L312.2969 166.4978 L310.7969 166.4978 ZM317.0938 164.6853 L318.5938 164.9353 Q318.3125 165.7634 317.6875 166.1931 Q317.0625 166.6228 316.1094 166.6228 Q314.625 166.6228 313.9062 165.6541 Q313.3438 164.8728 313.3438 163.6853 Q313.3438 162.2634 314.0859 161.4666 Q314.8281 160.6697 315.9688 160.6697 Q317.2344 160.6697 317.9688 161.5056 Q318.7031 162.3416 318.6719 164.0759 L314.8906 164.0759 Q314.9062 164.7478 315.2578 165.1228 Q315.6094 165.4978 316.125 165.4978 Q316.4844 165.4978 316.7266 165.3025 Q316.9688 165.1072 317.0938 164.6853 ZM317.1719 163.1541 Q317.1562 162.4978 316.8359 162.1619 Q316.5156 161.8259 316.0625 161.8259 Q315.5625 161.8259 315.2344 162.1853 Q314.9219 162.5447 314.9219 163.1541 L317.1719 163.1541 Z"
         clip-path="url(#clipPath1)"
         stroke="none"
         id="path86" />
      <path
         fill="black"
         d="M213.7188 178.4978 L213.7188 170.6228 L215.2344 170.6228 L215.2344 173.4666 Q215.9375 172.6697 216.8906 172.6697 Q217.9375 172.6697 218.6172 173.4197 Q219.2969 174.1697 219.2969 175.5916 Q219.2969 177.0447 218.6016 177.8337 Q217.9062 178.6228 216.9062 178.6228 Q216.4219 178.6228 215.9453 178.3806 Q215.4688 178.1384 215.125 177.6541 L215.125 178.4978 L213.7188 178.4978 ZM215.2188 175.5291 Q215.2188 176.4041 215.5 176.8259 Q215.8906 177.4353 216.5469 177.4353 Q217.0469 177.4353 217.3984 177.0056 Q217.75 176.5759 217.75 175.6541 Q217.75 174.6853 217.3984 174.2556 Q217.0469 173.8259 216.4844 173.8259 Q215.9375 173.8259 215.5781 174.2478 Q215.2188 174.6697 215.2188 175.5291 ZM221.9219 174.5291 L220.5469 174.2791 Q220.7812 173.4666 221.3438 173.0681 Q221.9062 172.6697 223.0156 172.6697 Q224.0312 172.6697 224.5234 172.9041 Q225.0156 173.1384 225.2188 173.5056 Q225.4219 173.8728 225.4219 174.8572 L225.4062 176.6228 Q225.4062 177.3728 225.4766 177.7322 Q225.5469 178.0916 225.75 178.4978 L224.25 178.4978 Q224.1875 178.3416 224.1094 178.0447 Q224.0781 177.9197 224.0625 177.8728 Q223.6719 178.2478 223.2266 178.4353 Q222.7812 178.6228 222.2812 178.6228 Q221.4062 178.6228 220.8984 178.1462 Q220.3906 177.6697 220.3906 176.9353 Q220.3906 176.4509 220.625 176.0759 Q220.8594 175.7009 221.2734 175.4978 Q221.6875 175.2947 222.4688 175.1384 Q223.5312 174.9509 223.9375 174.7791 L223.9375 174.6228 Q223.9375 174.1853 223.7188 174.0056 Q223.5 173.8259 222.9062 173.8259 Q222.5156 173.8259 222.2891 173.9822 Q222.0625 174.1384 221.9219 174.5291 ZM223.9375 175.7634 Q223.6406 175.8572 223.0156 175.99 Q222.3906 176.1228 222.2031 176.2478 Q221.9062 176.4666 221.9062 176.7791 Q221.9062 177.1072 222.1406 177.3337 Q222.375 177.5603 222.7344 177.5603 Q223.1406 177.5603 223.5156 177.2947 Q223.7969 177.0916 223.875 176.7947 Q223.9375 176.6072 223.9375 176.0603 L223.9375 175.7634 ZM229.4062 172.7947 L229.4062 173.9978 L228.375 173.9978 L228.375 176.2947 Q228.375 176.9978 228.4062 177.115 Q228.4375 177.2322 228.5391 177.3025 Q228.6406 177.3728 228.7969 177.3728 Q229 177.3728 229.4062 177.2322 L229.5312 178.4041 Q229 178.6228 228.3438 178.6228 Q227.9219 178.6228 227.5938 178.49 Q227.2656 178.3572 227.1172 178.1384 Q226.9688 177.9197 226.9062 177.5447 Q226.8594 177.2791 226.8594 176.4822 L226.8594 173.9978 L226.1719 173.9978 L226.1719 172.7947 L226.8594 172.7947 L226.8594 171.6541 L228.375 170.7791 L228.375 172.7947 L229.4062 172.7947 ZM234.0938 176.6853 L235.5938 176.9353 Q235.3125 177.7634 234.6875 178.1931 Q234.0625 178.6228 233.1094 178.6228 Q231.625 178.6228 230.9062 177.6541 Q230.3438 176.8728 230.3438 175.6853 Q230.3438 174.2634 231.0859 173.4666 Q231.8281 172.6697 232.9688 172.6697 Q234.2344 172.6697 234.9688 173.5056 Q235.7031 174.3416 235.6719 176.0759 L231.8906 176.0759 Q231.9062 176.7478 232.2578 177.1228 Q232.6094 177.4978 233.125 177.4978 Q233.4844 177.4978 233.7266 177.3025 Q233.9688 177.1072 234.0938 176.6853 ZM234.1719 175.1541 Q234.1562 174.4978 233.8359 174.1619 Q233.5156 173.8259 233.0625 173.8259 Q232.5625 173.8259 232.2344 174.1853 Q231.9219 174.5447 231.9219 175.1541 L234.1719 175.1541 ZM238.9219 174.5291 L237.5469 174.2791 Q237.7812 173.4666 238.3438 173.0681 Q238.9062 172.6697 240.0156 172.6697 Q241.0312 172.6697 241.5234 172.9041 Q242.0156 173.1384 242.2188 173.5056 Q242.4219 173.8728 242.4219 174.8572 L242.4062 176.6228 Q242.4062 177.3728 242.4766 177.7322 Q242.5469 178.0916 242.75 178.4978 L241.25 178.4978 Q241.1875 178.3416 241.1094 178.0447 Q241.0781 177.9197 241.0625 177.8728 Q240.6719 178.2478 240.2266 178.4353 Q239.7812 178.6228 239.2812 178.6228 Q238.4062 178.6228 237.8984 178.1462 Q237.3906 177.6697 237.3906 176.9353 Q237.3906 176.4509 237.625 176.0759 Q237.8594 175.7009 238.2734 175.4978 Q238.6875 175.2947 239.4688 175.1384 Q240.5312 174.9509 240.9375 174.7791 L240.9375 174.6228 Q240.9375 174.1853 240.7188 174.0056 Q240.5 173.8259 239.9062 173.8259 Q239.5156 173.8259 239.2891 173.9822 Q239.0625 174.1384 238.9219 174.5291 ZM240.9375 175.7634 Q240.6406 175.8572 240.0156 175.99 Q239.3906 176.1228 239.2031 176.2478 Q238.9062 176.4666 238.9062 176.7791 Q238.9062 177.1072 239.1406 177.3337 Q239.375 177.5603 239.7344 177.5603 Q240.1406 177.5603 240.5156 177.2947 Q240.7969 177.0916 240.875 176.7947 Q240.9375 176.6072 240.9375 176.0603 L240.9375 175.7634 ZM247.5469 178.4978 L247.5469 177.6384 Q247.2344 178.1072 246.7266 178.365 Q246.2188 178.6228 245.6562 178.6228 Q245.0781 178.6228 244.625 178.3728 Q244.1719 178.1228 243.9609 177.6619 Q243.75 177.2009 243.75 176.4041 L243.75 172.7947 L245.2656 172.7947 L245.2656 175.4197 Q245.2656 176.6228 245.3516 176.8884 Q245.4375 177.1541 245.6562 177.3181 Q245.875 177.4822 246.2188 177.4822 Q246.5938 177.4822 246.9062 177.2712 Q247.2188 177.0603 247.3281 176.74 Q247.4375 176.4197 247.4375 175.2009 L247.4375 172.7947 L248.9531 172.7947 L248.9531 178.4978 L247.5469 178.4978 ZM259.0156 178.4978 L257.625 178.4978 L257.625 177.6541 Q257.2656 178.1541 256.7891 178.3884 Q256.3125 178.6228 255.8438 178.6228 Q254.8594 178.6228 254.1562 177.8337 Q253.4531 177.0447 253.4531 175.6228 Q253.4531 174.1697 254.1328 173.4197 Q254.8125 172.6697 255.8594 172.6697 Q256.8125 172.6697 257.5156 173.4666 L257.5156 170.6228 L259.0156 170.6228 L259.0156 178.4978 ZM255 175.5291 Q255 176.4353 255.25 176.8416 Q255.6094 177.4353 256.2656 177.4353 Q256.7812 177.4353 257.1484 176.99 Q257.5156 176.5447 257.5156 175.6697 Q257.5156 174.6853 257.1641 174.2556 Q256.8125 173.8259 256.25 173.8259 Q255.7188 173.8259 255.3594 174.2478 Q255 174.6697 255 175.5291 ZM261.9219 174.5291 L260.5469 174.2791 Q260.7812 173.4666 261.3438 173.0681 Q261.9062 172.6697 263.0156 172.6697 Q264.0312 172.6697 264.5234 172.9041 Q265.0156 173.1384 265.2188 173.5056 Q265.4219 173.8728 265.4219 174.8572 L265.4062 176.6228 Q265.4062 177.3728 265.4766 177.7322 Q265.5469 178.0916 265.75 178.4978 L264.25 178.4978 Q264.1875 178.3416 264.1094 178.0447 Q264.0781 177.9197 264.0625 177.8728 Q263.6719 178.2478 263.2266 178.4353 Q262.7812 178.6228 262.2812 178.6228 Q261.4062 178.6228 260.8984 178.1462 Q260.3906 177.6697 260.3906 176.9353 Q260.3906 176.4509 260.625 176.0759 Q260.8594 175.7009 261.2734 175.4978 Q261.6875 175.2947 262.4688 175.1384 Q263.5312 174.9509 263.9375 174.7791 L263.9375 174.6228 Q263.9375 174.1853 263.7188 174.0056 Q263.5 173.8259 262.9062 173.8259 Q262.5156 173.8259 262.2891 173.9822 Q262.0625 174.1384 261.9219 174.5291 ZM263.9375 175.7634 Q263.6406 175.8572 263.0156 175.99 Q262.3906 176.1228 262.2031 176.2478 Q261.9062 176.4666 261.9062 176.7791 Q261.9062 177.1072 262.1406 177.3337 Q262.375 177.5603 262.7344 177.5603 Q263.1406 177.5603 263.5156 177.2947 Q263.7969 177.0916 263.875 176.7947 Q263.9375 176.6072 263.9375 176.0603 L263.9375 175.7634 ZM271.9844 178.4978 L270.4688 178.4978 L270.4688 175.5916 Q270.4688 174.6697 270.375 174.3962 Q270.2812 174.1228 270.0625 173.9744 Q269.8438 173.8259 269.5312 173.8259 Q269.1406 173.8259 268.8281 174.0369 Q268.5156 174.2478 268.3984 174.5994 Q268.2812 174.9509 268.2812 175.9197 L268.2812 178.4978 L266.7812 178.4978 L266.7812 172.7947 L268.1875 172.7947 L268.1875 173.6384 Q268.9219 172.6697 270.0625 172.6697 Q270.5625 172.6697 270.9766 172.8494 Q271.3906 173.0291 271.6016 173.3025 Q271.8125 173.5759 271.8984 173.9353 Q271.9844 174.2947 271.9844 174.9509 L271.9844 178.4978 ZM273.2656 176.8728 L274.7656 176.6384 Q274.875 177.0759 275.1641 177.3025 Q275.4531 177.5291 275.9844 177.5291 Q276.5781 177.5291 276.875 177.3259 Q277.0781 177.1697 277.0781 176.9197 Q277.0781 176.7478 276.9688 176.6384 Q276.8438 176.5291 276.4531 176.4353 Q274.6406 176.0291 274.1406 175.7009 Q273.4688 175.2322 273.4688 174.4197 Q273.4688 173.6697 274.0547 173.1697 Q274.6406 172.6697 275.875 172.6697 Q277.0469 172.6697 277.6094 173.0447 Q278.1719 173.4197 278.3906 174.1697 L276.9688 174.4353 Q276.875 174.1072 276.625 173.9275 Q276.375 173.7478 275.8906 173.7478 Q275.2969 173.7478 275.0469 173.9197 Q274.875 174.0291 274.875 174.2166 Q274.875 174.3884 275.0156 174.4978 Q275.2188 174.6541 276.4297 174.9275 Q277.6406 175.2009 278.1094 175.5916 Q278.5938 175.9978 278.5938 176.7166 Q278.5938 177.4978 277.9375 178.0603 Q277.2812 178.6228 275.9844 178.6228 Q274.8281 178.6228 274.1484 178.1541 Q273.4688 177.6853 273.2656 176.8728 ZM287.5469 178.4978 L287.5469 177.6384 Q287.2344 178.1072 286.7266 178.365 Q286.2188 178.6228 285.6562 178.6228 Q285.0781 178.6228 284.625 178.3728 Q284.1719 178.1228 283.9609 177.6619 Q283.75 177.2009 283.75 176.4041 L283.75 172.7947 L285.2656 172.7947 L285.2656 175.4197 Q285.2656 176.6228 285.3516 176.8884 Q285.4375 177.1541 285.6562 177.3181 Q285.875 177.4822 286.2188 177.4822 Q286.5938 177.4822 286.9062 177.2712 Q287.2188 177.0603 287.3281 176.74 Q287.4375 176.4197 287.4375 175.2009 L287.4375 172.7947 L288.9531 172.7947 L288.9531 178.4978 L287.5469 178.4978 ZM295.9844 178.4978 L294.4688 178.4978 L294.4688 175.5916 Q294.4688 174.6697 294.375 174.3962 Q294.2812 174.1228 294.0625 173.9744 Q293.8438 173.8259 293.5312 173.8259 Q293.1406 173.8259 292.8281 174.0369 Q292.5156 174.2478 292.3984 174.5994 Q292.2812 174.9509 292.2812 175.9197 L292.2812 178.4978 L290.7812 178.4978 L290.7812 172.7947 L292.1875 172.7947 L292.1875 173.6384 Q292.9219 172.6697 294.0625 172.6697 Q294.5625 172.6697 294.9766 172.8494 Q295.3906 173.0291 295.6016 173.3025 Q295.8125 173.5759 295.8984 173.9353 Q295.9844 174.2947 295.9844 174.9509 L295.9844 178.4978 ZM305.7656 174.4822 L304.2812 174.7478 Q304.2031 174.3103 303.9375 174.0837 Q303.6719 173.8572 303.25 173.8572 Q302.6875 173.8572 302.3516 174.24 Q302.0156 174.6228 302.0156 175.5447 Q302.0156 176.5603 302.3516 176.9822 Q302.6875 177.4041 303.2656 177.4041 Q303.7031 177.4041 303.9766 177.1541 Q304.25 176.9041 304.3594 176.3103 L305.8438 176.5603 Q305.6094 177.5916 304.9531 178.1072 Q304.2969 178.6228 303.2031 178.6228 Q301.9375 178.6228 301.1953 177.8337 Q300.4531 177.0447 300.4531 175.6541 Q300.4531 174.2322 301.2031 173.4509 Q301.9531 172.6697 303.2188 172.6697 Q304.2656 172.6697 304.8828 173.115 Q305.5 173.5603 305.7656 174.4822 ZM307.9219 174.5291 L306.5469 174.2791 Q306.7812 173.4666 307.3438 173.0681 Q307.9062 172.6697 309.0156 172.6697 Q310.0312 172.6697 310.5234 172.9041 Q311.0156 173.1384 311.2188 173.5056 Q311.4219 173.8728 311.4219 174.8572 L311.4062 176.6228 Q311.4062 177.3728 311.4766 177.7322 Q311.5469 178.0916 311.75 178.4978 L310.25 178.4978 Q310.1875 178.3416 310.1094 178.0447 Q310.0781 177.9197 310.0625 177.8728 Q309.6719 178.2478 309.2266 178.4353 Q308.7812 178.6228 308.2812 178.6228 Q307.4062 178.6228 306.8984 178.1462 Q306.3906 177.6697 306.3906 176.9353 Q306.3906 176.4509 306.625 176.0759 Q306.8594 175.7009 307.2734 175.4978 Q307.6875 175.2947 308.4688 175.1384 Q309.5312 174.9509 309.9375 174.7791 L309.9375 174.6228 Q309.9375 174.1853 309.7188 174.0056 Q309.5 173.8259 308.9062 173.8259 Q308.5156 173.8259 308.2891 173.9822 Q308.0625 174.1384 307.9219 174.5291 ZM309.9375 175.7634 Q309.6406 175.8572 309.0156 175.99 Q308.3906 176.1228 308.2031 176.2478 Q307.9062 176.4666 307.9062 176.7791 Q307.9062 177.1072 308.1406 177.3337 Q308.375 177.5603 308.7344 177.5603 Q309.1406 177.5603 309.5156 177.2947 Q309.7969 177.0916 309.875 176.7947 Q309.9375 176.6072 309.9375 176.0603 L309.9375 175.7634 ZM312.75 172.7947 L314.1562 172.7947 L314.1562 173.6384 Q314.4219 173.2009 314.8906 172.9353 Q315.3594 172.6697 315.9375 172.6697 Q316.9219 172.6697 317.6172 173.4431 Q318.3125 174.2166 318.3125 175.6072 Q318.3125 177.0447 317.6172 177.8337 Q316.9219 178.6228 315.9219 178.6228 Q315.4531 178.6228 315.0703 178.4353 Q314.6875 178.2478 314.25 177.7947 L314.25 180.6697 L312.75 180.6697 L312.75 172.7947 ZM314.2344 175.5447 Q314.2344 176.5134 314.6172 176.9744 Q315 177.4353 315.5469 177.4353 Q316.0781 177.4353 316.4297 177.0134 Q316.7812 176.5916 316.7812 175.6228 Q316.7812 174.7322 316.4219 174.2947 Q316.0625 173.8572 315.5312 173.8572 Q314.9688 173.8572 314.6016 174.2869 Q314.2344 174.7166 314.2344 175.5447 Z"
         clip-path="url(#clipPath1)"
         stroke="none"
         id="path88" />
      <ellipse
         clip-path="url(#clipPath1)"
         fill="rgb(178,178,178)"
         rx="70"
         cx="269"
         ry="21"
         cy="94"
         stroke="none"
         id="ellipse90" />
      <ellipse
         clip-path="url(#clipPath1)"
         fill="url(#linearGradient3)"
         rx="70"
         cx="266"
         ry="21"
         cy="91"
         stroke="none"
         id="ellipse92" />
      <ellipse
         clip-path="url(#clipPath1)"
         fill="none"
         rx="70"
         cx="266"
         ry="21"
         cy="91"
         stroke="rgb(102,102,71)"
         id="ellipse94" />
      <path
         fill="black"
         d="M220.8125 80.6228 L223.9531 80.6228 Q224.8906 80.6228 225.3516 80.7009 Q225.8125 80.7791 226.1719 81.0291 Q226.5312 81.2791 226.7734 81.6853 Q227.0156 82.0916 227.0156 82.6072 Q227.0156 83.1541 226.7188 83.615 Q226.4219 84.0759 225.9062 84.3103 Q226.625 84.5291 227.0156 85.0291 Q227.4062 85.5291 227.4062 86.2166 Q227.4062 86.7478 227.1562 87.2556 Q226.9062 87.7634 226.4688 88.0681 Q226.0312 88.3728 225.4062 88.4509 Q225 88.4822 223.4844 88.4978 L220.8125 88.4978 L220.8125 80.6228 ZM222.3906 81.9353 L222.3906 83.7478 L223.4375 83.7478 Q224.3594 83.7478 224.5938 83.7322 Q225 83.6853 225.2344 83.4509 Q225.4688 83.2166 225.4688 82.8259 Q225.4688 82.4666 225.2656 82.24 Q225.0625 82.0134 224.6719 81.9666 Q224.4375 81.9353 223.3125 81.9353 L222.3906 81.9353 ZM222.3906 85.0603 L222.3906 87.1697 L223.875 87.1697 Q224.7344 87.1697 224.9531 87.1228 Q225.3125 87.0603 225.5391 86.8103 Q225.7656 86.5603 225.7656 86.1384 Q225.7656 85.7791 225.5938 85.5369 Q225.4219 85.2947 225.0938 85.1775 Q224.7656 85.0603 223.6719 85.0603 L222.3906 85.0603 ZM228.9219 84.5291 L227.5469 84.2791 Q227.7812 83.4666 228.3438 83.0681 Q228.9062 82.6697 230.0156 82.6697 Q231.0312 82.6697 231.5234 82.9041 Q232.0156 83.1384 232.2188 83.5056 Q232.4219 83.8728 232.4219 84.8572 L232.4062 86.6228 Q232.4062 87.3728 232.4766 87.7322 Q232.5469 88.0916 232.75 88.4978 L231.25 88.4978 Q231.1875 88.3416 231.1094 88.0447 Q231.0781 87.9197 231.0625 87.8728 Q230.6719 88.2478 230.2266 88.4353 Q229.7812 88.6228 229.2812 88.6228 Q228.4062 88.6228 227.8984 88.1462 Q227.3906 87.6697 227.3906 86.9353 Q227.3906 86.4509 227.625 86.0759 Q227.8594 85.7009 228.2734 85.4978 Q228.6875 85.2947 229.4688 85.1384 Q230.5312 84.9509 230.9375 84.7791 L230.9375 84.6228 Q230.9375 84.1853 230.7188 84.0056 Q230.5 83.8259 229.9062 83.8259 Q229.5156 83.8259 229.2891 83.9822 Q229.0625 84.1384 228.9219 84.5291 ZM230.9375 85.7634 Q230.6406 85.8572 230.0156 85.99 Q229.3906 86.1228 229.2031 86.2478 Q228.9062 86.4666 228.9062 86.7791 Q228.9062 87.1072 229.1406 87.3337 Q229.375 87.5603 229.7344 87.5603 Q230.1406 87.5603 230.5156 87.2947 Q230.7969 87.0916 230.875 86.7947 Q230.9375 86.6072 230.9375 86.0603 L230.9375 85.7634 ZM235.2344 88.4978 L233.7188 88.4978 L233.7188 82.7947 L235.125 82.7947 L235.125 83.6072 Q235.4844 83.0291 235.7734 82.8494 Q236.0625 82.6697 236.4219 82.6697 Q236.9375 82.6697 237.4219 82.9509 L236.9531 84.2634 Q236.5781 84.0134 236.25 84.0134 Q235.9219 84.0134 235.7031 84.1931 Q235.4844 84.3728 235.3594 84.8259 Q235.2344 85.2791 235.2344 86.7322 L235.2344 88.4978 ZM240.2344 88.4978 L238.7188 88.4978 L238.7188 82.7947 L240.125 82.7947 L240.125 83.6072 Q240.4844 83.0291 240.7734 82.8494 Q241.0625 82.6697 241.4219 82.6697 Q241.9375 82.6697 242.4219 82.9509 L241.9531 84.2634 Q241.5781 84.0134 241.25 84.0134 Q240.9219 84.0134 240.7031 84.1931 Q240.4844 84.3728 240.3594 84.8259 Q240.2344 85.2791 240.2344 86.7322 L240.2344 88.4978 ZM247.0938 86.6853 L248.5938 86.9353 Q248.3125 87.7634 247.6875 88.1931 Q247.0625 88.6228 246.1094 88.6228 Q244.625 88.6228 243.9062 87.6541 Q243.3438 86.8728 243.3438 85.6853 Q243.3438 84.2634 244.0859 83.4666 Q244.8281 82.6697 245.9688 82.6697 Q247.2344 82.6697 247.9688 83.5056 Q248.7031 84.3416 248.6719 86.0759 L244.8906 86.0759 Q244.9062 86.7478 245.2578 87.1228 Q245.6094 87.4978 246.125 87.4978 Q246.4844 87.4978 246.7266 87.3025 Q246.9688 87.1072 247.0938 86.6853 ZM247.1719 85.1541 Q247.1562 84.4978 246.8359 84.1619 Q246.5156 83.8259 246.0625 83.8259 Q245.5625 83.8259 245.2344 84.1853 Q244.9219 84.5447 244.9219 85.1541 L247.1719 85.1541 ZM252.2344 88.4978 L250.7188 88.4978 L250.7188 82.7947 L252.125 82.7947 L252.125 83.6072 Q252.4844 83.0291 252.7734 82.8494 Q253.0625 82.6697 253.4219 82.6697 Q253.9375 82.6697 254.4219 82.9509 L253.9531 84.2634 Q253.5781 84.0134 253.25 84.0134 Q252.9219 84.0134 252.7031 84.1931 Q252.4844 84.3728 252.3594 84.8259 Q252.2344 85.2791 252.2344 86.7322 L252.2344 88.4978 ZM258.7969 88.4978 L258.7969 80.6228 L260.2969 80.6228 L260.2969 88.4978 L258.7969 88.4978 ZM265.0938 86.6853 L266.5938 86.9353 Q266.3125 87.7634 265.6875 88.1931 Q265.0625 88.6228 264.1094 88.6228 Q262.625 88.6228 261.9062 87.6541 Q261.3438 86.8728 261.3438 85.6853 Q261.3438 84.2634 262.0859 83.4666 Q262.8281 82.6697 263.9688 82.6697 Q265.2344 82.6697 265.9688 83.5056 Q266.7031 84.3416 266.6719 86.0759 L262.8906 86.0759 Q262.9062 86.7478 263.2578 87.1228 Q263.6094 87.4978 264.125 87.4978 Q264.4844 87.4978 264.7266 87.3025 Q264.9688 87.1072 265.0938 86.6853 ZM265.1719 85.1541 Q265.1562 84.4978 264.8359 84.1619 Q264.5156 83.8259 264.0625 83.8259 Q263.5625 83.8259 263.2344 84.1853 Q262.9219 84.5447 262.9219 85.1541 L265.1719 85.1541 ZM271.7188 88.4978 L271.7188 80.6228 L273.2344 80.6228 L273.2344 83.4666 Q273.9375 82.6697 274.8906 82.6697 Q275.9375 82.6697 276.6172 83.4197 Q277.2969 84.1697 277.2969 85.5916 Q277.2969 87.0447 276.6016 87.8337 Q275.9062 88.6228 274.9062 88.6228 Q274.4219 88.6228 273.9453 88.3806 Q273.4688 88.1384 273.125 87.6541 L273.125 88.4978 L271.7188 88.4978 ZM273.2188 85.5291 Q273.2188 86.4041 273.5 86.8259 Q273.8906 87.4353 274.5469 87.4353 Q275.0469 87.4353 275.3984 87.0056 Q275.75 86.5759 275.75 85.6541 Q275.75 84.6853 275.3984 84.2556 Q275.0469 83.8259 274.4844 83.8259 Q273.9375 83.8259 273.5781 84.2478 Q273.2188 84.6697 273.2188 85.5291 ZM279.9219 84.5291 L278.5469 84.2791 Q278.7812 83.4666 279.3438 83.0681 Q279.9062 82.6697 281.0156 82.6697 Q282.0312 82.6697 282.5234 82.9041 Q283.0156 83.1384 283.2188 83.5056 Q283.4219 83.8728 283.4219 84.8572 L283.4062 86.6228 Q283.4062 87.3728 283.4766 87.7322 Q283.5469 88.0916 283.75 88.4978 L282.25 88.4978 Q282.1875 88.3416 282.1094 88.0447 Q282.0781 87.9197 282.0625 87.8728 Q281.6719 88.2478 281.2266 88.4353 Q280.7812 88.6228 280.2812 88.6228 Q279.4062 88.6228 278.8984 88.1462 Q278.3906 87.6697 278.3906 86.9353 Q278.3906 86.4509 278.625 86.0759 Q278.8594 85.7009 279.2734 85.4978 Q279.6875 85.2947 280.4688 85.1384 Q281.5312 84.9509 281.9375 84.7791 L281.9375 84.6228 Q281.9375 84.1853 281.7188 84.0056 Q281.5 83.8259 280.9062 83.8259 Q280.5156 83.8259 280.2891 83.9822 Q280.0625 84.1384 279.9219 84.5291 ZM281.9375 85.7634 Q281.6406 85.8572 281.0156 85.99 Q280.3906 86.1228 280.2031 86.2478 Q279.9062 86.4666 279.9062 86.7791 Q279.9062 87.1072 280.1406 87.3337 Q280.375 87.5603 280.7344 87.5603 Q281.1406 87.5603 281.5156 87.2947 Q281.7969 87.0916 281.875 86.7947 Q281.9375 86.6072 281.9375 86.0603 L281.9375 85.7634 ZM287.4062 82.7947 L287.4062 83.9978 L286.375 83.9978 L286.375 86.2947 Q286.375 86.9978 286.4062 87.115 Q286.4375 87.2322 286.5391 87.3025 Q286.6406 87.3728 286.7969 87.3728 Q287 87.3728 287.4062 87.2322 L287.5312 88.4041 Q287 88.6228 286.3438 88.6228 Q285.9219 88.6228 285.5938 88.49 Q285.2656 88.3572 285.1172 88.1384 Q284.9688 87.9197 284.9062 87.5447 Q284.8594 87.2791 284.8594 86.4822 L284.8594 83.9978 L284.1719 83.9978 L284.1719 82.7947 L284.8594 82.7947 L284.8594 81.6541 L286.375 80.7791 L286.375 82.7947 L287.4062 82.7947 ZM292.0938 86.6853 L293.5938 86.9353 Q293.3125 87.7634 292.6875 88.1931 Q292.0625 88.6228 291.1094 88.6228 Q289.625 88.6228 288.9062 87.6541 Q288.3438 86.8728 288.3438 85.6853 Q288.3438 84.2634 289.0859 83.4666 Q289.8281 82.6697 290.9688 82.6697 Q292.2344 82.6697 292.9688 83.5056 Q293.7031 84.3416 293.6719 86.0759 L289.8906 86.0759 Q289.9062 86.7478 290.2578 87.1228 Q290.6094 87.4978 291.125 87.4978 Q291.4844 87.4978 291.7266 87.3025 Q291.9688 87.1072 292.0938 86.6853 ZM292.1719 85.1541 Q292.1562 84.4978 291.8359 84.1619 Q291.5156 83.8259 291.0625 83.8259 Q290.5625 83.8259 290.2344 84.1853 Q289.9219 84.5447 289.9219 85.1541 L292.1719 85.1541 ZM296.9219 84.5291 L295.5469 84.2791 Q295.7812 83.4666 296.3438 83.0681 Q296.9062 82.6697 298.0156 82.6697 Q299.0312 82.6697 299.5234 82.9041 Q300.0156 83.1384 300.2188 83.5056 Q300.4219 83.8728 300.4219 84.8572 L300.4062 86.6228 Q300.4062 87.3728 300.4766 87.7322 Q300.5469 88.0916 300.75 88.4978 L299.25 88.4978 Q299.1875 88.3416 299.1094 88.0447 Q299.0781 87.9197 299.0625 87.8728 Q298.6719 88.2478 298.2266 88.4353 Q297.7812 88.6228 297.2812 88.6228 Q296.4062 88.6228 295.8984 88.1462 Q295.3906 87.6697 295.3906 86.9353 Q295.3906 86.4509 295.625 86.0759 Q295.8594 85.7009 296.2734 85.4978 Q296.6875 85.2947 297.4688 85.1384 Q298.5312 84.9509 298.9375 84.7791 L298.9375 84.6228 Q298.9375 84.1853 298.7188 84.0056 Q298.5 83.8259 297.9062 83.8259 Q297.5156 83.8259 297.2891 83.9822 Q297.0625 84.1384 296.9219 84.5291 ZM298.9375 85.7634 Q298.6406 85.8572 298.0156 85.99 Q297.3906 86.1228 297.2031 86.2478 Q296.9062 86.4666 296.9062 86.7791 Q296.9062 87.1072 297.1406 87.3337 Q297.375 87.5603 297.7344 87.5603 Q298.1406 87.5603 298.5156 87.2947 Q298.7969 87.0916 298.875 86.7947 Q298.9375 86.6072 298.9375 86.0603 L298.9375 85.7634 ZM305.5469 88.4978 L305.5469 87.6384 Q305.2344 88.1072 304.7266 88.365 Q304.2188 88.6228 303.6562 88.6228 Q303.0781 88.6228 302.625 88.3728 Q302.1719 88.1228 301.9609 87.6619 Q301.75 87.2009 301.75 86.4041 L301.75 82.7947 L303.2656 82.7947 L303.2656 85.4197 Q303.2656 86.6228 303.3516 86.8884 Q303.4375 87.1541 303.6562 87.3181 Q303.875 87.4822 304.2188 87.4822 Q304.5938 87.4822 304.9062 87.2712 Q305.2188 87.0603 305.3281 86.74 Q305.4375 86.4197 305.4375 85.2009 L305.4375 82.7947 L306.9531 82.7947 L306.9531 88.4978 L305.5469 88.4978 Z"
         clip-path="url(#clipPath1)"
         stroke="none"
         id="path96" />
      <path
         fill="black"
         d="M235.2656 98.8728 L236.7656 98.6384 Q236.875 99.0759 237.1641 99.3025 Q237.4531 99.5291 237.9844 99.5291 Q238.5781 99.5291 238.875 99.3259 Q239.0781 99.1697 239.0781 98.9197 Q239.0781 98.7478 238.9688 98.6384 Q238.8438 98.5291 238.4531 98.4353 Q236.6406 98.0291 236.1406 97.7009 Q235.4688 97.2322 235.4688 96.4197 Q235.4688 95.6697 236.0547 95.1697 Q236.6406 94.6697 237.875 94.6697 Q239.0469 94.6697 239.6094 95.0447 Q240.1719 95.4197 240.3906 96.1697 L238.9688 96.4353 Q238.875 96.1072 238.625 95.9275 Q238.375 95.7478 237.8906 95.7478 Q237.2969 95.7478 237.0469 95.9197 Q236.875 96.0291 236.875 96.2166 Q236.875 96.3884 237.0156 96.4978 Q237.2188 96.6541 238.4297 96.9275 Q239.6406 97.2009 240.1094 97.5916 Q240.5938 97.9978 240.5938 98.7166 Q240.5938 99.4978 239.9375 100.0603 Q239.2812 100.6228 237.9844 100.6228 Q236.8281 100.6228 236.1484 100.1541 Q235.4688 99.6853 235.2656 98.8728 ZM243.9219 96.5291 L242.5469 96.2791 Q242.7812 95.4666 243.3438 95.0681 Q243.9062 94.6697 245.0156 94.6697 Q246.0312 94.6697 246.5234 94.9041 Q247.0156 95.1384 247.2188 95.5056 Q247.4219 95.8728 247.4219 96.8572 L247.4062 98.6228 Q247.4062 99.3728 247.4766 99.7322 Q247.5469 100.0916 247.75 100.4978 L246.25 100.4978 Q246.1875 100.3416 246.1094 100.0447 Q246.0781 99.9197 246.0625 99.8728 Q245.6719 100.2478 245.2266 100.4353 Q244.7812 100.6228 244.2812 100.6228 Q243.4062 100.6228 242.8984 100.1462 Q242.3906 99.6697 242.3906 98.9353 Q242.3906 98.4509 242.625 98.0759 Q242.8594 97.7009 243.2734 97.4978 Q243.6875 97.2947 244.4688 97.1384 Q245.5312 96.9509 245.9375 96.7791 L245.9375 96.6228 Q245.9375 96.1853 245.7188 96.0056 Q245.5 95.8259 244.9062 95.8259 Q244.5156 95.8259 244.2891 95.9822 Q244.0625 96.1384 243.9219 96.5291 ZM245.9375 97.7634 Q245.6406 97.8572 245.0156 97.99 Q244.3906 98.1228 244.2031 98.2478 Q243.9062 98.4666 243.9062 98.7791 Q243.9062 99.1072 244.1406 99.3337 Q244.375 99.5603 244.7344 99.5603 Q245.1406 99.5603 245.5156 99.2947 Q245.7969 99.0916 245.875 98.7947 Q245.9375 98.6072 245.9375 98.0603 L245.9375 97.7634 ZM253.9844 100.4978 L252.4688 100.4978 L252.4688 97.5916 Q252.4688 96.6697 252.375 96.3962 Q252.2812 96.1228 252.0625 95.9744 Q251.8438 95.8259 251.5312 95.8259 Q251.1406 95.8259 250.8281 96.0369 Q250.5156 96.2478 250.3984 96.5994 Q250.2812 96.9509 250.2812 97.9197 L250.2812 100.4978 L248.7812 100.4978 L248.7812 94.7947 L250.1875 94.7947 L250.1875 95.6384 Q250.9219 94.6697 252.0625 94.6697 Q252.5625 94.6697 252.9766 94.8494 Q253.3906 95.0291 253.6016 95.3025 Q253.8125 95.5759 253.8984 95.9353 Q253.9844 96.2947 253.9844 96.9509 L253.9844 100.4978 ZM255.2656 98.8728 L256.7656 98.6384 Q256.875 99.0759 257.1641 99.3025 Q257.4531 99.5291 257.9844 99.5291 Q258.5781 99.5291 258.875 99.3259 Q259.0781 99.1697 259.0781 98.9197 Q259.0781 98.7478 258.9688 98.6384 Q258.8438 98.5291 258.4531 98.4353 Q256.6406 98.0291 256.1406 97.7009 Q255.4688 97.2322 255.4688 96.4197 Q255.4688 95.6697 256.0547 95.1697 Q256.6406 94.6697 257.875 94.6697 Q259.0469 94.6697 259.6094 95.0447 Q260.1719 95.4197 260.3906 96.1697 L258.9688 96.4353 Q258.875 96.1072 258.625 95.9275 Q258.375 95.7478 257.8906 95.7478 Q257.2969 95.7478 257.0469 95.9197 Q256.875 96.0291 256.875 96.2166 Q256.875 96.3884 257.0156 96.4978 Q257.2188 96.6541 258.4297 96.9275 Q259.6406 97.2009 260.1094 97.5916 Q260.5938 97.9978 260.5938 98.7166 Q260.5938 99.4978 259.9375 100.0603 Q259.2812 100.6228 257.9844 100.6228 Q256.8281 100.6228 256.1484 100.1541 Q255.4688 99.6853 255.2656 98.8728 ZM269.0938 98.6853 L270.5938 98.9353 Q270.3125 99.7634 269.6875 100.1931 Q269.0625 100.6228 268.1094 100.6228 Q266.625 100.6228 265.9062 99.6541 Q265.3438 98.8728 265.3438 97.6853 Q265.3438 96.2634 266.0859 95.4666 Q266.8281 94.6697 267.9688 94.6697 Q269.2344 94.6697 269.9688 95.5056 Q270.7031 96.3416 270.6719 98.0759 L266.8906 98.0759 Q266.9062 98.7478 267.2578 99.1228 Q267.6094 99.4978 268.125 99.4978 Q268.4844 99.4978 268.7266 99.3025 Q268.9688 99.1072 269.0938 98.6853 ZM269.1719 97.1541 Q269.1562 96.4978 268.8359 96.1619 Q268.5156 95.8259 268.0625 95.8259 Q267.5625 95.8259 267.2344 96.1853 Q266.9219 96.5447 266.9219 97.1541 L269.1719 97.1541 ZM272.125 94.7947 L272.9688 94.7947 L272.9688 94.3572 Q272.9688 93.6384 273.1172 93.2869 Q273.2656 92.9353 273.6797 92.7087 Q274.0938 92.4822 274.7188 92.4822 Q275.375 92.4822 275.9844 92.6853 L275.7812 93.7322 Q275.4219 93.6541 275.0938 93.6541 Q274.7656 93.6541 274.6172 93.8025 Q274.4688 93.9509 274.4688 94.3884 L274.4688 94.7947 L275.6094 94.7947 L275.6094 95.9822 L274.4688 95.9822 L274.4688 100.4978 L272.9688 100.4978 L272.9688 95.9822 L272.125 95.9822 L272.125 94.7947 ZM276.125 94.7947 L276.9688 94.7947 L276.9688 94.3572 Q276.9688 93.6384 277.1172 93.2869 Q277.2656 92.9353 277.6797 92.7087 Q278.0938 92.4822 278.7188 92.4822 Q279.375 92.4822 279.9844 92.6853 L279.7812 93.7322 Q279.4219 93.6541 279.0938 93.6541 Q278.7656 93.6541 278.6172 93.8025 Q278.4688 93.9509 278.4688 94.3884 L278.4688 94.7947 L279.6094 94.7947 L279.6094 95.9822 L278.4688 95.9822 L278.4688 100.4978 L276.9688 100.4978 L276.9688 95.9822 L276.125 95.9822 L276.125 94.7947 ZM280.4375 97.5603 Q280.4375 96.8103 280.8125 96.1072 Q281.1875 95.4041 281.8672 95.0369 Q282.5469 94.6697 283.375 94.6697 Q284.6719 94.6697 285.5 95.5056 Q286.3281 96.3416 286.3281 97.6228 Q286.3281 98.9197 285.4922 99.7712 Q284.6562 100.6228 283.3906 100.6228 Q282.6094 100.6228 281.8984 100.2712 Q281.1875 99.9197 280.8125 99.2322 Q280.4375 98.5447 280.4375 97.5603 ZM281.9844 97.6384 Q281.9844 98.4978 282.3906 98.9509 Q282.7969 99.4041 283.3906 99.4041 Q283.9688 99.4041 284.375 98.9509 Q284.7812 98.4978 284.7812 97.6384 Q284.7812 96.7947 284.375 96.3416 Q283.9688 95.8884 283.3906 95.8884 Q282.7969 95.8884 282.3906 96.3416 Q281.9844 96.7947 281.9844 97.6384 ZM289.2344 100.4978 L287.7188 100.4978 L287.7188 94.7947 L289.125 94.7947 L289.125 95.6072 Q289.4844 95.0291 289.7734 94.8494 Q290.0625 94.6697 290.4219 94.6697 Q290.9375 94.6697 291.4219 94.9509 L290.9531 96.2634 Q290.5781 96.0134 290.25 96.0134 Q289.9219 96.0134 289.7031 96.1931 Q289.4844 96.3728 289.3594 96.8259 Q289.2344 97.2791 289.2344 98.7322 L289.2344 100.4978 ZM295.4062 94.7947 L295.4062 95.9978 L294.375 95.9978 L294.375 98.2947 Q294.375 98.9978 294.4062 99.115 Q294.4375 99.2322 294.5391 99.3025 Q294.6406 99.3728 294.7969 99.3728 Q295 99.3728 295.4062 99.2322 L295.5312 100.4041 Q295 100.6228 294.3438 100.6228 Q293.9219 100.6228 293.5938 100.49 Q293.2656 100.3572 293.1172 100.1384 Q292.9688 99.9197 292.9062 99.5447 Q292.8594 99.2791 292.8594 98.4822 L292.8594 95.9978 L292.1719 95.9978 L292.1719 94.7947 L292.8594 94.7947 L292.8594 93.6541 L294.375 92.7791 L294.375 94.7947 L295.4062 94.7947 Z"
         clip-path="url(#clipPath1)"
         stroke="none"
         id="path98" />
      <path
         fill="black"
         d="M17.8125 127.6228 L20.9531 127.6228 Q21.8906 127.6228 22.3516 127.7009 Q22.8125 127.7791 23.1719 128.0291 Q23.5312 128.2791 23.7734 128.6853 Q24.0156 129.0916 24.0156 129.6072 Q24.0156 130.1541 23.7188 130.615 Q23.4219 131.0759 22.9062 131.3103 Q23.625 131.5291 24.0156 132.0291 Q24.4062 132.5291 24.4062 133.2166 Q24.4062 133.7478 24.1562 134.2556 Q23.9062 134.7634 23.4688 135.0681 Q23.0312 135.3728 22.4062 135.4509 Q22 135.4822 20.4844 135.4978 L17.8125 135.4978 L17.8125 127.6228 ZM19.3906 128.9353 L19.3906 130.7478 L20.4375 130.7478 Q21.3594 130.7478 21.5938 130.7322 Q22 130.6853 22.2344 130.4509 Q22.4688 130.2166 22.4688 129.8259 Q22.4688 129.4666 22.2656 129.24 Q22.0625 129.0134 21.6719 128.9666 Q21.4375 128.9353 20.3125 128.9353 L19.3906 128.9353 ZM19.3906 132.0603 L19.3906 134.1697 L20.875 134.1697 Q21.7344 134.1697 21.9531 134.1228 Q22.3125 134.0603 22.5391 133.8103 Q22.7656 133.5603 22.7656 133.1384 Q22.7656 132.7791 22.5938 132.5369 Q22.4219 132.2947 22.0938 132.1775 Q21.7656 132.0603 20.6719 132.0603 L19.3906 132.0603 ZM25.9219 131.5291 L24.5469 131.2791 Q24.7812 130.4666 25.3438 130.0681 Q25.9062 129.6697 27.0156 129.6697 Q28.0312 129.6697 28.5234 129.9041 Q29.0156 130.1384 29.2188 130.5056 Q29.4219 130.8728 29.4219 131.8572 L29.4062 133.6228 Q29.4062 134.3728 29.4766 134.7322 Q29.5469 135.0916 29.75 135.4978 L28.25 135.4978 Q28.1875 135.3416 28.1094 135.0447 Q28.0781 134.9197 28.0625 134.8728 Q27.6719 135.2478 27.2266 135.4353 Q26.7812 135.6228 26.2812 135.6228 Q25.4062 135.6228 24.8984 135.1462 Q24.3906 134.6697 24.3906 133.9353 Q24.3906 133.4509 24.625 133.0759 Q24.8594 132.7009 25.2734 132.4978 Q25.6875 132.2947 26.4688 132.1384 Q27.5312 131.9509 27.9375 131.7791 L27.9375 131.6228 Q27.9375 131.1853 27.7188 131.0056 Q27.5 130.8259 26.9062 130.8259 Q26.5156 130.8259 26.2891 130.9822 Q26.0625 131.1384 25.9219 131.5291 ZM27.9375 132.7634 Q27.6406 132.8572 27.0156 132.99 Q26.3906 133.1228 26.2031 133.2478 Q25.9062 133.4666 25.9062 133.7791 Q25.9062 134.1072 26.1406 134.3337 Q26.375 134.5603 26.7344 134.5603 Q27.1406 134.5603 27.5156 134.2947 Q27.7969 134.0916 27.875 133.7947 Q27.9375 133.6072 27.9375 133.0603 L27.9375 132.7634 ZM32.2344 135.4978 L30.7188 135.4978 L30.7188 129.7947 L32.125 129.7947 L32.125 130.6072 Q32.4844 130.0291 32.7734 129.8494 Q33.0625 129.6697 33.4219 129.6697 Q33.9375 129.6697 34.4219 129.9509 L33.9531 131.2634 Q33.5781 131.0134 33.25 131.0134 Q32.9219 131.0134 32.7031 131.1931 Q32.4844 131.3728 32.3594 131.8259 Q32.2344 132.2791 32.2344 133.7322 L32.2344 135.4978 ZM37.2344 135.4978 L35.7188 135.4978 L35.7188 129.7947 L37.125 129.7947 L37.125 130.6072 Q37.4844 130.0291 37.7734 129.8494 Q38.0625 129.6697 38.4219 129.6697 Q38.9375 129.6697 39.4219 129.9509 L38.9531 131.2634 Q38.5781 131.0134 38.25 131.0134 Q37.9219 131.0134 37.7031 131.1931 Q37.4844 131.3728 37.3594 131.8259 Q37.2344 132.2791 37.2344 133.7322 L37.2344 135.4978 ZM44.0938 133.6853 L45.5938 133.9353 Q45.3125 134.7634 44.6875 135.1931 Q44.0625 135.6228 43.1094 135.6228 Q41.625 135.6228 40.9062 134.6541 Q40.3438 133.8728 40.3438 132.6853 Q40.3438 131.2634 41.0859 130.4666 Q41.8281 129.6697 42.9688 129.6697 Q44.2344 129.6697 44.9688 130.5056 Q45.7031 131.3416 45.6719 133.0759 L41.8906 133.0759 Q41.9062 133.7478 42.2578 134.1228 Q42.6094 134.4978 43.125 134.4978 Q43.4844 134.4978 43.7266 134.3025 Q43.9688 134.1072 44.0938 133.6853 ZM44.1719 132.1541 Q44.1562 131.4978 43.8359 131.1619 Q43.5156 130.8259 43.0625 130.8259 Q42.5625 130.8259 42.2344 131.1853 Q41.9219 131.5447 41.9219 132.1541 L44.1719 132.1541 ZM51.5469 135.4978 L51.5469 134.6384 Q51.2344 135.1072 50.7266 135.365 Q50.2188 135.6228 49.6562 135.6228 Q49.0781 135.6228 48.625 135.3728 Q48.1719 135.1228 47.9609 134.6619 Q47.75 134.2009 47.75 133.4041 L47.75 129.7947 L49.2656 129.7947 L49.2656 132.4197 Q49.2656 133.6228 49.3516 133.8884 Q49.4375 134.1541 49.6562 134.3181 Q49.875 134.4822 50.2188 134.4822 Q50.5938 134.4822 50.9062 134.2712 Q51.2188 134.0603 51.3281 133.74 Q51.4375 133.4197 51.4375 132.2009 L51.4375 129.7947 L52.9531 129.7947 L52.9531 135.4978 L51.5469 135.4978 ZM56.2344 135.4978 L54.7188 135.4978 L54.7188 129.7947 L56.125 129.7947 L56.125 130.6072 Q56.4844 130.0291 56.7734 129.8494 Q57.0625 129.6697 57.4219 129.6697 Q57.9375 129.6697 58.4219 129.9509 L57.9531 131.2634 Q57.5781 131.0134 57.25 131.0134 Q56.9219 131.0134 56.7031 131.1931 Q56.4844 131.3728 56.3594 131.8259 Q56.2344 132.2791 56.2344 133.7322 L56.2344 135.4978 ZM68.0156 135.4978 L66.625 135.4978 L66.625 134.6541 Q66.2656 135.1541 65.7891 135.3884 Q65.3125 135.6228 64.8438 135.6228 Q63.8594 135.6228 63.1562 134.8337 Q62.4531 134.0447 62.4531 132.6228 Q62.4531 131.1697 63.1328 130.4197 Q63.8125 129.6697 64.8594 129.6697 Q65.8125 129.6697 66.5156 130.4666 L66.5156 127.6228 L68.0156 127.6228 L68.0156 135.4978 ZM64 132.5291 Q64 133.4353 64.25 133.8416 Q64.6094 134.4353 65.2656 134.4353 Q65.7812 134.4353 66.1484 133.99 Q66.5156 133.5447 66.5156 132.6697 Q66.5156 131.6853 66.1641 131.2556 Q65.8125 130.8259 65.25 130.8259 Q64.7188 130.8259 64.3594 131.2478 Q64 131.6697 64 132.5291 ZM73.5469 135.4978 L73.5469 134.6384 Q73.2344 135.1072 72.7266 135.365 Q72.2188 135.6228 71.6562 135.6228 Q71.0781 135.6228 70.625 135.3728 Q70.1719 135.1228 69.9609 134.6619 Q69.75 134.2009 69.75 133.4041 L69.75 129.7947 L71.2656 129.7947 L71.2656 132.4197 Q71.2656 133.6228 71.3516 133.8884 Q71.4375 134.1541 71.6562 134.3181 Q71.875 134.4822 72.2188 134.4822 Q72.5938 134.4822 72.9062 134.2712 Q73.2188 134.0603 73.3281 133.74 Q73.4375 133.4197 73.4375 132.2009 L73.4375 129.7947 L74.9531 129.7947 L74.9531 135.4978 L73.5469 135.4978 ZM81.3594 135.4978 L79.0625 129.7947 L80.6406 129.7947 L81.7188 132.7009 L82.0312 133.6697 Q82.1562 133.3103 82.1875 133.1853 Q82.2656 132.9509 82.3438 132.7009 L83.4375 129.7947 L84.9844 129.7947 L82.7188 135.4978 L81.3594 135.4978 ZM85.4375 132.5603 Q85.4375 131.8103 85.8125 131.1072 Q86.1875 130.4041 86.8672 130.0369 Q87.5469 129.6697 88.375 129.6697 Q89.6719 129.6697 90.5 130.5056 Q91.3281 131.3416 91.3281 132.6228 Q91.3281 133.9197 90.4922 134.7712 Q89.6562 135.6228 88.3906 135.6228 Q87.6094 135.6228 86.8984 135.2712 Q86.1875 134.9197 85.8125 134.2322 Q85.4375 133.5447 85.4375 132.5603 ZM86.9844 132.6384 Q86.9844 133.4978 87.3906 133.9509 Q87.7969 134.4041 88.3906 134.4041 Q88.9688 134.4041 89.375 133.9509 Q89.7812 133.4978 89.7812 132.6384 Q89.7812 131.7947 89.375 131.3416 Q88.9688 130.8884 88.3906 130.8884 Q87.7969 130.8884 87.3906 131.3416 Q86.9844 131.7947 86.9844 132.6384 ZM92.7969 129.0134 L92.7969 127.6228 L94.2969 127.6228 L94.2969 129.0134 L92.7969 129.0134 ZM92.7969 135.4978 L92.7969 129.7947 L94.2969 129.7947 L94.2969 135.4978 L92.7969 135.4978 ZM95.7969 135.4978 L95.7969 127.6228 L97.2969 127.6228 L97.2969 135.4978 L95.7969 135.4978 ZM98.7969 129.0134 L98.7969 127.6228 L100.2969 127.6228 L100.2969 129.0134 L98.7969 129.0134 ZM98.7969 135.4978 L98.7969 129.7947 L100.2969 129.7947 L100.2969 135.4978 L98.7969 135.4978 ZM105.0938 133.6853 L106.5938 133.9353 Q106.3125 134.7634 105.6875 135.1931 Q105.0625 135.6228 104.1094 135.6228 Q102.625 135.6228 101.9062 134.6541 Q101.3438 133.8728 101.3438 132.6853 Q101.3438 131.2634 102.0859 130.4666 Q102.8281 129.6697 103.9688 129.6697 Q105.2344 129.6697 105.9688 130.5056 Q106.7031 131.3416 106.6719 133.0759 L102.8906 133.0759 Q102.9062 133.7478 103.2578 134.1228 Q103.6094 134.4978 104.125 134.4978 Q104.4844 134.4978 104.7266 134.3025 Q104.9688 134.1072 105.0938 133.6853 ZM105.1719 132.1541 Q105.1562 131.4978 104.8359 131.1619 Q104.5156 130.8259 104.0625 130.8259 Q103.5625 130.8259 103.2344 131.1853 Q102.9219 131.5447 102.9219 132.1541 L105.1719 132.1541 ZM110.2344 135.4978 L108.7188 135.4978 L108.7188 129.7947 L110.125 129.7947 L110.125 130.6072 Q110.4844 130.0291 110.7734 129.8494 Q111.0625 129.6697 111.4219 129.6697 Q111.9375 129.6697 112.4219 129.9509 L111.9531 131.2634 Q111.5781 131.0134 111.25 131.0134 Q110.9219 131.0134 110.7031 131.1931 Q110.4844 131.3728 110.3594 131.8259 Q110.2344 132.2791 110.2344 133.7322 L110.2344 135.4978 Z"
         clip-path="url(#clipPath1)"
         stroke="none"
         id="path100" />
      <line
         clip-path="url(#clipPath1)"
         fill="none"
         x1="66"
         x2="66"
         y1="107"
         y2="117"
         stroke="rgb(178,178,178)"
         id="line102" />
      <line
         clip-path="url(#clipPath1)"
         fill="none"
         x1="53"
         x2="79"
         y1="112"
         y2="112"
         stroke="rgb(178,178,178)"
         id="line104" />
      <line
         clip-path="url(#clipPath1)"
         fill="none"
         x1="53"
         x2="66"
         y1="126"
         y2="117"
         stroke="rgb(178,178,178)"
         id="line106" />
      <line
         clip-path="url(#clipPath1)"
         fill="none"
         x1="79"
         x2="66"
         y1="126"
         y2="117"
         stroke="rgb(178,178,178)"
         id="line108" />
      <line
         clip-path="url(#clipPath1)"
         fill="none"
         x1="67"
         x2="67"
         y1="107"
         y2="118"
         stroke="rgb(178,178,178)"
         id="line110" />
      <line
         clip-path="url(#clipPath1)"
         fill="none"
         x1="54"
         x2="80"
         y1="113"
         y2="113"
         stroke="rgb(178,178,178)"
         id="line112" />
      <line
         clip-path="url(#clipPath1)"
         fill="none"
         x1="54"
         x2="67"
         y1="127"
         y2="118"
         stroke="rgb(178,178,178)"
         id="line114" />
      <line
         clip-path="url(#clipPath1)"
         fill="none"
         x1="80"
         x2="67"
         y1="127"
         y2="118"
         stroke="rgb(178,178,178)"
         id="line116" />
      <circle
         fill="rgb(178,178,178)"
         r="4.5"
         clip-path="url(#clipPath1)"
         cx="67.5"
         cy="104.5"
         stroke="none"
         id="circle118" />
      <circle
         fill="url(#linearGradient4)"
         r="4.5"
         clip-path="url(#clipPath1)"
         cx="65.5"
         cy="102.5"
         stroke="none"
         id="circle120" />
      <circle
         fill="none"
         r="4.5"
         clip-path="url(#clipPath1)"
         cx="65.5"
         cy="102.5"
         stroke="rgb(102,102,71)"
         id="circle122" />
      <line
         clip-path="url(#clipPath1)"
         fill="none"
         x1="65"
         x2="65"
         y1="107"
         y2="116"
         stroke="rgb(102,102,71)"
         id="line124" />
      <line
         clip-path="url(#clipPath1)"
         fill="none"
         x1="52"
         x2="78"
         y1="111"
         y2="111"
         stroke="rgb(102,102,71)"
         id="line126" />
      <line
         clip-path="url(#clipPath1)"
         fill="none"
         x1="52"
         x2="65"
         y1="125"
         y2="116"
         stroke="rgb(102,102,71)"
         id="line128" />
      <line
         clip-path="url(#clipPath1)"
         fill="none"
         x1="78"
         x2="65"
         y1="125"
         y2="116"
         stroke="rgb(102,102,71)"
         id="line130" />
      <path
         fill="none"
         d="M203 99 L79 117"
         clip-path="url(#clipPath1)"
         stroke="black"
         id="path132" />
      <path
         fill="none"
         d="M190 146 L114 130"
         clip-path="url(#clipPath1)"
         stroke="black"
         id="path134" />
    </g>
  </g>
</svg>
