solid Barre_Défaut_sldprt
   facet normal -1.000000e+000 0.000000e+000 0.000000e+000
      outer loop
         vertex -8.500000e+000 -5.000000e+000 1.000000e+002
         vertex -8.500000e+000 5.000000e+000 1.000000e+002
         vertex -8.500000e+000 -5.000000e+000 0.000000e+000
      endloop
   endfacet
   facet normal -1.000000e+000 0.000000e+000 0.000000e+000
      outer loop
         vertex -8.500000e+000 -5.000000e+000 0.000000e+000
         vertex -8.500000e+000 5.000000e+000 1.000000e+002
         vertex -8.500000e+000 5.000000e+000 0.000000e+000
      endloop
   endfacet
   facet normal 0.000000e+000 -1.000000e+000 0.000000e+000
      outer loop
         vertex 8.500000e+000 -5.000000e+000 1.000000e+002
         vertex -8.500000e+000 -5.000000e+000 1.000000e+002
         vertex 8.500000e+000 -5.000000e+000 0.000000e+000
      endloop
   endfacet
   facet normal 0.000000e+000 -1.000000e+000 0.000000e+000
      outer loop
         vertex 8.500000e+000 -5.000000e+000 0.000000e+000
         vertex -8.500000e+000 -5.000000e+000 1.000000e+002
         vertex -8.500000e+000 -5.000000e+000 0.000000e+000
      endloop
   endfacet
   facet normal 1.000000e+000 0.000000e+000 0.000000e+000
      outer loop
         vertex 8.500000e+000 5.000000e+000 1.000000e+002
         vertex 8.500000e+000 -5.000000e+000 1.000000e+002
         vertex 8.500000e+000 5.000000e+000 0.000000e+000
      endloop
   endfacet
   facet normal 1.000000e+000 0.000000e+000 0.000000e+000
      outer loop
         vertex 8.500000e+000 5.000000e+000 0.000000e+000
         vertex 8.500000e+000 -5.000000e+000 1.000000e+002
         vertex 8.500000e+000 -5.000000e+000 0.000000e+000
      endloop
   endfacet
   facet normal 0.000000e+000 1.000000e+000 0.000000e+000
      outer loop
         vertex -8.500000e+000 5.000000e+000 1.000000e+002
         vertex 8.500000e+000 5.000000e+000 1.000000e+002
         vertex -8.500000e+000 5.000000e+000 0.000000e+000
      endloop
   endfacet
   facet normal 0.000000e+000 1.000000e+000 0.000000e+000
      outer loop
         vertex -8.500000e+000 5.000000e+000 0.000000e+000
         vertex 8.500000e+000 5.000000e+000 1.000000e+002
         vertex 8.500000e+000 5.000000e+000 0.000000e+000
      endloop
   endfacet
   facet normal 0.000000e+000 0.000000e+000 1.000000e+000
      outer loop
         vertex 8.500000e+000 -5.000000e+000 1.000000e+002
         vertex 8.500000e+000 5.000000e+000 1.000000e+002
         vertex -8.500000e+000 -5.000000e+000 1.000000e+002
      endloop
   endfacet
   facet normal 0.000000e+000 0.000000e+000 1.000000e+000
      outer loop
         vertex -8.500000e+000 -5.000000e+000 1.000000e+002
         vertex 8.500000e+000 5.000000e+000 1.000000e+002
         vertex -8.500000e+000 5.000000e+000 1.000000e+002
      endloop
   endfacet
   facet normal 0.000000e+000 0.000000e+000 -1.000000e+000
      outer loop
         vertex 8.500000e+000 5.000000e+000 0.000000e+000
         vertex 8.500000e+000 -5.000000e+000 0.000000e+000
         vertex -8.500000e+000 5.000000e+000 0.000000e+000
      endloop
   endfacet
   facet normal 0.000000e+000 0.000000e+000 -1.000000e+000
      outer loop
         vertex -8.500000e+000 5.000000e+000 0.000000e+000
         vertex 8.500000e+000 -5.000000e+000 0.000000e+000
         vertex -8.500000e+000 -5.000000e+000 0.000000e+000
      endloop
   endfacet
endsolid