<?xml version="1.0" encoding="UTF-8" standalone="no"?>
<svg
   xmlns:dc="http://purl.org/dc/elements/1.1/"
   xmlns:cc="http://creativecommons.org/ns#"
   xmlns:rdf="http://www.w3.org/1999/02/22-rdf-syntax-ns#"
   xmlns:svg="http://www.w3.org/2000/svg"
   xmlns="http://www.w3.org/2000/svg"
   xmlns:sodipodi="http://sodipodi.sourceforge.net/DTD/sodipodi-0.dtd"
   xmlns:inkscape="http://www.inkscape.org/namespaces/inkscape"
   fill-opacity="1"
   color-rendering="auto"
   color-interpolation="auto"
   stroke="black"
   text-rendering="auto"
   stroke-linecap="square"
   width="5.833333333333333in"
   stroke-miterlimit="10"
   stroke-opacity="1"
   shape-rendering="auto"
   fill="black"
   stroke-dasharray="none"
   font-weight="normal"
   stroke-width="1"
   viewBox="0 0 560 280"
   height="2.9166666666666665in"
   font-family="'Arial'"
   font-style="normal"
   stroke-linejoin="miter"
   font-size="12"
   stroke-dashoffset="0"
   image-rendering="auto"
   id="svg2"
   version="1.1"
   inkscape:version="0.48.4 r9939"
   sodipodi:docname="Sympact.svg"
   inkscape:export-filename="C:\Users\Xavier\Desktop\Perso\Concours\CCP_PSI\2015_Sujets\182_XP_Sympact\SysML\Sympact.png"
   inkscape:export-xdpi="300"
   inkscape:export-ydpi="300">
  <metadata
     id="metadata313">
    <rdf:RDF>
      <cc:Work
         rdf:about="">
        <dc:format>image/svg+xml</dc:format>
        <dc:type
           rdf:resource="http://purl.org/dc/dcmitype/StillImage" />
        <dc:title />
      </cc:Work>
    </rdf:RDF>
  </metadata>
  <sodipodi:namedview
     pagecolor="#ffffff"
     bordercolor="#666666"
     borderopacity="1"
     objecttolerance="10"
     gridtolerance="10"
     guidetolerance="10"
     inkscape:pageopacity="0"
     inkscape:pageshadow="2"
     inkscape:window-width="640"
     inkscape:window-height="480"
     id="namedview311"
     showgrid="false"
     inkscape:zoom="0.66857143"
     inkscape:cx="262.5"
     inkscape:cy="131.25"
     inkscape:window-x="0"
     inkscape:window-y="0"
     inkscape:window-maximized="0"
     inkscape:current-layer="g113" />
  <!--Generated by the Batik Graphics2D SVG Generator
 This is MagicDraw diagram.-->
  <defs
     id="genericDefs" />
  <g
     id="g5">
    <defs
       id="defs1">
      <linearGradient
         x1="5"
         gradientUnits="userSpaceOnUse"
         x2="20"
         y1="45"
         y2="60"
         id="linearGradient1"
         spreadMethod="pad">
        <stop
           stop-opacity="1"
           stop-color="rgb(189,210,193)"
           offset="0%"
           id="stop9" />
        <stop
           stop-opacity="1"
           stop-color="white"
           offset="100%"
           id="stop11" />
      </linearGradient>
      <linearGradient
         x1="530"
         gradientUnits="userSpaceOnUse"
         x2="545"
         y1="223"
         y2="238"
         id="linearGradient2"
         spreadMethod="pad">
        <stop
           stop-opacity="1"
           stop-color="rgb(189,210,193)"
           offset="0%"
           id="stop14" />
        <stop
           stop-opacity="1"
           stop-color="white"
           offset="100%"
           id="stop16" />
      </linearGradient>
      <linearGradient
         x1="5"
         gradientUnits="userSpaceOnUse"
         x2="20"
         y1="113"
         y2="128"
         id="linearGradient3"
         spreadMethod="pad">
        <stop
           stop-opacity="1"
           stop-color="rgb(189,210,193)"
           offset="0%"
           id="stop19" />
        <stop
           stop-opacity="1"
           stop-color="white"
           offset="100%"
           id="stop21" />
      </linearGradient>
      <linearGradient
         x1="301"
         gradientUnits="userSpaceOnUse"
         x2="511"
         y1="210"
         y2="245"
         id="linearGradient4"
         spreadMethod="pad">
        <stop
           stop-opacity="1"
           stop-color="rgb(255,240,180)"
           offset="0%"
           id="stop24" />
        <stop
           stop-opacity="1"
           stop-color="white"
           offset="100%"
           id="stop26" />
      </linearGradient>
      <linearGradient
         x1="400"
         gradientUnits="userSpaceOnUse"
         x2="415"
         y1="203"
         y2="218"
         id="linearGradient5"
         spreadMethod="pad">
        <stop
           stop-opacity="1"
           stop-color="rgb(189,210,193)"
           offset="0%"
           id="stop29" />
        <stop
           stop-opacity="1"
           stop-color="white"
           offset="100%"
           id="stop31" />
      </linearGradient>
      <linearGradient
         x1="503"
         gradientUnits="userSpaceOnUse"
         x2="518"
         y1="222"
         y2="237"
         id="linearGradient6"
         spreadMethod="pad">
        <stop
           stop-opacity="1"
           stop-color="rgb(189,210,193)"
           offset="0%"
           id="stop34" />
        <stop
           stop-opacity="1"
           stop-color="white"
           offset="100%"
           id="stop36" />
      </linearGradient>
      <linearGradient
         x1="315"
         gradientUnits="userSpaceOnUse"
         x2="490"
         y1="35"
         y2="74"
         id="linearGradient7"
         spreadMethod="pad">
        <stop
           stop-opacity="1"
           stop-color="rgb(255,240,180)"
           offset="0%"
           id="stop39" />
        <stop
           stop-opacity="1"
           stop-color="white"
           offset="100%"
           id="stop41" />
      </linearGradient>
      <linearGradient
         x1="308"
         gradientUnits="userSpaceOnUse"
         x2="323"
         y1="47"
         y2="62"
         id="linearGradient8"
         spreadMethod="pad">
        <stop
           stop-opacity="1"
           stop-color="rgb(189,210,193)"
           offset="0%"
           id="stop44" />
        <stop
           stop-opacity="1"
           stop-color="white"
           offset="100%"
           id="stop46" />
      </linearGradient>
      <linearGradient
         x1="397"
         gradientUnits="userSpaceOnUse"
         x2="412"
         y1="66"
         y2="81"
         id="linearGradient9"
         spreadMethod="pad">
        <stop
           stop-opacity="1"
           stop-color="rgb(189,210,193)"
           offset="0%"
           id="stop49" />
        <stop
           stop-opacity="1"
           stop-color="white"
           offset="100%"
           id="stop51" />
      </linearGradient>
      <linearGradient
         x1="91"
         gradientUnits="userSpaceOnUse"
         x2="231"
         y1="210"
         y2="245"
         id="linearGradient10"
         spreadMethod="pad">
        <stop
           stop-opacity="1"
           stop-color="rgb(255,240,180)"
           offset="0%"
           id="stop54" />
        <stop
           stop-opacity="1"
           stop-color="white"
           offset="100%"
           id="stop56" />
      </linearGradient>
      <linearGradient
         x1="149"
         gradientUnits="userSpaceOnUse"
         x2="164"
         y1="203"
         y2="218"
         id="linearGradient11"
         spreadMethod="pad">
        <stop
           stop-opacity="1"
           stop-color="rgb(189,210,193)"
           offset="0%"
           id="stop59" />
        <stop
           stop-opacity="1"
           stop-color="white"
           offset="100%"
           id="stop61" />
      </linearGradient>
      <linearGradient
         x1="223"
         gradientUnits="userSpaceOnUse"
         x2="238"
         y1="224"
         y2="239"
         id="linearGradient12"
         spreadMethod="pad">
        <stop
           stop-opacity="1"
           stop-color="rgb(189,210,193)"
           offset="0%"
           id="stop64" />
        <stop
           stop-opacity="1"
           stop-color="white"
           offset="100%"
           id="stop66" />
      </linearGradient>
      <linearGradient
         x1="343"
         gradientUnits="userSpaceOnUse"
         x2="462"
         y1="119"
         y2="161"
         id="linearGradient13"
         spreadMethod="pad">
        <stop
           stop-opacity="1"
           stop-color="rgb(255,240,180)"
           offset="0%"
           id="stop69" />
        <stop
           stop-opacity="1"
           stop-color="white"
           offset="100%"
           id="stop71" />
      </linearGradient>
      <linearGradient
         x1="397"
         gradientUnits="userSpaceOnUse"
         x2="412"
         y1="112"
         y2="127"
         id="linearGradient14"
         spreadMethod="pad">
        <stop
           stop-opacity="1"
           stop-color="rgb(189,210,193)"
           offset="0%"
           id="stop74" />
        <stop
           stop-opacity="1"
           stop-color="white"
           offset="100%"
           id="stop76" />
      </linearGradient>
      <linearGradient
         x1="400"
         gradientUnits="userSpaceOnUse"
         x2="415"
         y1="153"
         y2="168"
         id="linearGradient15"
         spreadMethod="pad">
        <stop
           stop-opacity="1"
           stop-color="rgb(189,210,193)"
           offset="0%"
           id="stop79" />
        <stop
           stop-opacity="1"
           stop-color="white"
           offset="100%"
           id="stop81" />
      </linearGradient>
      <linearGradient
         x1="105"
         gradientUnits="userSpaceOnUse"
         x2="210"
         y1="35"
         y2="140"
         id="linearGradient16"
         spreadMethod="pad">
        <stop
           stop-opacity="1"
           stop-color="rgb(255,240,180)"
           offset="0%"
           id="stop84" />
        <stop
           stop-opacity="1"
           stop-color="white"
           offset="100%"
           id="stop86" />
      </linearGradient>
      <linearGradient
         x1="98"
         gradientUnits="userSpaceOnUse"
         x2="113"
         y1="45"
         y2="60"
         id="linearGradient17"
         spreadMethod="pad">
        <stop
           stop-opacity="1"
           stop-color="rgb(189,210,193)"
           offset="0%"
           id="stop89" />
        <stop
           stop-opacity="1"
           stop-color="white"
           offset="100%"
           id="stop91" />
      </linearGradient>
      <linearGradient
         x1="150"
         gradientUnits="userSpaceOnUse"
         x2="165"
         y1="132"
         y2="147"
         id="linearGradient18"
         spreadMethod="pad">
        <stop
           stop-opacity="1"
           stop-color="rgb(189,210,193)"
           offset="0%"
           id="stop94" />
        <stop
           stop-opacity="1"
           stop-color="white"
           offset="100%"
           id="stop96" />
      </linearGradient>
      <linearGradient
         x1="98"
         gradientUnits="userSpaceOnUse"
         x2="113"
         y1="111"
         y2="126"
         id="linearGradient19"
         spreadMethod="pad">
        <stop
           stop-opacity="1"
           stop-color="rgb(189,210,193)"
           offset="0%"
           id="stop99" />
        <stop
           stop-opacity="1"
           stop-color="white"
           offset="100%"
           id="stop101" />
      </linearGradient>
      <clipPath
         clipPathUnits="userSpaceOnUse"
         id="clipPath1">
        <path
           d="M0 -5 L560 -5 L560 280 L0 280 L0 -5 Z"
           id="path104" />
      </clipPath>
      <clipPath
         clipPathUnits="userSpaceOnUse"
         id="clipPath2">
        <path
           d="M-18.4002 48.2287 L131.9817 -455.8163 L381.1294 -381.483 L230.7475 122.5619 L-18.4002 48.2287 Z"
           id="path107" />
      </clipPath>
    </defs>
    <g
       fill="white"
       stroke="white"
       id="g109">
      <rect
         x="12"
         width="526"
         height="260"
         y="5"
         clip-path="url(#clipPath1)"
         stroke="none"
         id="rect111" />
    </g>
    <g
       fill="rgb(221,221,221)"
       font-style="italic"
       text-rendering="geometricPrecision"
       font-size="16"
       transform="translate(25.8044,47.0115) rotate(73.3875) translate(-25.8044,-47.0115)"
       stroke="rgb(221,221,221)"
       id="g113" />
    <g
       fill="rgb(66,66,66)"
       text-rendering="geometricPrecision"
       stroke-linejoin="round"
       stroke-linecap="butt"
       stroke="rgb(66,66,66)"
       id="g123">
      <rect
         fill="none"
         x="12"
         width="526"
         height="260"
         y="5"
         clip-path="url(#clipPath1)"
         id="rect125" />
      <path
         fill="black"
         d="M40.75 20.6853 L40.75 10.6228 L42.875 10.6228 L42.875 11.4197 L41.7188 11.4197 L41.7188 19.8884 L42.875 19.8884 L42.875 20.6853 L40.75 20.6853 ZM43.5 15.9666 L44.4844 15.8884 Q44.5469 16.4666 44.8047 16.8494 Q45.0625 17.2322 45.5938 17.4666 Q46.125 17.7009 46.7969 17.7009 Q47.4062 17.7009 47.8594 17.5212 Q48.3125 17.3416 48.5391 17.0369 Q48.7656 16.7322 48.7656 16.3572 Q48.7656 15.9822 48.5469 15.7087 Q48.3281 15.4353 47.8281 15.2478 Q47.5156 15.1228 46.4297 14.865 Q45.3438 14.6072 44.9062 14.3728 Q44.3438 14.0759 44.0703 13.6384 Q43.7969 13.2009 43.7969 12.6541 Q43.7969 12.0603 44.1328 11.5447 Q44.4688 11.0291 45.1172 10.7556 Q45.7656 10.4822 46.5625 10.4822 Q47.4375 10.4822 48.1094 10.7712 Q48.7812 11.0603 49.1406 11.6072 Q49.5 12.1541 49.5312 12.8416 L48.5312 12.9197 Q48.4531 12.1697 47.9844 11.7869 Q47.5156 11.4041 46.6094 11.4041 Q45.6719 11.4041 45.2344 11.7556 Q44.7969 12.1072 44.7969 12.5916 Q44.7969 13.0134 45.1094 13.2947 Q45.4062 13.5603 46.6797 13.8494 Q47.9531 14.1384 48.4219 14.3572 Q49.1094 14.6697 49.4375 15.1541 Q49.7656 15.6384 49.7656 16.2791 Q49.7656 16.9041 49.4062 17.4587 Q49.0469 18.0134 48.3672 18.3259 Q47.6875 18.6384 46.8438 18.6384 Q45.7812 18.6384 45.0625 18.3259 Q44.3438 18.0134 43.9297 17.3884 Q43.5156 16.7634 43.5 15.9666 ZM50.6875 20.7009 L50.5781 19.7947 Q50.8906 19.8728 51.125 19.8728 Q51.4531 19.8728 51.6484 19.7634 Q51.8438 19.6541 51.9531 19.4666 Q52.0469 19.3259 52.25 18.7478 Q52.2812 18.6697 52.3438 18.5134 L50.1719 12.7947 L51.2188 12.7947 L52.4062 16.0916 Q52.6406 16.7322 52.8125 17.4197 Q52.9844 16.7478 53.2188 16.1228 L54.4375 12.7947 L55.4062 12.7947 L53.2344 18.5916 Q52.8906 19.5291 52.6875 19.8884 Q52.4375 20.3728 52.1016 20.5916 Q51.7656 20.8103 51.3125 20.8103 Q51.0312 20.8103 50.6875 20.7009 ZM56.3438 16.7947 L57.2969 16.6384 Q57.375 17.2166 57.7422 17.5212 Q58.1094 17.8259 58.7656 17.8259 Q59.4375 17.8259 59.7578 17.5603 Q60.0781 17.2947 60.0781 16.9197 Q60.0781 16.5916 59.7969 16.4041 Q59.5938 16.2791 58.8125 16.0759 Q57.75 15.8103 57.3359 15.615 Q56.9219 15.4197 56.7109 15.0759 Q56.5 14.7322 56.5 14.3103 Q56.5 13.9197 56.6719 13.5994 Q56.8438 13.2791 57.1562 13.0603 Q57.375 12.8884 57.7656 12.7791 Q58.1562 12.6697 58.5938 12.6697 Q59.2656 12.6697 59.7734 12.8572 Q60.2812 13.0447 60.5234 13.3806 Q60.7656 13.7166 60.8594 14.2634 L59.9219 14.3884 Q59.8438 13.9509 59.5391 13.7087 Q59.2344 13.4666 58.6719 13.4666 Q58 13.4666 57.7188 13.6853 Q57.4375 13.9041 57.4375 14.2009 Q57.4375 14.3884 57.5469 14.5291 Q57.6719 14.6853 57.9219 14.7947 Q58.0625 14.8416 58.7812 15.0447 Q59.7969 15.3103 60.2031 15.4822 Q60.6094 15.6541 60.8438 15.99 Q61.0781 16.3259 61.0781 16.8259 Q61.0781 17.3103 60.7969 17.7322 Q60.5156 18.1541 59.9844 18.3884 Q59.4531 18.6228 58.7812 18.6228 Q57.6719 18.6228 57.0859 18.1619 Q56.5 17.7009 56.3438 16.7947 ZM64.8438 17.6384 L64.9688 18.4822 Q64.5625 18.5759 64.25 18.5759 Q63.7188 18.5759 63.4297 18.4041 Q63.1406 18.2322 63.0234 17.9666 Q62.9062 17.7009 62.9062 16.8259 L62.9062 13.5447 L62.1875 13.5447 L62.1875 12.7947 L62.9062 12.7947 L62.9062 11.3884 L63.8594 10.7947 L63.8594 12.7947 L64.8438 12.7947 L64.8438 13.5447 L63.8594 13.5447 L63.8594 16.8884 Q63.8594 17.2947 63.9141 17.4119 Q63.9688 17.5291 64.0859 17.5994 Q64.2031 17.6697 64.4062 17.6697 Q64.5781 17.6697 64.8438 17.6384 ZM69.625 16.6541 L70.625 16.7791 Q70.3906 17.6541 69.75 18.1384 Q69.1094 18.6228 68.125 18.6228 Q66.875 18.6228 66.1406 17.8572 Q65.4062 17.0916 65.4062 15.7009 Q65.4062 14.2478 66.1484 13.4587 Q66.8906 12.6697 68.0625 12.6697 Q69.2188 12.6697 69.9375 13.4431 Q70.6562 14.2166 70.6562 15.6384 Q70.6562 15.7166 70.6562 15.8884 L66.4062 15.8884 Q66.4531 16.8259 66.9297 17.3259 Q67.4062 17.8259 68.125 17.8259 Q68.6562 17.8259 69.0312 17.5525 Q69.4062 17.2791 69.625 16.6541 ZM66.4531 15.0916 L69.6406 15.0916 Q69.5781 14.3728 69.2812 14.0134 Q68.8125 13.4666 68.0781 13.4666 Q67.4062 13.4666 66.9531 13.9119 Q66.5 14.3572 66.4531 15.0916 ZM71.7188 18.4978 L71.7188 12.7947 L72.5938 12.7947 L72.5938 13.5916 Q72.8594 13.1697 73.3047 12.9197 Q73.75 12.6697 74.3125 12.6697 Q74.9531 12.6697 75.3594 12.9275 Q75.7656 13.1853 75.9375 13.6697 Q76.6094 12.6697 77.6875 12.6697 Q78.5469 12.6697 79 13.1384 Q79.4531 13.6072 79.4531 14.5759 L79.4531 18.4978 L78.5 18.4978 L78.5 14.9041 Q78.5 14.3259 78.4062 14.0681 Q78.3125 13.8103 78.0625 13.6541 Q77.8125 13.4978 77.4844 13.4978 Q76.875 13.4978 76.4766 13.9041 Q76.0781 14.3103 76.0781 15.1853 L76.0781 18.4978 L75.1094 18.4978 L75.1094 14.7947 Q75.1094 14.1541 74.875 13.8259 Q74.6406 13.4978 74.1094 13.4978 Q73.7031 13.4978 73.3516 13.7166 Q73 13.9353 72.8438 14.3494 Q72.6875 14.7634 72.6875 15.5447 L72.6875 18.4978 L71.7188 18.4978 ZM81.3438 20.6853 L79.2031 20.6853 L79.2031 19.8884 L80.375 19.8884 L80.375 11.4197 L79.2031 11.4197 L79.2031 10.6228 L81.3438 10.6228 L81.3438 20.6853 Z"
         clip-path="url(#clipPath1)"
         stroke="none"
         id="path127" />
      <path
         fill="black"
         d="M86.5 15.9666 L87.4844 15.8884 Q87.5469 16.4666 87.8047 16.8494 Q88.0625 17.2322 88.5938 17.4666 Q89.125 17.7009 89.7969 17.7009 Q90.4062 17.7009 90.8594 17.5212 Q91.3125 17.3416 91.5391 17.0369 Q91.7656 16.7322 91.7656 16.3572 Q91.7656 15.9822 91.5469 15.7087 Q91.3281 15.4353 90.8281 15.2478 Q90.5156 15.1228 89.4297 14.865 Q88.3438 14.6072 87.9062 14.3728 Q87.3438 14.0759 87.0703 13.6384 Q86.7969 13.2009 86.7969 12.6541 Q86.7969 12.0603 87.1328 11.5447 Q87.4688 11.0291 88.1172 10.7556 Q88.7656 10.4822 89.5625 10.4822 Q90.4375 10.4822 91.1094 10.7712 Q91.7812 11.0603 92.1406 11.6072 Q92.5 12.1541 92.5312 12.8416 L91.5312 12.9197 Q91.4531 12.1697 90.9844 11.7869 Q90.5156 11.4041 89.6094 11.4041 Q88.6719 11.4041 88.2344 11.7556 Q87.7969 12.1072 87.7969 12.5916 Q87.7969 13.0134 88.1094 13.2947 Q88.4062 13.5603 89.6797 13.8494 Q90.9531 14.1384 91.4219 14.3572 Q92.1094 14.6697 92.4375 15.1541 Q92.7656 15.6384 92.7656 16.2791 Q92.7656 16.9041 92.4062 17.4587 Q92.0469 18.0134 91.3672 18.3259 Q90.6875 18.6384 89.8438 18.6384 Q88.7812 18.6384 88.0625 18.3259 Q87.3438 18.0134 86.9297 17.3884 Q86.5156 16.7634 86.5 15.9666 ZM93.6875 20.7009 L93.5781 19.7947 Q93.8906 19.8728 94.125 19.8728 Q94.4531 19.8728 94.6484 19.7634 Q94.8438 19.6541 94.9531 19.4666 Q95.0469 19.3259 95.25 18.7478 Q95.2812 18.6697 95.3438 18.5134 L93.1719 12.7947 L94.2188 12.7947 L95.4062 16.0916 Q95.6406 16.7322 95.8125 17.4197 Q95.9844 16.7478 96.2188 16.1228 L97.4375 12.7947 L98.4062 12.7947 L96.2344 18.5916 Q95.8906 19.5291 95.6875 19.8884 Q95.4375 20.3728 95.1016 20.5916 Q94.7656 20.8103 94.3125 20.8103 Q94.0312 20.8103 93.6875 20.7009 ZM99.7188 18.4978 L99.7188 12.7947 L100.5938 12.7947 L100.5938 13.5916 Q100.8594 13.1697 101.3047 12.9197 Q101.75 12.6697 102.3125 12.6697 Q102.9531 12.6697 103.3594 12.9275 Q103.7656 13.1853 103.9375 13.6697 Q104.6094 12.6697 105.6875 12.6697 Q106.5469 12.6697 107 13.1384 Q107.4531 13.6072 107.4531 14.5759 L107.4531 18.4978 L106.5 18.4978 L106.5 14.9041 Q106.5 14.3259 106.4062 14.0681 Q106.3125 13.8103 106.0625 13.6541 Q105.8125 13.4978 105.4844 13.4978 Q104.875 13.4978 104.4766 13.9041 Q104.0781 14.3103 104.0781 15.1853 L104.0781 18.4978 L103.1094 18.4978 L103.1094 14.7947 Q103.1094 14.1541 102.875 13.8259 Q102.6406 13.4978 102.1094 13.4978 Q101.7031 13.4978 101.3516 13.7166 Q101 13.9353 100.8438 14.3494 Q100.6875 14.7634 100.6875 15.5447 L100.6875 18.4978 L99.7188 18.4978 ZM107.7188 20.6853 L107.7188 12.7947 L108.6094 12.7947 L108.6094 13.5291 Q108.9219 13.1072 109.3125 12.8884 Q109.7031 12.6697 110.2656 12.6697 Q110.9844 12.6697 111.5469 13.0447 Q112.1094 13.4197 112.3906 14.0994 Q112.6719 14.7791 112.6719 15.6072 Q112.6719 16.4822 112.3594 17.1775 Q112.0469 17.8728 111.4453 18.2478 Q110.8438 18.6228 110.1875 18.6228 Q109.7031 18.6228 109.3203 18.4197 Q108.9375 18.2166 108.6875 17.9041 L108.6875 20.6853 L107.7188 20.6853 ZM108.5938 15.6853 Q108.5938 16.7791 109.0469 17.3025 Q109.5 17.8259 110.125 17.8259 Q110.7656 17.8259 111.2266 17.2869 Q111.6875 16.7478 111.6875 15.5916 Q111.6875 14.5134 111.2422 13.9666 Q110.7969 13.4197 110.1719 13.4197 Q109.5469 13.4197 109.0703 13.9978 Q108.5938 14.5759 108.5938 15.6853 ZM117.4531 17.7947 Q116.9062 18.2478 116.4141 18.4353 Q115.9219 18.6228 115.3438 18.6228 Q114.4062 18.6228 113.8984 18.1619 Q113.3906 17.7009 113.3906 16.9978 Q113.3906 16.5759 113.5859 16.2322 Q113.7812 15.8884 114.0859 15.6775 Q114.3906 15.4666 114.7812 15.3572 Q115.0625 15.2791 115.6406 15.2166 Q116.8125 15.0759 117.3594 14.8728 Q117.375 14.6853 117.375 14.6228 Q117.375 14.0291 117.0938 13.7947 Q116.7344 13.4666 116 13.4666 Q115.3125 13.4666 114.9922 13.7009 Q114.6719 13.9353 114.5156 14.5447 L113.5625 14.4197 Q113.6875 13.8103 113.9844 13.4353 Q114.2812 13.0603 114.8438 12.865 Q115.4062 12.6697 116.1406 12.6697 Q116.875 12.6697 117.3281 12.8416 Q117.7812 13.0134 117.9922 13.2712 Q118.2031 13.5291 118.2969 13.9197 Q118.3438 14.1697 118.3438 14.8259 L118.3438 16.1072 Q118.3438 17.4509 118.4062 17.8103 Q118.4688 18.1697 118.6562 18.4978 L117.6406 18.4978 Q117.4844 18.2009 117.4531 17.7947 ZM117.3594 15.6384 Q116.8438 15.8572 115.7812 15.9978 Q115.1875 16.0916 114.9453 16.1931 Q114.7031 16.2947 114.5625 16.5056 Q114.4219 16.7166 114.4219 16.9666 Q114.4219 17.3572 114.7188 17.615 Q115.0156 17.8728 115.5781 17.8728 Q116.1406 17.8728 116.5703 17.6228 Q117 17.3728 117.2188 16.9509 Q117.3594 16.6228 117.3594 15.9822 L117.3594 15.6384 ZM123.4531 16.4041 L124.3906 16.5291 Q124.25 17.5134 123.6016 18.0681 Q122.9531 18.6228 122.0312 18.6228 Q120.8594 18.6228 120.1484 17.8572 Q119.4375 17.0916 119.4375 15.6697 Q119.4375 14.7478 119.7422 14.0525 Q120.0469 13.3572 120.6719 13.0134 Q121.2969 12.6697 122.0312 12.6697 Q122.9531 12.6697 123.5469 13.1384 Q124.1406 13.6072 124.3125 14.4666 L123.3594 14.6072 Q123.2344 14.0447 122.8906 13.7556 Q122.5469 13.4666 122.0625 13.4666 Q121.3438 13.4666 120.8828 13.99 Q120.4219 14.5134 120.4219 15.6384 Q120.4219 16.7947 120.8594 17.3103 Q121.2969 17.8259 122.0156 17.8259 Q122.5781 17.8259 122.9609 17.4822 Q123.3438 17.1384 123.4531 16.4041 ZM127.8438 17.6384 L127.9688 18.4822 Q127.5625 18.5759 127.25 18.5759 Q126.7188 18.5759 126.4297 18.4041 Q126.1406 18.2322 126.0234 17.9666 Q125.9062 17.7009 125.9062 16.8259 L125.9062 13.5447 L125.1875 13.5447 L125.1875 12.7947 L125.9062 12.7947 L125.9062 11.3884 L126.8594 10.7947 L126.8594 12.7947 L127.8438 12.7947 L127.8438 13.5447 L126.8594 13.5447 L126.8594 16.8884 Q126.8594 17.2947 126.9141 17.4119 Q126.9688 17.5291 127.0859 17.5994 Q127.2031 17.6697 127.4062 17.6697 Q127.5781 17.6697 127.8438 17.6384 Z"
         clip-path="url(#clipPath1)"
         stroke="none"
         id="path129" />
      <path
         fill="black"
         d="M137.5 15.9666 L138.4844 15.8884 Q138.5469 16.4666 138.8047 16.8494 Q139.0625 17.2322 139.5938 17.4666 Q140.125 17.7009 140.7969 17.7009 Q141.4062 17.7009 141.8594 17.5212 Q142.3125 17.3416 142.5391 17.0369 Q142.7656 16.7322 142.7656 16.3572 Q142.7656 15.9822 142.5469 15.7087 Q142.3281 15.4353 141.8281 15.2478 Q141.5156 15.1228 140.4297 14.865 Q139.3438 14.6072 138.9062 14.3728 Q138.3438 14.0759 138.0703 13.6384 Q137.7969 13.2009 137.7969 12.6541 Q137.7969 12.0603 138.1328 11.5447 Q138.4688 11.0291 139.1172 10.7556 Q139.7656 10.4822 140.5625 10.4822 Q141.4375 10.4822 142.1094 10.7712 Q142.7812 11.0603 143.1406 11.6072 Q143.5 12.1541 143.5312 12.8416 L142.5312 12.9197 Q142.4531 12.1697 141.9844 11.7869 Q141.5156 11.4041 140.6094 11.4041 Q139.6719 11.4041 139.2344 11.7556 Q138.7969 12.1072 138.7969 12.5916 Q138.7969 13.0134 139.1094 13.2947 Q139.4062 13.5603 140.6797 13.8494 Q141.9531 14.1384 142.4219 14.3572 Q143.1094 14.6697 143.4375 15.1541 Q143.7656 15.6384 143.7656 16.2791 Q143.7656 16.9041 143.4062 17.4587 Q143.0469 18.0134 142.3672 18.3259 Q141.6875 18.6384 140.8438 18.6384 Q139.7812 18.6384 139.0625 18.3259 Q138.3438 18.0134 137.9297 17.3884 Q137.5156 16.7634 137.5 15.9666 ZM144.6875 20.7009 L144.5781 19.7947 Q144.8906 19.8728 145.125 19.8728 Q145.4531 19.8728 145.6484 19.7634 Q145.8438 19.6541 145.9531 19.4666 Q146.0469 19.3259 146.25 18.7478 Q146.2812 18.6697 146.3438 18.5134 L144.1719 12.7947 L145.2188 12.7947 L146.4062 16.0916 Q146.6406 16.7322 146.8125 17.4197 Q146.9844 16.7478 147.2188 16.1228 L148.4375 12.7947 L149.4062 12.7947 L147.2344 18.5916 Q146.8906 19.5291 146.6875 19.8884 Q146.4375 20.3728 146.1016 20.5916 Q145.7656 20.8103 145.3125 20.8103 Q145.0312 20.8103 144.6875 20.7009 ZM150.7188 18.4978 L150.7188 12.7947 L151.5938 12.7947 L151.5938 13.5916 Q151.8594 13.1697 152.3047 12.9197 Q152.75 12.6697 153.3125 12.6697 Q153.9531 12.6697 154.3594 12.9275 Q154.7656 13.1853 154.9375 13.6697 Q155.6094 12.6697 156.6875 12.6697 Q157.5469 12.6697 158 13.1384 Q158.4531 13.6072 158.4531 14.5759 L158.4531 18.4978 L157.5 18.4978 L157.5 14.9041 Q157.5 14.3259 157.4062 14.0681 Q157.3125 13.8103 157.0625 13.6541 Q156.8125 13.4978 156.4844 13.4978 Q155.875 13.4978 155.4766 13.9041 Q155.0781 14.3103 155.0781 15.1853 L155.0781 18.4978 L154.1094 18.4978 L154.1094 14.7947 Q154.1094 14.1541 153.875 13.8259 Q153.6406 13.4978 153.1094 13.4978 Q152.7031 13.4978 152.3516 13.7166 Q152 13.9353 151.8438 14.3494 Q151.6875 14.7634 151.6875 15.5447 L151.6875 18.4978 L150.7188 18.4978 ZM158.7188 20.6853 L158.7188 12.7947 L159.6094 12.7947 L159.6094 13.5291 Q159.9219 13.1072 160.3125 12.8884 Q160.7031 12.6697 161.2656 12.6697 Q161.9844 12.6697 162.5469 13.0447 Q163.1094 13.4197 163.3906 14.0994 Q163.6719 14.7791 163.6719 15.6072 Q163.6719 16.4822 163.3594 17.1775 Q163.0469 17.8728 162.4453 18.2478 Q161.8438 18.6228 161.1875 18.6228 Q160.7031 18.6228 160.3203 18.4197 Q159.9375 18.2166 159.6875 17.9041 L159.6875 20.6853 L158.7188 20.6853 ZM159.5938 15.6853 Q159.5938 16.7791 160.0469 17.3025 Q160.5 17.8259 161.125 17.8259 Q161.7656 17.8259 162.2266 17.2869 Q162.6875 16.7478 162.6875 15.5916 Q162.6875 14.5134 162.2422 13.9666 Q161.7969 13.4197 161.1719 13.4197 Q160.5469 13.4197 160.0703 13.9978 Q159.5938 14.5759 159.5938 15.6853 ZM168.4531 17.7947 Q167.9062 18.2478 167.4141 18.4353 Q166.9219 18.6228 166.3438 18.6228 Q165.4062 18.6228 164.8984 18.1619 Q164.3906 17.7009 164.3906 16.9978 Q164.3906 16.5759 164.5859 16.2322 Q164.7812 15.8884 165.0859 15.6775 Q165.3906 15.4666 165.7812 15.3572 Q166.0625 15.2791 166.6406 15.2166 Q167.8125 15.0759 168.3594 14.8728 Q168.375 14.6853 168.375 14.6228 Q168.375 14.0291 168.0938 13.7947 Q167.7344 13.4666 167 13.4666 Q166.3125 13.4666 165.9922 13.7009 Q165.6719 13.9353 165.5156 14.5447 L164.5625 14.4197 Q164.6875 13.8103 164.9844 13.4353 Q165.2812 13.0603 165.8438 12.865 Q166.4062 12.6697 167.1406 12.6697 Q167.875 12.6697 168.3281 12.8416 Q168.7812 13.0134 168.9922 13.2712 Q169.2031 13.5291 169.2969 13.9197 Q169.3438 14.1697 169.3438 14.8259 L169.3438 16.1072 Q169.3438 17.4509 169.4062 17.8103 Q169.4688 18.1697 169.6562 18.4978 L168.6406 18.4978 Q168.4844 18.2009 168.4531 17.7947 ZM168.3594 15.6384 Q167.8438 15.8572 166.7812 15.9978 Q166.1875 16.0916 165.9453 16.1931 Q165.7031 16.2947 165.5625 16.5056 Q165.4219 16.7166 165.4219 16.9666 Q165.4219 17.3572 165.7188 17.615 Q166.0156 17.8728 166.5781 17.8728 Q167.1406 17.8728 167.5703 17.6228 Q168 17.3728 168.2188 16.9509 Q168.3594 16.6228 168.3594 15.9822 L168.3594 15.6384 ZM174.4531 16.4041 L175.3906 16.5291 Q175.25 17.5134 174.6016 18.0681 Q173.9531 18.6228 173.0312 18.6228 Q171.8594 18.6228 171.1484 17.8572 Q170.4375 17.0916 170.4375 15.6697 Q170.4375 14.7478 170.7422 14.0525 Q171.0469 13.3572 171.6719 13.0134 Q172.2969 12.6697 173.0312 12.6697 Q173.9531 12.6697 174.5469 13.1384 Q175.1406 13.6072 175.3125 14.4666 L174.3594 14.6072 Q174.2344 14.0447 173.8906 13.7556 Q173.5469 13.4666 173.0625 13.4666 Q172.3438 13.4666 171.8828 13.99 Q171.4219 14.5134 171.4219 15.6384 Q171.4219 16.7947 171.8594 17.3103 Q172.2969 17.8259 173.0156 17.8259 Q173.5781 17.8259 173.9609 17.4822 Q174.3438 17.1384 174.4531 16.4041 ZM178.8438 17.6384 L178.9688 18.4822 Q178.5625 18.5759 178.25 18.5759 Q177.7188 18.5759 177.4297 18.4041 Q177.1406 18.2322 177.0234 17.9666 Q176.9062 17.7009 176.9062 16.8259 L176.9062 13.5447 L176.1875 13.5447 L176.1875 12.7947 L176.9062 12.7947 L176.9062 11.3884 L177.8594 10.7947 L177.8594 12.7947 L178.8438 12.7947 L178.8438 13.5447 L177.8594 13.5447 L177.8594 16.8884 Q177.8594 17.2947 177.9141 17.4119 Q177.9688 17.5291 178.0859 17.5994 Q178.2031 17.6697 178.4062 17.6697 Q178.5781 17.6697 178.8438 17.6384 Z"
         clip-path="url(#clipPath1)"
         stroke="none"
         id="path131" />
      <path
         fill="black"
         d="M19.7969 12.0134 L19.7969 10.6228 L21.2969 10.6228 L21.2969 12.0134 L19.7969 12.0134 ZM19.7969 18.4978 L19.7969 12.7947 L21.2969 12.7947 L21.2969 18.4978 L19.7969 18.4978 ZM22.7188 18.4978 L22.7188 10.6228 L24.2344 10.6228 L24.2344 13.4666 Q24.9375 12.6697 25.8906 12.6697 Q26.9375 12.6697 27.6172 13.4197 Q28.2969 14.1697 28.2969 15.5916 Q28.2969 17.0447 27.6016 17.8337 Q26.9062 18.6228 25.9062 18.6228 Q25.4219 18.6228 24.9453 18.3806 Q24.4688 18.1384 24.125 17.6541 L24.125 18.4978 L22.7188 18.4978 ZM24.2188 15.5291 Q24.2188 16.4041 24.5 16.8259 Q24.8906 17.4353 25.5469 17.4353 Q26.0469 17.4353 26.3984 17.0056 Q26.75 16.5759 26.75 15.6541 Q26.75 14.6853 26.3984 14.2556 Q26.0469 13.8259 25.4844 13.8259 Q24.9375 13.8259 24.5781 14.2478 Q24.2188 14.6697 24.2188 15.5291 ZM35.0156 18.4978 L33.625 18.4978 L33.625 17.6541 Q33.2656 18.1541 32.7891 18.3884 Q32.3125 18.6228 31.8438 18.6228 Q30.8594 18.6228 30.1562 17.8337 Q29.4531 17.0447 29.4531 15.6228 Q29.4531 14.1697 30.1328 13.4197 Q30.8125 12.6697 31.8594 12.6697 Q32.8125 12.6697 33.5156 13.4666 L33.5156 10.6228 L35.0156 10.6228 L35.0156 18.4978 ZM31 15.5291 Q31 16.4353 31.25 16.8416 Q31.6094 17.4353 32.2656 17.4353 Q32.7812 17.4353 33.1484 16.99 Q33.5156 16.5447 33.5156 15.6697 Q33.5156 14.6853 33.1641 14.2556 Q32.8125 13.8259 32.25 13.8259 Q31.7188 13.8259 31.3594 14.2478 Q31 14.6697 31 15.5291 Z"
         clip-path="url(#clipPath1)"
         stroke="none"
         id="path133" />
      <path
         fill="black"
         d="M130.75 20.6853 L130.75 10.6228 L132.875 10.6228 L132.875 11.4197 L131.7188 11.4197 L131.7188 19.8884 L132.875 19.8884 L132.875 20.6853 L130.75 20.6853 Z"
         clip-path="url(#clipPath1)"
         stroke="none"
         id="path135" />
      <path
         fill="black"
         d="M185.3438 20.6853 L183.2031 20.6853 L183.2031 19.8884 L184.375 19.8884 L184.375 11.4197 L183.2031 11.4197 L183.2031 10.6228 L185.3438 10.6228 L185.3438 20.6853 Z"
         clip-path="url(#clipPath1)"
         stroke="none"
         id="path137" />
      <line
         y2="23"
         fill="none"
         x1="12"
         clip-path="url(#clipPath1)"
         x2="181"
         y1="23"
         id="line139" />
      <line
         y2="17"
         fill="none"
         x1="190"
         clip-path="url(#clipPath1)"
         x2="190"
         y1="5"
         id="line141" />
      <line
         y2="17"
         fill="none"
         x1="181"
         clip-path="url(#clipPath1)"
         x2="190"
         y1="23"
         id="line143" />
      <rect
         x="5"
         y="45"
         clip-path="url(#clipPath1)"
         fill="url(#linearGradient1)"
         width="15"
         height="15"
         stroke="none"
         id="rect145" />
      <rect
         x="5"
         y="45"
         clip-path="url(#clipPath1)"
         fill="none"
         width="15"
         height="15"
         stroke="rgb(92,153,103)"
         id="rect147" />
      <line
         clip-path="url(#clipPath1)"
         fill="none"
         x1="7"
         x2="18"
         y1="52"
         y2="52"
         stroke="rgb(92,153,103)"
         id="line149" />
      <path
         fill="none"
         d="M14 50 L18 52 L14 54"
         clip-path="url(#clipPath1)"
         stroke="rgb(92,153,103)"
         id="path151" />
      <rect
         x="530"
         y="223"
         clip-path="url(#clipPath1)"
         fill="url(#linearGradient2)"
         width="15"
         height="15"
         stroke="none"
         id="rect153" />
      <rect
         x="530"
         y="223"
         clip-path="url(#clipPath1)"
         fill="none"
         width="15"
         height="15"
         stroke="rgb(92,153,103)"
         id="rect155" />
      <line
         clip-path="url(#clipPath1)"
         fill="none"
         x1="532"
         x2="543"
         y1="230"
         y2="230"
         stroke="rgb(92,153,103)"
         id="line157" />
      <path
         fill="none"
         d="M539 228 L543 230 L539 232"
         clip-path="url(#clipPath1)"
         stroke="rgb(92,153,103)"
         id="path159" />
      <rect
         x="5"
         y="113"
         clip-path="url(#clipPath1)"
         fill="url(#linearGradient3)"
         width="15"
         height="15"
         stroke="none"
         id="rect161" />
      <rect
         x="5"
         y="113"
         clip-path="url(#clipPath1)"
         fill="none"
         width="15"
         height="15"
         stroke="rgb(92,153,103)"
         id="rect163" />
      <line
         clip-path="url(#clipPath1)"
         fill="none"
         x1="7"
         x2="18"
         y1="120"
         y2="120"
         stroke="rgb(92,153,103)"
         id="line165" />
      <path
         fill="none"
         d="M14 118 L18 120 L14 122"
         clip-path="url(#clipPath1)"
         stroke="rgb(92,153,103)"
         id="path167" />
      <rect
         x="304"
         y="213"
         clip-path="url(#clipPath1)"
         fill="rgb(178,178,178)"
         width="210"
         height="35"
         stroke="none"
         id="rect169" />
      <rect
         x="301"
         y="210"
         clip-path="url(#clipPath1)"
         fill="url(#linearGradient4)"
         width="210"
         height="35"
         stroke="none"
         id="rect171" />
      <rect
         x="301"
         y="210"
         clip-path="url(#clipPath1)"
         fill="none"
         width="210"
         height="35"
         stroke="rgb(153,141,92)"
         id="rect173" />
      <path
         fill="black"
         d="M324.0781 226.3103 L324.0781 224.7947 L325.5938 224.7947 L325.5938 226.3103 L324.0781 226.3103 ZM324.0781 230.4978 L324.0781 228.9822 L325.5938 228.9822 L325.5938 230.4978 L324.0781 230.4978 ZM334.8438 227.6072 L336.375 228.0916 Q336.0312 229.3728 335.2031 230.0056 Q334.375 230.6384 333.1094 230.6384 Q331.5469 230.6384 330.5312 229.5603 Q329.5156 228.4822 329.5156 226.6228 Q329.5156 224.6697 330.5312 223.5759 Q331.5469 222.4822 333.2031 222.4822 Q334.6562 222.4822 335.5469 223.3416 Q336.0938 223.8416 336.3594 224.7947 L334.7812 225.1697 Q334.6406 224.5603 334.2031 224.2009 Q333.7656 223.8416 333.125 223.8416 Q332.25 223.8416 331.7031 224.4744 Q331.1562 225.1072 331.1562 226.5134 Q331.1562 227.9978 331.6953 228.6384 Q332.2344 229.2791 333.0938 229.2791 Q333.7344 229.2791 334.1875 228.8728 Q334.6406 228.4666 334.8438 227.6072 ZM338.9219 226.5291 L337.5469 226.2791 Q337.7812 225.4666 338.3438 225.0681 Q338.9062 224.6697 340.0156 224.6697 Q341.0312 224.6697 341.5234 224.9041 Q342.0156 225.1384 342.2188 225.5056 Q342.4219 225.8728 342.4219 226.8572 L342.4062 228.6228 Q342.4062 229.3728 342.4766 229.7322 Q342.5469 230.0916 342.75 230.4978 L341.25 230.4978 Q341.1875 230.3416 341.1094 230.0447 Q341.0781 229.9197 341.0625 229.8728 Q340.6719 230.2478 340.2266 230.4353 Q339.7812 230.6228 339.2812 230.6228 Q338.4062 230.6228 337.8984 230.1462 Q337.3906 229.6697 337.3906 228.9353 Q337.3906 228.4509 337.625 228.0759 Q337.8594 227.7009 338.2734 227.4978 Q338.6875 227.2947 339.4688 227.1384 Q340.5312 226.9509 340.9375 226.7791 L340.9375 226.6228 Q340.9375 226.1853 340.7188 226.0056 Q340.5 225.8259 339.9062 225.8259 Q339.5156 225.8259 339.2891 225.9822 Q339.0625 226.1384 338.9219 226.5291 ZM340.9375 227.7634 Q340.6406 227.8572 340.0156 227.99 Q339.3906 228.1228 339.2031 228.2478 Q338.9062 228.4666 338.9062 228.7791 Q338.9062 229.1072 339.1406 229.3337 Q339.375 229.5603 339.7344 229.5603 Q340.1406 229.5603 340.5156 229.2947 Q340.7969 229.0916 340.875 228.7947 Q340.9375 228.6072 340.9375 228.0603 L340.9375 227.7634 ZM343.75 224.7947 L345.1562 224.7947 L345.1562 225.6384 Q345.4219 225.2009 345.8906 224.9353 Q346.3594 224.6697 346.9375 224.6697 Q347.9219 224.6697 348.6172 225.4431 Q349.3125 226.2166 349.3125 227.6072 Q349.3125 229.0447 348.6172 229.8337 Q347.9219 230.6228 346.9219 230.6228 Q346.4531 230.6228 346.0703 230.4353 Q345.6875 230.2478 345.25 229.7947 L345.25 232.6697 L343.75 232.6697 L343.75 224.7947 ZM345.2344 227.5447 Q345.2344 228.5134 345.6172 228.9744 Q346 229.4353 346.5469 229.4353 Q347.0781 229.4353 347.4297 229.0134 Q347.7812 228.5916 347.7812 227.6228 Q347.7812 226.7322 347.4219 226.2947 Q347.0625 225.8572 346.5312 225.8572 Q345.9688 225.8572 345.6016 226.2869 Q345.2344 226.7166 345.2344 227.5447 ZM353.4062 224.7947 L353.4062 225.9978 L352.375 225.9978 L352.375 228.2947 Q352.375 228.9978 352.4062 229.115 Q352.4375 229.2322 352.5391 229.3025 Q352.6406 229.3728 352.7969 229.3728 Q353 229.3728 353.4062 229.2322 L353.5312 230.4041 Q353 230.6228 352.3438 230.6228 Q351.9219 230.6228 351.5938 230.49 Q351.2656 230.3572 351.1172 230.1384 Q350.9688 229.9197 350.9062 229.5447 Q350.8594 229.2791 350.8594 228.4822 L350.8594 225.9978 L350.1719 225.9978 L350.1719 224.7947 L350.8594 224.7947 L350.8594 223.6541 L352.375 222.7791 L352.375 224.7947 L353.4062 224.7947 ZM358.0938 228.6853 L359.5938 228.9353 Q359.3125 229.7634 358.6875 230.1931 Q358.0625 230.6228 357.1094 230.6228 Q355.625 230.6228 354.9062 229.6541 Q354.3438 228.8728 354.3438 227.6853 Q354.3438 226.2634 355.0859 225.4666 Q355.8281 224.6697 356.9688 224.6697 Q358.2344 224.6697 358.9688 225.5056 Q359.7031 226.3416 359.6719 228.0759 L355.8906 228.0759 Q355.9062 228.7478 356.2578 229.1228 Q356.6094 229.4978 357.125 229.4978 Q357.4844 229.4978 357.7266 229.3025 Q357.9688 229.1072 358.0938 228.6853 ZM358.1719 227.1541 Q358.1562 226.4978 357.8359 226.1619 Q357.5156 225.8259 357.0625 225.8259 Q356.5625 225.8259 356.2344 226.1853 Q355.9219 226.5447 355.9219 227.1541 L358.1719 227.1541 ZM365.5469 230.4978 L365.5469 229.6384 Q365.2344 230.1072 364.7266 230.365 Q364.2188 230.6228 363.6562 230.6228 Q363.0781 230.6228 362.625 230.3728 Q362.1719 230.1228 361.9609 229.6619 Q361.75 229.2009 361.75 228.4041 L361.75 224.7947 L363.2656 224.7947 L363.2656 227.4197 Q363.2656 228.6228 363.3516 228.8884 Q363.4375 229.1541 363.6562 229.3181 Q363.875 229.4822 364.2188 229.4822 Q364.5938 229.4822 364.9062 229.2712 Q365.2188 229.0603 365.3281 228.74 Q365.4375 228.4197 365.4375 227.2009 L365.4375 224.7947 L366.9531 224.7947 L366.9531 230.4978 L365.5469 230.4978 ZM370.2344 230.4978 L368.7188 230.4978 L368.7188 224.7947 L370.125 224.7947 L370.125 225.6072 Q370.4844 225.0291 370.7734 224.8494 Q371.0625 224.6697 371.4219 224.6697 Q371.9375 224.6697 372.4219 224.9509 L371.9531 226.2634 Q371.5781 226.0134 371.25 226.0134 Q370.9219 226.0134 370.7031 226.1931 Q370.4844 226.3728 370.3594 226.8259 Q370.2344 227.2791 370.2344 228.7322 L370.2344 230.4978 ZM382.0156 230.4978 L380.625 230.4978 L380.625 229.6541 Q380.2656 230.1541 379.7891 230.3884 Q379.3125 230.6228 378.8438 230.6228 Q377.8594 230.6228 377.1562 229.8337 Q376.4531 229.0447 376.4531 227.6228 Q376.4531 226.1697 377.1328 225.4197 Q377.8125 224.6697 378.8594 224.6697 Q379.8125 224.6697 380.5156 225.4666 L380.5156 222.6228 L382.0156 222.6228 L382.0156 230.4978 ZM378 227.5291 Q378 228.4353 378.25 228.8416 Q378.6094 229.4353 379.2656 229.4353 Q379.7812 229.4353 380.1484 228.99 Q380.5156 228.5447 380.5156 227.6697 Q380.5156 226.6853 380.1641 226.2556 Q379.8125 225.8259 379.25 225.8259 Q378.7188 225.8259 378.3594 226.2478 Q378 226.6697 378 227.5291 ZM387.0938 228.6853 L388.5938 228.9353 Q388.3125 229.7634 387.6875 230.1931 Q387.0625 230.6228 386.1094 230.6228 Q384.625 230.6228 383.9062 229.6541 Q383.3438 228.8728 383.3438 227.6853 Q383.3438 226.2634 384.0859 225.4666 Q384.8281 224.6697 385.9688 224.6697 Q387.2344 224.6697 387.9688 225.5056 Q388.7031 226.3416 388.6719 228.0759 L384.8906 228.0759 Q384.9062 228.7478 385.2578 229.1228 Q385.6094 229.4978 386.125 229.4978 Q386.4844 229.4978 386.7266 229.3025 Q386.9688 229.1072 387.0938 228.6853 ZM387.1719 227.1541 Q387.1562 226.4978 386.8359 226.1619 Q386.5156 225.8259 386.0625 225.8259 Q385.5625 225.8259 385.2344 226.1853 Q384.9219 226.5447 384.9219 227.1541 L387.1719 227.1541 ZM393.75 224.7947 L395.1562 224.7947 L395.1562 225.6384 Q395.4219 225.2009 395.8906 224.9353 Q396.3594 224.6697 396.9375 224.6697 Q397.9219 224.6697 398.6172 225.4431 Q399.3125 226.2166 399.3125 227.6072 Q399.3125 229.0447 398.6172 229.8337 Q397.9219 230.6228 396.9219 230.6228 Q396.4531 230.6228 396.0703 230.4353 Q395.6875 230.2478 395.25 229.7947 L395.25 232.6697 L393.75 232.6697 L393.75 224.7947 ZM395.2344 227.5447 Q395.2344 228.5134 395.6172 228.9744 Q396 229.4353 396.5469 229.4353 Q397.0781 229.4353 397.4297 229.0134 Q397.7812 228.5916 397.7812 227.6228 Q397.7812 226.7322 397.4219 226.2947 Q397.0625 225.8572 396.5312 225.8572 Q395.9688 225.8572 395.6016 226.2869 Q395.2344 226.7166 395.2344 227.5447 ZM400.4375 227.5603 Q400.4375 226.8103 400.8125 226.1072 Q401.1875 225.4041 401.8672 225.0369 Q402.5469 224.6697 403.375 224.6697 Q404.6719 224.6697 405.5 225.5056 Q406.3281 226.3416 406.3281 227.6228 Q406.3281 228.9197 405.4922 229.7712 Q404.6562 230.6228 403.3906 230.6228 Q402.6094 230.6228 401.8984 230.2712 Q401.1875 229.9197 400.8125 229.2322 Q400.4375 228.5447 400.4375 227.5603 ZM401.9844 227.6384 Q401.9844 228.4978 402.3906 228.9509 Q402.7969 229.4041 403.3906 229.4041 Q403.9688 229.4041 404.375 228.9509 Q404.7812 228.4978 404.7812 227.6384 Q404.7812 226.7947 404.375 226.3416 Q403.9688 225.8884 403.3906 225.8884 Q402.7969 225.8884 402.3906 226.3416 Q401.9844 226.7947 401.9844 227.6384 ZM407.2656 228.8728 L408.7656 228.6384 Q408.875 229.0759 409.1641 229.3025 Q409.4531 229.5291 409.9844 229.5291 Q410.5781 229.5291 410.875 229.3259 Q411.0781 229.1697 411.0781 228.9197 Q411.0781 228.7478 410.9688 228.6384 Q410.8438 228.5291 410.4531 228.4353 Q408.6406 228.0291 408.1406 227.7009 Q407.4688 227.2322 407.4688 226.4197 Q407.4688 225.6697 408.0547 225.1697 Q408.6406 224.6697 409.875 224.6697 Q411.0469 224.6697 411.6094 225.0447 Q412.1719 225.4197 412.3906 226.1697 L410.9688 226.4353 Q410.875 226.1072 410.625 225.9275 Q410.375 225.7478 409.8906 225.7478 Q409.2969 225.7478 409.0469 225.9197 Q408.875 226.0291 408.875 226.2166 Q408.875 226.3884 409.0156 226.4978 Q409.2188 226.6541 410.4297 226.9275 Q411.6406 227.2009 412.1094 227.5916 Q412.5938 227.9978 412.5938 228.7166 Q412.5938 229.4978 411.9375 230.0603 Q411.2812 230.6228 409.9844 230.6228 Q408.8281 230.6228 408.1484 230.1541 Q407.4688 229.6853 407.2656 228.8728 ZM414.7969 224.0134 L414.7969 222.6228 L416.2969 222.6228 L416.2969 224.0134 L414.7969 224.0134 ZM414.7969 230.4978 L414.7969 224.7947 L416.2969 224.7947 L416.2969 230.4978 L414.7969 230.4978 ZM420.4062 224.7947 L420.4062 225.9978 L419.375 225.9978 L419.375 228.2947 Q419.375 228.9978 419.4062 229.115 Q419.4375 229.2322 419.5391 229.3025 Q419.6406 229.3728 419.7969 229.3728 Q420 229.3728 420.4062 229.2322 L420.5312 230.4041 Q420 230.6228 419.3438 230.6228 Q418.9219 230.6228 418.5938 230.49 Q418.2656 230.3572 418.1172 230.1384 Q417.9688 229.9197 417.9062 229.5447 Q417.8594 229.2791 417.8594 228.4822 L417.8594 225.9978 L417.1719 225.9978 L417.1719 224.7947 L417.8594 224.7947 L417.8594 223.6541 L419.375 222.7791 L419.375 224.7947 L420.4062 224.7947 ZM421.7969 224.0134 L421.7969 222.6228 L423.2969 222.6228 L423.2969 224.0134 L421.7969 224.0134 ZM421.7969 230.4978 L421.7969 224.7947 L423.2969 224.7947 L423.2969 230.4978 L421.7969 230.4978 ZM424.4375 227.5603 Q424.4375 226.8103 424.8125 226.1072 Q425.1875 225.4041 425.8672 225.0369 Q426.5469 224.6697 427.375 224.6697 Q428.6719 224.6697 429.5 225.5056 Q430.3281 226.3416 430.3281 227.6228 Q430.3281 228.9197 429.4922 229.7712 Q428.6562 230.6228 427.3906 230.6228 Q426.6094 230.6228 425.8984 230.2712 Q425.1875 229.9197 424.8125 229.2322 Q424.4375 228.5447 424.4375 227.5603 ZM425.9844 227.6384 Q425.9844 228.4978 426.3906 228.9509 Q426.7969 229.4041 427.3906 229.4041 Q427.9688 229.4041 428.375 228.9509 Q428.7812 228.4978 428.7812 227.6384 Q428.7812 226.7947 428.375 226.3416 Q427.9688 225.8884 427.3906 225.8884 Q426.7969 225.8884 426.3906 226.3416 Q425.9844 226.7947 425.9844 227.6384 ZM436.9844 230.4978 L435.4688 230.4978 L435.4688 227.5916 Q435.4688 226.6697 435.375 226.3962 Q435.2812 226.1228 435.0625 225.9744 Q434.8438 225.8259 434.5312 225.8259 Q434.1406 225.8259 433.8281 226.0369 Q433.5156 226.2478 433.3984 226.5994 Q433.2812 226.9509 433.2812 227.9197 L433.2812 230.4978 L431.7812 230.4978 L431.7812 224.7947 L433.1875 224.7947 L433.1875 225.6384 Q433.9219 224.6697 435.0625 224.6697 Q435.5625 224.6697 435.9766 224.8494 Q436.3906 225.0291 436.6016 225.3025 Q436.8125 225.5759 436.8984 225.9353 Q436.9844 226.2947 436.9844 226.9509 L436.9844 230.4978 ZM442.9219 226.5291 L441.5469 226.2791 Q441.7812 225.4666 442.3438 225.0681 Q442.9062 224.6697 444.0156 224.6697 Q445.0312 224.6697 445.5234 224.9041 Q446.0156 225.1384 446.2188 225.5056 Q446.4219 225.8728 446.4219 226.8572 L446.4062 228.6228 Q446.4062 229.3728 446.4766 229.7322 Q446.5469 230.0916 446.75 230.4978 L445.25 230.4978 Q445.1875 230.3416 445.1094 230.0447 Q445.0781 229.9197 445.0625 229.8728 Q444.6719 230.2478 444.2266 230.4353 Q443.7812 230.6228 443.2812 230.6228 Q442.4062 230.6228 441.8984 230.1462 Q441.3906 229.6697 441.3906 228.9353 Q441.3906 228.4509 441.625 228.0759 Q441.8594 227.7009 442.2734 227.4978 Q442.6875 227.2947 443.4688 227.1384 Q444.5312 226.9509 444.9375 226.7791 L444.9375 226.6228 Q444.9375 226.1853 444.7188 226.0056 Q444.5 225.8259 443.9062 225.8259 Q443.5156 225.8259 443.2891 225.9822 Q443.0625 226.1384 442.9219 226.5291 ZM444.9375 227.7634 Q444.6406 227.8572 444.0156 227.99 Q443.3906 228.1228 443.2031 228.2478 Q442.9062 228.4666 442.9062 228.7791 Q442.9062 229.1072 443.1406 229.3337 Q443.375 229.5603 443.7344 229.5603 Q444.1406 229.5603 444.5156 229.2947 Q444.7969 229.0916 444.875 228.7947 Q444.9375 228.6072 444.9375 228.0603 L444.9375 227.7634 ZM452.9844 230.4978 L451.4688 230.4978 L451.4688 227.5916 Q451.4688 226.6697 451.375 226.3962 Q451.2812 226.1228 451.0625 225.9744 Q450.8438 225.8259 450.5312 225.8259 Q450.1406 225.8259 449.8281 226.0369 Q449.5156 226.2478 449.3984 226.5994 Q449.2812 226.9509 449.2812 227.9197 L449.2812 230.4978 L447.7812 230.4978 L447.7812 224.7947 L449.1875 224.7947 L449.1875 225.6384 Q449.9219 224.6697 451.0625 224.6697 Q451.5625 224.6697 451.9766 224.8494 Q452.3906 225.0291 452.6016 225.3025 Q452.8125 225.5759 452.8984 225.9353 Q452.9844 226.2947 452.9844 226.9509 L452.9844 230.4978 ZM454.6562 230.8728 L456.375 231.0759 Q456.4219 231.3884 456.5781 231.4978 Q456.7812 231.6541 457.25 231.6541 Q457.8438 231.6541 458.1406 231.4822 Q458.3281 231.3572 458.4375 231.1072 Q458.5 230.9041 458.5 230.4041 L458.5 229.5759 Q457.8281 230.4978 456.7969 230.4978 Q455.6562 230.4978 454.9844 229.5291 Q454.4531 228.7634 454.4531 227.6072 Q454.4531 226.1853 455.1406 225.4275 Q455.8281 224.6697 456.8594 224.6697 Q457.9219 224.6697 458.6094 225.5916 L458.6094 224.7947 L460.0156 224.7947 L460.0156 229.9197 Q460.0156 230.9197 459.8516 231.4197 Q459.6875 231.9197 459.3828 232.2087 Q459.0781 232.4978 458.5781 232.6541 Q458.0781 232.8103 457.3125 232.8103 Q455.8594 232.8103 455.25 232.3181 Q454.6406 231.8259 454.6406 231.0603 Q454.6406 230.9822 454.6562 230.8728 ZM456 227.5291 Q456 228.4353 456.3516 228.8572 Q456.7031 229.2791 457.2188 229.2791 Q457.7656 229.2791 458.1484 228.8494 Q458.5312 228.4197 458.5312 227.5603 Q458.5312 226.6853 458.1641 226.2556 Q457.7969 225.8259 457.25 225.8259 Q456.7031 225.8259 456.3516 226.2478 Q456 226.6697 456 227.5291 ZM465.5469 230.4978 L465.5469 229.6384 Q465.2344 230.1072 464.7266 230.365 Q464.2188 230.6228 463.6562 230.6228 Q463.0781 230.6228 462.625 230.3728 Q462.1719 230.1228 461.9609 229.6619 Q461.75 229.2009 461.75 228.4041 L461.75 224.7947 L463.2656 224.7947 L463.2656 227.4197 Q463.2656 228.6228 463.3516 228.8884 Q463.4375 229.1541 463.6562 229.3181 Q463.875 229.4822 464.2188 229.4822 Q464.5938 229.4822 464.9062 229.2712 Q465.2188 229.0603 465.3281 228.74 Q465.4375 228.4197 465.4375 227.2009 L465.4375 224.7947 L466.9531 224.7947 L466.9531 230.4978 L465.5469 230.4978 ZM468.7969 230.4978 L468.7969 222.6228 L470.2969 222.6228 L470.2969 230.4978 L468.7969 230.4978 ZM472.9219 226.5291 L471.5469 226.2791 Q471.7812 225.4666 472.3438 225.0681 Q472.9062 224.6697 474.0156 224.6697 Q475.0312 224.6697 475.5234 224.9041 Q476.0156 225.1384 476.2188 225.5056 Q476.4219 225.8728 476.4219 226.8572 L476.4062 228.6228 Q476.4062 229.3728 476.4766 229.7322 Q476.5469 230.0916 476.75 230.4978 L475.25 230.4978 Q475.1875 230.3416 475.1094 230.0447 Q475.0781 229.9197 475.0625 229.8728 Q474.6719 230.2478 474.2266 230.4353 Q473.7812 230.6228 473.2812 230.6228 Q472.4062 230.6228 471.8984 230.1462 Q471.3906 229.6697 471.3906 228.9353 Q471.3906 228.4509 471.625 228.0759 Q471.8594 227.7009 472.2734 227.4978 Q472.6875 227.2947 473.4688 227.1384 Q474.5312 226.9509 474.9375 226.7791 L474.9375 226.6228 Q474.9375 226.1853 474.7188 226.0056 Q474.5 225.8259 473.9062 225.8259 Q473.5156 225.8259 473.2891 225.9822 Q473.0625 226.1384 472.9219 226.5291 ZM474.9375 227.7634 Q474.6406 227.8572 474.0156 227.99 Q473.3906 228.1228 473.2031 228.2478 Q472.9062 228.4666 472.9062 228.7791 Q472.9062 229.1072 473.1406 229.3337 Q473.375 229.5603 473.7344 229.5603 Q474.1406 229.5603 474.5156 229.2947 Q474.7969 229.0916 474.875 228.7947 Q474.9375 228.6072 474.9375 228.0603 L474.9375 227.7634 ZM477.7969 224.0134 L477.7969 222.6228 L479.2969 222.6228 L479.2969 224.0134 L477.7969 224.0134 ZM477.7969 230.4978 L477.7969 224.7947 L479.2969 224.7947 L479.2969 230.4978 L477.7969 230.4978 ZM482.2344 230.4978 L480.7188 230.4978 L480.7188 224.7947 L482.125 224.7947 L482.125 225.6072 Q482.4844 225.0291 482.7734 224.8494 Q483.0625 224.6697 483.4219 224.6697 Q483.9375 224.6697 484.4219 224.9509 L483.9531 226.2634 Q483.5781 226.0134 483.25 226.0134 Q482.9219 226.0134 482.7031 226.1931 Q482.4844 226.3728 482.3594 226.8259 Q482.2344 227.2791 482.2344 228.7322 L482.2344 230.4978 ZM489.0938 228.6853 L490.5938 228.9353 Q490.3125 229.7634 489.6875 230.1931 Q489.0625 230.6228 488.1094 230.6228 Q486.625 230.6228 485.9062 229.6541 Q485.3438 228.8728 485.3438 227.6853 Q485.3438 226.2634 486.0859 225.4666 Q486.8281 224.6697 487.9688 224.6697 Q489.2344 224.6697 489.9688 225.5056 Q490.7031 226.3416 490.6719 228.0759 L486.8906 228.0759 Q486.9062 228.7478 487.2578 229.1228 Q487.6094 229.4978 488.125 229.4978 Q488.4844 229.4978 488.7266 229.3025 Q488.9688 229.1072 489.0938 228.6853 ZM489.1719 227.1541 Q489.1562 226.4978 488.8359 226.1619 Q488.5156 225.8259 488.0625 225.8259 Q487.5625 225.8259 487.2344 226.1853 Q486.9219 226.5447 486.9219 227.1541 L489.1719 227.1541 Z"
         clip-path="url(#clipPath1)"
         stroke="none"
         id="path175" />
      <rect
         x="400"
         y="203"
         clip-path="url(#clipPath1)"
         fill="url(#linearGradient5)"
         width="15"
         height="15"
         stroke="none"
         id="rect177" />
      <rect
         x="400"
         y="203"
         clip-path="url(#clipPath1)"
         fill="none"
         width="15"
         height="15"
         stroke="rgb(92,153,103)"
         id="rect179" />
      <line
         clip-path="url(#clipPath1)"
         fill="none"
         x1="407"
         x2="407"
         y1="205"
         y2="216"
         stroke="rgb(92,153,103)"
         id="line181" />
      <path
         fill="none"
         d="M409 212 L407 216 L405 212"
         clip-path="url(#clipPath1)"
         stroke="rgb(92,153,103)"
         id="path183" />
      <rect
         x="503"
         y="222"
         clip-path="url(#clipPath1)"
         fill="url(#linearGradient6)"
         width="15"
         height="15"
         stroke="none"
         id="rect185" />
      <rect
         x="503"
         y="222"
         clip-path="url(#clipPath1)"
         fill="none"
         width="15"
         height="15"
         stroke="rgb(92,153,103)"
         id="rect187" />
      <line
         clip-path="url(#clipPath1)"
         fill="none"
         x1="505"
         x2="516"
         y1="229"
         y2="229"
         stroke="rgb(92,153,103)"
         id="line189" />
      <path
         fill="none"
         d="M512 227 L516 229 L512 231"
         clip-path="url(#clipPath1)"
         stroke="rgb(92,153,103)"
         id="path191" />
      <rect
         x="318"
         y="38"
         clip-path="url(#clipPath1)"
         fill="rgb(178,178,178)"
         width="175"
         height="39"
         stroke="none"
         id="rect193" />
      <rect
         x="315"
         y="35"
         clip-path="url(#clipPath1)"
         fill="url(#linearGradient7)"
         width="175"
         height="39"
         stroke="none"
         id="rect195" />
      <rect
         x="315"
         y="35"
         clip-path="url(#clipPath1)"
         fill="none"
         width="175"
         height="39"
         stroke="rgb(153,141,92)"
         id="rect197" />
      <path
         fill="black"
         d="M331.0781 44.3103 L331.0781 42.7947 L332.5938 42.7947 L332.5938 44.3103 L331.0781 44.3103 ZM331.0781 48.4978 L331.0781 46.9822 L332.5938 46.9822 L332.5938 48.4978 L331.0781 48.4978 ZM338.5781 48.4978 L338.5781 41.9509 L336.2344 41.9509 L336.2344 40.6228 L342.5 40.6228 L342.5 41.9509 L340.1562 41.9509 L340.1562 48.4978 L338.5781 48.4978 ZM345.2344 48.4978 L343.7188 48.4978 L343.7188 42.7947 L345.125 42.7947 L345.125 43.6072 Q345.4844 43.0291 345.7734 42.8494 Q346.0625 42.6697 346.4219 42.6697 Q346.9375 42.6697 347.4219 42.9509 L346.9531 44.2634 Q346.5781 44.0134 346.25 44.0134 Q345.9219 44.0134 345.7031 44.1931 Q345.4844 44.3728 345.3594 44.8259 Q345.2344 45.2791 345.2344 46.7322 L345.2344 48.4978 ZM349.9219 44.5291 L348.5469 44.2791 Q348.7812 43.4666 349.3438 43.0681 Q349.9062 42.6697 351.0156 42.6697 Q352.0312 42.6697 352.5234 42.9041 Q353.0156 43.1384 353.2188 43.5056 Q353.4219 43.8728 353.4219 44.8572 L353.4062 46.6228 Q353.4062 47.3728 353.4766 47.7322 Q353.5469 48.0916 353.75 48.4978 L352.25 48.4978 Q352.1875 48.3416 352.1094 48.0447 Q352.0781 47.9197 352.0625 47.8728 Q351.6719 48.2478 351.2266 48.4353 Q350.7812 48.6228 350.2812 48.6228 Q349.4062 48.6228 348.8984 48.1462 Q348.3906 47.6697 348.3906 46.9353 Q348.3906 46.4509 348.625 46.0759 Q348.8594 45.7009 349.2734 45.4978 Q349.6875 45.2947 350.4688 45.1384 Q351.5312 44.9509 351.9375 44.7791 L351.9375 44.6228 Q351.9375 44.1853 351.7188 44.0056 Q351.5 43.8259 350.9062 43.8259 Q350.5156 43.8259 350.2891 43.9822 Q350.0625 44.1384 349.9219 44.5291 ZM351.9375 45.7634 Q351.6406 45.8572 351.0156 45.99 Q350.3906 46.1228 350.2031 46.2478 Q349.9062 46.4666 349.9062 46.7791 Q349.9062 47.1072 350.1406 47.3337 Q350.375 47.5603 350.7344 47.5603 Q351.1406 47.5603 351.5156 47.2947 Q351.7969 47.0916 351.875 46.7947 Q351.9375 46.6072 351.9375 46.0603 L351.9375 45.7634 ZM359.9844 48.4978 L358.4688 48.4978 L358.4688 45.5916 Q358.4688 44.6697 358.375 44.3962 Q358.2812 44.1228 358.0625 43.9744 Q357.8438 43.8259 357.5312 43.8259 Q357.1406 43.8259 356.8281 44.0369 Q356.5156 44.2478 356.3984 44.5994 Q356.2812 44.9509 356.2812 45.9197 L356.2812 48.4978 L354.7812 48.4978 L354.7812 42.7947 L356.1875 42.7947 L356.1875 43.6384 Q356.9219 42.6697 358.0625 42.6697 Q358.5625 42.6697 358.9766 42.8494 Q359.3906 43.0291 359.6016 43.3025 Q359.8125 43.5759 359.8984 43.9353 Q359.9844 44.2947 359.9844 44.9509 L359.9844 48.4978 ZM361.2656 46.8728 L362.7656 46.6384 Q362.875 47.0759 363.1641 47.3025 Q363.4531 47.5291 363.9844 47.5291 Q364.5781 47.5291 364.875 47.3259 Q365.0781 47.1697 365.0781 46.9197 Q365.0781 46.7478 364.9688 46.6384 Q364.8438 46.5291 364.4531 46.4353 Q362.6406 46.0291 362.1406 45.7009 Q361.4688 45.2322 361.4688 44.4197 Q361.4688 43.6697 362.0547 43.1697 Q362.6406 42.6697 363.875 42.6697 Q365.0469 42.6697 365.6094 43.0447 Q366.1719 43.4197 366.3906 44.1697 L364.9688 44.4353 Q364.875 44.1072 364.625 43.9275 Q364.375 43.7478 363.8906 43.7478 Q363.2969 43.7478 363.0469 43.9197 Q362.875 44.0291 362.875 44.2166 Q362.875 44.3884 363.0156 44.4978 Q363.2188 44.6541 364.4297 44.9275 Q365.6406 45.2009 366.1094 45.5916 Q366.5938 45.9978 366.5938 46.7166 Q366.5938 47.4978 365.9375 48.0603 Q365.2812 48.6228 363.9844 48.6228 Q362.8281 48.6228 362.1484 48.1541 Q361.4688 47.6853 361.2656 46.8728 ZM368.6719 42.7947 L370.0625 42.7947 L370.0625 43.5759 Q370.8125 42.6697 371.8438 42.6697 Q372.3906 42.6697 372.7969 42.8962 Q373.2031 43.1228 373.4531 43.5759 Q373.8281 43.1228 374.2656 42.8962 Q374.7031 42.6697 375.2031 42.6697 Q375.8281 42.6697 376.2656 42.9197 Q376.7031 43.1697 376.9062 43.6697 Q377.0625 44.0291 377.0625 44.8572 L377.0625 48.4978 L375.5625 48.4978 L375.5625 45.2322 Q375.5625 44.3884 375.4062 44.1384 Q375.1875 43.8259 374.75 43.8259 Q374.4375 43.8259 374.1562 44.0134 Q373.875 44.2009 373.7578 44.5759 Q373.6406 44.9509 373.6406 45.7634 L373.6406 48.4978 L372.125 48.4978 L372.125 45.3728 Q372.125 44.5447 372.0469 44.3025 Q371.9688 44.0603 371.7969 43.9431 Q371.625 43.8259 371.3281 43.8259 Q370.9844 43.8259 370.7031 44.0134 Q370.4219 44.2009 370.3047 44.5525 Q370.1875 44.9041 370.1875 45.7322 L370.1875 48.4978 L368.6719 48.4978 L368.6719 42.7947 ZM379.7969 42.0134 L379.7969 40.6228 L381.2969 40.6228 L381.2969 42.0134 L379.7969 42.0134 ZM379.7969 48.4978 L379.7969 42.7947 L381.2969 42.7947 L381.2969 48.4978 L379.7969 48.4978 ZM382.2656 46.8728 L383.7656 46.6384 Q383.875 47.0759 384.1641 47.3025 Q384.4531 47.5291 384.9844 47.5291 Q385.5781 47.5291 385.875 47.3259 Q386.0781 47.1697 386.0781 46.9197 Q386.0781 46.7478 385.9688 46.6384 Q385.8438 46.5291 385.4531 46.4353 Q383.6406 46.0291 383.1406 45.7009 Q382.4688 45.2322 382.4688 44.4197 Q382.4688 43.6697 383.0547 43.1697 Q383.6406 42.6697 384.875 42.6697 Q386.0469 42.6697 386.6094 43.0447 Q387.1719 43.4197 387.3906 44.1697 L385.9688 44.4353 Q385.875 44.1072 385.625 43.9275 Q385.375 43.7478 384.8906 43.7478 Q384.2969 43.7478 384.0469 43.9197 Q383.875 44.0291 383.875 44.2166 Q383.875 44.3884 384.0156 44.4978 Q384.2188 44.6541 385.4297 44.9275 Q386.6406 45.2009 387.1094 45.5916 Q387.5938 45.9978 387.5938 46.7166 Q387.5938 47.4978 386.9375 48.0603 Q386.2812 48.6228 384.9844 48.6228 Q383.8281 48.6228 383.1484 48.1541 Q382.4688 47.6853 382.2656 46.8728 ZM389.2656 46.8728 L390.7656 46.6384 Q390.875 47.0759 391.1641 47.3025 Q391.4531 47.5291 391.9844 47.5291 Q392.5781 47.5291 392.875 47.3259 Q393.0781 47.1697 393.0781 46.9197 Q393.0781 46.7478 392.9688 46.6384 Q392.8438 46.5291 392.4531 46.4353 Q390.6406 46.0291 390.1406 45.7009 Q389.4688 45.2322 389.4688 44.4197 Q389.4688 43.6697 390.0547 43.1697 Q390.6406 42.6697 391.875 42.6697 Q393.0469 42.6697 393.6094 43.0447 Q394.1719 43.4197 394.3906 44.1697 L392.9688 44.4353 Q392.875 44.1072 392.625 43.9275 Q392.375 43.7478 391.8906 43.7478 Q391.2969 43.7478 391.0469 43.9197 Q390.875 44.0291 390.875 44.2166 Q390.875 44.3884 391.0156 44.4978 Q391.2188 44.6541 392.4297 44.9275 Q393.6406 45.2009 394.1094 45.5916 Q394.5938 45.9978 394.5938 46.7166 Q394.5938 47.4978 393.9375 48.0603 Q393.2812 48.6228 391.9844 48.6228 Q390.8281 48.6228 390.1484 48.1541 Q389.4688 47.6853 389.2656 46.8728 ZM396.7969 42.0134 L396.7969 40.6228 L398.2969 40.6228 L398.2969 42.0134 L396.7969 42.0134 ZM396.7969 48.4978 L396.7969 42.7947 L398.2969 42.7947 L398.2969 48.4978 L396.7969 48.4978 ZM399.4375 45.5603 Q399.4375 44.8103 399.8125 44.1072 Q400.1875 43.4041 400.8672 43.0369 Q401.5469 42.6697 402.375 42.6697 Q403.6719 42.6697 404.5 43.5056 Q405.3281 44.3416 405.3281 45.6228 Q405.3281 46.9197 404.4922 47.7712 Q403.6562 48.6228 402.3906 48.6228 Q401.6094 48.6228 400.8984 48.2712 Q400.1875 47.9197 399.8125 47.2322 Q399.4375 46.5447 399.4375 45.5603 ZM400.9844 45.6384 Q400.9844 46.4978 401.3906 46.9509 Q401.7969 47.4041 402.3906 47.4041 Q402.9688 47.4041 403.375 46.9509 Q403.7812 46.4978 403.7812 45.6384 Q403.7812 44.7947 403.375 44.3416 Q402.9688 43.8884 402.3906 43.8884 Q401.7969 43.8884 401.3906 44.3416 Q400.9844 44.7947 400.9844 45.6384 ZM411.9844 48.4978 L410.4688 48.4978 L410.4688 45.5916 Q410.4688 44.6697 410.375 44.3962 Q410.2812 44.1228 410.0625 43.9744 Q409.8438 43.8259 409.5312 43.8259 Q409.1406 43.8259 408.8281 44.0369 Q408.5156 44.2478 408.3984 44.5994 Q408.2812 44.9509 408.2812 45.9197 L408.2812 48.4978 L406.7812 48.4978 L406.7812 42.7947 L408.1875 42.7947 L408.1875 43.6384 Q408.9219 42.6697 410.0625 42.6697 Q410.5625 42.6697 410.9766 42.8494 Q411.3906 43.0291 411.6016 43.3025 Q411.8125 43.5759 411.8984 43.9353 Q411.9844 44.2947 411.9844 44.9509 L411.9844 48.4978 ZM416.6719 42.7947 L418.0625 42.7947 L418.0625 43.5759 Q418.8125 42.6697 419.8438 42.6697 Q420.3906 42.6697 420.7969 42.8962 Q421.2031 43.1228 421.4531 43.5759 Q421.8281 43.1228 422.2656 42.8962 Q422.7031 42.6697 423.2031 42.6697 Q423.8281 42.6697 424.2656 42.9197 Q424.7031 43.1697 424.9062 43.6697 Q425.0625 44.0291 425.0625 44.8572 L425.0625 48.4978 L423.5625 48.4978 L423.5625 45.2322 Q423.5625 44.3884 423.4062 44.1384 Q423.1875 43.8259 422.75 43.8259 Q422.4375 43.8259 422.1562 44.0134 Q421.875 44.2009 421.7578 44.5759 Q421.6406 44.9509 421.6406 45.7634 L421.6406 48.4978 L420.125 48.4978 L420.125 45.3728 Q420.125 44.5447 420.0469 44.3025 Q419.9688 44.0603 419.7969 43.9431 Q419.625 43.8259 419.3281 43.8259 Q418.9844 43.8259 418.7031 44.0134 Q418.4219 44.2009 418.3047 44.5525 Q418.1875 44.9041 418.1875 45.7322 L418.1875 48.4978 L416.6719 48.4978 L416.6719 42.7947 ZM431.0938 46.6853 L432.5938 46.9353 Q432.3125 47.7634 431.6875 48.1931 Q431.0625 48.6228 430.1094 48.6228 Q428.625 48.6228 427.9062 47.6541 Q427.3438 46.8728 427.3438 45.6853 Q427.3438 44.2634 428.0859 43.4666 Q428.8281 42.6697 429.9688 42.6697 Q431.2344 42.6697 431.9688 43.5056 Q432.7031 44.3416 432.6719 46.0759 L428.8906 46.0759 Q428.9062 46.7478 429.2578 47.1228 Q429.6094 47.4978 430.125 47.4978 Q430.4844 47.4978 430.7266 47.3025 Q430.9688 47.1072 431.0938 46.6853 ZM431.1719 45.1541 Q431.1562 44.4978 430.8359 44.1619 Q430.5156 43.8259 430.0625 43.8259 Q429.5625 43.8259 429.2344 44.1853 Q428.9219 44.5447 428.9219 45.1541 L431.1719 45.1541 ZM429.0469 41.4978 L429.7969 39.8884 L431.4844 39.8884 L430 41.4978 L429.0469 41.4978 ZM439.7656 44.4822 L438.2812 44.7478 Q438.2031 44.3103 437.9375 44.0837 Q437.6719 43.8572 437.25 43.8572 Q436.6875 43.8572 436.3516 44.24 Q436.0156 44.6228 436.0156 45.5447 Q436.0156 46.5603 436.3516 46.9822 Q436.6875 47.4041 437.2656 47.4041 Q437.7031 47.4041 437.9766 47.1541 Q438.25 46.9041 438.3594 46.3103 L439.8438 46.5603 Q439.6094 47.5916 438.9531 48.1072 Q438.2969 48.6228 437.2031 48.6228 Q435.9375 48.6228 435.1953 47.8337 Q434.4531 47.0447 434.4531 45.6541 Q434.4531 44.2322 435.2031 43.4509 Q435.9531 42.6697 437.2188 42.6697 Q438.2656 42.6697 438.8828 43.115 Q439.5 43.5603 439.7656 44.4822 ZM441.9219 44.5291 L440.5469 44.2791 Q440.7812 43.4666 441.3438 43.0681 Q441.9062 42.6697 443.0156 42.6697 Q444.0312 42.6697 444.5234 42.9041 Q445.0156 43.1384 445.2188 43.5056 Q445.4219 43.8728 445.4219 44.8572 L445.4062 46.6228 Q445.4062 47.3728 445.4766 47.7322 Q445.5469 48.0916 445.75 48.4978 L444.25 48.4978 Q444.1875 48.3416 444.1094 48.0447 Q444.0781 47.9197 444.0625 47.8728 Q443.6719 48.2478 443.2266 48.4353 Q442.7812 48.6228 442.2812 48.6228 Q441.4062 48.6228 440.8984 48.1462 Q440.3906 47.6697 440.3906 46.9353 Q440.3906 46.4509 440.625 46.0759 Q440.8594 45.7009 441.2734 45.4978 Q441.6875 45.2947 442.4688 45.1384 Q443.5312 44.9509 443.9375 44.7791 L443.9375 44.6228 Q443.9375 44.1853 443.7188 44.0056 Q443.5 43.8259 442.9062 43.8259 Q442.5156 43.8259 442.2891 43.9822 Q442.0625 44.1384 441.9219 44.5291 ZM443.9375 45.7634 Q443.6406 45.8572 443.0156 45.99 Q442.3906 46.1228 442.2031 46.2478 Q441.9062 46.4666 441.9062 46.7791 Q441.9062 47.1072 442.1406 47.3337 Q442.375 47.5603 442.7344 47.5603 Q443.1406 47.5603 443.5156 47.2947 Q443.7969 47.0916 443.875 46.7947 Q443.9375 46.6072 443.9375 46.0603 L443.9375 45.7634 ZM451.9844 48.4978 L450.4688 48.4978 L450.4688 45.5916 Q450.4688 44.6697 450.375 44.3962 Q450.2812 44.1228 450.0625 43.9744 Q449.8438 43.8259 449.5312 43.8259 Q449.1406 43.8259 448.8281 44.0369 Q448.5156 44.2478 448.3984 44.5994 Q448.2812 44.9509 448.2812 45.9197 L448.2812 48.4978 L446.7812 48.4978 L446.7812 42.7947 L448.1875 42.7947 L448.1875 43.6384 Q448.9219 42.6697 450.0625 42.6697 Q450.5625 42.6697 450.9766 42.8494 Q451.3906 43.0291 451.6016 43.3025 Q451.8125 43.5759 451.8984 43.9353 Q451.9844 44.2947 451.9844 44.9509 L451.9844 48.4978 ZM453.7969 42.0134 L453.7969 40.6228 L455.2969 40.6228 L455.2969 42.0134 L453.7969 42.0134 ZM453.7969 48.4978 L453.7969 42.7947 L455.2969 42.7947 L455.2969 48.4978 L453.7969 48.4978 ZM460.5156 50.6697 L460.5156 47.7947 Q460.2188 48.1853 459.7812 48.4041 Q459.3438 48.6228 458.8281 48.6228 Q457.8594 48.6228 457.2344 47.8884 Q456.4844 47.0447 456.4844 45.5759 Q456.4844 44.2009 457.1797 43.4353 Q457.875 42.6697 458.9062 42.6697 Q459.4844 42.6697 459.8984 42.9119 Q460.3125 43.1541 460.6406 43.6384 L460.6406 42.7947 L462.0312 42.7947 L462.0312 50.6697 L460.5156 50.6697 ZM460.5625 45.5759 Q460.5625 44.7009 460.2031 44.2712 Q459.8438 43.8416 459.3125 43.8416 Q458.7656 43.8416 458.3984 44.2791 Q458.0312 44.7166 458.0312 45.6541 Q458.0312 46.6072 458.3828 47.0212 Q458.7344 47.4353 459.2656 47.4353 Q459.7812 47.4353 460.1719 46.9666 Q460.5625 46.4978 460.5625 45.5759 ZM467.5469 48.4978 L467.5469 47.6384 Q467.2344 48.1072 466.7266 48.365 Q466.2188 48.6228 465.6562 48.6228 Q465.0781 48.6228 464.625 48.3728 Q464.1719 48.1228 463.9609 47.6619 Q463.75 47.2009 463.75 46.4041 L463.75 42.7947 L465.2656 42.7947 L465.2656 45.4197 Q465.2656 46.6228 465.3516 46.8884 Q465.4375 47.1541 465.6562 47.3181 Q465.875 47.4822 466.2188 47.4822 Q466.5938 47.4822 466.9062 47.2712 Q467.2188 47.0603 467.3281 46.74 Q467.4375 46.4197 467.4375 45.2009 L467.4375 42.7947 L468.9531 42.7947 L468.9531 48.4978 L467.5469 48.4978 ZM474.0938 46.6853 L475.5938 46.9353 Q475.3125 47.7634 474.6875 48.1931 Q474.0625 48.6228 473.1094 48.6228 Q471.625 48.6228 470.9062 47.6541 Q470.3438 46.8728 470.3438 45.6853 Q470.3438 44.2634 471.0859 43.4666 Q471.8281 42.6697 472.9688 42.6697 Q474.2344 42.6697 474.9688 43.5056 Q475.7031 44.3416 475.6719 46.0759 L471.8906 46.0759 Q471.9062 46.7478 472.2578 47.1228 Q472.6094 47.4978 473.125 47.4978 Q473.4844 47.4978 473.7266 47.3025 Q473.9688 47.1072 474.0938 46.6853 ZM474.1719 45.1541 Q474.1562 44.4978 473.8359 44.1619 Q473.5156 43.8259 473.0625 43.8259 Q472.5625 43.8259 472.2344 44.1853 Q471.9219 44.5447 471.9219 45.1541 L474.1719 45.1541 Z"
         clip-path="url(#clipPath1)"
         stroke="none"
         id="path199" />
      <rect
         x="308"
         y="47"
         clip-path="url(#clipPath1)"
         fill="url(#linearGradient8)"
         width="15"
         height="15"
         stroke="none"
         id="rect201" />
      <rect
         x="308"
         y="47"
         clip-path="url(#clipPath1)"
         fill="none"
         width="15"
         height="15"
         stroke="rgb(92,153,103)"
         id="rect203" />
      <line
         clip-path="url(#clipPath1)"
         fill="none"
         x1="310"
         x2="321"
         y1="54"
         y2="54"
         stroke="rgb(92,153,103)"
         id="line205" />
      <path
         fill="none"
         d="M317 52 L321 54 L317 56"
         clip-path="url(#clipPath1)"
         stroke="rgb(92,153,103)"
         id="path207" />
      <rect
         x="397"
         y="66"
         clip-path="url(#clipPath1)"
         fill="url(#linearGradient9)"
         width="15"
         height="15"
         stroke="none"
         id="rect209" />
      <rect
         x="397"
         y="66"
         clip-path="url(#clipPath1)"
         fill="none"
         width="15"
         height="15"
         stroke="rgb(92,153,103)"
         id="rect211" />
      <line
         clip-path="url(#clipPath1)"
         fill="none"
         x1="404"
         x2="404"
         y1="68"
         y2="79"
         stroke="rgb(92,153,103)"
         id="line213" />
      <path
         fill="none"
         d="M406 75 L404 79 L402 75"
         clip-path="url(#clipPath1)"
         stroke="rgb(92,153,103)"
         id="path215" />
      <rect
         x="94"
         y="213"
         clip-path="url(#clipPath1)"
         fill="rgb(178,178,178)"
         width="140"
         height="35"
         stroke="none"
         id="rect217" />
      <rect
         x="91"
         y="210"
         clip-path="url(#clipPath1)"
         fill="url(#linearGradient10)"
         width="140"
         height="35"
         stroke="none"
         id="rect219" />
      <rect
         x="91"
         y="210"
         clip-path="url(#clipPath1)"
         fill="none"
         width="140"
         height="35"
         stroke="rgb(153,141,92)"
         id="rect221" />
      <path
         fill="black"
         d="M119.0781 226.3103 L119.0781 224.7947 L120.5938 224.7947 L120.5938 226.3103 L119.0781 226.3103 ZM119.0781 230.4978 L119.0781 228.9822 L120.5938 228.9822 L120.5938 230.4978 L119.0781 230.4978 ZM124.7812 230.4978 L124.7812 222.6228 L127.1562 222.6228 L128.5938 227.9978 L130 222.6228 L132.3906 222.6228 L132.3906 230.4978 L130.9062 230.4978 L130.9062 224.2947 L129.3438 230.4978 L127.8125 230.4978 L126.25 224.2947 L126.25 230.4978 L124.7812 230.4978 ZM134.4375 227.5603 Q134.4375 226.8103 134.8125 226.1072 Q135.1875 225.4041 135.8672 225.0369 Q136.5469 224.6697 137.375 224.6697 Q138.6719 224.6697 139.5 225.5056 Q140.3281 226.3416 140.3281 227.6228 Q140.3281 228.9197 139.4922 229.7712 Q138.6562 230.6228 137.3906 230.6228 Q136.6094 230.6228 135.8984 230.2712 Q135.1875 229.9197 134.8125 229.2322 Q134.4375 228.5447 134.4375 227.5603 ZM135.9844 227.6384 Q135.9844 228.4978 136.3906 228.9509 Q136.7969 229.4041 137.3906 229.4041 Q137.9688 229.4041 138.375 228.9509 Q138.7812 228.4978 138.7812 227.6384 Q138.7812 226.7947 138.375 226.3416 Q137.9688 225.8884 137.3906 225.8884 Q136.7969 225.8884 136.3906 226.3416 Q135.9844 226.7947 135.9844 227.6384 ZM144.4062 224.7947 L144.4062 225.9978 L143.375 225.9978 L143.375 228.2947 Q143.375 228.9978 143.4062 229.115 Q143.4375 229.2322 143.5391 229.3025 Q143.6406 229.3728 143.7969 229.3728 Q144 229.3728 144.4062 229.2322 L144.5312 230.4041 Q144 230.6228 143.3438 230.6228 Q142.9219 230.6228 142.5938 230.49 Q142.2656 230.3572 142.1172 230.1384 Q141.9688 229.9197 141.9062 229.5447 Q141.8594 229.2791 141.8594 228.4822 L141.8594 225.9978 L141.1719 225.9978 L141.1719 224.7947 L141.8594 224.7947 L141.8594 223.6541 L143.375 222.7791 L143.375 224.7947 L144.4062 224.7947 ZM145.4375 227.5603 Q145.4375 226.8103 145.8125 226.1072 Q146.1875 225.4041 146.8672 225.0369 Q147.5469 224.6697 148.375 224.6697 Q149.6719 224.6697 150.5 225.5056 Q151.3281 226.3416 151.3281 227.6228 Q151.3281 228.9197 150.4922 229.7712 Q149.6562 230.6228 148.3906 230.6228 Q147.6094 230.6228 146.8984 230.2712 Q146.1875 229.9197 145.8125 229.2322 Q145.4375 228.5447 145.4375 227.5603 ZM146.9844 227.6384 Q146.9844 228.4978 147.3906 228.9509 Q147.7969 229.4041 148.3906 229.4041 Q148.9688 229.4041 149.375 228.9509 Q149.7812 228.4978 149.7812 227.6384 Q149.7812 226.7947 149.375 226.3416 Q148.9688 225.8884 148.3906 225.8884 Q147.7969 225.8884 147.3906 226.3416 Q146.9844 226.7947 146.9844 227.6384 ZM154.2344 230.4978 L152.7188 230.4978 L152.7188 224.7947 L154.125 224.7947 L154.125 225.6072 Q154.4844 225.0291 154.7734 224.8494 Q155.0625 224.6697 155.4219 224.6697 Q155.9375 224.6697 156.4219 224.9509 L155.9531 226.2634 Q155.5781 226.0134 155.25 226.0134 Q154.9219 226.0134 154.7031 226.1931 Q154.4844 226.3728 154.3594 226.8259 Q154.2344 227.2791 154.2344 228.7322 L154.2344 230.4978 ZM161.0938 228.6853 L162.5938 228.9353 Q162.3125 229.7634 161.6875 230.1931 Q161.0625 230.6228 160.1094 230.6228 Q158.625 230.6228 157.9062 229.6541 Q157.3438 228.8728 157.3438 227.6853 Q157.3438 226.2634 158.0859 225.4666 Q158.8281 224.6697 159.9688 224.6697 Q161.2344 224.6697 161.9688 225.5056 Q162.7031 226.3416 162.6719 228.0759 L158.8906 228.0759 Q158.9062 228.7478 159.2578 229.1228 Q159.6094 229.4978 160.125 229.4978 Q160.4844 229.4978 160.7266 229.3025 Q160.9688 229.1072 161.0938 228.6853 ZM161.1719 227.1541 Q161.1562 226.4978 160.8359 226.1619 Q160.5156 225.8259 160.0625 225.8259 Q159.5625 225.8259 159.2344 226.1853 Q158.9219 226.5447 158.9219 227.1541 L161.1719 227.1541 ZM159.0469 223.4978 L159.7969 221.8884 L161.4844 221.8884 L160 223.4978 L159.0469 223.4978 ZM170.0156 230.4978 L168.625 230.4978 L168.625 229.6541 Q168.2656 230.1541 167.7891 230.3884 Q167.3125 230.6228 166.8438 230.6228 Q165.8594 230.6228 165.1562 229.8337 Q164.4531 229.0447 164.4531 227.6228 Q164.4531 226.1697 165.1328 225.4197 Q165.8125 224.6697 166.8594 224.6697 Q167.8125 224.6697 168.5156 225.4666 L168.5156 222.6228 L170.0156 222.6228 L170.0156 230.4978 ZM166 227.5291 Q166 228.4353 166.25 228.8416 Q166.6094 229.4353 167.2656 229.4353 Q167.7812 229.4353 168.1484 228.99 Q168.5156 228.5447 168.5156 227.6697 Q168.5156 226.6853 168.1641 226.2556 Q167.8125 225.8259 167.25 225.8259 Q166.7188 225.8259 166.3594 226.2478 Q166 226.6697 166 227.5291 ZM175.5469 230.4978 L175.5469 229.6384 Q175.2344 230.1072 174.7266 230.365 Q174.2188 230.6228 173.6562 230.6228 Q173.0781 230.6228 172.625 230.3728 Q172.1719 230.1228 171.9609 229.6619 Q171.75 229.2009 171.75 228.4041 L171.75 224.7947 L173.2656 224.7947 L173.2656 227.4197 Q173.2656 228.6228 173.3516 228.8884 Q173.4375 229.1541 173.6562 229.3181 Q173.875 229.4822 174.2188 229.4822 Q174.5938 229.4822 174.9062 229.2712 Q175.2188 229.0603 175.3281 228.74 Q175.4375 228.4197 175.4375 227.2009 L175.4375 224.7947 L176.9531 224.7947 L176.9531 230.4978 L175.5469 230.4978 ZM183.7656 226.4822 L182.2812 226.7478 Q182.2031 226.3103 181.9375 226.0837 Q181.6719 225.8572 181.25 225.8572 Q180.6875 225.8572 180.3516 226.24 Q180.0156 226.6228 180.0156 227.5447 Q180.0156 228.5603 180.3516 228.9822 Q180.6875 229.4041 181.2656 229.4041 Q181.7031 229.4041 181.9766 229.1541 Q182.25 228.9041 182.3594 228.3103 L183.8438 228.5603 Q183.6094 229.5916 182.9531 230.1072 Q182.2969 230.6228 181.2031 230.6228 Q179.9375 230.6228 179.1953 229.8337 Q178.4531 229.0447 178.4531 227.6541 Q178.4531 226.2322 179.2031 225.4509 Q179.9531 224.6697 181.2188 224.6697 Q182.2656 224.6697 182.8828 225.115 Q183.5 225.5603 183.7656 226.4822 ZM187.4062 224.7947 L187.4062 225.9978 L186.375 225.9978 L186.375 228.2947 Q186.375 228.9978 186.4062 229.115 Q186.4375 229.2322 186.5391 229.3025 Q186.6406 229.3728 186.7969 229.3728 Q187 229.3728 187.4062 229.2322 L187.5312 230.4041 Q187 230.6228 186.3438 230.6228 Q185.9219 230.6228 185.5938 230.49 Q185.2656 230.3572 185.1172 230.1384 Q184.9688 229.9197 184.9062 229.5447 Q184.8594 229.2791 184.8594 228.4822 L184.8594 225.9978 L184.1719 225.9978 L184.1719 224.7947 L184.8594 224.7947 L184.8594 223.6541 L186.375 222.7791 L186.375 224.7947 L187.4062 224.7947 ZM192.0938 228.6853 L193.5938 228.9353 Q193.3125 229.7634 192.6875 230.1931 Q192.0625 230.6228 191.1094 230.6228 Q189.625 230.6228 188.9062 229.6541 Q188.3438 228.8728 188.3438 227.6853 Q188.3438 226.2634 189.0859 225.4666 Q189.8281 224.6697 190.9688 224.6697 Q192.2344 224.6697 192.9688 225.5056 Q193.7031 226.3416 193.6719 228.0759 L189.8906 228.0759 Q189.9062 228.7478 190.2578 229.1228 Q190.6094 229.4978 191.125 229.4978 Q191.4844 229.4978 191.7266 229.3025 Q191.9688 229.1072 192.0938 228.6853 ZM192.1719 227.1541 Q192.1562 226.4978 191.8359 226.1619 Q191.5156 225.8259 191.0625 225.8259 Q190.5625 225.8259 190.2344 226.1853 Q189.9219 226.5447 189.9219 227.1541 L192.1719 227.1541 ZM199.5469 230.4978 L199.5469 229.6384 Q199.2344 230.1072 198.7266 230.365 Q198.2188 230.6228 197.6562 230.6228 Q197.0781 230.6228 196.625 230.3728 Q196.1719 230.1228 195.9609 229.6619 Q195.75 229.2009 195.75 228.4041 L195.75 224.7947 L197.2656 224.7947 L197.2656 227.4197 Q197.2656 228.6228 197.3516 228.8884 Q197.4375 229.1541 197.6562 229.3181 Q197.875 229.4822 198.2188 229.4822 Q198.5938 229.4822 198.9062 229.2712 Q199.2188 229.0603 199.3281 228.74 Q199.4375 228.4197 199.4375 227.2009 L199.4375 224.7947 L200.9531 224.7947 L200.9531 230.4978 L199.5469 230.4978 ZM204.2344 230.4978 L202.7188 230.4978 L202.7188 224.7947 L204.125 224.7947 L204.125 225.6072 Q204.4844 225.0291 204.7734 224.8494 Q205.0625 224.6697 205.4219 224.6697 Q205.9375 224.6697 206.4219 224.9509 L205.9531 226.2634 Q205.5781 226.0134 205.25 226.0134 Q204.9219 226.0134 204.7031 226.1931 Q204.4844 226.3728 204.3594 226.8259 Q204.2344 227.2791 204.2344 228.7322 L204.2344 230.4978 Z"
         clip-path="url(#clipPath1)"
         stroke="none"
         id="path223" />
      <rect
         x="149"
         y="203"
         clip-path="url(#clipPath1)"
         fill="url(#linearGradient11)"
         width="15"
         height="15"
         stroke="none"
         id="rect225" />
      <rect
         x="149"
         y="203"
         clip-path="url(#clipPath1)"
         fill="none"
         width="15"
         height="15"
         stroke="rgb(92,153,103)"
         id="rect227" />
      <line
         clip-path="url(#clipPath1)"
         fill="none"
         x1="156"
         x2="156"
         y1="205"
         y2="216"
         stroke="rgb(92,153,103)"
         id="line229" />
      <path
         fill="none"
         d="M158 212 L156 216 L154 212"
         clip-path="url(#clipPath1)"
         stroke="rgb(92,153,103)"
         id="path231" />
      <rect
         x="223"
         y="224"
         clip-path="url(#clipPath1)"
         fill="url(#linearGradient12)"
         width="15"
         height="15"
         stroke="none"
         id="rect233" />
      <rect
         x="223"
         y="224"
         clip-path="url(#clipPath1)"
         fill="none"
         width="15"
         height="15"
         stroke="rgb(92,153,103)"
         id="rect235" />
      <line
         clip-path="url(#clipPath1)"
         fill="none"
         x1="225"
         x2="236"
         y1="231"
         y2="231"
         stroke="rgb(92,153,103)"
         id="line237" />
      <path
         fill="none"
         d="M232 229 L236 231 L232 233"
         clip-path="url(#clipPath1)"
         stroke="rgb(92,153,103)"
         id="path239" />
      <rect
         x="346"
         y="122"
         clip-path="url(#clipPath1)"
         fill="rgb(178,178,178)"
         width="119"
         height="42"
         stroke="none"
         id="rect241" />
      <rect
         x="343"
         y="119"
         clip-path="url(#clipPath1)"
         fill="url(#linearGradient13)"
         width="119"
         height="42"
         stroke="none"
         id="rect243" />
      <rect
         x="343"
         y="119"
         clip-path="url(#clipPath1)"
         fill="none"
         width="119"
         height="42"
         stroke="rgb(153,141,92)"
         id="rect245" />
      <path
         fill="black"
         d="M386.0781 135.3103 L386.0781 133.7947 L387.5938 133.7947 L387.5938 135.3103 L386.0781 135.3103 ZM386.0781 139.4978 L386.0781 137.9822 L387.5938 137.9822 L387.5938 139.4978 L386.0781 139.4978 ZM391.8438 139.4978 L391.8438 131.6853 L393.4375 131.6853 L393.4375 138.1697 L397.3906 138.1697 L397.3906 139.4978 L391.8438 139.4978 ZM398.7969 133.0134 L398.7969 131.6228 L400.2969 131.6228 L400.2969 133.0134 L398.7969 133.0134 ZM398.7969 139.4978 L398.7969 133.7947 L400.2969 133.7947 L400.2969 139.4978 L398.7969 139.4978 ZM401.2656 137.8728 L402.7656 137.6384 Q402.875 138.0759 403.1641 138.3025 Q403.4531 138.5291 403.9844 138.5291 Q404.5781 138.5291 404.875 138.3259 Q405.0781 138.1697 405.0781 137.9197 Q405.0781 137.7478 404.9688 137.6384 Q404.8438 137.5291 404.4531 137.4353 Q402.6406 137.0291 402.1406 136.7009 Q401.4688 136.2322 401.4688 135.4197 Q401.4688 134.6697 402.0547 134.1697 Q402.6406 133.6697 403.875 133.6697 Q405.0469 133.6697 405.6094 134.0447 Q406.1719 134.4197 406.3906 135.1697 L404.9688 135.4353 Q404.875 135.1072 404.625 134.9275 Q404.375 134.7478 403.8906 134.7478 Q403.2969 134.7478 403.0469 134.9197 Q402.875 135.0291 402.875 135.2166 Q402.875 135.3884 403.0156 135.4978 Q403.2188 135.6541 404.4297 135.9275 Q405.6406 136.2009 406.1094 136.5916 Q406.5938 136.9978 406.5938 137.7166 Q406.5938 138.4978 405.9375 139.0603 Q405.2812 139.6228 403.9844 139.6228 Q402.8281 139.6228 402.1484 139.1541 Q401.4688 138.6853 401.2656 137.8728 ZM408.2656 137.8728 L409.7656 137.6384 Q409.875 138.0759 410.1641 138.3025 Q410.4531 138.5291 410.9844 138.5291 Q411.5781 138.5291 411.875 138.3259 Q412.0781 138.1697 412.0781 137.9197 Q412.0781 137.7478 411.9688 137.6384 Q411.8438 137.5291 411.4531 137.4353 Q409.6406 137.0291 409.1406 136.7009 Q408.4688 136.2322 408.4688 135.4197 Q408.4688 134.6697 409.0547 134.1697 Q409.6406 133.6697 410.875 133.6697 Q412.0469 133.6697 412.6094 134.0447 Q413.1719 134.4197 413.3906 135.1697 L411.9688 135.4353 Q411.875 135.1072 411.625 134.9275 Q411.375 134.7478 410.8906 134.7478 Q410.2969 134.7478 410.0469 134.9197 Q409.875 135.0291 409.875 135.2166 Q409.875 135.3884 410.0156 135.4978 Q410.2188 135.6541 411.4297 135.9275 Q412.6406 136.2009 413.1094 136.5916 Q413.5938 136.9978 413.5938 137.7166 Q413.5938 138.4978 412.9375 139.0603 Q412.2812 139.6228 410.9844 139.6228 Q409.8281 139.6228 409.1484 139.1541 Q408.4688 138.6853 408.2656 137.8728 ZM419.0938 137.6853 L420.5938 137.9353 Q420.3125 138.7634 419.6875 139.1931 Q419.0625 139.6228 418.1094 139.6228 Q416.625 139.6228 415.9062 138.6541 Q415.3438 137.8728 415.3438 136.6853 Q415.3438 135.2634 416.0859 134.4666 Q416.8281 133.6697 417.9688 133.6697 Q419.2344 133.6697 419.9688 134.5056 Q420.7031 135.3416 420.6719 137.0759 L416.8906 137.0759 Q416.9062 137.7478 417.2578 138.1228 Q417.6094 138.4978 418.125 138.4978 Q418.4844 138.4978 418.7266 138.3025 Q418.9688 138.1072 419.0938 137.6853 ZM419.1719 136.1541 Q419.1562 135.4978 418.8359 135.1619 Q418.5156 134.8259 418.0625 134.8259 Q417.5625 134.8259 417.2344 135.1853 Q416.9219 135.5447 416.9219 136.1541 L419.1719 136.1541 Z"
         clip-path="url(#clipPath1)"
         stroke="none"
         id="path247" />
      <rect
         x="397"
         y="112"
         clip-path="url(#clipPath1)"
         fill="url(#linearGradient14)"
         width="15"
         height="15"
         stroke="none"
         id="rect249" />
      <rect
         x="397"
         y="112"
         clip-path="url(#clipPath1)"
         fill="none"
         width="15"
         height="15"
         stroke="rgb(92,153,103)"
         id="rect251" />
      <line
         clip-path="url(#clipPath1)"
         fill="none"
         x1="404"
         x2="404"
         y1="114"
         y2="125"
         stroke="rgb(92,153,103)"
         id="line253" />
      <path
         fill="none"
         d="M406 121 L404 125 L402 121"
         clip-path="url(#clipPath1)"
         stroke="rgb(92,153,103)"
         id="path255" />
      <rect
         x="400"
         y="153"
         clip-path="url(#clipPath1)"
         fill="url(#linearGradient15)"
         width="15"
         height="15"
         stroke="none"
         id="rect257" />
      <rect
         x="400"
         y="153"
         clip-path="url(#clipPath1)"
         fill="none"
         width="15"
         height="15"
         stroke="rgb(92,153,103)"
         id="rect259" />
      <line
         clip-path="url(#clipPath1)"
         fill="none"
         x1="407"
         x2="407"
         y1="155"
         y2="166"
         stroke="rgb(92,153,103)"
         id="line261" />
      <path
         fill="none"
         d="M409 162 L407 166 L405 162"
         clip-path="url(#clipPath1)"
         stroke="rgb(92,153,103)"
         id="path263" />
      <rect
         x="108"
         y="38"
         clip-path="url(#clipPath1)"
         fill="rgb(178,178,178)"
         width="105"
         height="105"
         stroke="none"
         id="rect265" />
      <rect
         x="105"
         y="35"
         clip-path="url(#clipPath1)"
         fill="url(#linearGradient16)"
         width="105"
         height="105"
         stroke="none"
         id="rect267" />
      <rect
         x="105"
         y="35"
         clip-path="url(#clipPath1)"
         fill="none"
         width="105"
         height="105"
         stroke="rgb(153,141,92)"
         id="rect269" />
      <path
         fill="black"
         d="M131.0781 44.3103 L131.0781 42.7947 L132.5938 42.7947 L132.5938 44.3103 L131.0781 44.3103 ZM131.0781 48.4978 L131.0781 46.9822 L132.5938 46.9822 L132.5938 48.4978 L131.0781 48.4978 ZM138.8125 48.4978 L136 40.6228 L137.7188 40.6228 L139.7188 46.4509 L141.6406 40.6228 L143.3281 40.6228 L140.5 48.4978 L138.8125 48.4978 ZM145.9219 44.5291 L144.5469 44.2791 Q144.7812 43.4666 145.3438 43.0681 Q145.9062 42.6697 147.0156 42.6697 Q148.0312 42.6697 148.5234 42.9041 Q149.0156 43.1384 149.2188 43.5056 Q149.4219 43.8728 149.4219 44.8572 L149.4062 46.6228 Q149.4062 47.3728 149.4766 47.7322 Q149.5469 48.0916 149.75 48.4978 L148.25 48.4978 Q148.1875 48.3416 148.1094 48.0447 Q148.0781 47.9197 148.0625 47.8728 Q147.6719 48.2478 147.2266 48.4353 Q146.7812 48.6228 146.2812 48.6228 Q145.4062 48.6228 144.8984 48.1462 Q144.3906 47.6697 144.3906 46.9353 Q144.3906 46.4509 144.625 46.0759 Q144.8594 45.7009 145.2734 45.4978 Q145.6875 45.2947 146.4688 45.1384 Q147.5312 44.9509 147.9375 44.7791 L147.9375 44.6228 Q147.9375 44.1853 147.7188 44.0056 Q147.5 43.8259 146.9062 43.8259 Q146.5156 43.8259 146.2891 43.9822 Q146.0625 44.1384 145.9219 44.5291 ZM147.9375 45.7634 Q147.6406 45.8572 147.0156 45.99 Q146.3906 46.1228 146.2031 46.2478 Q145.9062 46.4666 145.9062 46.7791 Q145.9062 47.1072 146.1406 47.3337 Q146.375 47.5603 146.7344 47.5603 Q147.1406 47.5603 147.5156 47.2947 Q147.7969 47.0916 147.875 46.7947 Q147.9375 46.6072 147.9375 46.0603 L147.9375 45.7634 ZM152.2344 48.4978 L150.7188 48.4978 L150.7188 42.7947 L152.125 42.7947 L152.125 43.6072 Q152.4844 43.0291 152.7734 42.8494 Q153.0625 42.6697 153.4219 42.6697 Q153.9375 42.6697 154.4219 42.9509 L153.9531 44.2634 Q153.5781 44.0134 153.25 44.0134 Q152.9219 44.0134 152.7031 44.1931 Q152.4844 44.3728 152.3594 44.8259 Q152.2344 45.2791 152.2344 46.7322 L152.2344 48.4978 ZM155.7969 42.0134 L155.7969 40.6228 L157.2969 40.6228 L157.2969 42.0134 L155.7969 42.0134 ZM155.7969 48.4978 L155.7969 42.7947 L157.2969 42.7947 L157.2969 48.4978 L155.7969 48.4978 ZM159.9219 44.5291 L158.5469 44.2791 Q158.7812 43.4666 159.3438 43.0681 Q159.9062 42.6697 161.0156 42.6697 Q162.0312 42.6697 162.5234 42.9041 Q163.0156 43.1384 163.2188 43.5056 Q163.4219 43.8728 163.4219 44.8572 L163.4062 46.6228 Q163.4062 47.3728 163.4766 47.7322 Q163.5469 48.0916 163.75 48.4978 L162.25 48.4978 Q162.1875 48.3416 162.1094 48.0447 Q162.0781 47.9197 162.0625 47.8728 Q161.6719 48.2478 161.2266 48.4353 Q160.7812 48.6228 160.2812 48.6228 Q159.4062 48.6228 158.8984 48.1462 Q158.3906 47.6697 158.3906 46.9353 Q158.3906 46.4509 158.625 46.0759 Q158.8594 45.7009 159.2734 45.4978 Q159.6875 45.2947 160.4688 45.1384 Q161.5312 44.9509 161.9375 44.7791 L161.9375 44.6228 Q161.9375 44.1853 161.7188 44.0056 Q161.5 43.8259 160.9062 43.8259 Q160.5156 43.8259 160.2891 43.9822 Q160.0625 44.1384 159.9219 44.5291 ZM161.9375 45.7634 Q161.6406 45.8572 161.0156 45.99 Q160.3906 46.1228 160.2031 46.2478 Q159.9062 46.4666 159.9062 46.7791 Q159.9062 47.1072 160.1406 47.3337 Q160.375 47.5603 160.7344 47.5603 Q161.1406 47.5603 161.5156 47.2947 Q161.7969 47.0916 161.875 46.7947 Q161.9375 46.6072 161.9375 46.0603 L161.9375 45.7634 ZM167.4062 42.7947 L167.4062 43.9978 L166.375 43.9978 L166.375 46.2947 Q166.375 46.9978 166.4062 47.115 Q166.4375 47.2322 166.5391 47.3025 Q166.6406 47.3728 166.7969 47.3728 Q167 47.3728 167.4062 47.2322 L167.5312 48.4041 Q167 48.6228 166.3438 48.6228 Q165.9219 48.6228 165.5938 48.49 Q165.2656 48.3572 165.1172 48.1384 Q164.9688 47.9197 164.9062 47.5447 Q164.8594 47.2791 164.8594 46.4822 L164.8594 43.9978 L164.1719 43.9978 L164.1719 42.7947 L164.8594 42.7947 L164.8594 41.6541 L166.375 40.7791 L166.375 42.7947 L167.4062 42.7947 ZM172.0938 46.6853 L173.5938 46.9353 Q173.3125 47.7634 172.6875 48.1931 Q172.0625 48.6228 171.1094 48.6228 Q169.625 48.6228 168.9062 47.6541 Q168.3438 46.8728 168.3438 45.6853 Q168.3438 44.2634 169.0859 43.4666 Q169.8281 42.6697 170.9688 42.6697 Q172.2344 42.6697 172.9688 43.5056 Q173.7031 44.3416 173.6719 46.0759 L169.8906 46.0759 Q169.9062 46.7478 170.2578 47.1228 Q170.6094 47.4978 171.125 47.4978 Q171.4844 47.4978 171.7266 47.3025 Q171.9688 47.1072 172.0938 46.6853 ZM172.1719 45.1541 Q172.1562 44.4978 171.8359 44.1619 Q171.5156 43.8259 171.0625 43.8259 Q170.5625 43.8259 170.2344 44.1853 Q169.9219 44.5447 169.9219 45.1541 L172.1719 45.1541 ZM179.5469 48.4978 L179.5469 47.6384 Q179.2344 48.1072 178.7266 48.365 Q178.2188 48.6228 177.6562 48.6228 Q177.0781 48.6228 176.625 48.3728 Q176.1719 48.1228 175.9609 47.6619 Q175.75 47.2009 175.75 46.4041 L175.75 42.7947 L177.2656 42.7947 L177.2656 45.4197 Q177.2656 46.6228 177.3516 46.8884 Q177.4375 47.1541 177.6562 47.3181 Q177.875 47.4822 178.2188 47.4822 Q178.5938 47.4822 178.9062 47.2712 Q179.2188 47.0603 179.3281 46.74 Q179.4375 46.4197 179.4375 45.2009 L179.4375 42.7947 L180.9531 42.7947 L180.9531 48.4978 L179.5469 48.4978 ZM184.2344 48.4978 L182.7188 48.4978 L182.7188 42.7947 L184.125 42.7947 L184.125 43.6072 Q184.4844 43.0291 184.7734 42.8494 Q185.0625 42.6697 185.4219 42.6697 Q185.9375 42.6697 186.4219 42.9509 L185.9531 44.2634 Q185.5781 44.0134 185.25 44.0134 Q184.9219 44.0134 184.7031 44.1931 Q184.4844 44.3728 184.3594 44.8259 Q184.2344 45.2791 184.2344 46.7322 L184.2344 48.4978 Z"
         clip-path="url(#clipPath1)"
         stroke="none"
         id="path271" />
      <rect
         x="98"
         y="45"
         clip-path="url(#clipPath1)"
         fill="url(#linearGradient17)"
         width="15"
         height="15"
         stroke="none"
         id="rect273" />
      <rect
         x="98"
         y="45"
         clip-path="url(#clipPath1)"
         fill="none"
         width="15"
         height="15"
         stroke="rgb(92,153,103)"
         id="rect275" />
      <line
         clip-path="url(#clipPath1)"
         fill="none"
         x1="100"
         x2="111"
         y1="52"
         y2="52"
         stroke="rgb(92,153,103)"
         id="line277" />
      <path
         fill="none"
         d="M107 50 L111 52 L107 54"
         clip-path="url(#clipPath1)"
         stroke="rgb(92,153,103)"
         id="path279" />
      <rect
         x="150"
         y="132"
         clip-path="url(#clipPath1)"
         fill="url(#linearGradient18)"
         width="15"
         height="15"
         stroke="none"
         id="rect281" />
      <rect
         x="150"
         y="132"
         clip-path="url(#clipPath1)"
         fill="none"
         width="15"
         height="15"
         stroke="rgb(92,153,103)"
         id="rect283" />
      <line
         clip-path="url(#clipPath1)"
         fill="none"
         x1="157"
         x2="157"
         y1="134"
         y2="145"
         stroke="rgb(92,153,103)"
         id="line285" />
      <path
         fill="none"
         d="M159 141 L157 145 L155 141"
         clip-path="url(#clipPath1)"
         stroke="rgb(92,153,103)"
         id="path287" />
      <rect
         x="98"
         y="111"
         clip-path="url(#clipPath1)"
         fill="url(#linearGradient19)"
         width="15"
         height="15"
         stroke="none"
         id="rect289" />
      <rect
         x="98"
         y="111"
         clip-path="url(#clipPath1)"
         fill="none"
         width="15"
         height="15"
         stroke="rgb(92,153,103)"
         id="rect291" />
      <line
         clip-path="url(#clipPath1)"
         fill="none"
         x1="100"
         x2="111"
         y1="118"
         y2="118"
         stroke="rgb(92,153,103)"
         id="line293" />
      <path
         fill="none"
         d="M107 116 L111 118 L107 120"
         clip-path="url(#clipPath1)"
         stroke="rgb(92,153,103)"
         id="path295" />
      <path
         fill="none"
         d="M238 231 L263 231 L263 53 L308 53"
         clip-path="url(#clipPath1)"
         id="path297" />
      <path
         fill="none"
         d="M98 53 L20 53"
         clip-path="url(#clipPath1)"
         id="path299" />
      <path
         fill="none"
         d="M98 119 L20 119"
         clip-path="url(#clipPath1)"
         id="path301" />
      <path
         fill="none"
         d="M161 203 L161 147"
         clip-path="url(#clipPath1)"
         id="path303" />
      <path
         fill="none"
         d="M406 203 L406 168"
         clip-path="url(#clipPath1)"
         id="path305" />
      <path
         fill="none"
         d="M406 112 L406 81"
         clip-path="url(#clipPath1)"
         id="path307" />
      <path
         fill="none"
         d="M530 231 L518 231"
         clip-path="url(#clipPath1)"
         id="path309" />
    </g>
  </g>
</svg>
