solid De_Défaut_sldprt
   facet normal 4.185114e-002 9.991238e-001 0.000000e+000
      outer loop
         vertex -3.094776e+001 8.613881e+001 2.000000e+000
         vertex -3.094776e+001 8.613881e+001 -2.000000e+000
         vertex -3.132376e+001 8.616246e+001 -2.000000e+000
      endloop
   endfacet
   facet normal 8.370229e-002 9.964908e-001 0.000000e+000
      outer loop
         vertex -3.094776e+001 8.613881e+001 2.000000e+000
         vertex -3.132376e+001 8.616246e+001 -2.000000e+000
         vertex -3.132376e+001 8.616246e+001 2.000000e+000
      endloop
   endfacet
   facet normal 1.667446e-001 9.860001e-001 0.000000e+000
      outer loop
         vertex -3.132376e+001 8.616246e+001 2.000000e+000
         vertex -3.132376e+001 8.616246e+001 -2.000000e+000
         vertex -3.169383e+001 8.623306e+001 -2.000000e+000
      endloop
   endfacet
   facet normal 2.079357e-001 9.781425e-001 0.000000e+000
      outer loop
         vertex -3.132376e+001 8.616246e+001 2.000000e+000
         vertex -3.169383e+001 8.623306e+001 -2.000000e+000
         vertex -3.169383e+001 8.623306e+001 2.000000e+000
      endloop
   endfacet
   facet normal 2.890083e-001 9.573266e-001 0.000000e+000
      outer loop
         vertex -3.169383e+001 8.623306e+001 2.000000e+000
         vertex -3.169383e+001 8.623306e+001 -2.000000e+000
         vertex -3.205214e+001 8.634947e+001 -2.000000e+000
      endloop
   endfacet
   facet normal 3.288898e-001 9.443683e-001 0.000000e+000
      outer loop
         vertex -3.169383e+001 8.623306e+001 2.000000e+000
         vertex -3.205214e+001 8.634947e+001 -2.000000e+000
         vertex -3.205214e+001 8.634947e+001 2.000000e+000
      endloop
   endfacet
   facet normal 4.067142e-001 9.135554e-001 0.000000e+000
      outer loop
         vertex -3.205214e+001 8.634947e+001 2.000000e+000
         vertex -3.205214e+001 8.634947e+001 -2.000000e+000
         vertex -3.239302e+001 8.650988e+001 -2.000000e+000
      endloop
   endfacet
   facet normal 4.446571e-001 8.957008e-001 0.000000e+000
      outer loop
         vertex -3.205214e+001 8.634947e+001 2.000000e+000
         vertex -3.239302e+001 8.650988e+001 -2.000000e+000
         vertex -3.239302e+001 8.650988e+001 2.000000e+000
      endloop
   endfacet
   facet normal 5.180060e-001 8.553770e-001 0.000000e+000
      outer loop
         vertex -3.239302e+001 8.650988e+001 2.000000e+000
         vertex -3.239302e+001 8.650988e+001 -2.000000e+000
         vertex -3.271112e+001 8.671175e+001 -2.000000e+000
      endloop
   endfacet
   facet normal 5.534120e-001 8.329076e-001 0.000000e+000
      outer loop
         vertex -3.239302e+001 8.650988e+001 2.000000e+000
         vertex -3.271112e+001 8.671175e+001 -2.000000e+000
         vertex -3.271112e+001 8.671175e+001 2.000000e+000
      endloop
   endfacet
   facet normal 6.211286e-001 7.837087e-001 0.000000e+000
      outer loop
         vertex -3.271112e+001 8.671175e+001 2.000000e+000
         vertex -3.271112e+001 8.671175e+001 -2.000000e+000
         vertex -3.300140e+001 8.695190e+001 -2.000000e+000
      endloop
   endfacet
   facet normal 6.534392e-001 7.569790e-001 0.000000e+000
      outer loop
         vertex -3.271112e+001 8.671175e+001 2.000000e+000
         vertex -3.300140e+001 8.695190e+001 -2.000000e+000
         vertex -3.300140e+001 8.695190e+001 2.000000e+000
      endloop
   endfacet
   facet normal 7.144555e-001 6.996809e-001 0.000000e+000
      outer loop
         vertex -3.300140e+001 8.695190e+001 2.000000e+000
         vertex -3.300140e+001 8.695190e+001 -2.000000e+000
         vertex -3.325930e+001 8.722653e+001 -2.000000e+000
      endloop
   endfacet
   facet normal 7.431613e-001 6.691124e-001 0.000000e+000
      outer loop
         vertex -3.300140e+001 8.695190e+001 2.000000e+000
         vertex -3.325930e+001 8.722653e+001 -2.000000e+000
         vertex -3.325930e+001 8.722653e+001 2.000000e+000
      endloop
   endfacet
   facet normal 7.965151e-001 6.046186e-001 0.000000e+000
      outer loop
         vertex -3.325930e+001 8.722653e+001 2.000000e+000
         vertex -3.325930e+001 8.722653e+001 -2.000000e+000
         vertex -3.348074e+001 8.753132e+001 -2.000000e+000
      endloop
   endfacet
   facet normal 8.211632e-001 5.706934e-001 0.000000e+000
      outer loop
         vertex -3.325930e+001 8.722653e+001 2.000000e+000
         vertex -3.348074e+001 8.753132e+001 -2.000000e+000
         vertex -3.348074e+001 8.753132e+001 2.000000e+000
      endloop
   endfacet
   facet normal 8.660132e-001 5.000213e-001 0.000000e+000
      outer loop
         vertex -3.348074e+001 8.753132e+001 2.000000e+000
         vertex -3.348074e+001 8.753132e+001 -2.000000e+000
         vertex -3.366224e+001 8.786147e+001 -2.000000e+000
      endloop
   endfacet
   facet normal 8.862150e-001 4.632743e-001 0.000000e+000
      outer loop
         vertex -3.348074e+001 8.753132e+001 2.000000e+000
         vertex -3.366224e+001 8.786147e+001 -2.000000e+000
         vertex -3.366224e+001 8.786147e+001 2.000000e+000
      endloop
   endfacet
   facet normal 9.218537e-001 3.875382e-001 0.000000e+000
      outer loop
         vertex -3.366224e+001 8.786147e+001 2.000000e+000
         vertex -3.366224e+001 8.786147e+001 -2.000000e+000
         vertex -3.380093e+001 8.821175e+001 -2.000000e+000
      endloop
   endfacet
   facet normal 9.372905e-001 3.485490e-001 0.000000e+000
      outer loop
         vertex -3.366224e+001 8.786147e+001 2.000000e+000
         vertex -3.380093e+001 8.821175e+001 -2.000000e+000
         vertex -3.380093e+001 8.821175e+001 2.000000e+000
      endloop
   endfacet
   facet normal 9.631560e-001 2.689435e-001 0.000000e+000
      outer loop
         vertex -3.380093e+001 8.821175e+001 2.000000e+000
         vertex -3.380093e+001 8.821175e+001 -2.000000e+000
         vertex -3.389462e+001 8.857666e+001 -2.000000e+000
      endloop
   endfacet
   facet normal 9.735845e-001 2.283270e-001 0.000000e+000
      outer loop
         vertex -3.380093e+001 8.821175e+001 2.000000e+000
         vertex -3.389462e+001 8.857666e+001 -2.000000e+000
         vertex -3.389462e+001 8.857666e+001 2.000000e+000
      endloop
   endfacet
   facet normal 9.892687e-001 1.461073e-001 0.000000e+000
      outer loop
         vertex -3.389462e+001 8.857666e+001 2.000000e+000
         vertex -3.389462e+001 8.857666e+001 -2.000000e+000
         vertex -3.394184e+001 8.895043e+001 -2.000000e+000
      endloop
   endfacet
   facet normal 9.945244e-001 1.045041e-001 0.000000e+000
      outer loop
         vertex -3.389462e+001 8.857666e+001 2.000000e+000
         vertex -3.394184e+001 8.895043e+001 -2.000000e+000
         vertex -3.394184e+001 8.895043e+001 2.000000e+000
      endloop
   endfacet
   facet normal 9.997802e-001 2.096695e-002 0.000000e+000
      outer loop
         vertex -3.394184e+001 8.895043e+001 2.000000e+000
         vertex -3.394184e+001 8.895043e+001 -2.000000e+000
         vertex -3.394184e+001 8.932718e+001 -2.000000e+000
      endloop
   endfacet
   facet normal 9.997802e-001 -2.096695e-002 0.000000e+000
      outer loop
         vertex -3.394184e+001 8.895043e+001 2.000000e+000
         vertex -3.394184e+001 8.932718e+001 -2.000000e+000
         vertex -3.394184e+001 8.932718e+001 2.000000e+000
      endloop
   endfacet
   facet normal 9.945244e-001 -1.045041e-001 0.000000e+000
      outer loop
         vertex -3.394184e+001 8.932718e+001 2.000000e+000
         vertex -3.394184e+001 8.932718e+001 -2.000000e+000
         vertex -3.389462e+001 8.970094e+001 -2.000000e+000
      endloop
   endfacet
   facet normal 9.892687e-001 -1.461073e-001 0.000000e+000
      outer loop
         vertex -3.394184e+001 8.932718e+001 2.000000e+000
         vertex -3.389462e+001 8.970094e+001 -2.000000e+000
         vertex -3.389462e+001 8.970094e+001 2.000000e+000
      endloop
   endfacet
   facet normal 9.735845e-001 -2.283270e-001 0.000000e+000
      outer loop
         vertex -3.389462e+001 8.970094e+001 2.000000e+000
         vertex -3.389462e+001 8.970094e+001 -2.000000e+000
         vertex -3.380093e+001 9.006585e+001 -2.000000e+000
      endloop
   endfacet
   facet normal 9.631560e-001 -2.689435e-001 0.000000e+000
      outer loop
         vertex -3.389462e+001 8.970094e+001 2.000000e+000
         vertex -3.380093e+001 9.006585e+001 -2.000000e+000
         vertex -3.380093e+001 9.006585e+001 2.000000e+000
      endloop
   endfacet
   facet normal 9.372905e-001 -3.485490e-001 0.000000e+000
      outer loop
         vertex -3.380093e+001 9.006585e+001 2.000000e+000
         vertex -3.380093e+001 9.006585e+001 -2.000000e+000
         vertex -3.366224e+001 9.041614e+001 -2.000000e+000
      endloop
   endfacet
   facet normal 9.218537e-001 -3.875382e-001 0.000000e+000
      outer loop
         vertex -3.380093e+001 9.006585e+001 2.000000e+000
         vertex -3.366224e+001 9.041614e+001 -2.000000e+000
         vertex -3.366224e+001 9.041614e+001 2.000000e+000
      endloop
   endfacet
   facet normal 8.862150e-001 -4.632743e-001 0.000000e+000
      outer loop
         vertex -3.366224e+001 9.041614e+001 2.000000e+000
         vertex -3.366224e+001 9.041614e+001 -2.000000e+000
         vertex -3.348074e+001 9.074628e+001 -2.000000e+000
      endloop
   endfacet
   facet normal 8.660132e-001 -5.000213e-001 0.000000e+000
      outer loop
         vertex -3.366224e+001 9.041614e+001 2.000000e+000
         vertex -3.348074e+001 9.074628e+001 -2.000000e+000
         vertex -3.348074e+001 9.074628e+001 2.000000e+000
      endloop
   endfacet
   facet normal 8.211632e-001 -5.706934e-001 0.000000e+000
      outer loop
         vertex -3.348074e+001 9.074628e+001 2.000000e+000
         vertex -3.348074e+001 9.074628e+001 -2.000000e+000
         vertex -3.325930e+001 9.105108e+001 -2.000000e+000
      endloop
   endfacet
   facet normal 7.965151e-001 -6.046186e-001 0.000000e+000
      outer loop
         vertex -3.348074e+001 9.074628e+001 2.000000e+000
         vertex -3.325930e+001 9.105108e+001 -2.000000e+000
         vertex -3.325930e+001 9.105108e+001 2.000000e+000
      endloop
   endfacet
   facet normal 7.431613e-001 -6.691124e-001 0.000000e+000
      outer loop
         vertex -3.325930e+001 9.105108e+001 2.000000e+000
         vertex -3.325930e+001 9.105108e+001 -2.000000e+000
         vertex -3.300140e+001 9.132571e+001 -2.000000e+000
      endloop
   endfacet
   facet normal 7.144555e-001 -6.996809e-001 0.000000e+000
      outer loop
         vertex -3.325930e+001 9.105108e+001 2.000000e+000
         vertex -3.300140e+001 9.132571e+001 -2.000000e+000
         vertex -3.300140e+001 9.132571e+001 2.000000e+000
      endloop
   endfacet
   facet normal 6.534392e-001 -7.569790e-001 0.000000e+000
      outer loop
         vertex -3.300140e+001 9.132571e+001 2.000000e+000
         vertex -3.300140e+001 9.132571e+001 -2.000000e+000
         vertex -3.271112e+001 9.156586e+001 -2.000000e+000
      endloop
   endfacet
   facet normal 6.211286e-001 -7.837087e-001 0.000000e+000
      outer loop
         vertex -3.300140e+001 9.132571e+001 2.000000e+000
         vertex -3.271112e+001 9.156586e+001 -2.000000e+000
         vertex -3.271112e+001 9.156586e+001 2.000000e+000
      endloop
   endfacet
   facet normal 5.534120e-001 -8.329076e-001 0.000000e+000
      outer loop
         vertex -3.271112e+001 9.156586e+001 2.000000e+000
         vertex -3.271112e+001 9.156586e+001 -2.000000e+000
         vertex -3.239302e+001 9.176772e+001 -2.000000e+000
      endloop
   endfacet
   facet normal 5.180060e-001 -8.553770e-001 0.000000e+000
      outer loop
         vertex -3.271112e+001 9.156586e+001 2.000000e+000
         vertex -3.239302e+001 9.176772e+001 -2.000000e+000
         vertex -3.239302e+001 9.176772e+001 2.000000e+000
      endloop
   endfacet
   facet normal 4.446571e-001 -8.957008e-001 0.000000e+000
      outer loop
         vertex -3.239302e+001 9.176772e+001 2.000000e+000
         vertex -3.239302e+001 9.176772e+001 -2.000000e+000
         vertex -3.205214e+001 9.192813e+001 -2.000000e+000
      endloop
   endfacet
   facet normal 4.067142e-001 -9.135554e-001 0.000000e+000
      outer loop
         vertex -3.239302e+001 9.176772e+001 2.000000e+000
         vertex -3.205214e+001 9.192813e+001 -2.000000e+000
         vertex -3.205214e+001 9.192813e+001 2.000000e+000
      endloop
   endfacet
   facet normal 3.288898e-001 -9.443683e-001 0.000000e+000
      outer loop
         vertex -3.205214e+001 9.192813e+001 2.000000e+000
         vertex -3.205214e+001 9.192813e+001 -2.000000e+000
         vertex -3.169383e+001 9.204456e+001 -2.000000e+000
      endloop
   endfacet
   facet normal 2.890083e-001 -9.573266e-001 0.000000e+000
      outer loop
         vertex -3.205214e+001 9.192813e+001 2.000000e+000
         vertex -3.169383e+001 9.204456e+001 -2.000000e+000
         vertex -3.169383e+001 9.204456e+001 2.000000e+000
      endloop
   endfacet
   facet normal 2.079357e-001 -9.781425e-001 0.000000e+000
      outer loop
         vertex -3.169383e+001 9.204456e+001 2.000000e+000
         vertex -3.169383e+001 9.204456e+001 -2.000000e+000
         vertex -3.132376e+001 9.211515e+001 -2.000000e+000
      endloop
   endfacet
   facet normal 1.667446e-001 -9.860001e-001 0.000000e+000
      outer loop
         vertex -3.169383e+001 9.204456e+001 2.000000e+000
         vertex -3.132376e+001 9.211515e+001 -2.000000e+000
         vertex -3.132376e+001 9.211515e+001 2.000000e+000
      endloop
   endfacet
   facet normal 8.370229e-002 -9.964908e-001 0.000000e+000
      outer loop
         vertex -3.132376e+001 9.211515e+001 2.000000e+000
         vertex -3.132376e+001 9.211515e+001 -2.000000e+000
         vertex -3.094776e+001 9.213880e+001 -2.000000e+000
      endloop
   endfacet
   facet normal 4.185114e-002 -9.991238e-001 0.000000e+000
      outer loop
         vertex -3.132376e+001 9.211515e+001 2.000000e+000
         vertex -3.094776e+001 9.213880e+001 -2.000000e+000
         vertex -3.094776e+001 9.213880e+001 2.000000e+000
      endloop
   endfacet
   facet normal 1.000000e+000 0.000000e+000 0.000000e+000
      outer loop
         vertex -3.094776e+001 9.413880e+001 2.000000e+000
         vertex -3.094776e+001 9.213880e+001 2.000000e+000
         vertex -3.094776e+001 9.413880e+001 -2.000000e+000
      endloop
   endfacet
   facet normal 1.000000e+000 0.000000e+000 0.000000e+000
      outer loop
         vertex -3.094776e+001 9.413880e+001 -2.000000e+000
         vertex -3.094776e+001 9.213880e+001 2.000000e+000
         vertex -3.094776e+001 9.213880e+001 -2.000000e+000
      endloop
   endfacet
   facet normal 0.000000e+000 1.000000e+000 0.000000e+000
      outer loop
         vertex -3.594776e+001 9.413880e+001 2.000000e+000
         vertex -3.094776e+001 9.413880e+001 2.000000e+000
         vertex -3.594776e+001 9.413880e+001 -2.000000e+000
      endloop
   endfacet
   facet normal 0.000000e+000 1.000000e+000 0.000000e+000
      outer loop
         vertex -3.594776e+001 9.413880e+001 -2.000000e+000
         vertex -3.094776e+001 9.413880e+001 2.000000e+000
         vertex -3.094776e+001 9.413880e+001 -2.000000e+000
      endloop
   endfacet
   facet normal 0.000000e+000 1.000000e+000 0.000000e+000
      outer loop
         vertex -3.594776e+001 9.363881e+001 1.000000e+000
         vertex -3.594776e+001 9.363881e+001 -1.000000e+000
         vertex -3.794776e+001 9.363881e+001 1.000000e+000
      endloop
   endfacet
   facet normal 0.000000e+000 1.000000e+000 0.000000e+000
      outer loop
         vertex -3.794776e+001 9.363881e+001 1.000000e+000
         vertex -3.594776e+001 9.363881e+001 -1.000000e+000
         vertex -3.794776e+001 9.363881e+001 -1.000000e+000
      endloop
   endfacet
   facet normal -1.000000e+000 0.000000e+000 0.000000e+000
      outer loop
         vertex -3.794776e+001 9.363881e+001 1.000000e+000
         vertex -3.794776e+001 9.363881e+001 -1.000000e+000
         vertex -3.794776e+001 9.063880e+001 1.000000e+000
      endloop
   endfacet
   facet normal -1.000000e+000 0.000000e+000 0.000000e+000
      outer loop
         vertex -3.794776e+001 9.063880e+001 1.000000e+000
         vertex -3.794776e+001 9.363881e+001 -1.000000e+000
         vertex -3.794776e+001 9.063880e+001 -1.000000e+000
      endloop
   endfacet
   facet normal 0.000000e+000 -1.000000e+000 0.000000e+000
      outer loop
         vertex -3.794776e+001 9.063880e+001 1.000000e+000
         vertex -3.794776e+001 9.063880e+001 -1.000000e+000
         vertex -3.594776e+001 9.063880e+001 1.000000e+000
      endloop
   endfacet
   facet normal 0.000000e+000 -1.000000e+000 0.000000e+000
      outer loop
         vertex -3.594776e+001 9.063880e+001 1.000000e+000
         vertex -3.794776e+001 9.063880e+001 -1.000000e+000
         vertex -3.594776e+001 9.063880e+001 -1.000000e+000
      endloop
   endfacet
   facet normal 0.000000e+000 1.000000e+000 0.000000e+000
      outer loop
         vertex -3.594776e+001 8.763880e+001 1.000000e+000
         vertex -3.594776e+001 8.763880e+001 -1.000000e+000
         vertex -3.794776e+001 8.763880e+001 1.000000e+000
      endloop
   endfacet
   facet normal 0.000000e+000 1.000000e+000 0.000000e+000
      outer loop
         vertex -3.794776e+001 8.763880e+001 1.000000e+000
         vertex -3.594776e+001 8.763880e+001 -1.000000e+000
         vertex -3.794776e+001 8.763880e+001 -1.000000e+000
      endloop
   endfacet
   facet normal -1.000000e+000 0.000000e+000 0.000000e+000
      outer loop
         vertex -3.794776e+001 8.763880e+001 1.000000e+000
         vertex -3.794776e+001 8.763880e+001 -1.000000e+000
         vertex -3.794776e+001 8.463880e+001 1.000000e+000
      endloop
   endfacet
   facet normal -1.000000e+000 0.000000e+000 0.000000e+000
      outer loop
         vertex -3.794776e+001 8.463880e+001 1.000000e+000
         vertex -3.794776e+001 8.763880e+001 -1.000000e+000
         vertex -3.794776e+001 8.463880e+001 -1.000000e+000
      endloop
   endfacet
   facet normal 0.000000e+000 -1.000000e+000 0.000000e+000
      outer loop
         vertex -3.794776e+001 8.463880e+001 1.000000e+000
         vertex -3.794776e+001 8.463880e+001 -1.000000e+000
         vertex -3.594776e+001 8.463880e+001 1.000000e+000
      endloop
   endfacet
   facet normal 0.000000e+000 -1.000000e+000 0.000000e+000
      outer loop
         vertex -3.594776e+001 8.463880e+001 1.000000e+000
         vertex -3.794776e+001 8.463880e+001 -1.000000e+000
         vertex -3.594776e+001 8.463880e+001 -1.000000e+000
      endloop
   endfacet
   facet normal -1.000000e+000 0.000000e+000 0.000000e+000
      outer loop
         vertex -3.594776e+001 8.413880e+001 2.000000e+000
         vertex -3.594776e+001 9.413880e+001 2.000000e+000
         vertex -3.594776e+001 9.063880e+001 1.000000e+000
      endloop
   endfacet
   facet normal -1.000000e+000 0.000000e+000 0.000000e+000
      outer loop
         vertex -3.594776e+001 9.063880e+001 1.000000e+000
         vertex -3.594776e+001 9.413880e+001 2.000000e+000
         vertex -3.594776e+001 9.363881e+001 1.000000e+000
      endloop
   endfacet
   facet normal -1.000000e+000 0.000000e+000 0.000000e+000
      outer loop
         vertex -3.594776e+001 9.413880e+001 -2.000000e+000
         vertex -3.594776e+001 8.413880e+001 -2.000000e+000
         vertex -3.594776e+001 8.763880e+001 -1.000000e+000
      endloop
   endfacet
   facet normal -1.000000e+000 0.000000e+000 0.000000e+000
      outer loop
         vertex -3.594776e+001 8.763880e+001 -1.000000e+000
         vertex -3.594776e+001 8.413880e+001 -2.000000e+000
         vertex -3.594776e+001 8.463880e+001 -1.000000e+000
      endloop
   endfacet
   facet normal -1.000000e+000 0.000000e+000 0.000000e+000
      outer loop
         vertex -3.594776e+001 8.463880e+001 -1.000000e+000
         vertex -3.594776e+001 8.413880e+001 -2.000000e+000
         vertex -3.594776e+001 8.463880e+001 1.000000e+000
      endloop
   endfacet
   facet normal -1.000000e+000 0.000000e+000 0.000000e+000
      outer loop
         vertex -3.594776e+001 8.463880e+001 1.000000e+000
         vertex -3.594776e+001 8.413880e+001 -2.000000e+000
         vertex -3.594776e+001 8.413880e+001 2.000000e+000
      endloop
   endfacet
   facet normal -1.000000e+000 0.000000e+000 0.000000e+000
      outer loop
         vertex -3.594776e+001 8.463880e+001 1.000000e+000
         vertex -3.594776e+001 8.413880e+001 2.000000e+000
         vertex -3.594776e+001 8.763880e+001 1.000000e+000
      endloop
   endfacet
   facet normal -1.000000e+000 0.000000e+000 0.000000e+000
      outer loop
         vertex -3.594776e+001 8.763880e+001 1.000000e+000
         vertex -3.594776e+001 8.413880e+001 2.000000e+000
         vertex -3.594776e+001 9.063880e+001 1.000000e+000
      endloop
   endfacet
   facet normal -1.000000e+000 0.000000e+000 0.000000e+000
      outer loop
         vertex -3.594776e+001 8.763880e+001 1.000000e+000
         vertex -3.594776e+001 9.063880e+001 1.000000e+000
         vertex -3.594776e+001 9.063880e+001 -1.000000e+000
      endloop
   endfacet
   facet normal -1.000000e+000 0.000000e+000 0.000000e+000
      outer loop
         vertex -3.594776e+001 9.363881e+001 1.000000e+000
         vertex -3.594776e+001 9.413880e+001 2.000000e+000
         vertex -3.594776e+001 9.363881e+001 -1.000000e+000
      endloop
   endfacet
   facet normal -1.000000e+000 0.000000e+000 0.000000e+000
      outer loop
         vertex -3.594776e+001 9.363881e+001 -1.000000e+000
         vertex -3.594776e+001 9.413880e+001 2.000000e+000
         vertex -3.594776e+001 9.413880e+001 -2.000000e+000
      endloop
   endfacet
   facet normal -1.000000e+000 0.000000e+000 0.000000e+000
      outer loop
         vertex -3.594776e+001 9.363881e+001 -1.000000e+000
         vertex -3.594776e+001 9.413880e+001 -2.000000e+000
         vertex -3.594776e+001 9.063880e+001 -1.000000e+000
      endloop
   endfacet
   facet normal -1.000000e+000 0.000000e+000 0.000000e+000
      outer loop
         vertex -3.594776e+001 9.063880e+001 -1.000000e+000
         vertex -3.594776e+001 9.413880e+001 -2.000000e+000
         vertex -3.594776e+001 8.763880e+001 -1.000000e+000
      endloop
   endfacet
   facet normal -1.000000e+000 0.000000e+000 0.000000e+000
      outer loop
         vertex -3.594776e+001 9.063880e+001 -1.000000e+000
         vertex -3.594776e+001 8.763880e+001 -1.000000e+000
         vertex -3.594776e+001 8.763880e+001 1.000000e+000
      endloop
   endfacet
   facet normal 0.000000e+000 -1.000000e+000 0.000000e+000
      outer loop
         vertex -3.094776e+001 8.413880e+001 2.000000e+000
         vertex -3.594776e+001 8.413880e+001 2.000000e+000
         vertex -3.094776e+001 8.413880e+001 -2.000000e+000
      endloop
   endfacet
   facet normal 0.000000e+000 -1.000000e+000 0.000000e+000
      outer loop
         vertex -3.094776e+001 8.413880e+001 -2.000000e+000
         vertex -3.594776e+001 8.413880e+001 2.000000e+000
         vertex -3.594776e+001 8.413880e+001 -2.000000e+000
      endloop
   endfacet
   facet normal 1.000000e+000 0.000000e+000 0.000000e+000
      outer loop
         vertex -3.094776e+001 8.613881e+001 2.000000e+000
         vertex -3.094776e+001 8.413880e+001 2.000000e+000
         vertex -3.094776e+001 8.613881e+001 -2.000000e+000
      endloop
   endfacet
   facet normal 1.000000e+000 0.000000e+000 0.000000e+000
      outer loop
         vertex -3.094776e+001 8.613881e+001 -2.000000e+000
         vertex -3.094776e+001 8.413880e+001 2.000000e+000
         vertex -3.094776e+001 8.413880e+001 -2.000000e+000
      endloop
   endfacet
   facet normal 0.000000e+000 0.000000e+000 1.000000e+000
      outer loop
         vertex -3.132376e+001 9.211515e+001 2.000000e+000
         vertex -3.094776e+001 9.213880e+001 2.000000e+000
         vertex -3.094776e+001 9.413880e+001 2.000000e+000
      endloop
   endfacet
   facet normal 0.000000e+000 0.000000e+000 1.000000e+000
      outer loop
         vertex -3.239302e+001 8.650988e+001 2.000000e+000
         vertex -3.271112e+001 8.671175e+001 2.000000e+000
         vertex -3.594776e+001 8.413880e+001 2.000000e+000
      endloop
   endfacet
   facet normal 0.000000e+000 0.000000e+000 1.000000e+000
      outer loop
         vertex -3.594776e+001 8.413880e+001 2.000000e+000
         vertex -3.271112e+001 8.671175e+001 2.000000e+000
         vertex -3.300140e+001 8.695190e+001 2.000000e+000
      endloop
   endfacet
   facet normal 0.000000e+000 0.000000e+000 1.000000e+000
      outer loop
         vertex -3.594776e+001 8.413880e+001 2.000000e+000
         vertex -3.300140e+001 8.695190e+001 2.000000e+000
         vertex -3.325930e+001 8.722653e+001 2.000000e+000
      endloop
   endfacet
   facet normal 0.000000e+000 0.000000e+000 1.000000e+000
      outer loop
         vertex -3.094776e+001 8.613881e+001 2.000000e+000
         vertex -3.132376e+001 8.616246e+001 2.000000e+000
         vertex -3.094776e+001 8.413880e+001 2.000000e+000
      endloop
   endfacet
   facet normal 0.000000e+000 0.000000e+000 1.000000e+000
      outer loop
         vertex -3.094776e+001 8.413880e+001 2.000000e+000
         vertex -3.132376e+001 8.616246e+001 2.000000e+000
         vertex -3.169383e+001 8.623306e+001 2.000000e+000
      endloop
   endfacet
   facet normal 0.000000e+000 0.000000e+000 1.000000e+000
      outer loop
         vertex -3.094776e+001 8.413880e+001 2.000000e+000
         vertex -3.169383e+001 8.623306e+001 2.000000e+000
         vertex -3.594776e+001 8.413880e+001 2.000000e+000
      endloop
   endfacet
   facet normal 0.000000e+000 0.000000e+000 1.000000e+000
      outer loop
         vertex -3.594776e+001 8.413880e+001 2.000000e+000
         vertex -3.169383e+001 8.623306e+001 2.000000e+000
         vertex -3.205214e+001 8.634947e+001 2.000000e+000
      endloop
   endfacet
   facet normal 0.000000e+000 0.000000e+000 1.000000e+000
      outer loop
         vertex -3.594776e+001 8.413880e+001 2.000000e+000
         vertex -3.205214e+001 8.634947e+001 2.000000e+000
         vertex -3.239302e+001 8.650988e+001 2.000000e+000
      endloop
   endfacet
   facet normal 0.000000e+000 0.000000e+000 1.000000e+000
      outer loop
         vertex -3.325930e+001 8.722653e+001 2.000000e+000
         vertex -3.348074e+001 8.753132e+001 2.000000e+000
         vertex -3.594776e+001 8.413880e+001 2.000000e+000
      endloop
   endfacet
   facet normal 0.000000e+000 0.000000e+000 1.000000e+000
      outer loop
         vertex -3.594776e+001 8.413880e+001 2.000000e+000
         vertex -3.348074e+001 8.753132e+001 2.000000e+000
         vertex -3.366224e+001 8.786147e+001 2.000000e+000
      endloop
   endfacet
   facet normal 0.000000e+000 0.000000e+000 1.000000e+000
      outer loop
         vertex -3.594776e+001 8.413880e+001 2.000000e+000
         vertex -3.366224e+001 8.786147e+001 2.000000e+000
         vertex -3.380093e+001 8.821175e+001 2.000000e+000
      endloop
   endfacet
   facet normal 0.000000e+000 0.000000e+000 1.000000e+000
      outer loop
         vertex -3.348074e+001 9.074628e+001 2.000000e+000
         vertex -3.325930e+001 9.105108e+001 2.000000e+000
         vertex -3.594776e+001 9.413880e+001 2.000000e+000
      endloop
   endfacet
   facet normal 0.000000e+000 0.000000e+000 1.000000e+000
      outer loop
         vertex -3.594776e+001 9.413880e+001 2.000000e+000
         vertex -3.325930e+001 9.105108e+001 2.000000e+000
         vertex -3.300140e+001 9.132571e+001 2.000000e+000
      endloop
   endfacet
   facet normal 0.000000e+000 0.000000e+000 1.000000e+000
      outer loop
         vertex -3.594776e+001 9.413880e+001 2.000000e+000
         vertex -3.300140e+001 9.132571e+001 2.000000e+000
         vertex -3.271112e+001 9.156586e+001 2.000000e+000
      endloop
   endfacet
   facet normal 0.000000e+000 0.000000e+000 1.000000e+000
      outer loop
         vertex -3.271112e+001 9.156586e+001 2.000000e+000
         vertex -3.239302e+001 9.176772e+001 2.000000e+000
         vertex -3.594776e+001 9.413880e+001 2.000000e+000
      endloop
   endfacet
   facet normal 0.000000e+000 0.000000e+000 1.000000e+000
      outer loop
         vertex -3.594776e+001 9.413880e+001 2.000000e+000
         vertex -3.239302e+001 9.176772e+001 2.000000e+000
         vertex -3.205214e+001 9.192813e+001 2.000000e+000
      endloop
   endfacet
   facet normal 0.000000e+000 0.000000e+000 1.000000e+000
      outer loop
         vertex -3.594776e+001 9.413880e+001 2.000000e+000
         vertex -3.205214e+001 9.192813e+001 2.000000e+000
         vertex -3.094776e+001 9.413880e+001 2.000000e+000
      endloop
   endfacet
   facet normal 0.000000e+000 0.000000e+000 1.000000e+000
      outer loop
         vertex -3.094776e+001 9.413880e+001 2.000000e+000
         vertex -3.205214e+001 9.192813e+001 2.000000e+000
         vertex -3.169383e+001 9.204456e+001 2.000000e+000
      endloop
   endfacet
   facet normal 0.000000e+000 0.000000e+000 1.000000e+000
      outer loop
         vertex -3.094776e+001 9.413880e+001 2.000000e+000
         vertex -3.169383e+001 9.204456e+001 2.000000e+000
         vertex -3.132376e+001 9.211515e+001 2.000000e+000
      endloop
   endfacet
   facet normal 0.000000e+000 0.000000e+000 1.000000e+000
      outer loop
         vertex -3.389462e+001 8.970094e+001 2.000000e+000
         vertex -3.380093e+001 9.006585e+001 2.000000e+000
         vertex -3.594776e+001 9.413880e+001 2.000000e+000
      endloop
   endfacet
   facet normal 0.000000e+000 0.000000e+000 1.000000e+000
      outer loop
         vertex -3.594776e+001 9.413880e+001 2.000000e+000
         vertex -3.380093e+001 9.006585e+001 2.000000e+000
         vertex -3.366224e+001 9.041614e+001 2.000000e+000
      endloop
   endfacet
   facet normal 0.000000e+000 0.000000e+000 1.000000e+000
      outer loop
         vertex -3.594776e+001 9.413880e+001 2.000000e+000
         vertex -3.366224e+001 9.041614e+001 2.000000e+000
         vertex -3.348074e+001 9.074628e+001 2.000000e+000
      endloop
   endfacet
   facet normal 0.000000e+000 0.000000e+000 1.000000e+000
      outer loop
         vertex -3.380093e+001 8.821175e+001 2.000000e+000
         vertex -3.389462e+001 8.857666e+001 2.000000e+000
         vertex -3.594776e+001 8.413880e+001 2.000000e+000
      endloop
   endfacet
   facet normal 0.000000e+000 0.000000e+000 1.000000e+000
      outer loop
         vertex -3.594776e+001 8.413880e+001 2.000000e+000
         vertex -3.389462e+001 8.857666e+001 2.000000e+000
         vertex -3.394184e+001 8.895043e+001 2.000000e+000
      endloop
   endfacet
   facet normal 0.000000e+000 0.000000e+000 1.000000e+000
      outer loop
         vertex -3.594776e+001 8.413880e+001 2.000000e+000
         vertex -3.394184e+001 8.895043e+001 2.000000e+000
         vertex -3.594776e+001 9.413880e+001 2.000000e+000
      endloop
   endfacet
   facet normal 0.000000e+000 0.000000e+000 1.000000e+000
      outer loop
         vertex -3.594776e+001 9.413880e+001 2.000000e+000
         vertex -3.394184e+001 8.895043e+001 2.000000e+000
         vertex -3.394184e+001 8.932718e+001 2.000000e+000
      endloop
   endfacet
   facet normal 0.000000e+000 0.000000e+000 1.000000e+000
      outer loop
         vertex -3.594776e+001 9.413880e+001 2.000000e+000
         vertex -3.394184e+001 8.932718e+001 2.000000e+000
         vertex -3.389462e+001 8.970094e+001 2.000000e+000
      endloop
   endfacet
   facet normal 0.000000e+000 0.000000e+000 -1.000000e+000
      outer loop
         vertex -3.132376e+001 8.616246e+001 -2.000000e+000
         vertex -3.094776e+001 8.613881e+001 -2.000000e+000
         vertex -3.094776e+001 8.413880e+001 -2.000000e+000
      endloop
   endfacet
   facet normal 0.000000e+000 0.000000e+000 -1.000000e+000
      outer loop
         vertex -3.094776e+001 9.213880e+001 -2.000000e+000
         vertex -3.132376e+001 9.211515e+001 -2.000000e+000
         vertex -3.094776e+001 9.413880e+001 -2.000000e+000
      endloop
   endfacet
   facet normal 0.000000e+000 0.000000e+000 -1.000000e+000
      outer loop
         vertex -3.094776e+001 9.413880e+001 -2.000000e+000
         vertex -3.132376e+001 9.211515e+001 -2.000000e+000
         vertex -3.169383e+001 9.204456e+001 -2.000000e+000
      endloop
   endfacet
   facet normal 0.000000e+000 0.000000e+000 -1.000000e+000
      outer loop
         vertex -3.094776e+001 9.413880e+001 -2.000000e+000
         vertex -3.169383e+001 9.204456e+001 -2.000000e+000
         vertex -3.594776e+001 9.413880e+001 -2.000000e+000
      endloop
   endfacet
   facet normal 0.000000e+000 0.000000e+000 -1.000000e+000
      outer loop
         vertex -3.594776e+001 9.413880e+001 -2.000000e+000
         vertex -3.169383e+001 9.204456e+001 -2.000000e+000
         vertex -3.205214e+001 9.192813e+001 -2.000000e+000
      endloop
   endfacet
   facet normal 0.000000e+000 0.000000e+000 -1.000000e+000
      outer loop
         vertex -3.594776e+001 9.413880e+001 -2.000000e+000
         vertex -3.205214e+001 9.192813e+001 -2.000000e+000
         vertex -3.239302e+001 9.176772e+001 -2.000000e+000
      endloop
   endfacet
   facet normal 0.000000e+000 0.000000e+000 -1.000000e+000
      outer loop
         vertex -3.239302e+001 9.176772e+001 -2.000000e+000
         vertex -3.271112e+001 9.156586e+001 -2.000000e+000
         vertex -3.594776e+001 9.413880e+001 -2.000000e+000
      endloop
   endfacet
   facet normal 0.000000e+000 0.000000e+000 -1.000000e+000
      outer loop
         vertex -3.594776e+001 9.413880e+001 -2.000000e+000
         vertex -3.271112e+001 9.156586e+001 -2.000000e+000
         vertex -3.300140e+001 9.132571e+001 -2.000000e+000
      endloop
   endfacet
   facet normal 0.000000e+000 0.000000e+000 -1.000000e+000
      outer loop
         vertex -3.594776e+001 9.413880e+001 -2.000000e+000
         vertex -3.300140e+001 9.132571e+001 -2.000000e+000
         vertex -3.325930e+001 9.105108e+001 -2.000000e+000
      endloop
   endfacet
   facet normal 0.000000e+000 0.000000e+000 -1.000000e+000
      outer loop
         vertex -3.325930e+001 9.105108e+001 -2.000000e+000
         vertex -3.348074e+001 9.074628e+001 -2.000000e+000
         vertex -3.594776e+001 9.413880e+001 -2.000000e+000
      endloop
   endfacet
   facet normal 0.000000e+000 0.000000e+000 -1.000000e+000
      outer loop
         vertex -3.594776e+001 9.413880e+001 -2.000000e+000
         vertex -3.348074e+001 9.074628e+001 -2.000000e+000
         vertex -3.366224e+001 9.041614e+001 -2.000000e+000
      endloop
   endfacet
   facet normal 0.000000e+000 0.000000e+000 -1.000000e+000
      outer loop
         vertex -3.594776e+001 9.413880e+001 -2.000000e+000
         vertex -3.366224e+001 9.041614e+001 -2.000000e+000
         vertex -3.380093e+001 9.006585e+001 -2.000000e+000
      endloop
   endfacet
   facet normal 0.000000e+000 0.000000e+000 -1.000000e+000
      outer loop
         vertex -3.348074e+001 8.753132e+001 -2.000000e+000
         vertex -3.325930e+001 8.722653e+001 -2.000000e+000
         vertex -3.594776e+001 8.413880e+001 -2.000000e+000
      endloop
   endfacet
   facet normal 0.000000e+000 0.000000e+000 -1.000000e+000
      outer loop
         vertex -3.594776e+001 8.413880e+001 -2.000000e+000
         vertex -3.325930e+001 8.722653e+001 -2.000000e+000
         vertex -3.300140e+001 8.695190e+001 -2.000000e+000
      endloop
   endfacet
   facet normal 0.000000e+000 0.000000e+000 -1.000000e+000
      outer loop
         vertex -3.594776e+001 8.413880e+001 -2.000000e+000
         vertex -3.300140e+001 8.695190e+001 -2.000000e+000
         vertex -3.271112e+001 8.671175e+001 -2.000000e+000
      endloop
   endfacet
   facet normal 0.000000e+000 0.000000e+000 -1.000000e+000
      outer loop
         vertex -3.389462e+001 8.857666e+001 -2.000000e+000
         vertex -3.380093e+001 8.821175e+001 -2.000000e+000
         vertex -3.594776e+001 8.413880e+001 -2.000000e+000
      endloop
   endfacet
   facet normal 0.000000e+000 0.000000e+000 -1.000000e+000
      outer loop
         vertex -3.594776e+001 8.413880e+001 -2.000000e+000
         vertex -3.380093e+001 8.821175e+001 -2.000000e+000
         vertex -3.366224e+001 8.786147e+001 -2.000000e+000
      endloop
   endfacet
   facet normal 0.000000e+000 0.000000e+000 -1.000000e+000
      outer loop
         vertex -3.594776e+001 8.413880e+001 -2.000000e+000
         vertex -3.366224e+001 8.786147e+001 -2.000000e+000
         vertex -3.348074e+001 8.753132e+001 -2.000000e+000
      endloop
   endfacet
   facet normal 0.000000e+000 0.000000e+000 -1.000000e+000
      outer loop
         vertex -3.271112e+001 8.671175e+001 -2.000000e+000
         vertex -3.239302e+001 8.650988e+001 -2.000000e+000
         vertex -3.594776e+001 8.413880e+001 -2.000000e+000
      endloop
   endfacet
   facet normal 0.000000e+000 0.000000e+000 -1.000000e+000
      outer loop
         vertex -3.594776e+001 8.413880e+001 -2.000000e+000
         vertex -3.239302e+001 8.650988e+001 -2.000000e+000
         vertex -3.205214e+001 8.634947e+001 -2.000000e+000
      endloop
   endfacet
   facet normal 0.000000e+000 0.000000e+000 -1.000000e+000
      outer loop
         vertex -3.594776e+001 8.413880e+001 -2.000000e+000
         vertex -3.205214e+001 8.634947e+001 -2.000000e+000
         vertex -3.094776e+001 8.413880e+001 -2.000000e+000
      endloop
   endfacet
   facet normal 0.000000e+000 0.000000e+000 -1.000000e+000
      outer loop
         vertex -3.094776e+001 8.413880e+001 -2.000000e+000
         vertex -3.205214e+001 8.634947e+001 -2.000000e+000
         vertex -3.169383e+001 8.623306e+001 -2.000000e+000
      endloop
   endfacet
   facet normal 0.000000e+000 0.000000e+000 -1.000000e+000
      outer loop
         vertex -3.094776e+001 8.413880e+001 -2.000000e+000
         vertex -3.169383e+001 8.623306e+001 -2.000000e+000
         vertex -3.132376e+001 8.616246e+001 -2.000000e+000
      endloop
   endfacet
   facet normal 0.000000e+000 0.000000e+000 -1.000000e+000
      outer loop
         vertex -3.380093e+001 9.006585e+001 -2.000000e+000
         vertex -3.389462e+001 8.970094e+001 -2.000000e+000
         vertex -3.594776e+001 9.413880e+001 -2.000000e+000
      endloop
   endfacet
   facet normal 0.000000e+000 0.000000e+000 -1.000000e+000
      outer loop
         vertex -3.594776e+001 9.413880e+001 -2.000000e+000
         vertex -3.389462e+001 8.970094e+001 -2.000000e+000
         vertex -3.394184e+001 8.932718e+001 -2.000000e+000
      endloop
   endfacet
   facet normal 0.000000e+000 0.000000e+000 -1.000000e+000
      outer loop
         vertex -3.594776e+001 9.413880e+001 -2.000000e+000
         vertex -3.394184e+001 8.932718e+001 -2.000000e+000
         vertex -3.594776e+001 8.413880e+001 -2.000000e+000
      endloop
   endfacet
   facet normal 0.000000e+000 0.000000e+000 -1.000000e+000
      outer loop
         vertex -3.594776e+001 8.413880e+001 -2.000000e+000
         vertex -3.394184e+001 8.932718e+001 -2.000000e+000
         vertex -3.394184e+001 8.895043e+001 -2.000000e+000
      endloop
   endfacet
   facet normal 0.000000e+000 0.000000e+000 -1.000000e+000
      outer loop
         vertex -3.594776e+001 8.413880e+001 -2.000000e+000
         vertex -3.394184e+001 8.895043e+001 -2.000000e+000
         vertex -3.389462e+001 8.857666e+001 -2.000000e+000
      endloop
   endfacet
   facet normal 0.000000e+000 -1.264902e-016 -1.000000e+000
      outer loop
         vertex -3.794776e+001 9.063880e+001 -1.000000e+000
         vertex -3.794776e+001 9.363881e+001 -1.000000e+000
         vertex -3.594776e+001 9.063880e+001 -1.000000e+000
      endloop
   endfacet
   facet normal 0.000000e+000 -1.264902e-016 -1.000000e+000
      outer loop
         vertex -3.594776e+001 9.063880e+001 -1.000000e+000
         vertex -3.794776e+001 9.363881e+001 -1.000000e+000
         vertex -3.594776e+001 9.363881e+001 -1.000000e+000
      endloop
   endfacet
   facet normal 0.000000e+000 -1.264902e-016 -1.000000e+000
      outer loop
         vertex -3.794776e+001 8.463880e+001 -1.000000e+000
         vertex -3.794776e+001 8.763880e+001 -1.000000e+000
         vertex -3.594776e+001 8.463880e+001 -1.000000e+000
      endloop
   endfacet
   facet normal 0.000000e+000 -1.264902e-016 -1.000000e+000
      outer loop
         vertex -3.594776e+001 8.463880e+001 -1.000000e+000
         vertex -3.794776e+001 8.763880e+001 -1.000000e+000
         vertex -3.594776e+001 8.763880e+001 -1.000000e+000
      endloop
   endfacet
   facet normal 0.000000e+000 1.264902e-016 1.000000e+000
      outer loop
         vertex -3.594776e+001 9.063880e+001 1.000000e+000
         vertex -3.594776e+001 9.363881e+001 1.000000e+000
         vertex -3.794776e+001 9.063880e+001 1.000000e+000
      endloop
   endfacet
   facet normal 0.000000e+000 1.264902e-016 1.000000e+000
      outer loop
         vertex -3.794776e+001 9.063880e+001 1.000000e+000
         vertex -3.594776e+001 9.363881e+001 1.000000e+000
         vertex -3.794776e+001 9.363881e+001 1.000000e+000
      endloop
   endfacet
   facet normal 0.000000e+000 1.264902e-016 1.000000e+000
      outer loop
         vertex -3.594776e+001 8.463880e+001 1.000000e+000
         vertex -3.594776e+001 8.763880e+001 1.000000e+000
         vertex -3.794776e+001 8.463880e+001 1.000000e+000
      endloop
   endfacet
   facet normal 0.000000e+000 1.264902e-016 1.000000e+000
      outer loop
         vertex -3.794776e+001 8.463880e+001 1.000000e+000
         vertex -3.594776e+001 8.763880e+001 1.000000e+000
         vertex -3.794776e+001 8.763880e+001 1.000000e+000
      endloop
   endfacet
endsolid