solid Sol_Défaut_sldprt
   facet normal -1.000000e+000 0.000000e+000 1.387779e-016
      outer loop
         vertex -1.069975e+002 1.000000e+002 3.311288e+001
         vertex -1.069975e+002 1.000000e+002 -6.688712e+001
         vertex -1.069975e+002 0.000000e+000 3.311288e+001
      endloop
   endfacet
   facet normal -1.000000e+000 0.000000e+000 1.387779e-016
      outer loop
         vertex -1.069975e+002 0.000000e+000 3.311288e+001
         vertex -1.069975e+002 1.000000e+002 -6.688712e+001
         vertex -1.069975e+002 0.000000e+000 -6.688712e+001
      endloop
   endfacet
   facet normal 0.000000e+000 0.000000e+000 1.000000e+000
      outer loop
         vertex -6.997536e+000 1.000000e+002 3.311288e+001
         vertex -1.069975e+002 1.000000e+002 3.311288e+001
         vertex -6.997536e+000 0.000000e+000 3.311288e+001
      endloop
   endfacet
   facet normal 0.000000e+000 0.000000e+000 1.000000e+000
      outer loop
         vertex -6.997536e+000 0.000000e+000 3.311288e+001
         vertex -1.069975e+002 1.000000e+002 3.311288e+001
         vertex -1.069975e+002 0.000000e+000 3.311288e+001
      endloop
   endfacet
   facet normal 1.000000e+000 0.000000e+000 0.000000e+000
      outer loop
         vertex -6.997536e+000 1.000000e+002 -6.688712e+001
         vertex -6.997536e+000 1.000000e+002 3.311288e+001
         vertex -6.997536e+000 0.000000e+000 -6.688712e+001
      endloop
   endfacet
   facet normal 1.000000e+000 0.000000e+000 0.000000e+000
      outer loop
         vertex -6.997536e+000 0.000000e+000 -6.688712e+001
         vertex -6.997536e+000 1.000000e+002 3.311288e+001
         vertex -6.997536e+000 0.000000e+000 3.311288e+001
      endloop
   endfacet
   facet normal 0.000000e+000 0.000000e+000 -1.000000e+000
      outer loop
         vertex -1.069975e+002 1.000000e+002 -6.688712e+001
         vertex -6.997536e+000 1.000000e+002 -6.688712e+001
         vertex -1.069975e+002 0.000000e+000 -6.688712e+001
      endloop
   endfacet
   facet normal 0.000000e+000 0.000000e+000 -1.000000e+000
      outer loop
         vertex -1.069975e+002 0.000000e+000 -6.688712e+001
         vertex -6.997536e+000 1.000000e+002 -6.688712e+001
         vertex -6.997536e+000 0.000000e+000 -6.688712e+001
      endloop
   endfacet
   facet normal 0.000000e+000 1.000000e+000 0.000000e+000
      outer loop
         vertex -6.997536e+000 1.000000e+002 3.311288e+001
         vertex -6.997536e+000 1.000000e+002 -6.688712e+001
         vertex -1.069975e+002 1.000000e+002 3.311288e+001
      endloop
   endfacet
   facet normal 0.000000e+000 1.000000e+000 0.000000e+000
      outer loop
         vertex -1.069975e+002 1.000000e+002 3.311288e+001
         vertex -6.997536e+000 1.000000e+002 -6.688712e+001
         vertex -1.069975e+002 1.000000e+002 -6.688712e+001
      endloop
   endfacet
   facet normal 0.000000e+000 -1.000000e+000 0.000000e+000
      outer loop
         vertex -6.997536e+000 0.000000e+000 -6.688712e+001
         vertex -6.997536e+000 0.000000e+000 3.311288e+001
         vertex -1.069975e+002 0.000000e+000 -6.688712e+001
      endloop
   endfacet
   facet normal 0.000000e+000 -1.000000e+000 0.000000e+000
      outer loop
         vertex -1.069975e+002 0.000000e+000 -6.688712e+001
         vertex -6.997536e+000 0.000000e+000 3.311288e+001
         vertex -1.069975e+002 0.000000e+000 3.311288e+001
      endloop
   endfacet
endsolid