solid Tirant_10_Défaut_sldprt
   facet normal 1.000000e+000 0.000000e+000 0.000000e+000
      outer loop
         vertex 1.000000e+001 -4.942815e-001 -1.093474e+000
         vertex 1.000000e+001 -9.453247e-001 -2.847167e+000
         vertex 1.000000e+001 -3.023737e-001 -1.161280e+000
      endloop
   endfacet
   facet normal 1.000000e+000 0.000000e+000 0.000000e+000
      outer loop
         vertex 1.000000e+001 -3.023737e-001 -1.161280e+000
         vertex 1.000000e+001 -9.453247e-001 -2.847167e+000
         vertex 1.000000e+001 -5.734759e-001 -2.944677e+000
      endloop
   endfacet
   facet normal 1.000000e+000 0.000000e+000 0.000000e+000
      outer loop
         vertex 1.000000e+001 -3.023737e-001 -1.161280e+000
         vertex 1.000000e+001 -5.734759e-001 -2.944677e+000
         vertex 1.000000e+001 -1.017671e-001 -1.195677e+000
      endloop
   endfacet
   facet normal 1.000000e+000 0.000000e+000 0.000000e+000
      outer loop
         vertex 1.000000e+001 -1.017671e-001 -1.195677e+000
         vertex 1.000000e+001 -5.734759e-001 -2.944677e+000
         vertex 1.000000e+001 -1.922107e-001 -2.993836e+000
      endloop
   endfacet
   facet normal 1.000000e+000 0.000000e+000 0.000000e+000
      outer loop
         vertex 1.000000e+001 -1.017671e-001 -1.195677e+000
         vertex 1.000000e+001 -1.922107e-001 -2.993836e+000
         vertex 1.000000e+001 1.017671e-001 -1.195677e+000
      endloop
   endfacet
   facet normal 1.000000e+000 0.000000e+000 0.000000e+000
      outer loop
         vertex 1.000000e+001 1.017671e-001 -1.195677e+000
         vertex 1.000000e+001 -1.922107e-001 -2.993836e+000
         vertex 1.000000e+001 1.922107e-001 -2.993836e+000
      endloop
   endfacet
   facet normal 1.000000e+000 0.000000e+000 0.000000e+000
      outer loop
         vertex 1.000000e+001 1.017671e-001 -1.195677e+000
         vertex 1.000000e+001 1.922107e-001 -2.993836e+000
         vertex 1.000000e+001 3.023737e-001 -1.161280e+000
      endloop
   endfacet
   facet normal 1.000000e+000 0.000000e+000 0.000000e+000
      outer loop
         vertex 1.000000e+001 -9.647966e-001 -7.135598e-001
         vertex 1.000000e+001 -2.220834e+000 -2.016903e+000
         vertex 1.000000e+001 -8.303266e-001 -8.663473e-001
      endloop
   endfacet
   facet normal 1.000000e+000 0.000000e+000 0.000000e+000
      outer loop
         vertex 1.000000e+001 -8.303266e-001 -8.663473e-001
         vertex 1.000000e+001 -2.220834e+000 -2.016903e+000
         vertex 1.000000e+001 -1.944685e+000 -2.284338e+000
      endloop
   endfacet
   facet normal 1.000000e+000 0.000000e+000 0.000000e+000
      outer loop
         vertex 1.000000e+001 -8.303266e-001 -8.663473e-001
         vertex 1.000000e+001 -1.944685e+000 -2.284338e+000
         vertex 1.000000e+001 -6.719697e-001 -9.942116e-001
      endloop
   endfacet
   facet normal 1.000000e+000 0.000000e+000 0.000000e+000
      outer loop
         vertex 1.000000e+001 -6.719697e-001 -9.942116e-001
         vertex 1.000000e+001 -1.944685e+000 -2.284338e+000
         vertex 1.000000e+001 -1.636605e+000 -2.514264e+000
      endloop
   endfacet
   facet normal 1.000000e+000 0.000000e+000 0.000000e+000
      outer loop
         vertex 1.000000e+001 -6.719697e-001 -9.942116e-001
         vertex 1.000000e+001 -1.636605e+000 -2.514264e+000
         vertex 1.000000e+001 -4.942815e-001 -1.093474e+000
      endloop
   endfacet
   facet normal 1.000000e+000 0.000000e+000 0.000000e+000
      outer loop
         vertex 1.000000e+001 -4.942815e-001 -1.093474e+000
         vertex 1.000000e+001 -1.636605e+000 -2.514264e+000
         vertex 1.000000e+001 -1.301651e+000 -2.702907e+000
      endloop
   endfacet
   facet normal 1.000000e+000 0.000000e+000 0.000000e+000
      outer loop
         vertex 1.000000e+001 -4.942815e-001 -1.093474e+000
         vertex 1.000000e+001 -1.301651e+000 -2.702907e+000
         vertex 1.000000e+001 -9.453247e-001 -2.847167e+000
      endloop
   endfacet
   facet normal 1.000000e+000 0.000000e+000 0.000000e+000
      outer loop
         vertex 1.000000e+001 -7.538640e-001 9.336429e-001
         vertex 1.000000e+001 -2.087048e+000 2.155048e+000
         vertex 1.000000e+001 -9.008067e-001 7.928097e-001
      endloop
   endfacet
   facet normal 1.000000e+000 0.000000e+000 0.000000e+000
      outer loop
         vertex 1.000000e+001 -9.008067e-001 7.928097e-001
         vertex 1.000000e+001 -2.087048e+000 2.155048e+000
         vertex 1.000000e+001 -2.345495e+000 1.870469e+000
      endloop
   endfacet
   facet normal 1.000000e+000 0.000000e+000 0.000000e+000
      outer loop
         vertex 1.000000e+001 -9.008067e-001 7.928097e-001
         vertex 1.000000e+001 -2.345495e+000 1.870469e+000
         vertex 1.000000e+001 -1.021835e+000 6.291687e-001
      endloop
   endfacet
   facet normal 1.000000e+000 0.000000e+000 0.000000e+000
      outer loop
         vertex 1.000000e+001 -1.021835e+000 6.291687e-001
         vertex 1.000000e+001 -2.345495e+000 1.870469e+000
         vertex 1.000000e+001 -2.565428e+000 1.555178e+000
      endloop
   endfacet
   facet normal 1.000000e+000 0.000000e+000 0.000000e+000
      outer loop
         vertex 1.000000e+001 -1.021835e+000 6.291687e-001
         vertex 1.000000e+001 -2.565428e+000 1.555178e+000
         vertex 1.000000e+001 -1.113467e+000 4.474278e-001
      endloop
   endfacet
   facet normal 1.000000e+000 0.000000e+000 0.000000e+000
      outer loop
         vertex 1.000000e+001 -1.190281e+000 -1.524214e-001
         vertex 1.000000e+001 -2.924784e+000 -6.675628e-001
         vertex 1.000000e+001 -1.147400e+000 -3.513874e-001
      endloop
   endfacet
   facet normal 1.000000e+000 0.000000e+000 0.000000e+000
      outer loop
         vertex 1.000000e+001 -1.147400e+000 -3.513874e-001
         vertex 1.000000e+001 -2.924784e+000 -6.675628e-001
         vertex 1.000000e+001 -2.815405e+000 -1.036095e+000
      endloop
   endfacet
   facet normal 1.000000e+000 0.000000e+000 0.000000e+000
      outer loop
         vertex 1.000000e+001 -1.147400e+000 -3.513874e-001
         vertex 1.000000e+001 -2.815405e+000 -1.036095e+000
         vertex 1.000000e+001 -1.071511e+000 -5.402445e-001
      endloop
   endfacet
   facet normal 1.000000e+000 0.000000e+000 0.000000e+000
      outer loop
         vertex 1.000000e+001 -1.071511e+000 -5.402445e-001
         vertex 1.000000e+001 -2.815405e+000 -1.036095e+000
         vertex 1.000000e+001 -2.659798e+000 -1.387615e+000
      endloop
   endfacet
   facet normal 1.000000e+000 0.000000e+000 0.000000e+000
      outer loop
         vertex 1.000000e+001 -1.071511e+000 -5.402445e-001
         vertex 1.000000e+001 -2.659798e+000 -1.387615e+000
         vertex 1.000000e+001 -9.647966e-001 -7.135598e-001
      endloop
   endfacet
   facet normal 1.000000e+000 0.000000e+000 0.000000e+000
      outer loop
         vertex 1.000000e+001 -9.647966e-001 -7.135598e-001
         vertex 1.000000e+001 -2.659798e+000 -1.387615e+000
         vertex 1.000000e+001 -2.460517e+000 -1.716350e+000
      endloop
   endfacet
   facet normal 1.000000e+000 0.000000e+000 0.000000e+000
      outer loop
         vertex 1.000000e+001 -9.647966e-001 -7.135598e-001
         vertex 1.000000e+001 -2.460517e+000 -1.716350e+000
         vertex 1.000000e+001 -2.220834e+000 -2.016903e+000
      endloop
   endfacet
   facet normal 1.000000e+000 0.000000e+000 0.000000e+000
      outer loop
         vertex 1.000000e+001 -2.565428e+000 1.555178e+000
         vertex 1.000000e+001 -2.743238e+000 1.214350e+000
         vertex 1.000000e+001 -1.113467e+000 4.474278e-001
      endloop
   endfacet
   facet normal 1.000000e+000 0.000000e+000 0.000000e+000
      outer loop
         vertex 1.000000e+001 -1.113467e+000 4.474278e-001
         vertex 1.000000e+001 -2.743238e+000 1.214350e+000
         vertex 1.000000e+001 -2.876004e+000 8.535827e-001
      endloop
   endfacet
   facet normal 1.000000e+000 0.000000e+000 0.000000e+000
      outer loop
         vertex 1.000000e+001 -1.113467e+000 4.474278e-001
         vertex 1.000000e+001 -2.876004e+000 8.535827e-001
         vertex 1.000000e+001 -1.173066e+000 2.528151e-001
      endloop
   endfacet
   facet normal 1.000000e+000 0.000000e+000 0.000000e+000
      outer loop
         vertex 1.000000e+001 -1.173066e+000 2.528151e-001
         vertex 1.000000e+001 -2.876004e+000 8.535827e-001
         vertex 1.000000e+001 -2.961545e+000 4.787997e-001
      endloop
   endfacet
   facet normal 1.000000e+000 0.000000e+000 0.000000e+000
      outer loop
         vertex 1.000000e+001 -1.173066e+000 2.528151e-001
         vertex 1.000000e+001 -2.961545e+000 4.787997e-001
         vertex 1.000000e+001 -1.198919e+000 5.092945e-002
      endloop
   endfacet
   facet normal 1.000000e+000 0.000000e+000 0.000000e+000
      outer loop
         vertex 1.000000e+001 -1.198919e+000 5.092945e-002
         vertex 1.000000e+001 -2.961545e+000 4.787997e-001
         vertex 1.000000e+001 -2.998459e+000 9.615473e-002
      endloop
   endfacet
   facet normal 1.000000e+000 0.000000e+000 0.000000e+000
      outer loop
         vertex 1.000000e+001 -1.198919e+000 5.092945e-002
         vertex 1.000000e+001 -2.998459e+000 9.615473e-002
         vertex 1.000000e+001 -1.190281e+000 -1.524214e-001
      endloop
   endfacet
   facet normal 1.000000e+000 0.000000e+000 0.000000e+000
      outer loop
         vertex 1.000000e+001 -1.190281e+000 -1.524214e-001
         vertex 1.000000e+001 -2.998459e+000 9.615473e-002
         vertex 1.000000e+001 -2.986137e+000 -2.880691e-001
      endloop
   endfacet
   facet normal 1.000000e+000 0.000000e+000 0.000000e+000
      outer loop
         vertex 1.000000e+001 -1.190281e+000 -1.524214e-001
         vertex 1.000000e+001 -2.986137e+000 -2.880691e-001
         vertex 1.000000e+001 -2.924784e+000 -6.675628e-001
      endloop
   endfacet
   facet normal 1.000000e+000 0.000000e+000 0.000000e+000
      outer loop
         vertex 1.000000e+001 -2.028010e-001 1.182739e+000
         vertex 1.000000e+001 -7.609638e-001 2.901885e+000
         vertex 1.000000e+001 -3.997677e-001 1.131453e+000
      endloop
   endfacet
   facet normal 1.000000e+000 0.000000e+000 0.000000e+000
      outer loop
         vertex 1.000000e+001 -3.997677e-001 1.131453e+000
         vertex 1.000000e+001 -7.609638e-001 2.901885e+000
         vertex 1.000000e+001 -1.125801e+000 2.780750e+000
      endloop
   endfacet
   facet normal 1.000000e+000 0.000000e+000 0.000000e+000
      outer loop
         vertex 1.000000e+001 -3.997677e-001 1.131453e+000
         vertex 1.000000e+001 -1.125801e+000 2.780750e+000
         vertex 1.000000e+001 -5.852339e-001 1.047617e+000
      endloop
   endfacet
   facet normal 1.000000e+000 0.000000e+000 0.000000e+000
      outer loop
         vertex 1.000000e+001 -5.852339e-001 1.047617e+000
         vertex 1.000000e+001 -1.125801e+000 2.780750e+000
         vertex 1.000000e+001 -1.472153e+000 2.613956e+000
      endloop
   endfacet
   facet normal 1.000000e+000 0.000000e+000 0.000000e+000
      outer loop
         vertex 1.000000e+001 -5.852339e-001 1.047617e+000
         vertex 1.000000e+001 -1.472153e+000 2.613956e+000
         vertex 1.000000e+001 -7.538640e-001 9.336429e-001
      endloop
   endfacet
   facet normal 1.000000e+000 0.000000e+000 0.000000e+000
      outer loop
         vertex 1.000000e+001 -7.538640e-001 9.336429e-001
         vertex 1.000000e+001 -1.472153e+000 2.613956e+000
         vertex 1.000000e+001 -1.794332e+000 2.404241e+000
      endloop
   endfacet
   facet normal 1.000000e+000 0.000000e+000 0.000000e+000
      outer loop
         vertex 1.000000e+001 -7.538640e-001 9.336429e-001
         vertex 1.000000e+001 -1.794332e+000 2.404241e+000
         vertex 1.000000e+001 -2.087048e+000 2.155048e+000
      endloop
   endfacet
   facet normal 1.000000e+000 0.000000e+000 0.000000e+000
      outer loop
         vertex 1.000000e+001 1.173066e+000 2.528151e-001
         vertex 1.000000e+001 2.876004e+000 8.535827e-001
         vertex 1.000000e+001 1.113467e+000 4.474278e-001
      endloop
   endfacet
   facet normal 1.000000e+000 0.000000e+000 0.000000e+000
      outer loop
         vertex 1.000000e+001 1.113467e+000 4.474278e-001
         vertex 1.000000e+001 2.876004e+000 8.535827e-001
         vertex 1.000000e+001 2.743238e+000 1.214350e+000
      endloop
   endfacet
   facet normal 1.000000e+000 0.000000e+000 0.000000e+000
      outer loop
         vertex 1.000000e+001 1.113467e+000 4.474278e-001
         vertex 1.000000e+001 2.743238e+000 1.214350e+000
         vertex 1.000000e+001 1.021835e+000 6.291687e-001
      endloop
   endfacet
   facet normal 1.000000e+000 0.000000e+000 0.000000e+000
      outer loop
         vertex 1.000000e+001 1.021835e+000 6.291687e-001
         vertex 1.000000e+001 2.743238e+000 1.214350e+000
         vertex 1.000000e+001 2.565428e+000 1.555178e+000
      endloop
   endfacet
   facet normal 1.000000e+000 0.000000e+000 0.000000e+000
      outer loop
         vertex 1.000000e+001 1.021835e+000 6.291687e-001
         vertex 1.000000e+001 2.565428e+000 1.555178e+000
         vertex 1.000000e+001 9.008067e-001 7.928097e-001
      endloop
   endfacet
   facet normal 1.000000e+000 0.000000e+000 0.000000e+000
      outer loop
         vertex 1.000000e+001 3.997677e-001 1.131453e+000
         vertex 1.000000e+001 7.609638e-001 2.901885e+000
         vertex 1.000000e+001 2.028010e-001 1.182739e+000
      endloop
   endfacet
   facet normal 1.000000e+000 0.000000e+000 0.000000e+000
      outer loop
         vertex 1.000000e+001 2.028010e-001 1.182739e+000
         vertex 1.000000e+001 7.609638e-001 2.901885e+000
         vertex 1.000000e+001 3.836315e-001 2.975370e+000
      endloop
   endfacet
   facet normal 1.000000e+000 0.000000e+000 0.000000e+000
      outer loop
         vertex 1.000000e+001 2.028010e-001 1.182739e+000
         vertex 1.000000e+001 3.836315e-001 2.975370e+000
         vertex 1.000000e+001 -2.168404e-016 1.200000e+000
      endloop
   endfacet
   facet normal 1.000000e+000 0.000000e+000 0.000000e+000
      outer loop
         vertex 1.000000e+001 -2.168404e-016 1.200000e+000
         vertex 1.000000e+001 3.836315e-001 2.975370e+000
         vertex 1.000000e+001 0.000000e+000 3.000000e+000
      endloop
   endfacet
   facet normal 1.000000e+000 0.000000e+000 0.000000e+000
      outer loop
         vertex 1.000000e+001 -2.168404e-016 1.200000e+000
         vertex 1.000000e+001 0.000000e+000 3.000000e+000
         vertex 1.000000e+001 -2.028010e-001 1.182739e+000
      endloop
   endfacet
   facet normal 1.000000e+000 0.000000e+000 0.000000e+000
      outer loop
         vertex 1.000000e+001 -2.028010e-001 1.182739e+000
         vertex 1.000000e+001 0.000000e+000 3.000000e+000
         vertex 1.000000e+001 -3.836315e-001 2.975370e+000
      endloop
   endfacet
   facet normal 1.000000e+000 0.000000e+000 0.000000e+000
      outer loop
         vertex 1.000000e+001 -2.028010e-001 1.182739e+000
         vertex 1.000000e+001 -3.836315e-001 2.975370e+000
         vertex 1.000000e+001 -7.609638e-001 2.901885e+000
      endloop
   endfacet
   facet normal 1.000000e+000 0.000000e+000 0.000000e+000
      outer loop
         vertex 1.000000e+001 2.565428e+000 1.555178e+000
         vertex 1.000000e+001 2.345495e+000 1.870469e+000
         vertex 1.000000e+001 9.008067e-001 7.928097e-001
      endloop
   endfacet
   facet normal 1.000000e+000 0.000000e+000 0.000000e+000
      outer loop
         vertex 1.000000e+001 9.008067e-001 7.928097e-001
         vertex 1.000000e+001 2.345495e+000 1.870469e+000
         vertex 1.000000e+001 2.087048e+000 2.155048e+000
      endloop
   endfacet
   facet normal 1.000000e+000 0.000000e+000 0.000000e+000
      outer loop
         vertex 1.000000e+001 9.008067e-001 7.928097e-001
         vertex 1.000000e+001 2.087048e+000 2.155048e+000
         vertex 1.000000e+001 7.538640e-001 9.336429e-001
      endloop
   endfacet
   facet normal 1.000000e+000 0.000000e+000 0.000000e+000
      outer loop
         vertex 1.000000e+001 7.538640e-001 9.336429e-001
         vertex 1.000000e+001 2.087048e+000 2.155048e+000
         vertex 1.000000e+001 1.794332e+000 2.404241e+000
      endloop
   endfacet
   facet normal 1.000000e+000 0.000000e+000 0.000000e+000
      outer loop
         vertex 1.000000e+001 7.538640e-001 9.336429e-001
         vertex 1.000000e+001 1.794332e+000 2.404241e+000
         vertex 1.000000e+001 5.852339e-001 1.047617e+000
      endloop
   endfacet
   facet normal 1.000000e+000 0.000000e+000 0.000000e+000
      outer loop
         vertex 1.000000e+001 5.852339e-001 1.047617e+000
         vertex 1.000000e+001 1.794332e+000 2.404241e+000
         vertex 1.000000e+001 1.472153e+000 2.613956e+000
      endloop
   endfacet
   facet normal 1.000000e+000 0.000000e+000 0.000000e+000
      outer loop
         vertex 1.000000e+001 5.852339e-001 1.047617e+000
         vertex 1.000000e+001 1.472153e+000 2.613956e+000
         vertex 1.000000e+001 3.997677e-001 1.131453e+000
      endloop
   endfacet
   facet normal 1.000000e+000 0.000000e+000 0.000000e+000
      outer loop
         vertex 1.000000e+001 3.997677e-001 1.131453e+000
         vertex 1.000000e+001 1.472153e+000 2.613956e+000
         vertex 1.000000e+001 1.125801e+000 2.780750e+000
      endloop
   endfacet
   facet normal 1.000000e+000 0.000000e+000 0.000000e+000
      outer loop
         vertex 1.000000e+001 3.997677e-001 1.131453e+000
         vertex 1.000000e+001 1.125801e+000 2.780750e+000
         vertex 1.000000e+001 7.609638e-001 2.901885e+000
      endloop
   endfacet
   facet normal 1.000000e+000 0.000000e+000 0.000000e+000
      outer loop
         vertex 1.000000e+001 1.147400e+000 -3.513874e-001
         vertex 1.000000e+001 2.924784e+000 -6.675628e-001
         vertex 1.000000e+001 1.190281e+000 -1.524214e-001
      endloop
   endfacet
   facet normal 1.000000e+000 0.000000e+000 0.000000e+000
      outer loop
         vertex 1.000000e+001 1.190281e+000 -1.524214e-001
         vertex 1.000000e+001 2.924784e+000 -6.675628e-001
         vertex 1.000000e+001 2.986137e+000 -2.880691e-001
      endloop
   endfacet
   facet normal 1.000000e+000 0.000000e+000 0.000000e+000
      outer loop
         vertex 1.000000e+001 1.190281e+000 -1.524214e-001
         vertex 1.000000e+001 2.986137e+000 -2.880691e-001
         vertex 1.000000e+001 1.198919e+000 5.092945e-002
      endloop
   endfacet
   facet normal 1.000000e+000 0.000000e+000 0.000000e+000
      outer loop
         vertex 1.000000e+001 1.198919e+000 5.092945e-002
         vertex 1.000000e+001 2.986137e+000 -2.880691e-001
         vertex 1.000000e+001 2.998459e+000 9.615473e-002
      endloop
   endfacet
   facet normal 1.000000e+000 0.000000e+000 0.000000e+000
      outer loop
         vertex 1.000000e+001 1.198919e+000 5.092945e-002
         vertex 1.000000e+001 2.998459e+000 9.615473e-002
         vertex 1.000000e+001 1.173066e+000 2.528151e-001
      endloop
   endfacet
   facet normal 1.000000e+000 0.000000e+000 0.000000e+000
      outer loop
         vertex 1.000000e+001 1.173066e+000 2.528151e-001
         vertex 1.000000e+001 2.998459e+000 9.615473e-002
         vertex 1.000000e+001 2.961545e+000 4.787997e-001
      endloop
   endfacet
   facet normal 1.000000e+000 0.000000e+000 0.000000e+000
      outer loop
         vertex 1.000000e+001 1.173066e+000 2.528151e-001
         vertex 1.000000e+001 2.961545e+000 4.787997e-001
         vertex 1.000000e+001 2.876004e+000 8.535827e-001
      endloop
   endfacet
   facet normal 1.000000e+000 0.000000e+000 0.000000e+000
      outer loop
         vertex 1.000000e+001 8.303266e-001 -8.663473e-001
         vertex 1.000000e+001 2.220834e+000 -2.016903e+000
         vertex 1.000000e+001 9.647966e-001 -7.135598e-001
      endloop
   endfacet
   facet normal 1.000000e+000 0.000000e+000 0.000000e+000
      outer loop
         vertex 1.000000e+001 9.647966e-001 -7.135598e-001
         vertex 1.000000e+001 2.220834e+000 -2.016903e+000
         vertex 1.000000e+001 2.460517e+000 -1.716350e+000
      endloop
   endfacet
   facet normal 1.000000e+000 0.000000e+000 0.000000e+000
      outer loop
         vertex 1.000000e+001 9.647966e-001 -7.135598e-001
         vertex 1.000000e+001 2.460517e+000 -1.716350e+000
         vertex 1.000000e+001 1.071511e+000 -5.402445e-001
      endloop
   endfacet
   facet normal 1.000000e+000 0.000000e+000 0.000000e+000
      outer loop
         vertex 1.000000e+001 1.071511e+000 -5.402445e-001
         vertex 1.000000e+001 2.460517e+000 -1.716350e+000
         vertex 1.000000e+001 2.659798e+000 -1.387615e+000
      endloop
   endfacet
   facet normal 1.000000e+000 0.000000e+000 0.000000e+000
      outer loop
         vertex 1.000000e+001 1.071511e+000 -5.402445e-001
         vertex 1.000000e+001 2.659798e+000 -1.387615e+000
         vertex 1.000000e+001 1.147400e+000 -3.513874e-001
      endloop
   endfacet
   facet normal 1.000000e+000 0.000000e+000 0.000000e+000
      outer loop
         vertex 1.000000e+001 1.147400e+000 -3.513874e-001
         vertex 1.000000e+001 2.659798e+000 -1.387615e+000
         vertex 1.000000e+001 2.815405e+000 -1.036095e+000
      endloop
   endfacet
   facet normal 1.000000e+000 0.000000e+000 0.000000e+000
      outer loop
         vertex 1.000000e+001 1.147400e+000 -3.513874e-001
         vertex 1.000000e+001 2.815405e+000 -1.036095e+000
         vertex 1.000000e+001 2.924784e+000 -6.675628e-001
      endloop
   endfacet
   facet normal 1.000000e+000 0.000000e+000 0.000000e+000
      outer loop
         vertex 1.000000e+001 1.922107e-001 -2.993836e+000
         vertex 1.000000e+001 5.734759e-001 -2.944677e+000
         vertex 1.000000e+001 3.023737e-001 -1.161280e+000
      endloop
   endfacet
   facet normal 1.000000e+000 0.000000e+000 0.000000e+000
      outer loop
         vertex 1.000000e+001 3.023737e-001 -1.161280e+000
         vertex 1.000000e+001 5.734759e-001 -2.944677e+000
         vertex 1.000000e+001 9.453247e-001 -2.847167e+000
      endloop
   endfacet
   facet normal 1.000000e+000 0.000000e+000 0.000000e+000
      outer loop
         vertex 1.000000e+001 3.023737e-001 -1.161280e+000
         vertex 1.000000e+001 9.453247e-001 -2.847167e+000
         vertex 1.000000e+001 4.942815e-001 -1.093474e+000
      endloop
   endfacet
   facet normal 1.000000e+000 0.000000e+000 0.000000e+000
      outer loop
         vertex 1.000000e+001 4.942815e-001 -1.093474e+000
         vertex 1.000000e+001 9.453247e-001 -2.847167e+000
         vertex 1.000000e+001 1.301651e+000 -2.702907e+000
      endloop
   endfacet
   facet normal 1.000000e+000 0.000000e+000 0.000000e+000
      outer loop
         vertex 1.000000e+001 4.942815e-001 -1.093474e+000
         vertex 1.000000e+001 1.301651e+000 -2.702907e+000
         vertex 1.000000e+001 6.719697e-001 -9.942116e-001
      endloop
   endfacet
   facet normal 1.000000e+000 0.000000e+000 0.000000e+000
      outer loop
         vertex 1.000000e+001 6.719697e-001 -9.942116e-001
         vertex 1.000000e+001 1.301651e+000 -2.702907e+000
         vertex 1.000000e+001 1.636605e+000 -2.514264e+000
      endloop
   endfacet
   facet normal 1.000000e+000 0.000000e+000 0.000000e+000
      outer loop
         vertex 1.000000e+001 6.719697e-001 -9.942116e-001
         vertex 1.000000e+001 1.636605e+000 -2.514264e+000
         vertex 1.000000e+001 8.303266e-001 -8.663473e-001
      endloop
   endfacet
   facet normal 1.000000e+000 0.000000e+000 0.000000e+000
      outer loop
         vertex 1.000000e+001 8.303266e-001 -8.663473e-001
         vertex 1.000000e+001 1.636605e+000 -2.514264e+000
         vertex 1.000000e+001 1.944685e+000 -2.284338e+000
      endloop
   endfacet
   facet normal 1.000000e+000 0.000000e+000 0.000000e+000
      outer loop
         vertex 1.000000e+001 8.303266e-001 -8.663473e-001
         vertex 1.000000e+001 1.944685e+000 -2.284338e+000
         vertex 1.000000e+001 2.220834e+000 -2.016903e+000
      endloop
   endfacet
   facet normal 0.000000e+000 5.651454e-002 -9.984018e-001
      outer loop
         vertex 1.000000e+001 -2.028010e-001 1.182739e+000
         vertex 0.000000e+000 -2.939152e-016 1.200000e+000
         vertex 1.000000e+001 -2.939152e-016 1.200000e+000
      endloop
   endfacet
   facet normal 0.000000e+000 -5.651454e-002 -9.984018e-001
      outer loop
         vertex 1.000000e+001 -2.939152e-016 1.200000e+000
         vertex 0.000000e+000 -2.939152e-016 1.200000e+000
         vertex 0.000000e+000 2.028010e-001 1.182739e+000
      endloop
   endfacet
   facet normal 0.000000e+000 -1.130291e-001 -9.935917e-001
      outer loop
         vertex 1.000000e+001 -2.939152e-016 1.200000e+000
         vertex 0.000000e+000 2.028010e-001 1.182739e+000
         vertex 1.000000e+001 2.028010e-001 1.182739e+000
      endloop
   endfacet
   facet normal 0.000000e+000 -2.244324e-001 -9.744897e-001
      outer loop
         vertex 1.000000e+001 2.028010e-001 1.182739e+000
         vertex 0.000000e+000 2.028010e-001 1.182739e+000
         vertex 0.000000e+000 3.997677e-001 1.131453e+000
      endloop
   endfacet
   facet normal 0.000000e+000 -2.793211e-001 -9.601977e-001
      outer loop
         vertex 1.000000e+001 2.028010e-001 1.182739e+000
         vertex 0.000000e+000 3.997677e-001 1.131453e+000
         vertex 1.000000e+001 3.997677e-001 1.131453e+000
      endloop
   endfacet
   facet normal 0.000000e+000 -3.858936e-001 -9.225433e-001
      outer loop
         vertex 1.000000e+001 3.997677e-001 1.131453e+000
         vertex 0.000000e+000 3.997677e-001 1.131453e+000
         vertex 0.000000e+000 5.852339e-001 1.047617e+000
      endloop
   endfacet
   facet normal 0.000000e+000 -4.375775e-001 -8.991807e-001
      outer loop
         vertex 1.000000e+001 3.997677e-001 1.131453e+000
         vertex 0.000000e+000 5.852339e-001 1.047617e+000
         vertex 1.000000e+001 5.852339e-001 1.047617e+000
      endloop
   endfacet
   facet normal 0.000000e+000 -5.362535e-001 -8.440570e-001
      outer loop
         vertex 1.000000e+001 5.852339e-001 1.047617e+000
         vertex 0.000000e+000 5.852339e-001 1.047617e+000
         vertex 0.000000e+000 7.538640e-001 9.336429e-001
      endloop
   endfacet
   facet normal 0.000000e+000 -5.832456e-001 -8.122959e-001
      outer loop
         vertex 1.000000e+001 5.852339e-001 1.047617e+000
         vertex 0.000000e+000 7.538640e-001 9.336429e-001
         vertex 1.000000e+001 7.538640e-001 9.336429e-001
      endloop
   endfacet
   facet normal 0.000000e+000 -6.711863e-001 -7.412888e-001
      outer loop
         vertex 1.000000e+001 7.538640e-001 9.336429e-001
         vertex 0.000000e+000 7.538640e-001 9.336429e-001
         vertex 0.000000e+000 9.008067e-001 7.928097e-001
      endloop
   endfacet
   facet normal 0.000000e+000 -7.121348e-001 -7.020428e-001
      outer loop
         vertex 1.000000e+001 7.538640e-001 9.336429e-001
         vertex 0.000000e+000 9.008067e-001 7.928097e-001
         vertex 1.000000e+001 9.008067e-001 7.928097e-001
      endloop
   endfacet
   facet normal 0.000000e+000 -7.868103e-001 -6.171949e-001
      outer loop
         vertex 1.000000e+001 9.008067e-001 7.928097e-001
         vertex 0.000000e+000 9.008067e-001 7.928097e-001
         vertex 0.000000e+000 1.021835e+000 6.291687e-001
      endloop
   endfacet
   facet normal 0.000000e+000 -8.205372e-001 -5.715931e-001
      outer loop
         vertex 1.000000e+001 9.008067e-001 7.928097e-001
         vertex 0.000000e+000 1.021835e+000 6.291687e-001
         vertex 1.000000e+001 1.021835e+000 6.291687e-001
      endloop
   endfacet
   facet normal 0.000000e+000 -8.797992e-001 -4.753455e-001
      outer loop
         vertex 1.000000e+001 1.021835e+000 6.291687e-001
         vertex 0.000000e+000 1.021835e+000 6.291687e-001
         vertex 0.000000e+000 1.113467e+000 4.474278e-001
      endloop
   endfacet
   facet normal 0.000000e+000 -9.053342e-001 -4.246998e-001
      outer loop
         vertex 1.000000e+001 1.021835e+000 6.291687e-001
         vertex 0.000000e+000 1.113467e+000 4.474278e-001
         vertex 1.000000e+001 1.113467e+000 4.474278e-001
      endloop
   endfacet
   facet normal 0.000000e+000 -9.474779e-001 -3.198213e-001
      outer loop
         vertex 1.000000e+001 1.113467e+000 4.474278e-001
         vertex 0.000000e+000 1.113467e+000 4.474278e-001
         vertex 0.000000e+000 1.173066e+000 2.528151e-001
      endloop
   endfacet
   facet normal 0.000000e+000 -9.640865e-001 -2.655886e-001
      outer loop
         vertex 1.000000e+001 1.113467e+000 4.474278e-001
         vertex 0.000000e+000 1.173066e+000 2.528151e-001
         vertex 1.000000e+001 1.173066e+000 2.528151e-001
      endloop
   endfacet
   facet normal 0.000000e+000 -9.878993e-001 -1.550965e-001
      outer loop
         vertex 1.000000e+001 1.173066e+000 2.528151e-001
         vertex 0.000000e+000 1.173066e+000 2.528151e-001
         vertex 0.000000e+000 1.198919e+000 5.092945e-002
      endloop
   endfacet
   facet normal 0.000000e+000 -9.951036e-001 -9.883699e-002
      outer loop
         vertex 1.000000e+001 1.173066e+000 2.528151e-001
         vertex 0.000000e+000 1.198919e+000 5.092945e-002
         vertex 1.000000e+001 1.198919e+000 5.092945e-002
      endloop
   endfacet
   facet normal 0.000000e+000 -9.999007e-001 1.409025e-002
      outer loop
         vertex 1.000000e+001 1.198919e+000 5.092945e-002
         vertex 0.000000e+000 1.198919e+000 5.092945e-002
         vertex 0.000000e+000 1.190281e+000 -1.524214e-001
      endloop
   endfacet
   facet normal 0.000000e+000 -9.974935e-001 7.075802e-002
      outer loop
         vertex 1.000000e+001 1.198919e+000 5.092945e-002
         vertex 0.000000e+000 1.190281e+000 -1.524214e-001
         vertex 1.000000e+001 1.190281e+000 -1.524214e-001
      endloop
   endfacet
   facet normal 0.000000e+000 -9.831368e-001 1.828716e-001
      outer loop
         vertex 1.000000e+001 1.190281e+000 -1.524214e-001
         vertex 0.000000e+000 1.190281e+000 -1.524214e-001
         vertex 0.000000e+000 1.147400e+000 -3.513874e-001
      endloop
   endfacet
   facet normal 0.000000e+000 -9.711873e-001 2.383175e-001
      outer loop
         vertex 1.000000e+001 1.190281e+000 -1.524214e-001
         vertex 0.000000e+000 1.147400e+000 -3.513874e-001
         vertex 1.000000e+001 1.147400e+000 -3.513874e-001
      endloop
   endfacet
   facet normal 0.000000e+000 -9.380898e-001 3.463921e-001
      outer loop
         vertex 1.000000e+001 1.147400e+000 -3.513874e-001
         vertex 0.000000e+000 1.147400e+000 -3.513874e-001
         vertex 0.000000e+000 1.071511e+000 -5.402445e-001
      endloop
   endfacet
   facet normal 0.000000e+000 -9.169418e-001 3.990209e-001
      outer loop
         vertex 1.000000e+001 1.147400e+000 -3.513874e-001
         vertex 0.000000e+000 1.071511e+000 -5.402445e-001
         vertex 1.000000e+001 1.071511e+000 -5.402445e-001
      endloop
   endfacet
   facet normal 0.000000e+000 -8.660557e-001 4.999475e-001
      outer loop
         vertex 1.000000e+001 1.071511e+000 -5.402445e-001
         vertex 0.000000e+000 1.071511e+000 -5.402445e-001
         vertex 0.000000e+000 9.647966e-001 -7.135598e-001
      endloop
   endfacet
   facet normal 0.000000e+000 -8.363176e-001 5.482453e-001
      outer loop
         vertex 1.000000e+001 1.071511e+000 -5.402445e-001
         vertex 0.000000e+000 9.647966e-001 -7.135598e-001
         vertex 1.000000e+001 9.647966e-001 -7.135598e-001
      endloop
   endfacet
   facet normal 0.000000e+000 -7.691067e-001 6.391203e-001
      outer loop
         vertex 1.000000e+001 9.647966e-001 -7.135598e-001
         vertex 0.000000e+000 9.647966e-001 -7.135598e-001
         vertex 0.000000e+000 8.303266e-001 -8.663473e-001
      endloop
   endfacet
   facet normal 0.000000e+000 -7.316340e-001 6.816977e-001
      outer loop
         vertex 1.000000e+001 9.647966e-001 -7.135598e-001
         vertex 0.000000e+000 8.303266e-001 -8.663473e-001
         vertex 1.000000e+001 8.303266e-001 -8.663473e-001
      endloop
   endfacet
   facet normal 0.000000e+000 -6.500320e-001 7.599069e-001
      outer loop
         vertex 1.000000e+001 8.303266e-001 -8.663473e-001
         vertex 0.000000e+000 8.303266e-001 -8.663473e-001
         vertex 0.000000e+000 6.719697e-001 -9.942116e-001
      endloop
   endfacet
   facet normal 0.000000e+000 -6.059027e-001 7.955388e-001
      outer loop
         vertex 1.000000e+001 8.303266e-001 -8.663473e-001
         vertex 0.000000e+000 6.719697e-001 -9.942116e-001
         vertex 1.000000e+001 6.719697e-001 -9.942116e-001
      endloop
   endfacet
   facet normal 0.000000e+000 -5.122570e-001 8.588322e-001
      outer loop
         vertex 1.000000e+001 6.719697e-001 -9.942116e-001
         vertex 0.000000e+000 6.719697e-001 -9.942116e-001
         vertex 0.000000e+000 4.942815e-001 -1.093474e+000
      endloop
   endfacet
   facet normal 0.000000e+000 -4.627406e-001 8.864937e-001
      outer loop
         vertex 1.000000e+001 6.719697e-001 -9.942116e-001
         vertex 0.000000e+000 4.942815e-001 -1.093474e+000
         vertex 1.000000e+001 4.942815e-001 -1.093474e+000
      endloop
   endfacet
   facet normal 0.000000e+000 -3.597453e-001 9.330506e-001
      outer loop
         vertex 1.000000e+001 4.942815e-001 -1.093474e+000
         vertex 0.000000e+000 4.942815e-001 -1.093474e+000
         vertex 0.000000e+000 3.023737e-001 -1.161280e+000
      endloop
   endfacet
   facet normal 0.000000e+000 -3.062663e-001 9.519458e-001
      outer loop
         vertex 1.000000e+001 4.942815e-001 -1.093474e+000
         vertex 0.000000e+000 3.023737e-001 -1.161280e+000
         vertex 1.000000e+001 3.023737e-001 -1.161280e+000
      endloop
   endfacet
   facet normal 0.000000e+000 -1.968844e-001 9.804267e-001
      outer loop
         vertex 1.000000e+001 3.023737e-001 -1.161280e+000
         vertex 0.000000e+000 3.023737e-001 -1.161280e+000
         vertex 0.000000e+000 1.017671e-001 -1.195677e+000
      endloop
   endfacet
   facet normal 0.000000e+000 -1.409813e-001 9.900123e-001
      outer loop
         vertex 1.000000e+001 3.023737e-001 -1.161280e+000
         vertex 0.000000e+000 1.017671e-001 -1.195677e+000
         vertex 1.000000e+001 1.017671e-001 -1.195677e+000
      endloop
   endfacet
   facet normal 0.000000e+000 -2.835944e-002 9.995977e-001
      outer loop
         vertex 1.000000e+001 1.017671e-001 -1.195677e+000
         vertex 0.000000e+000 1.017671e-001 -1.195677e+000
         vertex 0.000000e+000 -1.017671e-001 -1.195677e+000
      endloop
   endfacet
   facet normal 0.000000e+000 2.835944e-002 9.995977e-001
      outer loop
         vertex 1.000000e+001 1.017671e-001 -1.195677e+000
         vertex 0.000000e+000 -1.017671e-001 -1.195677e+000
         vertex 1.000000e+001 -1.017671e-001 -1.195677e+000
      endloop
   endfacet
   facet normal 0.000000e+000 1.409813e-001 9.900123e-001
      outer loop
         vertex 1.000000e+001 -1.017671e-001 -1.195677e+000
         vertex 0.000000e+000 -1.017671e-001 -1.195677e+000
         vertex 0.000000e+000 -3.023737e-001 -1.161280e+000
      endloop
   endfacet
   facet normal 0.000000e+000 1.968844e-001 9.804267e-001
      outer loop
         vertex 1.000000e+001 -1.017671e-001 -1.195677e+000
         vertex 0.000000e+000 -3.023737e-001 -1.161280e+000
         vertex 1.000000e+001 -3.023737e-001 -1.161280e+000
      endloop
   endfacet
   facet normal 0.000000e+000 3.062663e-001 9.519458e-001
      outer loop
         vertex 1.000000e+001 -3.023737e-001 -1.161280e+000
         vertex 0.000000e+000 -3.023737e-001 -1.161280e+000
         vertex 0.000000e+000 -4.942815e-001 -1.093474e+000
      endloop
   endfacet
   facet normal 0.000000e+000 3.597453e-001 9.330506e-001
      outer loop
         vertex 1.000000e+001 -3.023737e-001 -1.161280e+000
         vertex 0.000000e+000 -4.942815e-001 -1.093474e+000
         vertex 1.000000e+001 -4.942815e-001 -1.093474e+000
      endloop
   endfacet
   facet normal 0.000000e+000 4.627406e-001 8.864937e-001
      outer loop
         vertex 1.000000e+001 -4.942815e-001 -1.093474e+000
         vertex 0.000000e+000 -4.942815e-001 -1.093474e+000
         vertex 0.000000e+000 -6.719697e-001 -9.942116e-001
      endloop
   endfacet
   facet normal 0.000000e+000 5.122570e-001 8.588322e-001
      outer loop
         vertex 1.000000e+001 -4.942815e-001 -1.093474e+000
         vertex 0.000000e+000 -6.719697e-001 -9.942116e-001
         vertex 1.000000e+001 -6.719697e-001 -9.942116e-001
      endloop
   endfacet
   facet normal 0.000000e+000 6.059027e-001 7.955388e-001
      outer loop
         vertex 1.000000e+001 -6.719697e-001 -9.942116e-001
         vertex 0.000000e+000 -6.719697e-001 -9.942116e-001
         vertex 0.000000e+000 -8.303266e-001 -8.663473e-001
      endloop
   endfacet
   facet normal 0.000000e+000 6.500320e-001 7.599069e-001
      outer loop
         vertex 1.000000e+001 -6.719697e-001 -9.942116e-001
         vertex 0.000000e+000 -8.303266e-001 -8.663473e-001
         vertex 1.000000e+001 -8.303266e-001 -8.663473e-001
      endloop
   endfacet
   facet normal 0.000000e+000 7.316340e-001 6.816977e-001
      outer loop
         vertex 1.000000e+001 -8.303266e-001 -8.663473e-001
         vertex 0.000000e+000 -8.303266e-001 -8.663473e-001
         vertex 0.000000e+000 -9.647966e-001 -7.135598e-001
      endloop
   endfacet
   facet normal 0.000000e+000 7.691067e-001 6.391203e-001
      outer loop
         vertex 1.000000e+001 -8.303266e-001 -8.663473e-001
         vertex 0.000000e+000 -9.647966e-001 -7.135598e-001
         vertex 1.000000e+001 -9.647966e-001 -7.135598e-001
      endloop
   endfacet
   facet normal 0.000000e+000 8.363176e-001 5.482453e-001
      outer loop
         vertex 1.000000e+001 -9.647966e-001 -7.135598e-001
         vertex 0.000000e+000 -9.647966e-001 -7.135598e-001
         vertex 0.000000e+000 -1.071511e+000 -5.402445e-001
      endloop
   endfacet
   facet normal 0.000000e+000 8.660557e-001 4.999475e-001
      outer loop
         vertex 1.000000e+001 -9.647966e-001 -7.135598e-001
         vertex 0.000000e+000 -1.071511e+000 -5.402445e-001
         vertex 1.000000e+001 -1.071511e+000 -5.402445e-001
      endloop
   endfacet
   facet normal 0.000000e+000 9.169418e-001 3.990209e-001
      outer loop
         vertex 1.000000e+001 -1.071511e+000 -5.402445e-001
         vertex 0.000000e+000 -1.071511e+000 -5.402445e-001
         vertex 0.000000e+000 -1.147400e+000 -3.513874e-001
      endloop
   endfacet
   facet normal 0.000000e+000 9.380898e-001 3.463921e-001
      outer loop
         vertex 1.000000e+001 -1.071511e+000 -5.402445e-001
         vertex 0.000000e+000 -1.147400e+000 -3.513874e-001
         vertex 1.000000e+001 -1.147400e+000 -3.513874e-001
      endloop
   endfacet
   facet normal 0.000000e+000 9.711873e-001 2.383175e-001
      outer loop
         vertex 1.000000e+001 -1.147400e+000 -3.513874e-001
         vertex 0.000000e+000 -1.147400e+000 -3.513874e-001
         vertex 0.000000e+000 -1.190281e+000 -1.524214e-001
      endloop
   endfacet
   facet normal 0.000000e+000 9.831368e-001 1.828716e-001
      outer loop
         vertex 1.000000e+001 -1.147400e+000 -3.513874e-001
         vertex 0.000000e+000 -1.190281e+000 -1.524214e-001
         vertex 1.000000e+001 -1.190281e+000 -1.524214e-001
      endloop
   endfacet
   facet normal 0.000000e+000 9.974935e-001 7.075802e-002
      outer loop
         vertex 1.000000e+001 -1.190281e+000 -1.524214e-001
         vertex 0.000000e+000 -1.190281e+000 -1.524214e-001
         vertex 0.000000e+000 -1.198919e+000 5.092945e-002
      endloop
   endfacet
   facet normal 0.000000e+000 9.999007e-001 1.409025e-002
      outer loop
         vertex 1.000000e+001 -1.190281e+000 -1.524214e-001
         vertex 0.000000e+000 -1.198919e+000 5.092945e-002
         vertex 1.000000e+001 -1.198919e+000 5.092945e-002
      endloop
   endfacet
   facet normal 0.000000e+000 9.951036e-001 -9.883699e-002
      outer loop
         vertex 1.000000e+001 -1.198919e+000 5.092945e-002
         vertex 0.000000e+000 -1.198919e+000 5.092945e-002
         vertex 0.000000e+000 -1.173066e+000 2.528151e-001
      endloop
   endfacet
   facet normal 0.000000e+000 9.878993e-001 -1.550965e-001
      outer loop
         vertex 1.000000e+001 -1.198919e+000 5.092945e-002
         vertex 0.000000e+000 -1.173066e+000 2.528151e-001
         vertex 1.000000e+001 -1.173066e+000 2.528151e-001
      endloop
   endfacet
   facet normal 0.000000e+000 9.640865e-001 -2.655886e-001
      outer loop
         vertex 1.000000e+001 -1.173066e+000 2.528151e-001
         vertex 0.000000e+000 -1.173066e+000 2.528151e-001
         vertex 0.000000e+000 -1.113467e+000 4.474278e-001
      endloop
   endfacet
   facet normal 0.000000e+000 9.474779e-001 -3.198213e-001
      outer loop
         vertex 1.000000e+001 -1.173066e+000 2.528151e-001
         vertex 0.000000e+000 -1.113467e+000 4.474278e-001
         vertex 1.000000e+001 -1.113467e+000 4.474278e-001
      endloop
   endfacet
   facet normal 0.000000e+000 9.053342e-001 -4.246998e-001
      outer loop
         vertex 1.000000e+001 -1.113467e+000 4.474278e-001
         vertex 0.000000e+000 -1.113467e+000 4.474278e-001
         vertex 0.000000e+000 -1.021835e+000 6.291687e-001
      endloop
   endfacet
   facet normal 0.000000e+000 8.797992e-001 -4.753455e-001
      outer loop
         vertex 1.000000e+001 -1.113467e+000 4.474278e-001
         vertex 0.000000e+000 -1.021835e+000 6.291687e-001
         vertex 1.000000e+001 -1.021835e+000 6.291687e-001
      endloop
   endfacet
   facet normal 0.000000e+000 8.205372e-001 -5.715931e-001
      outer loop
         vertex 1.000000e+001 -1.021835e+000 6.291687e-001
         vertex 0.000000e+000 -1.021835e+000 6.291687e-001
         vertex 0.000000e+000 -9.008067e-001 7.928097e-001
      endloop
   endfacet
   facet normal 0.000000e+000 7.868103e-001 -6.171949e-001
      outer loop
         vertex 1.000000e+001 -1.021835e+000 6.291687e-001
         vertex 0.000000e+000 -9.008067e-001 7.928097e-001
         vertex 1.000000e+001 -9.008067e-001 7.928097e-001
      endloop
   endfacet
   facet normal 0.000000e+000 7.121348e-001 -7.020428e-001
      outer loop
         vertex 1.000000e+001 -9.008067e-001 7.928097e-001
         vertex 0.000000e+000 -9.008067e-001 7.928097e-001
         vertex 0.000000e+000 -7.538640e-001 9.336429e-001
      endloop
   endfacet
   facet normal 0.000000e+000 6.711863e-001 -7.412888e-001
      outer loop
         vertex 1.000000e+001 -9.008067e-001 7.928097e-001
         vertex 0.000000e+000 -7.538640e-001 9.336429e-001
         vertex 1.000000e+001 -7.538640e-001 9.336429e-001
      endloop
   endfacet
   facet normal 0.000000e+000 5.832456e-001 -8.122959e-001
      outer loop
         vertex 1.000000e+001 -7.538640e-001 9.336429e-001
         vertex 0.000000e+000 -7.538640e-001 9.336429e-001
         vertex 0.000000e+000 -5.852339e-001 1.047617e+000
      endloop
   endfacet
   facet normal 0.000000e+000 5.362535e-001 -8.440570e-001
      outer loop
         vertex 1.000000e+001 -7.538640e-001 9.336429e-001
         vertex 0.000000e+000 -5.852339e-001 1.047617e+000
         vertex 1.000000e+001 -5.852339e-001 1.047617e+000
      endloop
   endfacet
   facet normal 0.000000e+000 4.375775e-001 -8.991807e-001
      outer loop
         vertex 1.000000e+001 -5.852339e-001 1.047617e+000
         vertex 0.000000e+000 -5.852339e-001 1.047617e+000
         vertex 0.000000e+000 -3.997677e-001 1.131453e+000
      endloop
   endfacet
   facet normal 0.000000e+000 3.858936e-001 -9.225433e-001
      outer loop
         vertex 1.000000e+001 -5.852339e-001 1.047617e+000
         vertex 0.000000e+000 -3.997677e-001 1.131453e+000
         vertex 1.000000e+001 -3.997677e-001 1.131453e+000
      endloop
   endfacet
   facet normal 0.000000e+000 2.793211e-001 -9.601977e-001
      outer loop
         vertex 1.000000e+001 -3.997677e-001 1.131453e+000
         vertex 0.000000e+000 -3.997677e-001 1.131453e+000
         vertex 0.000000e+000 -2.028010e-001 1.182739e+000
      endloop
   endfacet
   facet normal 0.000000e+000 2.244324e-001 -9.744897e-001
      outer loop
         vertex 1.000000e+001 -3.997677e-001 1.131453e+000
         vertex 0.000000e+000 -2.028010e-001 1.182739e+000
         vertex 1.000000e+001 -2.028010e-001 1.182739e+000
      endloop
   endfacet
   facet normal 0.000000e+000 1.130291e-001 -9.935917e-001
      outer loop
         vertex 1.000000e+001 -2.028010e-001 1.182739e+000
         vertex 0.000000e+000 -2.028010e-001 1.182739e+000
         vertex 0.000000e+000 -2.939152e-016 1.200000e+000
      endloop
   endfacet
   facet normal -1.000000e+000 0.000000e+000 0.000000e+000
      outer loop
         vertex 0.000000e+000 -1.173066e+000 2.528151e-001
         vertex 0.000000e+000 -2.876004e+000 8.535827e-001
         vertex 0.000000e+000 -1.113467e+000 4.474278e-001
      endloop
   endfacet
   facet normal -1.000000e+000 0.000000e+000 0.000000e+000
      outer loop
         vertex 0.000000e+000 -1.113467e+000 4.474278e-001
         vertex 0.000000e+000 -2.876004e+000 8.535827e-001
         vertex 0.000000e+000 -2.743238e+000 1.214350e+000
      endloop
   endfacet
   facet normal -1.000000e+000 0.000000e+000 0.000000e+000
      outer loop
         vertex 0.000000e+000 -1.113467e+000 4.474278e-001
         vertex 0.000000e+000 -2.743238e+000 1.214350e+000
         vertex 0.000000e+000 -1.021835e+000 6.291687e-001
      endloop
   endfacet
   facet normal -1.000000e+000 0.000000e+000 0.000000e+000
      outer loop
         vertex 0.000000e+000 -1.021835e+000 6.291687e-001
         vertex 0.000000e+000 -2.743238e+000 1.214350e+000
         vertex 0.000000e+000 -2.565428e+000 1.555178e+000
      endloop
   endfacet
   facet normal -1.000000e+000 0.000000e+000 0.000000e+000
      outer loop
         vertex 0.000000e+000 -1.021835e+000 6.291687e-001
         vertex 0.000000e+000 -2.565428e+000 1.555178e+000
         vertex 0.000000e+000 -9.008067e-001 7.928097e-001
      endloop
   endfacet
   facet normal -1.000000e+000 0.000000e+000 0.000000e+000
      outer loop
         vertex 0.000000e+000 -3.997677e-001 1.131453e+000
         vertex 0.000000e+000 -7.609638e-001 2.901885e+000
         vertex 0.000000e+000 -2.028010e-001 1.182739e+000
      endloop
   endfacet
   facet normal -1.000000e+000 0.000000e+000 0.000000e+000
      outer loop
         vertex 0.000000e+000 -2.028010e-001 1.182739e+000
         vertex 0.000000e+000 -7.609638e-001 2.901885e+000
         vertex 0.000000e+000 -3.836315e-001 2.975370e+000
      endloop
   endfacet
   facet normal -1.000000e+000 0.000000e+000 0.000000e+000
      outer loop
         vertex 0.000000e+000 -2.028010e-001 1.182739e+000
         vertex 0.000000e+000 -3.836315e-001 2.975370e+000
         vertex 0.000000e+000 0.000000e+000 1.200000e+000
      endloop
   endfacet
   facet normal -1.000000e+000 0.000000e+000 0.000000e+000
      outer loop
         vertex 0.000000e+000 0.000000e+000 1.200000e+000
         vertex 0.000000e+000 -3.836315e-001 2.975370e+000
         vertex 0.000000e+000 -6.505213e-016 3.000000e+000
      endloop
   endfacet
   facet normal -1.000000e+000 0.000000e+000 0.000000e+000
      outer loop
         vertex 0.000000e+000 0.000000e+000 1.200000e+000
         vertex 0.000000e+000 -6.505213e-016 3.000000e+000
         vertex 0.000000e+000 2.028010e-001 1.182739e+000
      endloop
   endfacet
   facet normal -1.000000e+000 0.000000e+000 0.000000e+000
      outer loop
         vertex 0.000000e+000 -1.147400e+000 -3.513874e-001
         vertex 0.000000e+000 -2.924784e+000 -6.675628e-001
         vertex 0.000000e+000 -1.190281e+000 -1.524214e-001
      endloop
   endfacet
   facet normal -1.000000e+000 0.000000e+000 0.000000e+000
      outer loop
         vertex 0.000000e+000 -1.190281e+000 -1.524214e-001
         vertex 0.000000e+000 -2.924784e+000 -6.675628e-001
         vertex 0.000000e+000 -2.986137e+000 -2.880691e-001
      endloop
   endfacet
   facet normal -1.000000e+000 0.000000e+000 0.000000e+000
      outer loop
         vertex 0.000000e+000 -1.190281e+000 -1.524214e-001
         vertex 0.000000e+000 -2.986137e+000 -2.880691e-001
         vertex 0.000000e+000 -1.198919e+000 5.092945e-002
      endloop
   endfacet
   facet normal -1.000000e+000 0.000000e+000 0.000000e+000
      outer loop
         vertex 0.000000e+000 -1.198919e+000 5.092945e-002
         vertex 0.000000e+000 -2.986137e+000 -2.880691e-001
         vertex 0.000000e+000 -2.998459e+000 9.615473e-002
      endloop
   endfacet
   facet normal -1.000000e+000 0.000000e+000 0.000000e+000
      outer loop
         vertex 0.000000e+000 -1.198919e+000 5.092945e-002
         vertex 0.000000e+000 -2.998459e+000 9.615473e-002
         vertex 0.000000e+000 -1.173066e+000 2.528151e-001
      endloop
   endfacet
   facet normal -1.000000e+000 0.000000e+000 0.000000e+000
      outer loop
         vertex 0.000000e+000 -1.173066e+000 2.528151e-001
         vertex 0.000000e+000 -2.998459e+000 9.615473e-002
         vertex 0.000000e+000 -2.961545e+000 4.787997e-001
      endloop
   endfacet
   facet normal -1.000000e+000 0.000000e+000 0.000000e+000
      outer loop
         vertex 0.000000e+000 -1.173066e+000 2.528151e-001
         vertex 0.000000e+000 -2.961545e+000 4.787997e-001
         vertex 0.000000e+000 -2.876004e+000 8.535827e-001
      endloop
   endfacet
   facet normal -1.000000e+000 0.000000e+000 0.000000e+000
      outer loop
         vertex 0.000000e+000 -8.303266e-001 -8.663473e-001
         vertex 0.000000e+000 -2.220834e+000 -2.016903e+000
         vertex 0.000000e+000 -9.647966e-001 -7.135598e-001
      endloop
   endfacet
   facet normal -1.000000e+000 0.000000e+000 0.000000e+000
      outer loop
         vertex 0.000000e+000 -9.647966e-001 -7.135598e-001
         vertex 0.000000e+000 -2.220834e+000 -2.016903e+000
         vertex 0.000000e+000 -2.460517e+000 -1.716350e+000
      endloop
   endfacet
   facet normal -1.000000e+000 0.000000e+000 0.000000e+000
      outer loop
         vertex 0.000000e+000 -9.647966e-001 -7.135598e-001
         vertex 0.000000e+000 -2.460517e+000 -1.716350e+000
         vertex 0.000000e+000 -1.071511e+000 -5.402445e-001
      endloop
   endfacet
   facet normal -1.000000e+000 0.000000e+000 0.000000e+000
      outer loop
         vertex 0.000000e+000 -1.071511e+000 -5.402445e-001
         vertex 0.000000e+000 -2.460517e+000 -1.716350e+000
         vertex 0.000000e+000 -2.659798e+000 -1.387615e+000
      endloop
   endfacet
   facet normal -1.000000e+000 0.000000e+000 0.000000e+000
      outer loop
         vertex 0.000000e+000 -1.071511e+000 -5.402445e-001
         vertex 0.000000e+000 -2.659798e+000 -1.387615e+000
         vertex 0.000000e+000 -1.147400e+000 -3.513874e-001
      endloop
   endfacet
   facet normal -1.000000e+000 0.000000e+000 0.000000e+000
      outer loop
         vertex 0.000000e+000 -1.147400e+000 -3.513874e-001
         vertex 0.000000e+000 -2.659798e+000 -1.387615e+000
         vertex 0.000000e+000 -2.815405e+000 -1.036095e+000
      endloop
   endfacet
   facet normal -1.000000e+000 0.000000e+000 0.000000e+000
      outer loop
         vertex 0.000000e+000 -1.147400e+000 -3.513874e-001
         vertex 0.000000e+000 -2.815405e+000 -1.036095e+000
         vertex 0.000000e+000 -2.924784e+000 -6.675628e-001
      endloop
   endfacet
   facet normal -1.000000e+000 0.000000e+000 0.000000e+000
      outer loop
         vertex 0.000000e+000 -2.565428e+000 1.555178e+000
         vertex 0.000000e+000 -2.345495e+000 1.870469e+000
         vertex 0.000000e+000 -9.008067e-001 7.928097e-001
      endloop
   endfacet
   facet normal -1.000000e+000 0.000000e+000 0.000000e+000
      outer loop
         vertex 0.000000e+000 -9.008067e-001 7.928097e-001
         vertex 0.000000e+000 -2.345495e+000 1.870469e+000
         vertex 0.000000e+000 -2.087048e+000 2.155048e+000
      endloop
   endfacet
   facet normal -1.000000e+000 0.000000e+000 0.000000e+000
      outer loop
         vertex 0.000000e+000 -9.008067e-001 7.928097e-001
         vertex 0.000000e+000 -2.087048e+000 2.155048e+000
         vertex 0.000000e+000 -7.538640e-001 9.336429e-001
      endloop
   endfacet
   facet normal -1.000000e+000 0.000000e+000 0.000000e+000
      outer loop
         vertex 0.000000e+000 -7.538640e-001 9.336429e-001
         vertex 0.000000e+000 -2.087048e+000 2.155048e+000
         vertex 0.000000e+000 -1.794332e+000 2.404241e+000
      endloop
   endfacet
   facet normal -1.000000e+000 0.000000e+000 0.000000e+000
      outer loop
         vertex 0.000000e+000 -7.538640e-001 9.336429e-001
         vertex 0.000000e+000 -1.794332e+000 2.404241e+000
         vertex 0.000000e+000 -5.852339e-001 1.047617e+000
      endloop
   endfacet
   facet normal -1.000000e+000 0.000000e+000 0.000000e+000
      outer loop
         vertex 0.000000e+000 -5.852339e-001 1.047617e+000
         vertex 0.000000e+000 -1.794332e+000 2.404241e+000
         vertex 0.000000e+000 -1.472153e+000 2.613956e+000
      endloop
   endfacet
   facet normal -1.000000e+000 0.000000e+000 0.000000e+000
      outer loop
         vertex 0.000000e+000 -5.852339e-001 1.047617e+000
         vertex 0.000000e+000 -1.472153e+000 2.613956e+000
         vertex 0.000000e+000 -3.997677e-001 1.131453e+000
      endloop
   endfacet
   facet normal -1.000000e+000 0.000000e+000 0.000000e+000
      outer loop
         vertex 0.000000e+000 -3.997677e-001 1.131453e+000
         vertex 0.000000e+000 -1.472153e+000 2.613956e+000
         vertex 0.000000e+000 -1.125801e+000 2.780750e+000
      endloop
   endfacet
   facet normal -1.000000e+000 0.000000e+000 0.000000e+000
      outer loop
         vertex 0.000000e+000 -3.997677e-001 1.131453e+000
         vertex 0.000000e+000 -1.125801e+000 2.780750e+000
         vertex 0.000000e+000 -7.609638e-001 2.901885e+000
      endloop
   endfacet
   facet normal -1.000000e+000 0.000000e+000 0.000000e+000
      outer loop
         vertex 0.000000e+000 -3.023737e-001 -1.161280e+000
         vertex 0.000000e+000 -9.453247e-001 -2.847167e+000
         vertex 0.000000e+000 -4.942815e-001 -1.093474e+000
      endloop
   endfacet
   facet normal -1.000000e+000 0.000000e+000 0.000000e+000
      outer loop
         vertex 0.000000e+000 -4.942815e-001 -1.093474e+000
         vertex 0.000000e+000 -9.453247e-001 -2.847167e+000
         vertex 0.000000e+000 -1.301651e+000 -2.702907e+000
      endloop
   endfacet
   facet normal -1.000000e+000 0.000000e+000 0.000000e+000
      outer loop
         vertex 0.000000e+000 -4.942815e-001 -1.093474e+000
         vertex 0.000000e+000 -1.301651e+000 -2.702907e+000
         vertex 0.000000e+000 -6.719697e-001 -9.942116e-001
      endloop
   endfacet
   facet normal -1.000000e+000 0.000000e+000 0.000000e+000
      outer loop
         vertex 0.000000e+000 -6.719697e-001 -9.942116e-001
         vertex 0.000000e+000 -1.301651e+000 -2.702907e+000
         vertex 0.000000e+000 -1.636605e+000 -2.514264e+000
      endloop
   endfacet
   facet normal -1.000000e+000 0.000000e+000 0.000000e+000
      outer loop
         vertex 0.000000e+000 -6.719697e-001 -9.942116e-001
         vertex 0.000000e+000 -1.636605e+000 -2.514264e+000
         vertex 0.000000e+000 -8.303266e-001 -8.663473e-001
      endloop
   endfacet
   facet normal -1.000000e+000 0.000000e+000 0.000000e+000
      outer loop
         vertex 0.000000e+000 -8.303266e-001 -8.663473e-001
         vertex 0.000000e+000 -1.636605e+000 -2.514264e+000
         vertex 0.000000e+000 -1.944685e+000 -2.284338e+000
      endloop
   endfacet
   facet normal -1.000000e+000 0.000000e+000 0.000000e+000
      outer loop
         vertex 0.000000e+000 -8.303266e-001 -8.663473e-001
         vertex 0.000000e+000 -1.944685e+000 -2.284338e+000
         vertex 0.000000e+000 -2.220834e+000 -2.016903e+000
      endloop
   endfacet
   facet normal -1.000000e+000 0.000000e+000 0.000000e+000
      outer loop
         vertex 0.000000e+000 4.942815e-001 -1.093474e+000
         vertex 0.000000e+000 9.453247e-001 -2.847167e+000
         vertex 0.000000e+000 3.023737e-001 -1.161280e+000
      endloop
   endfacet
   facet normal -1.000000e+000 0.000000e+000 0.000000e+000
      outer loop
         vertex 0.000000e+000 3.023737e-001 -1.161280e+000
         vertex 0.000000e+000 9.453247e-001 -2.847167e+000
         vertex 0.000000e+000 5.734759e-001 -2.944677e+000
      endloop
   endfacet
   facet normal -1.000000e+000 0.000000e+000 0.000000e+000
      outer loop
         vertex 0.000000e+000 3.023737e-001 -1.161280e+000
         vertex 0.000000e+000 5.734759e-001 -2.944677e+000
         vertex 0.000000e+000 1.017671e-001 -1.195677e+000
      endloop
   endfacet
   facet normal -1.000000e+000 0.000000e+000 0.000000e+000
      outer loop
         vertex 0.000000e+000 1.017671e-001 -1.195677e+000
         vertex 0.000000e+000 5.734759e-001 -2.944677e+000
         vertex 0.000000e+000 1.922107e-001 -2.993836e+000
      endloop
   endfacet
   facet normal -1.000000e+000 0.000000e+000 0.000000e+000
      outer loop
         vertex 0.000000e+000 1.017671e-001 -1.195677e+000
         vertex 0.000000e+000 1.922107e-001 -2.993836e+000
         vertex 0.000000e+000 -1.017671e-001 -1.195677e+000
      endloop
   endfacet
   facet normal -1.000000e+000 0.000000e+000 0.000000e+000
      outer loop
         vertex 0.000000e+000 -1.017671e-001 -1.195677e+000
         vertex 0.000000e+000 1.922107e-001 -2.993836e+000
         vertex 0.000000e+000 -1.922107e-001 -2.993836e+000
      endloop
   endfacet
   facet normal -1.000000e+000 0.000000e+000 0.000000e+000
      outer loop
         vertex 0.000000e+000 -1.017671e-001 -1.195677e+000
         vertex 0.000000e+000 -1.922107e-001 -2.993836e+000
         vertex 0.000000e+000 -3.023737e-001 -1.161280e+000
      endloop
   endfacet
   facet normal -1.000000e+000 0.000000e+000 0.000000e+000
      outer loop
         vertex 0.000000e+000 -3.023737e-001 -1.161280e+000
         vertex 0.000000e+000 -1.922107e-001 -2.993836e+000
         vertex 0.000000e+000 -5.734759e-001 -2.944677e+000
      endloop
   endfacet
   facet normal -1.000000e+000 0.000000e+000 0.000000e+000
      outer loop
         vertex 0.000000e+000 -3.023737e-001 -1.161280e+000
         vertex 0.000000e+000 -5.734759e-001 -2.944677e+000
         vertex 0.000000e+000 -9.453247e-001 -2.847167e+000
      endloop
   endfacet
   facet normal -1.000000e+000 0.000000e+000 0.000000e+000
      outer loop
         vertex 0.000000e+000 9.647966e-001 -7.135598e-001
         vertex 0.000000e+000 2.220834e+000 -2.016903e+000
         vertex 0.000000e+000 8.303266e-001 -8.663473e-001
      endloop
   endfacet
   facet normal -1.000000e+000 0.000000e+000 0.000000e+000
      outer loop
         vertex 0.000000e+000 8.303266e-001 -8.663473e-001
         vertex 0.000000e+000 2.220834e+000 -2.016903e+000
         vertex 0.000000e+000 1.944685e+000 -2.284338e+000
      endloop
   endfacet
   facet normal -1.000000e+000 0.000000e+000 0.000000e+000
      outer loop
         vertex 0.000000e+000 8.303266e-001 -8.663473e-001
         vertex 0.000000e+000 1.944685e+000 -2.284338e+000
         vertex 0.000000e+000 6.719697e-001 -9.942116e-001
      endloop
   endfacet
   facet normal -1.000000e+000 0.000000e+000 0.000000e+000
      outer loop
         vertex 0.000000e+000 6.719697e-001 -9.942116e-001
         vertex 0.000000e+000 1.944685e+000 -2.284338e+000
         vertex 0.000000e+000 1.636605e+000 -2.514264e+000
      endloop
   endfacet
   facet normal -1.000000e+000 0.000000e+000 0.000000e+000
      outer loop
         vertex 0.000000e+000 6.719697e-001 -9.942116e-001
         vertex 0.000000e+000 1.636605e+000 -2.514264e+000
         vertex 0.000000e+000 4.942815e-001 -1.093474e+000
      endloop
   endfacet
   facet normal -1.000000e+000 0.000000e+000 0.000000e+000
      outer loop
         vertex 0.000000e+000 4.942815e-001 -1.093474e+000
         vertex 0.000000e+000 1.636605e+000 -2.514264e+000
         vertex 0.000000e+000 1.301651e+000 -2.702907e+000
      endloop
   endfacet
   facet normal -1.000000e+000 0.000000e+000 0.000000e+000
      outer loop
         vertex 0.000000e+000 4.942815e-001 -1.093474e+000
         vertex 0.000000e+000 1.301651e+000 -2.702907e+000
         vertex 0.000000e+000 9.453247e-001 -2.847167e+000
      endloop
   endfacet
   facet normal -1.000000e+000 0.000000e+000 0.000000e+000
      outer loop
         vertex 0.000000e+000 1.190281e+000 -1.524214e-001
         vertex 0.000000e+000 2.924784e+000 -6.675628e-001
         vertex 0.000000e+000 1.147400e+000 -3.513874e-001
      endloop
   endfacet
   facet normal -1.000000e+000 0.000000e+000 0.000000e+000
      outer loop
         vertex 0.000000e+000 1.147400e+000 -3.513874e-001
         vertex 0.000000e+000 2.924784e+000 -6.675628e-001
         vertex 0.000000e+000 2.815405e+000 -1.036095e+000
      endloop
   endfacet
   facet normal -1.000000e+000 0.000000e+000 0.000000e+000
      outer loop
         vertex 0.000000e+000 1.147400e+000 -3.513874e-001
         vertex 0.000000e+000 2.815405e+000 -1.036095e+000
         vertex 0.000000e+000 1.071511e+000 -5.402445e-001
      endloop
   endfacet
   facet normal -1.000000e+000 0.000000e+000 0.000000e+000
      outer loop
         vertex 0.000000e+000 1.071511e+000 -5.402445e-001
         vertex 0.000000e+000 2.815405e+000 -1.036095e+000
         vertex 0.000000e+000 2.659798e+000 -1.387615e+000
      endloop
   endfacet
   facet normal -1.000000e+000 0.000000e+000 0.000000e+000
      outer loop
         vertex 0.000000e+000 1.071511e+000 -5.402445e-001
         vertex 0.000000e+000 2.659798e+000 -1.387615e+000
         vertex 0.000000e+000 9.647966e-001 -7.135598e-001
      endloop
   endfacet
   facet normal -1.000000e+000 0.000000e+000 0.000000e+000
      outer loop
         vertex 0.000000e+000 9.647966e-001 -7.135598e-001
         vertex 0.000000e+000 2.659798e+000 -1.387615e+000
         vertex 0.000000e+000 2.460517e+000 -1.716350e+000
      endloop
   endfacet
   facet normal -1.000000e+000 0.000000e+000 0.000000e+000
      outer loop
         vertex 0.000000e+000 9.647966e-001 -7.135598e-001
         vertex 0.000000e+000 2.460517e+000 -1.716350e+000
         vertex 0.000000e+000 2.220834e+000 -2.016903e+000
      endloop
   endfacet
   facet normal -1.000000e+000 0.000000e+000 0.000000e+000
      outer loop
         vertex 0.000000e+000 1.113467e+000 4.474278e-001
         vertex 0.000000e+000 2.876004e+000 8.535827e-001
         vertex 0.000000e+000 1.173066e+000 2.528151e-001
      endloop
   endfacet
   facet normal -1.000000e+000 0.000000e+000 0.000000e+000
      outer loop
         vertex 0.000000e+000 1.173066e+000 2.528151e-001
         vertex 0.000000e+000 2.876004e+000 8.535827e-001
         vertex 0.000000e+000 2.961545e+000 4.787997e-001
      endloop
   endfacet
   facet normal -1.000000e+000 0.000000e+000 0.000000e+000
      outer loop
         vertex 0.000000e+000 1.173066e+000 2.528151e-001
         vertex 0.000000e+000 2.961545e+000 4.787997e-001
         vertex 0.000000e+000 1.198919e+000 5.092945e-002
      endloop
   endfacet
   facet normal -1.000000e+000 0.000000e+000 0.000000e+000
      outer loop
         vertex 0.000000e+000 1.198919e+000 5.092945e-002
         vertex 0.000000e+000 2.961545e+000 4.787997e-001
         vertex 0.000000e+000 2.998459e+000 9.615473e-002
      endloop
   endfacet
   facet normal -1.000000e+000 0.000000e+000 0.000000e+000
      outer loop
         vertex 0.000000e+000 1.198919e+000 5.092945e-002
         vertex 0.000000e+000 2.998459e+000 9.615473e-002
         vertex 0.000000e+000 1.190281e+000 -1.524214e-001
      endloop
   endfacet
   facet normal -1.000000e+000 0.000000e+000 0.000000e+000
      outer loop
         vertex 0.000000e+000 1.190281e+000 -1.524214e-001
         vertex 0.000000e+000 2.998459e+000 9.615473e-002
         vertex 0.000000e+000 2.986137e+000 -2.880691e-001
      endloop
   endfacet
   facet normal -1.000000e+000 0.000000e+000 0.000000e+000
      outer loop
         vertex 0.000000e+000 1.190281e+000 -1.524214e-001
         vertex 0.000000e+000 2.986137e+000 -2.880691e-001
         vertex 0.000000e+000 2.924784e+000 -6.675628e-001
      endloop
   endfacet
   facet normal -1.000000e+000 0.000000e+000 0.000000e+000
      outer loop
         vertex 0.000000e+000 7.538640e-001 9.336429e-001
         vertex 0.000000e+000 2.087048e+000 2.155048e+000
         vertex 0.000000e+000 9.008067e-001 7.928097e-001
      endloop
   endfacet
   facet normal -1.000000e+000 0.000000e+000 0.000000e+000
      outer loop
         vertex 0.000000e+000 9.008067e-001 7.928097e-001
         vertex 0.000000e+000 2.087048e+000 2.155048e+000
         vertex 0.000000e+000 2.345495e+000 1.870469e+000
      endloop
   endfacet
   facet normal -1.000000e+000 0.000000e+000 0.000000e+000
      outer loop
         vertex 0.000000e+000 9.008067e-001 7.928097e-001
         vertex 0.000000e+000 2.345495e+000 1.870469e+000
         vertex 0.000000e+000 1.021835e+000 6.291687e-001
      endloop
   endfacet
   facet normal -1.000000e+000 0.000000e+000 0.000000e+000
      outer loop
         vertex 0.000000e+000 1.021835e+000 6.291687e-001
         vertex 0.000000e+000 2.345495e+000 1.870469e+000
         vertex 0.000000e+000 2.565428e+000 1.555178e+000
      endloop
   endfacet
   facet normal -1.000000e+000 0.000000e+000 0.000000e+000
      outer loop
         vertex 0.000000e+000 1.021835e+000 6.291687e-001
         vertex 0.000000e+000 2.565428e+000 1.555178e+000
         vertex 0.000000e+000 1.113467e+000 4.474278e-001
      endloop
   endfacet
   facet normal -1.000000e+000 0.000000e+000 0.000000e+000
      outer loop
         vertex 0.000000e+000 1.113467e+000 4.474278e-001
         vertex 0.000000e+000 2.565428e+000 1.555178e+000
         vertex 0.000000e+000 2.743238e+000 1.214350e+000
      endloop
   endfacet
   facet normal -1.000000e+000 0.000000e+000 0.000000e+000
      outer loop
         vertex 0.000000e+000 1.113467e+000 4.474278e-001
         vertex 0.000000e+000 2.743238e+000 1.214350e+000
         vertex 0.000000e+000 2.876004e+000 8.535827e-001
      endloop
   endfacet
   facet normal -1.000000e+000 0.000000e+000 0.000000e+000
      outer loop
         vertex 0.000000e+000 -6.505213e-016 3.000000e+000
         vertex 0.000000e+000 3.836315e-001 2.975370e+000
         vertex 0.000000e+000 2.028010e-001 1.182739e+000
      endloop
   endfacet
   facet normal -1.000000e+000 0.000000e+000 0.000000e+000
      outer loop
         vertex 0.000000e+000 2.028010e-001 1.182739e+000
         vertex 0.000000e+000 3.836315e-001 2.975370e+000
         vertex 0.000000e+000 7.609638e-001 2.901885e+000
      endloop
   endfacet
   facet normal -1.000000e+000 0.000000e+000 0.000000e+000
      outer loop
         vertex 0.000000e+000 2.028010e-001 1.182739e+000
         vertex 0.000000e+000 7.609638e-001 2.901885e+000
         vertex 0.000000e+000 3.997677e-001 1.131453e+000
      endloop
   endfacet
   facet normal -1.000000e+000 0.000000e+000 0.000000e+000
      outer loop
         vertex 0.000000e+000 3.997677e-001 1.131453e+000
         vertex 0.000000e+000 7.609638e-001 2.901885e+000
         vertex 0.000000e+000 1.125801e+000 2.780750e+000
      endloop
   endfacet
   facet normal -1.000000e+000 0.000000e+000 0.000000e+000
      outer loop
         vertex 0.000000e+000 3.997677e-001 1.131453e+000
         vertex 0.000000e+000 1.125801e+000 2.780750e+000
         vertex 0.000000e+000 5.852339e-001 1.047617e+000
      endloop
   endfacet
   facet normal -1.000000e+000 0.000000e+000 0.000000e+000
      outer loop
         vertex 0.000000e+000 5.852339e-001 1.047617e+000
         vertex 0.000000e+000 1.125801e+000 2.780750e+000
         vertex 0.000000e+000 1.472153e+000 2.613956e+000
      endloop
   endfacet
   facet normal -1.000000e+000 0.000000e+000 0.000000e+000
      outer loop
         vertex 0.000000e+000 5.852339e-001 1.047617e+000
         vertex 0.000000e+000 1.472153e+000 2.613956e+000
         vertex 0.000000e+000 7.538640e-001 9.336429e-001
      endloop
   endfacet
   facet normal -1.000000e+000 0.000000e+000 0.000000e+000
      outer loop
         vertex 0.000000e+000 7.538640e-001 9.336429e-001
         vertex 0.000000e+000 1.472153e+000 2.613956e+000
         vertex 0.000000e+000 1.794332e+000 2.404241e+000
      endloop
   endfacet
   facet normal -1.000000e+000 0.000000e+000 0.000000e+000
      outer loop
         vertex 0.000000e+000 7.538640e-001 9.336429e-001
         vertex 0.000000e+000 1.794332e+000 2.404241e+000
         vertex 0.000000e+000 2.087048e+000 2.155048e+000
      endloop
   endfacet
   facet normal 0.000000e+000 4.270370e-002 9.990878e-001
      outer loop
         vertex 1.000000e+001 3.836315e-001 2.975370e+000
         vertex 0.000000e+000 0.000000e+000 3.000000e+000
         vertex 1.000000e+001 0.000000e+000 3.000000e+000
      endloop
   endfacet
   facet normal 0.000000e+000 -4.270370e-002 9.990878e-001
      outer loop
         vertex 1.000000e+001 0.000000e+000 3.000000e+000
         vertex 0.000000e+000 0.000000e+000 3.000000e+000
         vertex 0.000000e+000 -3.836315e-001 2.975370e+000
      endloop
   endfacet
   facet normal 0.000000e+000 -8.540740e-002 9.963461e-001
      outer loop
         vertex 1.000000e+001 0.000000e+000 3.000000e+000
         vertex 0.000000e+000 -3.836315e-001 2.975370e+000
         vertex 1.000000e+001 -3.836315e-001 2.975370e+000
      endloop
   endfacet
   facet normal 0.000000e+000 -1.701136e-001 9.854244e-001
      outer loop
         vertex 1.000000e+001 -3.836315e-001 2.975370e+000
         vertex 0.000000e+000 -3.836315e-001 2.975370e+000
         vertex 0.000000e+000 -7.609638e-001 2.901885e+000
      endloop
   endfacet
   facet normal 0.000000e+000 -2.121161e-001 9.772444e-001
      outer loop
         vertex 1.000000e+001 -3.836315e-001 2.975370e+000
         vertex 0.000000e+000 -7.609638e-001 2.901885e+000
         vertex 1.000000e+001 -7.609638e-001 2.901885e+000
      endloop
   endfacet
   facet normal 0.000000e+000 -2.947302e-001 9.555805e-001
      outer loop
         vertex 1.000000e+001 -7.609638e-001 2.901885e+000
         vertex 0.000000e+000 -7.609638e-001 2.901885e+000
         vertex 0.000000e+000 -1.125801e+000 2.780750e+000
      endloop
   endfacet
   facet normal 0.000000e+000 -3.353419e-001 9.420965e-001
      outer loop
         vertex 1.000000e+001 -7.609638e-001 2.901885e+000
         vertex 0.000000e+000 -1.125801e+000 2.780750e+000
         vertex 1.000000e+001 -1.125801e+000 2.780750e+000
      endloop
   endfacet
   facet normal 0.000000e+000 -4.145075e-001 9.100459e-001
      outer loop
         vertex 1.000000e+001 -1.125801e+000 2.780750e+000
         vertex 0.000000e+000 -1.125801e+000 2.780750e+000
         vertex 0.000000e+000 -1.472153e+000 2.613956e+000
      endloop
   endfacet
   facet normal 0.000000e+000 -4.530614e-001 8.914793e-001
      outer loop
         vertex 1.000000e+001 -1.125801e+000 2.780750e+000
         vertex 0.000000e+000 -1.472153e+000 2.613956e+000
         vertex 1.000000e+001 -1.472153e+000 2.613956e+000
      endloop
   endfacet
   facet normal 0.000000e+000 -5.274785e-001 8.495684e-001
      outer loop
         vertex 1.000000e+001 -1.472153e+000 2.613956e+000
         vertex 0.000000e+000 -1.472153e+000 2.613956e+000
         vertex 0.000000e+000 -1.794332e+000 2.404241e+000
      endloop
   endfacet
   facet normal 0.000000e+000 -5.633416e-001 8.262241e-001
      outer loop
         vertex 1.000000e+001 -1.472153e+000 2.613956e+000
         vertex 0.000000e+000 -1.794332e+000 2.404241e+000
         vertex 1.000000e+001 -1.794332e+000 2.404241e+000
      endloop
   endfacet
   facet normal 0.000000e+000 -6.317883e-001 7.751410e-001
      outer loop
         vertex 1.000000e+001 -1.794332e+000 2.404241e+000
         vertex 0.000000e+000 -1.794332e+000 2.404241e+000
         vertex 0.000000e+000 -2.087048e+000 2.155048e+000
      endloop
   endfacet
   facet normal 0.000000e+000 -6.643717e-001 7.474023e-001
      outer loop
         vertex 1.000000e+001 -1.794332e+000 2.404241e+000
         vertex 0.000000e+000 -2.087048e+000 2.155048e+000
         vertex 1.000000e+001 -2.087048e+000 2.155048e+000
      endloop
   endfacet
   facet normal 0.000000e+000 -7.257241e-001 6.879858e-001
      outer loop
         vertex 1.000000e+001 -2.087048e+000 2.155048e+000
         vertex 0.000000e+000 -2.087048e+000 2.155048e+000
         vertex 0.000000e+000 -2.345495e+000 1.870469e+000
      endloop
   endfacet
   facet normal 0.000000e+000 -7.544929e-001 6.563081e-001
      outer loop
         vertex 1.000000e+001 -2.087048e+000 2.155048e+000
         vertex 0.000000e+000 -2.345495e+000 1.870469e+000
         vertex 1.000000e+001 -2.345495e+000 1.870469e+000
      endloop
   endfacet
   facet normal 0.000000e+000 -8.077436e-001 5.895339e-001
      outer loop
         vertex 1.000000e+001 -2.345495e+000 1.870469e+000
         vertex 0.000000e+000 -2.345495e+000 1.870469e+000
         vertex 0.000000e+000 -2.565428e+000 1.555178e+000
      endloop
   endfacet
   facet normal 0.000000e+000 -8.322254e-001 5.544375e-001
      outer loop
         vertex 1.000000e+001 -2.345495e+000 1.870469e+000
         vertex 0.000000e+000 -2.565428e+000 1.555178e+000
         vertex 1.000000e+001 -2.565428e+000 1.555178e+000
      endloop
   endfacet
   facet normal 0.000000e+000 -8.765000e-001 4.814019e-001
      outer loop
         vertex 1.000000e+001 -2.565428e+000 1.555178e+000
         vertex 0.000000e+000 -2.565428e+000 1.555178e+000
         vertex 0.000000e+000 -2.743238e+000 1.214350e+000
      endloop
   endfacet
   facet normal 0.000000e+000 -8.962927e-001 4.434629e-001
      outer loop
         vertex 1.000000e+001 -2.565428e+000 1.555178e+000
         vertex 0.000000e+000 -2.743238e+000 1.214350e+000
         vertex 1.000000e+001 -2.743238e+000 1.214350e+000
      endloop
   endfacet
   facet normal 0.000000e+000 -9.308642e-001 3.653653e-001
      outer loop
         vertex 1.000000e+001 -2.743238e+000 1.214350e+000
         vertex 0.000000e+000 -2.743238e+000 1.214350e+000
         vertex 0.000000e+000 -2.876004e+000 8.535827e-001
      endloop
   endfacet
   facet normal 0.000000e+000 -9.456429e-001 3.252067e-001
      outer loop
         vertex 1.000000e+001 -2.743238e+000 1.214350e+000
         vertex 0.000000e+000 -2.876004e+000 8.535827e-001
         vertex 1.000000e+001 -2.876004e+000 8.535827e-001
      endloop
   endfacet
   facet normal 0.000000e+000 -9.699437e-001 2.433294e-001
      outer loop
         vertex 1.000000e+001 -2.876004e+000 8.535827e-001
         vertex 0.000000e+000 -2.876004e+000 8.535827e-001
         vertex 0.000000e+000 -2.961545e+000 4.787997e-001
      endloop
   endfacet
   facet normal 0.000000e+000 -9.794657e-001 2.016106e-001
      outer loop
         vertex 1.000000e+001 -2.876004e+000 8.535827e-001
         vertex 0.000000e+000 -2.961545e+000 4.787997e-001
         vertex 1.000000e+001 -2.961545e+000 4.787997e-001
      endloop
   endfacet
   facet normal 0.000000e+000 -9.930968e-001 1.172980e-001
      outer loop
         vertex 1.000000e+001 -2.961545e+000 4.787997e-001
         vertex 0.000000e+000 -2.961545e+000 4.787997e-001
         vertex 0.000000e+000 -2.998459e+000 9.615473e-002
      endloop
   endfacet
   facet normal 0.000000e+000 -9.972057e-001 7.470410e-002
      outer loop
         vertex 1.000000e+001 -2.961545e+000 4.787997e-001
         vertex 0.000000e+000 -2.998459e+000 9.615473e-002
         vertex 1.000000e+001 -2.998459e+000 9.615473e-002
      endloop
   endfacet
   facet normal 0.000000e+000 -9.999432e-001 -1.065942e-002
      outer loop
         vertex 1.000000e+001 -2.998459e+000 9.615473e-002
         vertex 0.000000e+000 -2.998459e+000 9.615473e-002
         vertex 0.000000e+000 -2.986137e+000 -2.880691e-001
      endloop
   endfacet
   facet normal 0.000000e+000 -9.985716e-001 -5.342906e-002
      outer loop
         vertex 1.000000e+001 -2.998459e+000 9.615473e-002
         vertex 0.000000e+000 -2.986137e+000 -2.880691e-001
         vertex 1.000000e+001 -2.986137e+000 -2.880691e-001
      endloop
   endfacet
   facet normal 0.000000e+000 -9.903706e-001 -1.384418e-001
      outer loop
         vertex 1.000000e+001 -2.986137e+000 -2.880691e-001
         vertex 0.000000e+000 -2.986137e+000 -2.880691e-001
         vertex 0.000000e+000 -2.924784e+000 -6.675628e-001
      endloop
   endfacet
   facet normal 0.000000e+000 -9.835410e-001 -1.806849e-001
      outer loop
         vertex 1.000000e+001 -2.986137e+000 -2.880691e-001
         vertex 0.000000e+000 -2.924784e+000 -6.675628e-001
         vertex 1.000000e+001 -2.924784e+000 -6.675628e-001
      endloop
   endfacet
   facet normal 0.000000e+000 -9.645361e-001 -2.639510e-001
      outer loop
         vertex 1.000000e+001 -2.924784e+000 -6.675628e-001
         vertex 0.000000e+000 -2.924784e+000 -6.675628e-001
         vertex 0.000000e+000 -2.815405e+000 -1.036095e+000
      endloop
   endfacet
   facet normal 0.000000e+000 -9.523607e-001 -3.049739e-001
      outer loop
         vertex 1.000000e+001 -2.924784e+000 -6.675628e-001
         vertex 0.000000e+000 -2.815405e+000 -1.036095e+000
         vertex 1.000000e+001 -2.815405e+000 -1.036095e+000
      endloop
   endfacet
   facet normal 0.000000e+000 -9.228640e-001 -3.851261e-001
      outer loop
         vertex 1.000000e+001 -2.815405e+000 -1.036095e+000
         vertex 0.000000e+000 -2.815405e+000 -1.036095e+000
         vertex 0.000000e+000 -2.659798e+000 -1.387615e+000
      endloop
   endfacet
   facet normal 0.000000e+000 -9.055426e-001 -4.242553e-001
      outer loop
         vertex 1.000000e+001 -2.815405e+000 -1.036095e+000
         vertex 0.000000e+000 -2.659798e+000 -1.387615e+000
         vertex 1.000000e+001 -2.659798e+000 -1.387615e+000
      endloop
   endfacet
   facet normal 0.000000e+000 -8.660384e-001 -4.999774e-001
      outer loop
         vertex 1.000000e+001 -2.659798e+000 -1.387615e+000
         vertex 0.000000e+000 -2.659798e+000 -1.387615e+000
         vertex 0.000000e+000 -2.460517e+000 -1.716350e+000
      endloop
   endfacet
   facet normal 0.000000e+000 -8.438556e-001 -5.365704e-001
      outer loop
         vertex 1.000000e+001 -2.659798e+000 -1.387615e+000
         vertex 0.000000e+000 -2.460517e+000 -1.716350e+000
         vertex 1.000000e+001 -2.460517e+000 -1.716350e+000
      endloop
   endfacet
   facet normal 0.000000e+000 -7.949925e-001 -6.066192e-001
      outer loop
         vertex 1.000000e+001 -2.460517e+000 -1.716350e+000
         vertex 0.000000e+000 -2.460517e+000 -1.716350e+000
         vertex 0.000000e+000 -2.220834e+000 -2.016903e+000
      endloop
   endfacet
   facet normal 0.000000e+000 -7.683124e-001 -6.400750e-001
      outer loop
         vertex 1.000000e+001 -2.460517e+000 -1.716350e+000
         vertex 0.000000e+000 -2.220834e+000 -2.016903e+000
         vertex 1.000000e+001 -2.220834e+000 -2.016903e+000
      endloop
   endfacet
   facet normal 0.000000e+000 -7.108930e-001 -7.033002e-001
      outer loop
         vertex 1.000000e+001 -2.220834e+000 -2.016903e+000
         vertex 0.000000e+000 -2.220834e+000 -2.016903e+000
         vertex 0.000000e+000 -1.944685e+000 -2.284338e+000
      endloop
   endfacet
   facet normal 0.000000e+000 -6.801536e-001 -7.330695e-001
      outer loop
         vertex 1.000000e+001 -2.220834e+000 -2.016903e+000
         vertex 0.000000e+000 -1.944685e+000 -2.284338e+000
         vertex 1.000000e+001 -1.944685e+000 -2.284338e+000
      endloop
   endfacet
   facet normal 0.000000e+000 -6.151205e-001 -7.884331e-001
      outer loop
         vertex 1.000000e+001 -1.944685e+000 -2.284338e+000
         vertex 0.000000e+000 -1.944685e+000 -2.284338e+000
         vertex 0.000000e+000 -1.636605e+000 -2.514264e+000
      endloop
   endfacet
   facet normal 0.000000e+000 -5.808267e-001 -8.140272e-001
      outer loop
         vertex 1.000000e+001 -1.944685e+000 -2.284338e+000
         vertex 0.000000e+000 -1.636605e+000 -2.514264e+000
         vertex 1.000000e+001 -1.636605e+000 -2.514264e+000
      endloop
   endfacet
   facet normal 0.000000e+000 -5.092478e-001 -8.606199e-001
      outer loop
         vertex 1.000000e+001 -1.636605e+000 -2.514264e+000
         vertex 0.000000e+000 -1.636605e+000 -2.514264e+000
         vertex 0.000000e+000 -1.301651e+000 -2.702907e+000
      endloop
   endfacet
   facet normal 0.000000e+000 -4.719626e-001 -8.816185e-001
      outer loop
         vertex 1.000000e+001 -1.636605e+000 -2.514264e+000
         vertex 0.000000e+000 -1.301651e+000 -2.702907e+000
         vertex 1.000000e+001 -1.301651e+000 -2.702907e+000
      endloop
   endfacet
   facet normal 0.000000e+000 -3.950132e-001 -9.186754e-001
      outer loop
         vertex 1.000000e+001 -1.301651e+000 -2.702907e+000
         vertex 0.000000e+000 -1.301651e+000 -2.702907e+000
         vertex 0.000000e+000 -9.453247e-001 -2.847167e+000
      endloop
   endfacet
   facet normal 0.000000e+000 -3.553490e-001 -9.347337e-001
      outer loop
         vertex 1.000000e+001 -1.301651e+000 -2.702907e+000
         vertex 0.000000e+000 -9.453247e-001 -2.847167e+000
         vertex 1.000000e+001 -9.453247e-001 -2.847167e+000
      endloop
   endfacet
   facet normal 0.000000e+000 -2.742926e-001 -9.616463e-001
      outer loop
         vertex 1.000000e+001 -9.453247e-001 -2.847167e+000
         vertex 0.000000e+000 -9.453247e-001 -2.847167e+000
         vertex 0.000000e+000 -5.734759e-001 -2.944677e+000
      endloop
   endfacet
   facet normal 0.000000e+000 -2.329004e-001 -9.725006e-001
      outer loop
         vertex 1.000000e+001 -9.453247e-001 -2.847167e+000
         vertex 0.000000e+000 -5.734759e-001 -2.944677e+000
         vertex 1.000000e+001 -5.734759e-001 -2.944677e+000
      endloop
   endfacet
   facet normal 0.000000e+000 -1.490680e-001 -9.888269e-001
      outer loop
         vertex 1.000000e+001 -5.734759e-001 -2.944677e+000
         vertex 0.000000e+000 -5.734759e-001 -2.944677e+000
         vertex 0.000000e+000 -1.922107e-001 -2.993836e+000
      endloop
   endfacet
   facet normal 0.000000e+000 -1.066277e-001 -9.942990e-001
      outer loop
         vertex 1.000000e+001 -5.734759e-001 -2.944677e+000
         vertex 0.000000e+000 -1.922107e-001 -2.993836e+000
         vertex 1.000000e+001 -1.922107e-001 -2.993836e+000
      endloop
   endfacet
   facet normal 0.000000e+000 -2.139581e-002 -9.997711e-001
      outer loop
         vertex 1.000000e+001 -1.922107e-001 -2.993836e+000
         vertex 0.000000e+000 -1.922107e-001 -2.993836e+000
         vertex 0.000000e+000 1.922107e-001 -2.993836e+000
      endloop
   endfacet
   facet normal 0.000000e+000 2.139581e-002 -9.997711e-001
      outer loop
         vertex 1.000000e+001 -1.922107e-001 -2.993836e+000
         vertex 0.000000e+000 1.922107e-001 -2.993836e+000
         vertex 1.000000e+001 1.922107e-001 -2.993836e+000
      endloop
   endfacet
   facet normal 0.000000e+000 1.066277e-001 -9.942990e-001
      outer loop
         vertex 1.000000e+001 1.922107e-001 -2.993836e+000
         vertex 0.000000e+000 1.922107e-001 -2.993836e+000
         vertex 0.000000e+000 5.734759e-001 -2.944677e+000
      endloop
   endfacet
   facet normal 0.000000e+000 1.490680e-001 -9.888269e-001
      outer loop
         vertex 1.000000e+001 1.922107e-001 -2.993836e+000
         vertex 0.000000e+000 5.734759e-001 -2.944677e+000
         vertex 1.000000e+001 5.734759e-001 -2.944677e+000
      endloop
   endfacet
   facet normal 0.000000e+000 2.329005e-001 -9.725005e-001
      outer loop
         vertex 1.000000e+001 5.734759e-001 -2.944677e+000
         vertex 0.000000e+000 5.734759e-001 -2.944677e+000
         vertex 0.000000e+000 9.453247e-001 -2.847167e+000
      endloop
   endfacet
   facet normal 0.000000e+000 2.742926e-001 -9.616463e-001
      outer loop
         vertex 1.000000e+001 5.734759e-001 -2.944677e+000
         vertex 0.000000e+000 9.453247e-001 -2.847167e+000
         vertex 1.000000e+001 9.453247e-001 -2.847167e+000
      endloop
   endfacet
   facet normal 0.000000e+000 3.553490e-001 -9.347337e-001
      outer loop
         vertex 1.000000e+001 9.453247e-001 -2.847167e+000
         vertex 0.000000e+000 9.453247e-001 -2.847167e+000
         vertex 0.000000e+000 1.301651e+000 -2.702907e+000
      endloop
   endfacet
   facet normal 0.000000e+000 3.950132e-001 -9.186754e-001
      outer loop
         vertex 1.000000e+001 9.453247e-001 -2.847167e+000
         vertex 0.000000e+000 1.301651e+000 -2.702907e+000
         vertex 1.000000e+001 1.301651e+000 -2.702907e+000
      endloop
   endfacet
   facet normal 0.000000e+000 4.719626e-001 -8.816185e-001
      outer loop
         vertex 1.000000e+001 1.301651e+000 -2.702907e+000
         vertex 0.000000e+000 1.301651e+000 -2.702907e+000
         vertex 0.000000e+000 1.636605e+000 -2.514264e+000
      endloop
   endfacet
   facet normal 0.000000e+000 5.092478e-001 -8.606199e-001
      outer loop
         vertex 1.000000e+001 1.301651e+000 -2.702907e+000
         vertex 0.000000e+000 1.636605e+000 -2.514264e+000
         vertex 1.000000e+001 1.636605e+000 -2.514264e+000
      endloop
   endfacet
   facet normal 0.000000e+000 5.808268e-001 -8.140272e-001
      outer loop
         vertex 1.000000e+001 1.636605e+000 -2.514264e+000
         vertex 0.000000e+000 1.636605e+000 -2.514264e+000
         vertex 0.000000e+000 1.944685e+000 -2.284338e+000
      endloop
   endfacet
   facet normal 0.000000e+000 6.151205e-001 -7.884331e-001
      outer loop
         vertex 1.000000e+001 1.636605e+000 -2.514264e+000
         vertex 0.000000e+000 1.944685e+000 -2.284338e+000
         vertex 1.000000e+001 1.944685e+000 -2.284338e+000
      endloop
   endfacet
   facet normal 0.000000e+000 6.801536e-001 -7.330695e-001
      outer loop
         vertex 1.000000e+001 1.944685e+000 -2.284338e+000
         vertex 0.000000e+000 1.944685e+000 -2.284338e+000
         vertex 0.000000e+000 2.220834e+000 -2.016903e+000
      endloop
   endfacet
   facet normal 0.000000e+000 7.108930e-001 -7.033002e-001
      outer loop
         vertex 1.000000e+001 1.944685e+000 -2.284338e+000
         vertex 0.000000e+000 2.220834e+000 -2.016903e+000
         vertex 1.000000e+001 2.220834e+000 -2.016903e+000
      endloop
   endfacet
   facet normal 0.000000e+000 7.683124e-001 -6.400750e-001
      outer loop
         vertex 1.000000e+001 2.220834e+000 -2.016903e+000
         vertex 0.000000e+000 2.220834e+000 -2.016903e+000
         vertex 0.000000e+000 2.460517e+000 -1.716350e+000
      endloop
   endfacet
   facet normal 0.000000e+000 7.949926e-001 -6.066191e-001
      outer loop
         vertex 1.000000e+001 2.220834e+000 -2.016903e+000
         vertex 0.000000e+000 2.460517e+000 -1.716350e+000
         vertex 1.000000e+001 2.460517e+000 -1.716350e+000
      endloop
   endfacet
   facet normal 0.000000e+000 8.438555e-001 -5.365704e-001
      outer loop
         vertex 1.000000e+001 2.460517e+000 -1.716350e+000
         vertex 0.000000e+000 2.460517e+000 -1.716350e+000
         vertex 0.000000e+000 2.659798e+000 -1.387615e+000
      endloop
   endfacet
   facet normal 0.000000e+000 8.660384e-001 -4.999774e-001
      outer loop
         vertex 1.000000e+001 2.460517e+000 -1.716350e+000
         vertex 0.000000e+000 2.659798e+000 -1.387615e+000
         vertex 1.000000e+001 2.659798e+000 -1.387615e+000
      endloop
   endfacet
   facet normal 0.000000e+000 9.055426e-001 -4.242553e-001
      outer loop
         vertex 1.000000e+001 2.659798e+000 -1.387615e+000
         vertex 0.000000e+000 2.659798e+000 -1.387615e+000
         vertex 0.000000e+000 2.815405e+000 -1.036095e+000
      endloop
   endfacet
   facet normal 0.000000e+000 9.228640e-001 -3.851260e-001
      outer loop
         vertex 1.000000e+001 2.659798e+000 -1.387615e+000
         vertex 0.000000e+000 2.815405e+000 -1.036095e+000
         vertex 1.000000e+001 2.815405e+000 -1.036095e+000
      endloop
   endfacet
   facet normal 0.000000e+000 9.523607e-001 -3.049739e-001
      outer loop
         vertex 1.000000e+001 2.815405e+000 -1.036095e+000
         vertex 0.000000e+000 2.815405e+000 -1.036095e+000
         vertex 0.000000e+000 2.924784e+000 -6.675628e-001
      endloop
   endfacet
   facet normal 0.000000e+000 9.645361e-001 -2.639510e-001
      outer loop
         vertex 1.000000e+001 2.815405e+000 -1.036095e+000
         vertex 0.000000e+000 2.924784e+000 -6.675628e-001
         vertex 1.000000e+001 2.924784e+000 -6.675628e-001
      endloop
   endfacet
   facet normal 0.000000e+000 9.835410e-001 -1.806849e-001
      outer loop
         vertex 1.000000e+001 2.924784e+000 -6.675628e-001
         vertex 0.000000e+000 2.924784e+000 -6.675628e-001
         vertex 0.000000e+000 2.986137e+000 -2.880691e-001
      endloop
   endfacet
   facet normal 0.000000e+000 9.903706e-001 -1.384418e-001
      outer loop
         vertex 1.000000e+001 2.924784e+000 -6.675628e-001
         vertex 0.000000e+000 2.986137e+000 -2.880691e-001
         vertex 1.000000e+001 2.986137e+000 -2.880691e-001
      endloop
   endfacet
   facet normal 0.000000e+000 9.985716e-001 -5.342906e-002
      outer loop
         vertex 1.000000e+001 2.986137e+000 -2.880691e-001
         vertex 0.000000e+000 2.986137e+000 -2.880691e-001
         vertex 0.000000e+000 2.998459e+000 9.615473e-002
      endloop
   endfacet
   facet normal 0.000000e+000 9.999432e-001 -1.065942e-002
      outer loop
         vertex 1.000000e+001 2.986137e+000 -2.880691e-001
         vertex 0.000000e+000 2.998459e+000 9.615473e-002
         vertex 1.000000e+001 2.998459e+000 9.615473e-002
      endloop
   endfacet
   facet normal 0.000000e+000 9.972057e-001 7.470410e-002
      outer loop
         vertex 1.000000e+001 2.998459e+000 9.615473e-002
         vertex 0.000000e+000 2.998459e+000 9.615473e-002
         vertex 0.000000e+000 2.961545e+000 4.787997e-001
      endloop
   endfacet
   facet normal 0.000000e+000 9.930968e-001 1.172980e-001
      outer loop
         vertex 1.000000e+001 2.998459e+000 9.615473e-002
         vertex 0.000000e+000 2.961545e+000 4.787997e-001
         vertex 1.000000e+001 2.961545e+000 4.787997e-001
      endloop
   endfacet
   facet normal 0.000000e+000 9.794657e-001 2.016106e-001
      outer loop
         vertex 1.000000e+001 2.961545e+000 4.787997e-001
         vertex 0.000000e+000 2.961545e+000 4.787997e-001
         vertex 0.000000e+000 2.876004e+000 8.535827e-001
      endloop
   endfacet
   facet normal 0.000000e+000 9.699437e-001 2.433294e-001
      outer loop
         vertex 1.000000e+001 2.961545e+000 4.787997e-001
         vertex 0.000000e+000 2.876004e+000 8.535827e-001
         vertex 1.000000e+001 2.876004e+000 8.535827e-001
      endloop
   endfacet
   facet normal 0.000000e+000 9.456429e-001 3.252067e-001
      outer loop
         vertex 1.000000e+001 2.876004e+000 8.535827e-001
         vertex 0.000000e+000 2.876004e+000 8.535827e-001
         vertex 0.000000e+000 2.743238e+000 1.214350e+000
      endloop
   endfacet
   facet normal 0.000000e+000 9.308642e-001 3.653653e-001
      outer loop
         vertex 1.000000e+001 2.876004e+000 8.535827e-001
         vertex 0.000000e+000 2.743238e+000 1.214350e+000
         vertex 1.000000e+001 2.743238e+000 1.214350e+000
      endloop
   endfacet
   facet normal 0.000000e+000 8.962927e-001 4.434629e-001
      outer loop
         vertex 1.000000e+001 2.743238e+000 1.214350e+000
         vertex 0.000000e+000 2.743238e+000 1.214350e+000
         vertex 0.000000e+000 2.565428e+000 1.555178e+000
      endloop
   endfacet
   facet normal 0.000000e+000 8.765000e-001 4.814019e-001
      outer loop
         vertex 1.000000e+001 2.743238e+000 1.214350e+000
         vertex 0.000000e+000 2.565428e+000 1.555178e+000
         vertex 1.000000e+001 2.565428e+000 1.555178e+000
      endloop
   endfacet
   facet normal 0.000000e+000 8.322254e-001 5.544375e-001
      outer loop
         vertex 1.000000e+001 2.565428e+000 1.555178e+000
         vertex 0.000000e+000 2.565428e+000 1.555178e+000
         vertex 0.000000e+000 2.345495e+000 1.870469e+000
      endloop
   endfacet
   facet normal 0.000000e+000 8.077436e-001 5.895339e-001
      outer loop
         vertex 1.000000e+001 2.565428e+000 1.555178e+000
         vertex 0.000000e+000 2.345495e+000 1.870469e+000
         vertex 1.000000e+001 2.345495e+000 1.870469e+000
      endloop
   endfacet
   facet normal 0.000000e+000 7.544929e-001 6.563081e-001
      outer loop
         vertex 1.000000e+001 2.345495e+000 1.870469e+000
         vertex 0.000000e+000 2.345495e+000 1.870469e+000
         vertex 0.000000e+000 2.087048e+000 2.155048e+000
      endloop
   endfacet
   facet normal 0.000000e+000 7.257242e-001 6.879858e-001
      outer loop
         vertex 1.000000e+001 2.345495e+000 1.870469e+000
         vertex 0.000000e+000 2.087048e+000 2.155048e+000
         vertex 1.000000e+001 2.087048e+000 2.155048e+000
      endloop
   endfacet
   facet normal 0.000000e+000 6.643717e-001 7.474023e-001
      outer loop
         vertex 1.000000e+001 2.087048e+000 2.155048e+000
         vertex 0.000000e+000 2.087048e+000 2.155048e+000
         vertex 0.000000e+000 1.794332e+000 2.404241e+000
      endloop
   endfacet
   facet normal 0.000000e+000 6.317883e-001 7.751410e-001
      outer loop
         vertex 1.000000e+001 2.087048e+000 2.155048e+000
         vertex 0.000000e+000 1.794332e+000 2.404241e+000
         vertex 1.000000e+001 1.794332e+000 2.404241e+000
      endloop
   endfacet
   facet normal 0.000000e+000 5.633416e-001 8.262241e-001
      outer loop
         vertex 1.000000e+001 1.794332e+000 2.404241e+000
         vertex 0.000000e+000 1.794332e+000 2.404241e+000
         vertex 0.000000e+000 1.472153e+000 2.613956e+000
      endloop
   endfacet
   facet normal 0.000000e+000 5.274784e-001 8.495684e-001
      outer loop
         vertex 1.000000e+001 1.794332e+000 2.404241e+000
         vertex 0.000000e+000 1.472153e+000 2.613956e+000
         vertex 1.000000e+001 1.472153e+000 2.613956e+000
      endloop
   endfacet
   facet normal 0.000000e+000 4.530614e-001 8.914793e-001
      outer loop
         vertex 1.000000e+001 1.472153e+000 2.613956e+000
         vertex 0.000000e+000 1.472153e+000 2.613956e+000
         vertex 0.000000e+000 1.125801e+000 2.780750e+000
      endloop
   endfacet
   facet normal 0.000000e+000 4.145075e-001 9.100459e-001
      outer loop
         vertex 1.000000e+001 1.472153e+000 2.613956e+000
         vertex 0.000000e+000 1.125801e+000 2.780750e+000
         vertex 1.000000e+001 1.125801e+000 2.780750e+000
      endloop
   endfacet
   facet normal 0.000000e+000 3.353419e-001 9.420965e-001
      outer loop
         vertex 1.000000e+001 1.125801e+000 2.780750e+000
         vertex 0.000000e+000 1.125801e+000 2.780750e+000
         vertex 0.000000e+000 7.609638e-001 2.901885e+000
      endloop
   endfacet
   facet normal 0.000000e+000 2.947302e-001 9.555805e-001
      outer loop
         vertex 1.000000e+001 1.125801e+000 2.780750e+000
         vertex 0.000000e+000 7.609638e-001 2.901885e+000
         vertex 1.000000e+001 7.609638e-001 2.901885e+000
      endloop
   endfacet
   facet normal 0.000000e+000 2.121161e-001 9.772444e-001
      outer loop
         vertex 1.000000e+001 7.609638e-001 2.901885e+000
         vertex 0.000000e+000 7.609638e-001 2.901885e+000
         vertex 0.000000e+000 3.836315e-001 2.975370e+000
      endloop
   endfacet
   facet normal 0.000000e+000 1.701136e-001 9.854244e-001
      outer loop
         vertex 1.000000e+001 7.609638e-001 2.901885e+000
         vertex 0.000000e+000 3.836315e-001 2.975370e+000
         vertex 1.000000e+001 3.836315e-001 2.975370e+000
      endloop
   endfacet
   facet normal 0.000000e+000 8.540740e-002 9.963461e-001
      outer loop
         vertex 1.000000e+001 3.836315e-001 2.975370e+000
         vertex 0.000000e+000 3.836315e-001 2.975370e+000
         vertex 0.000000e+000 0.000000e+000 3.000000e+000
      endloop
   endfacet
endsolid